<svg id="Layer_1" data-name="Layer 1" xmlns="http://www.w3.org/2000/svg" viewBox="0 0 2791.27 1763.5"><defs><style>.cls-1{fill:#e9dac1;}.cls-2{fill:#b1d3e0;}.cls-3,.cls-7{fill:#97b6bf;}.cls-3{opacity:0.36;}.cls-4{fill:#9ec3cc;}.cls-5{fill:#cff4ff;opacity:0.4;}.cls-6{fill:#c2e5ef;}.cls-13,.cls-8{fill:#839661;}.cls-9{fill:#684e2c;}.cls-10{fill:#5d8e24;}.cls-11,.cls-23{fill:#104c2f;}.cls-12{fill:#5b7737;}.cls-13{opacity:0.33;}.cls-14{fill:#e2d9a6;}.cls-15,.cls-20{fill:#d1a073;}.cls-16{fill:#ad825e;}.cls-17{fill:#ffc9ab;}.cls-18{fill:#ffc688;}.cls-19{fill:#f1d0a3;}.cls-20{opacity:0.3;}.cls-21{fill:#6d3f11;}.cls-22{fill:#046036;}.cls-23{opacity:0.44;}.cls-24{fill:#e7553a;}.cls-25{fill:#ffb69c;}.cls-25,.cls-27{opacity:0.31;}.cls-26{fill:#eea336;}.cls-27{fill:#f4d556;}.cls-28{fill:#db7d00;}.cls-29{fill:#c64230;}</style></defs><path class="cls-1" d="M1050.5,93.5c-220.45,50.25-276.22,265.24-440,233-117.68-23.17-142-147.94-254-146-86.9,1.51-175.13,78.42-213,163-90.06,201.12,156.17,330.41,117,637-14.07,110.1-69.94,282.24-119,404-31.29,77.66-74.34,170.9-35,255,23.13,49.44,65,75.09,85,87,222.06,132.29,585-106,600.5-116.5,47.22-31.76,39.25-32.53,75-54,194.88-117,413.36-83.12,485-71,217.71,36.84,204,115.91,514,221,176.24,59.75,292.11,97.36,435,64,15.67-3.66,280.66-68.8,317.5-237.5,34.19-156.58-169.05-238.7-135-402,29.23-140.21,173.84-125.09,271-300,101.76-183.19,77.45-441.6-50-612-27.05-36.16-78.89-104.5-171-144C2393.39,14.42,2251.38,59.88,2096,112c-219.27,73.55-200.34,118.08-320,145C1465.92,326.77,1329.46,29.91,1050.5,93.5Z" transform="translate(-26.43 -18.99)"/><path class="cls-1" d="M2697,1146" transform="translate(-26.43 -18.99)"/><g id="Flower12"><path class="cls-2" d="M2647.6,1561c-2.56,17-21,139.52-21.23,141a248.45,248.45,0,0,1-118.34,1c-2.32-13.93-21.09-126.51-23.68-142Z" transform="translate(-26.43 -18.99)"/><path class="cls-3" d="M2596.38,1707.63a252.26,252.26,0,0,1-27.79,1.95A248.27,248.27,0,0,1,2508,1703q-1.07-6.36-2.12-12.72-1.76-10.49-3.5-21-1.62-9.66-3.23-19.33-1.77-10.67-3.55-21.33l-3.42-20.55q-1.83-11-3.67-22-2.09-12.57-4.19-25.15h21.54c-.5,42.88,13.55,83.18,41.12,112.5A146.56,146.56,0,0,0,2596.38,1707.63Z" transform="translate(-26.43 -18.99)"/><path class="cls-4" d="M2631.88,1665.33q-1.76,11.7-3.52,23.41a353.4,353.4,0,0,1-122.45,1.51q-1.76-10.49-3.5-21a276.76,276.76,0,0,0,129.47-3.94Z" transform="translate(-26.43 -18.99)"/><path class="cls-4" d="M2638,1624.42q-1.78,12-3.61,24a353.83,353.83,0,0,1-135.25,1.56q-1.77-10.67-3.55-21.33a277,277,0,0,0,142.41-4.19Z" transform="translate(-26.43 -18.99)"/><path class="cls-4" d="M2644.11,1584.11q-1.82,12.09-3.64,24.16a353.46,353.46,0,0,1-148.26-.21q-1.83-11-3.67-22a277.35,277.35,0,0,0,155.57-2Z" transform="translate(-26.43 -18.99)"/><path class="cls-5" d="M2647.6,1561q-1.74,11.58-3.49,23.16-1.82,12.09-3.64,24.16-1.2,8.07-2.43,16.15-1.78,12-3.61,24L2632,1664.8a94.88,94.88,0,0,1-59.9-37.29c-17.18-23.74-18.46-49.57-16.7-66.56Z" transform="translate(-26.43 -18.99)"/><ellipse class="cls-6" cx="2539.55" cy="1541.96" rx="81.62" ry="12.53"/><path class="cls-7" d="M2640.29,1559.54c0,1-1.49,1.92-4.22,2.79-10.18,3.25-37.72,5.58-70.09,5.58s-59.9-2.33-70.1-5.58c-2.73-.87-4.22-1.81-4.22-2.79,0-4.62,33.28-8.36,74.32-8.36S2640.29,1554.92,2640.29,1559.54Z" transform="translate(-26.43 -18.99)"/><path class="cls-8" d="M2700.47,1319.67c-2.77,4.69-6.4,11-10.59,18.62-.24.43-.47.87-.72,1.32-4.59,8.42-9.8,18.46-15.27,29.91l-1,2.12q-4.86,10.26-9.88,21.94l-1.11,2.62c-2.92,6.88-5.83,14.1-8.67,21.62q-.36.92-.69,1.83-1.7,4.53-3.37,9.19-2.52,7.07-4.8,14l-.24.72q-4.29,13.1-7.78,25.65c-.26.91-.51,1.82-.76,2.72q-3.14,11.4-5.68,22.25c-.08.3-.14.59-.2.88-2.49,10.61-4.6,20.79-6.37,30.45l-.12.63q-1.41,7.72-2.56,15l-.21,1.32c-.91,5.8-1.7,11.37-2.39,16.67-.06.42-.11.84-.16,1.25-.23,1.77-.45,3.5-.65,5.21l-2.38.25q.29-3,.61-6.14l.09-.83q.86-8.22,2.05-17.25c.07-.48.13-1,.2-1.45.64-4.7,1.36-9.52,2.16-14.49.07-.42.14-.84.22-1.26,1.61-9.88,3.59-20.27,6-31.09.15-.64.3-1.29.44-1.95,1.54-6.78,3.25-13.74,5.15-20.83.11-.42.23-.84.33-1.26q3.69-13.63,8.37-27.88c.07-.23.15-.46.22-.7q2.55-7.71,5.44-15.56,1.42-3.89,2.87-7.66c.23-.56.44-1.11.65-1.66,2.92-7.53,5.93-14.75,9-21.64.34-.78.68-1.54,1-2.3,3.41-7.67,6.85-14.9,10.22-21.67.23-.47.46-.93.7-1.38,5.87-11.71,11.55-22,16.58-30.52.33-.57.68-1.14,1-1.7,4.39-7.39,8.25-13.41,11.26-17.87,4.12-6.09,6.66-9.29,6.84-9.14S2704.25,1313.26,2700.47,1319.67Z" transform="translate(-26.43 -18.99)"/><path class="cls-8" d="M2742.93,1251.84a118.09,118.09,0,0,0-25.17,27.21,141.94,141.94,0,0,0-19.09,42.34,164.37,164.37,0,0,0,26.92-33.16A187.66,187.66,0,0,0,2742.93,1251.84Z" transform="translate(-26.43 -18.99)"/><path class="cls-8" d="M2687.38,1263.16a136.75,136.75,0,0,0,.14,76.53,183.94,183.94,0,0,0-.14-76.53Z" transform="translate(-26.43 -18.99)"/><path class="cls-8" d="M2747.74,1314.47a92.08,92.08,0,0,1-25.45,17.67,79.71,79.71,0,0,1-34.08,7.48,119,119,0,0,1,30-17.8A106.67,106.67,0,0,1,2747.74,1314.47Z" transform="translate(-26.43 -18.99)"/><path class="cls-8" d="M2646.31,1283.81a240.83,240.83,0,0,0,7.6,44.36,225.28,225.28,0,0,0,16.55,43.26,153.53,153.53,0,0,0-4.3-42.74A138,138,0,0,0,2646.31,1283.81Z" transform="translate(-26.43 -18.99)"/><path class="cls-8" d="M2626.33,1307.22a239,239,0,0,0,11.9,45.53,223.64,223.64,0,0,0,21.61,43.39,152.84,152.84,0,0,0-8.15-44.21A137.54,137.54,0,0,0,2626.33,1307.22Z" transform="translate(-26.43 -18.99)"/><path class="cls-8" d="M2739.8,1388.54a144,144,0,0,1-80.56,7.17,91.53,91.53,0,0,1,80.56-7.17Z" transform="translate(-26.43 -18.99)"/><path class="cls-8" d="M2737.56,1423.06a166.54,166.54,0,0,1-42.88,3.86,164.69,164.69,0,0,1-44.4-8,107.18,107.18,0,0,1,40.46-7.6A104.87,104.87,0,0,1,2737.56,1423.06Z" transform="translate(-26.43 -18.99)"/><path class="cls-8" d="M2602.9,1330.22a266.51,266.51,0,0,0,19.08,46.62,233.32,233.32,0,0,0,28.29,42.16,174.1,174.1,0,0,0-15.19-46C2624.2,1351.2,2611.21,1337.62,2602.9,1330.22Z" transform="translate(-26.43 -18.99)"/><path class="cls-8" d="M2584.31,1354.55a283.55,283.55,0,0,0,24,46.65,240.49,240.49,0,0,0,32.73,40.82,187.74,187.74,0,0,0-20.09-46.49C2607.79,1374,2593.38,1361.3,2584.31,1354.55Z" transform="translate(-26.43 -18.99)"/><path class="cls-8" d="M2577.18,1382.94a285.87,285.87,0,0,0,23.38,47.13,243.2,243.2,0,0,0,32.16,41.48,189.17,189.17,0,0,0-19.44-46.89C2600.39,1402.82,2586.16,1389.87,2577.18,1382.94Z" transform="translate(-26.43 -18.99)"/><path class="cls-8" d="M2561.64,1417.9a264.93,264.93,0,0,0,29.25,42.06,221.63,221.63,0,0,0,37.19,34.79,175.83,175.83,0,0,0-25.34-42.57C2587.17,1433.08,2571.42,1423,2561.64,1417.9Z" transform="translate(-26.43 -18.99)"/><path class="cls-8" d="M2556.47,1447.32a268.16,268.16,0,0,0,28.22,43.09A225.5,225.5,0,0,0,2621,1526.5a177.86,177.86,0,0,0-24.29-43.45C2581.61,1463.41,2566.12,1452.8,2556.47,1447.32Z" transform="translate(-26.43 -18.99)"/><path class="cls-8" d="M2542.43,1481.28a238.27,238.27,0,0,0,35.05,35,200.6,200.6,0,0,0,41.75,26.11A159.49,159.49,0,0,0,2588,1506C2569.8,1490.65,2552.81,1484.2,2542.43,1481.28Z" transform="translate(-26.43 -18.99)"/><path class="cls-8" d="M2708.44,1564.84a186.06,186.06,0,0,1-89.86-23.4,118,118,0,0,1,43.34,1.47A119.5,119.5,0,0,1,2708.44,1564.84Z" transform="translate(-26.43 -18.99)"/><path class="cls-8" d="M2714,1533.6a184.79,184.79,0,0,1-45.4,2.12,178.74,178.74,0,0,1-46.29-9.87,118.84,118.84,0,0,1,43.07-6A113,113,0,0,1,2714,1533.6Z" transform="translate(-26.43 -18.99)"/><path class="cls-8" d="M2720.08,1503.88a184.72,184.72,0,0,1-45.42,1.38,179.54,179.54,0,0,1-46.17-10.63,118.69,118.69,0,0,1,43.14-5.27A113.47,113.47,0,0,1,2720.08,1503.88Z" transform="translate(-26.43 -18.99)"/><path class="cls-8" d="M2723.84,1469.52a186.33,186.33,0,0,1-45.1,6.71,175.91,175.91,0,0,1-46.81-5.15,121.39,121.39,0,0,1,42.51-10.31A110.78,110.78,0,0,1,2723.84,1469.52Z" transform="translate(-26.43 -18.99)"/><path class="cls-8" d="M2735.08,1446.49a185.3,185.3,0,0,1-45.29,4.37,177.68,177.68,0,0,1-46.59-7.56,119.7,119.7,0,0,1,42.84-8.11A111.88,111.88,0,0,1,2735.08,1446.49Z" transform="translate(-26.43 -18.99)"/><path class="cls-8" d="M2745.55,1350.56a150.86,150.86,0,0,1-35.19,15.45,140.2,140.2,0,0,1-39.13,5.64,98.74,98.74,0,0,1,32.33-18A88.16,88.16,0,0,1,2745.55,1350.56Z" transform="translate(-26.43 -18.99)"/><path class="cls-9" d="M2636.07,1562.33c-3.93,1.25-10.44,2.38-18.83,3.27l-2.38.25c-11.46,1.13-26,1.86-42.08,2-1.09,0-2.2,0-3.3,0H2566c-14.92,0-28.81-.49-40.44-1.34l-3.72-.29c-11.82-1-21-2.36-25.94-4,4-1.27,10.6-2.4,19.11-3.31l3.48-.34c12.88-1.21,29.44-1.94,47.51-1.94l4.51,0,3.65,0c15.84.19,30.17,1,41.42,2.08l2.49.26C2626,1560,2632.27,1561.12,2636.07,1562.33Z" transform="translate(-26.43 -18.99)"/><path class="cls-10" d="M2525.54,1566.57l-3.72-.29c-1.22-1.28-2.48-2.6-3.74-3.94-1-1.09-2-2.19-3.09-3.32a491.5,491.5,0,0,1-75.3-106.72c-33.77-64.94-45.15-123.37-44.26-123.61s13.66,56.82,49.05,123.28a561.88,561.88,0,0,0,74,106.71l1.75,2C2522,1562.7,2523.81,1564.68,2525.54,1566.57Z" transform="translate(-26.43 -18.99)"/><path class="cls-10" d="M2378.54,1262.1a124.85,124.85,0,0,0,2.55,38.13,129.68,129.68,0,0,0,17.71,42.1,168.23,168.23,0,0,0-5.67-43.24A172.75,172.75,0,0,0,2378.54,1262.1Z" transform="translate(-26.43 -18.99)"/><path class="cls-10" d="M2404.48,1363l-1-.39a111.64,111.64,0,0,1-33-20.1l-.57-.5a114,114,0,0,1-21.23-25.36,149.49,149.49,0,0,1,21.3,12.54q3.88,2.76,7.9,6a152.39,152.39,0,0,1,25.12,25.89C2403.53,1361.73,2404,1362.38,2404.48,1363Z" transform="translate(-26.43 -18.99)"/><path class="cls-10" d="M2427.38,1296a105.3,105.3,0,0,1-4.57,32.57,100.81,100.81,0,0,1-17.92,33.8,140,140,0,0,1,7.59-36.53A135.37,135.37,0,0,1,2427.38,1296Z" transform="translate(-26.43 -18.99)"/><path class="cls-10" d="M2415,1396.78h0a191.7,191.7,0,0,1-41.33-11.67l-.6-.24a197.47,197.47,0,0,1-37.46-20.42,119.3,119.3,0,0,1,36.14,6.29c3.28,1.1,6.66,2.4,10.1,3.92a125.49,125.49,0,0,1,32.78,21.13l1.25,1.13Z" transform="translate(-26.43 -18.99)"/><path class="cls-10" d="M2426.56,1421l-.41,0h-.25l-1.12-.06a196.18,196.18,0,0,1-44.58-7.7l-.79-.23a197.44,197.44,0,0,1-40.48-17.21,124,124,0,0,1,85.05,23.3l2,1.49c.11.09.22.18.34.26Z" transform="translate(-26.43 -18.99)"/><path class="cls-10" d="M2475.82,1347.79a182.88,182.88,0,0,1-50,73.5,115.28,115.28,0,0,1,50-73.5Z" transform="translate(-26.43 -18.99)"/><path class="cls-10" d="M2499.39,1370.67a212.7,212.7,0,0,1-26.56,39.16,205.13,205.13,0,0,1-36.24,33.26,135.76,135.76,0,0,1,22.19-39.35A128.09,128.09,0,0,1,2499.39,1370.67Z" transform="translate(-26.43 -18.99)"/><path class="cls-10" d="M2436.64,1443.14c-.51,0-1,.1-1.52.13a214.92,214.92,0,0,1-46.72-1.2c-.6-.07-1.21-.16-1.82-.25a228.64,228.64,0,0,1-47-11.92,133,133,0,0,1,43.73-2.89q4.58.43,9.44,1.24a146.06,146.06,0,0,1,41.76,13.81Z" transform="translate(-26.43 -18.99)"/><path class="cls-10" d="M2447.07,1465l-.47.08a229.77,229.77,0,0,1-47.11,3.41c-1.5,0-3-.1-4.53-.17a250.25,250.25,0,0,1-50.4-7.71,140.64,140.64,0,0,1,48.36-6.92c2.14.06,4.34.17,6.58.33a161.05,161.05,0,0,1,46.91,10.72Z" transform="translate(-26.43 -18.99)"/><path class="cls-10" d="M2462.82,1490.11l-.48.08-.3,0-.32,0a231.44,231.44,0,0,1-49.37,2.36l-1.73-.11a251.46,251.46,0,0,1-50.3-8.55,140,140,0,0,1,43.77-6.24c3.62,0,7.4.23,11.31.58a161.33,161.33,0,0,1,45.78,11.11l1,.4.39.17Z" transform="translate(-26.43 -18.99)"/><path class="cls-10" d="M2476.52,1508.18c-.72.25-1.46.5-2.22.74a225.93,225.93,0,0,1-44.75,9.66c-1.25.15-2.52.28-3.81.4a244.89,244.89,0,0,1-50.63-.43,138.13,138.13,0,0,1,44.9-13.64c2.64-.35,5.38-.62,8.19-.83a157.81,157.81,0,0,1,45.06,3.35C2474.4,1507.68,2475.48,1507.93,2476.52,1508.18Z" transform="translate(-26.43 -18.99)"/><path class="cls-10" d="M2494.77,1533.53l-1.46.44a226.85,226.85,0,0,1-44.27,8.4c-1.77.16-3.58.3-5.41.42a246.31,246.31,0,0,1-50.67-1.93,138.24,138.24,0,0,1,44.38-12.18q4.44-.48,9.19-.69a158.81,158.81,0,0,1,45.92,4.92Z" transform="translate(-26.43 -18.99)"/><path class="cls-10" d="M2505.11,1544.7l-1.94,1.08a220.75,220.75,0,0,1-35.32,15.63q-5,1.71-10.34,3.28a239.9,239.9,0,0,1-49.46,8.84A137.39,137.39,0,0,1,2456,1549.8l1.25-.34a153.45,153.45,0,0,1,44.88-4.89l1.87.07h.06Z" transform="translate(-26.43 -18.99)"/><path class="cls-10" d="M2582.56,1481.75a233.63,233.63,0,0,1-35.1,35.34,221.06,221.06,0,0,1-43.48,27.6,149.21,149.21,0,0,1,30.76-36.31A137.42,137.42,0,0,1,2582.56,1481.75Z" transform="translate(-26.43 -18.99)"/><path class="cls-10" d="M2563.68,1458a235.44,235.44,0,0,1-29.57,40.26,221.34,221.34,0,0,1-38.89,33.75,151,151,0,0,1,25.16-40.61A137.08,137.08,0,0,1,2563.68,1458Z" transform="translate(-26.43 -18.99)"/><path class="cls-10" d="M2546.2,1434.74a234.49,234.49,0,0,1-30.11,39.83,221.7,221.7,0,0,1-39.37,33.19,150.94,150.94,0,0,1,25.72-40.23A137.06,137.06,0,0,1,2546.2,1434.74Z" transform="translate(-26.43 -18.99)"/><path class="cls-10" d="M2523.79,1410.66a237.39,237.39,0,0,1-26,42.78A221.64,221.64,0,0,1,2462,1490.5a152.53,152.53,0,0,1,21.62-42.75A137.28,137.28,0,0,1,2523.79,1410.66Z" transform="translate(-26.43 -18.99)"/><path class="cls-10" d="M2514.74,1387a236.21,236.21,0,0,1-27.86,41.53,220.64,220.64,0,0,1-37.42,35.4,151.83,151.83,0,0,1,23.46-41.69A136.9,136.9,0,0,1,2514.74,1387Z" transform="translate(-26.43 -18.99)"/><path class="cls-10" d="M2452.14,1319.79a183.69,183.69,0,0,1-12.88,39.6,178.21,178.21,0,0,1-22.7,37,117.15,117.15,0,0,1,9.06-38.68A111.94,111.94,0,0,1,2452.14,1319.79Z" transform="translate(-26.43 -18.99)"/><path class="cls-11" d="M2578,1487.28c0,3.73,0,7.4-.07,11-.07,5.17-.22,10.23-.42,15.17l-.06,1.56c0,.39,0,.78-.05,1.17q-.39,8.61-1,16.7c0,.6-.09,1.19-.14,1.78q-.54,7.13-1.22,13.81c-.09.93-.18,1.84-.28,2.75q-.3,2.82-.61,5.56c-.15,1.41-.31,2.79-.48,4.15-.28,2.36-.58,4.66-.88,6.92h0l-3.3,0h0q.33-3.39.65-7c.13-1.38.25-2.78.36-4.19.16-1.83.3-3.68.44-5.57.07-.91.13-1.83.2-2.75q.47-6.66.82-13.75c0-.54.06-1.08.08-1.63q.43-9,.63-18.6c0-.25,0-.52,0-.78,0-.45,0-.91,0-1.36.09-5.66.12-11.47.06-17.44,0-.55,0-1.09,0-1.65q0-3.92-.14-7.9c-.08-3.25-.18-6.52-.31-9.84,0-.37,0-.74,0-1.11s0-.55,0-.83q-.33-8-.88-16.27c-.24-3.68-.53-7.4-.84-11.16-.1-1.15-.2-2.3-.3-3.47q-.55-6.18-1.24-12.52c-.32-2.87-.65-5.75-1-8.67q-.71-5.87-1.55-11.83c0-.3-.09-.61-.13-.92q-1.28-9-2.86-18.23-1.05-6.11-2.19-12c-.15-.8-.3-1.6-.46-2.4-1.92-9.87-4-19.4-6.21-28.54-.27-1.17-.55-2.32-.84-3.48-2.53-10.33-5.18-20.13-7.86-29.35-.28-1-.55-1.9-.83-2.85q-3.2-10.78-6.34-20.39c-2.39-7.32-4.73-14.09-6.94-20.24-.22-.62-.44-1.22-.66-1.82-3.8-10.52-7.2-19.18-9.82-25.69-3.57-8.86-5.68-13.73-5.37-13.84s3,4.55,7.17,13.18c3,6.32,6.82,14.76,11,25,.32.77.64,1.56,1,2.36,2.46,6.15,5,12.9,7.67,20.2,2.42,6.74,4.88,14,7.31,21.58.2.62.4,1.24.59,1.86,2.89,9.17,5.74,18.92,8.42,29.16.27,1,.54,2,.8,3.09,2.37,9.19,4.6,18.77,6.62,28.66.15.72.3,1.45.46,2.19q1,5,1.92,10,1.88,10.27,3.31,20.28c.05.31.09.6.13.9q1.26,8.79,2.22,17.36.84,7.55,1.46,14.89c.11,1.21.21,2.41.31,3.6,0,.53.07,1.07.12,1.6q.63,8.37,1,16.47.24,5,.38,10c0,.82.05,1.63.07,2.44.06,2.35.11,4.68.13,7,0,.56,0,1.1,0,1.65C2578,1484.63,2578,1486,2578,1487.28Z" transform="translate(-26.43 -18.99)"/><path class="cls-11" d="M2523.34,1246.36c-.69-.87-1.38-1.75-2.09-2.68a213,213,0,0,1-41.31-94.84,159,159,0,0,1,43.11,94.18C2523.16,1244.18,2523.26,1245.3,2523.34,1246.36Z" transform="translate(-26.43 -18.99)"/><path class="cls-11" d="M2553.79,1224.69a139.52,139.52,0,0,1-18.79,45.7l-.95,1.46c0-1.23,0-2.51,0-3.82a185.2,185.2,0,0,1,22.1-86.57A139.35,139.35,0,0,1,2553.79,1224.69Z" transform="translate(-26.43 -18.99)"/><path class="cls-11" d="M2533.08,1271.52l-1.35-.33a138.38,138.38,0,0,1-76.57-50,185,185,0,0,1,75.91,48.17C2531.77,1270.1,2532.44,1270.82,2533.08,1271.52Z" transform="translate(-26.43 -18.99)"/><path class="cls-11" d="M2609,1220.06a246.68,246.68,0,0,1-23.54,49.8c-.7,1.13-1.41,2.25-2.11,3.35a245.59,245.59,0,0,1-32.73,40.82c-.4.42-.81.82-1.21,1.23.19-1,.39-2,.62-3.09a155.26,155.26,0,0,1,59-92.11Z" transform="translate(-26.43 -18.99)"/><path class="cls-11" d="M2630.82,1254.64a251,251,0,0,1-30,49.7,257,257,0,0,1-43.31,43.79,156.89,156.89,0,0,1,24.31-49.42A163.62,163.62,0,0,1,2630.82,1254.64Z" transform="translate(-26.43 -18.99)"/><path class="cls-11" d="M2445.33,1311.49a251.06,251.06,0,0,0,52.71,24.34,257.16,257.16,0,0,0,60.42,12,157,157,0,0,0-47.83-27.31A163.64,163.64,0,0,0,2445.33,1311.49Z" transform="translate(-26.43 -18.99)"/><path class="cls-11" d="M2438.66,1353.05a294.73,294.73,0,0,0,60.2,19.41,288.33,288.33,0,0,0,65.77,5.92,187,187,0,0,0-55.67-23A180.43,180.43,0,0,0,2438.66,1353.05Z" transform="translate(-26.43 -18.99)"/><path class="cls-11" d="M2657.75,1289.93a294.69,294.69,0,0,1-40.61,48.5,288,288,0,0,1-52.51,40,187.19,187.19,0,0,1,34.87-49.11A180.49,180.49,0,0,1,2657.75,1289.93Z" transform="translate(-26.43 -18.99)"/><path class="cls-11" d="M2677.38,1325.13a328.55,328.55,0,0,1-47.7,46.82,311.7,311.7,0,0,1-58.48,36.91,208.78,208.78,0,0,1,42-48A192.91,192.91,0,0,1,2677.38,1325.13Z" transform="translate(-26.43 -18.99)"/><path class="cls-11" d="M2679.45,1361.14a327.37,327.37,0,0,1-46.91,47.61,311.69,311.69,0,0,1-57.84,37.89,209.17,209.17,0,0,1,41.2-48.69A193,193,0,0,1,2679.45,1361.14Z" transform="translate(-26.43 -18.99)"/><path class="cls-11" d="M2691.67,1407.83a327.5,327.5,0,0,1-53.86,39.59,311.15,311.15,0,0,1-63.11,28.25,208.89,208.89,0,0,1,48.39-41.55A193.11,193.11,0,0,1,2691.67,1407.83Z" transform="translate(-26.43 -18.99)"/><path class="cls-11" d="M2690.65,1444.4a328.6,328.6,0,0,1-52.67,41.15,311.77,311.77,0,0,1-62.26,30.09,208.82,208.82,0,0,1,47.15-43A192.74,192.74,0,0,1,2690.65,1444.4Z" transform="translate(-26.43 -18.99)"/><path class="cls-11" d="M2701,1489.39a327.53,327.53,0,0,1-60.11,29.22,311,311,0,0,1-67.17,16.41,209.06,209.06,0,0,1,55.09-32.14A193,193,0,0,1,2701,1489.39Z" transform="translate(-26.43 -18.99)"/><path class="cls-11" d="M2439.75,1530.69a328.48,328.48,0,0,0,66.24,8.91,311.26,311.26,0,0,0,68.93-5.47,209,209,0,0,0-62.39-13.25A192.59,192.59,0,0,0,2439.75,1530.69Z" transform="translate(-26.43 -18.99)"/><path class="cls-11" d="M2440.67,1491.83a327.47,327.47,0,0,0,64.31,18.22,310.51,310.51,0,0,0,69,4.35,209,209,0,0,0-59.88-22A192.79,192.79,0,0,0,2440.67,1491.83Z" transform="translate(-26.43 -18.99)"/><path class="cls-11" d="M2440.53,1454.62a327.5,327.5,0,0,0,64.55,17.34,310.71,310.71,0,0,0,69.06,3.42,209.19,209.19,0,0,0-60.17-21.15A192.84,192.84,0,0,0,2440.53,1454.62Z" transform="translate(-26.43 -18.99)"/><path class="cls-11" d="M2445,1412.71a327.34,327.34,0,0,0,62.56,23.54,311.07,311.07,0,0,0,68.4,10.11,209.22,209.22,0,0,0-57.83-26.9A192.89,192.89,0,0,0,2445,1412.71Z" transform="translate(-26.43 -18.99)"/><path class="cls-11" d="M2435.5,1381.61a328,328,0,0,0,63.51,20.83,310.39,310.39,0,0,0,68.78,7.18,209.37,209.37,0,0,0-58.94-24.4A192.77,192.77,0,0,0,2435.5,1381.61Z" transform="translate(-26.43 -18.99)"/><path class="cls-11" d="M2548.2,1315.26c-.77-.19-1.56-.38-2.36-.59a247.81,247.81,0,0,1-52-19.62c-5.73-2.94-11.09-6-16.11-9a248.33,248.33,0,0,1-29.79-21.4,155.84,155.84,0,0,1,59.16,18.19,153.6,153.6,0,0,1,16.65,10.51,155.64,155.64,0,0,1,21.24,18.51C2546.14,1313,2547.21,1314.15,2548.2,1315.26Z" transform="translate(-26.43 -18.99)"/><path class="cls-12" d="M2348.71,1316.66a149.49,149.49,0,0,1,21.3,12.54q-.16,6.09-.07,12.82A114,114,0,0,1,2348.71,1316.66Z" transform="translate(-26.43 -18.99)"/><path class="cls-12" d="M2373.06,1384.87a197.47,197.47,0,0,1-37.46-20.42,119.3,119.3,0,0,1,36.14,6.29q.77,7,1.92,14.37Z" transform="translate(-26.43 -18.99)"/><path class="cls-12" d="M2379.41,1413a197.44,197.44,0,0,1-40.48-17.21,124.36,124.36,0,0,1,37,2Q2377.44,1405.27,2379.41,1413Z" transform="translate(-26.43 -18.99)"/><path class="cls-12" d="M2386.58,1441.82a228.64,228.64,0,0,1-47-11.92,133,133,0,0,1,43.73-2.89c1.53,5,3.21,10,5.07,15.06C2387.8,1442,2387.19,1441.91,2386.58,1441.82Z" transform="translate(-26.43 -18.99)"/><path class="cls-12" d="M2395,1468.34a250.25,250.25,0,0,1-50.4-7.71,140.64,140.64,0,0,1,48.36-6.92q3.14,7.63,6.57,14.8C2398,1468.46,2396.48,1468.41,2395,1468.34Z" transform="translate(-26.43 -18.99)"/><path class="cls-12" d="M2410.62,1492.54a251.46,251.46,0,0,1-50.3-8.55,140,140,0,0,1,43.77-6.24q4,7.76,8.26,14.9Z" transform="translate(-26.43 -18.99)"/><path class="cls-12" d="M2375.11,1518.55a138.13,138.13,0,0,1,44.9-13.64q4.72,7.18,9.54,13.67c-1.25.15-2.52.28-3.81.4A244.89,244.89,0,0,1,2375.11,1518.55Z" transform="translate(-26.43 -18.99)"/><path class="cls-12" d="M2393,1540.86a138.24,138.24,0,0,1,44.38-12.18q5.92,7.35,11.7,13.69c-1.77.16-3.58.3-5.41.42A246.31,246.31,0,0,1,2393,1540.86Z" transform="translate(-26.43 -18.99)"/><path class="cls-12" d="M2467.85,1561.41q-5,1.71-10.34,3.28a239.9,239.9,0,0,1-49.46,8.84A137.39,137.39,0,0,1,2456,1549.8C2460.13,1554.08,2464.11,1558,2467.85,1561.41Z" transform="translate(-26.43 -18.99)"/><path class="cls-13" d="M2507.12,1282.8a153.6,153.6,0,0,1,16.65,10.51,106.34,106.34,0,0,1-21.28-.78,113.58,113.58,0,0,1-24.74-6.52,248.33,248.33,0,0,1-29.79-21.4A155.84,155.84,0,0,1,2507.12,1282.8Z" transform="translate(-26.43 -18.99)"/><path class="cls-13" d="M2556.14,1181.46a138.7,138.7,0,0,1-21.14,88.93c2.46,6.15,5,12.9,7.67,20.2-1.33.3-2.67.58-4,.84-2.39-7.32-4.73-14.09-6.94-20.24a138.38,138.38,0,0,1-76.57-50,185,185,0,0,1,75.91,48.17c-3.8-10.52-7.2-19.18-9.82-25.69a213,213,0,0,1-41.31-94.84,159,159,0,0,1,43.11,94.18c3,6.32,6.82,14.76,11,25a185.2,185.2,0,0,1,22.1-86.57Z" transform="translate(-26.43 -18.99)"/><path class="cls-13" d="M2609,1220.06a246.68,246.68,0,0,1-23.54,49.8c-.7,1.13-1.41,2.25-2.11,3.35a118.31,118.31,0,0,1-25.31,12.85,155.22,155.22,0,0,1,51-66Z" transform="translate(-26.43 -18.99)"/></g><g id="Flower15"><ellipse class="cls-14" cx="242.96" cy="421.35" rx="106.48" ry="39.14" transform="translate(-106.05 38.34) rotate(-11.58)"/><ellipse class="cls-15" cx="242" cy="416.67" rx="80.6" ry="29.63" transform="translate(-105.13 38.06) rotate(-11.58)"/><ellipse class="cls-16" cx="243.1" cy="414.7" rx="67.53" ry="24.82" transform="translate(-104.71 38.24) rotate(-11.58)"/><path class="cls-17" d="M179.33,62A3.71,3.71,0,1,1,175,59.14,3.7,3.7,0,0,1,179.33,62Z" transform="translate(-26.43 -18.99)"/><path class="cls-18" d="M143.18,65.87a3.55,3.55,0,1,1-3.86-3.2A3.55,3.55,0,0,1,143.18,65.87Z" transform="translate(-26.43 -18.99)"/><path class="cls-18" d="M172.07,91.1a4.25,4.25,0,1,1-5-3.31A4.24,4.24,0,0,1,172.07,91.1Z" transform="translate(-26.43 -18.99)"/><path class="cls-19" d="M297,411.69a182.79,182.79,0,0,1-106,21.72c-39.2-18.9-65.66-56-66.5-100.93L312.6,289.83C329.11,329.5,324.78,375.56,297,411.69Z" transform="translate(-26.43 -18.99)"/><path class="cls-15" d="M124.52,332.48a111.29,111.29,0,0,0,9.92,44.19c59.76,19.45,134-1.39,187.77-35.85a124.74,124.74,0,0,0-9.61-51Z" transform="translate(-26.43 -18.99)"/><path class="cls-14" d="M322.12,331.6a117.25,117.25,0,0,1-.12,14.06c-52.78,43.34-121.43,55.95-185.47,35.4a109.06,109.06,0,0,1-4.77-10.77C198.07,391.33,269,377.08,322.12,331.6Z" transform="translate(-26.43 -18.99)"/><path class="cls-20" d="M191,433.41a182.67,182.67,0,0,0,101.73-19.48C237.26,405.75,186.2,373.46,159,324.66l-34.47,7.82C125.36,377.41,151.82,414.51,191,433.41Z" transform="translate(-26.43 -18.99)"/><ellipse class="cls-14" cx="217.18" cy="303.5" rx="101.3" ry="39.43" transform="translate(-82.92 30.77) rotate(-11.58)"/><ellipse class="cls-21" cx="216.98" cy="302.5" rx="94.73" ry="29.2" transform="translate(-82.73 30.71) rotate(-11.58)"/><path class="cls-22" d="M228.78,295a29.09,29.09,0,0,1-5.32,11.44q-.33.44-.69.84c-4,4.65-9.48,7.82-15.75,9.81a54.59,54.59,0,0,1-8.05,1.88,74.54,74.54,0,0,1-12.17.88A87.22,87.22,0,0,1,162,316.05l-.64-.21a65.7,65.7,0,0,1-15.7-7.48c-31.9-20.64-42.94-65.28-48.21-86.59a189.78,189.78,0,0,1-5.28-54.45c.14-3.12.34-6,.59-8.63l4.64-.36,10.27-.8c1.49-.13,3-.24,4.45-.35,3.19-.26,6.4-.5,9.59-.75l9.45-.74,7.63-.59.67,0,4.33-.33c4.57-.36,9.15-.73,13.73-1.07C209.38,211.73,235.7,265.55,228.78,295Z" transform="translate(-26.43 -18.99)"/><path class="cls-22" d="M293.52,155.36c2.09,19.17,5.7,52.29,2.54,83.49-1.67,16.45-5.21,32.36-11.84,45.4a65.31,65.31,0,0,1-9.33,13.91c-.36.4-.71.79-1.08,1.18a61.34,61.34,0,0,1-16.07,12.24,44.34,44.34,0,0,1-9.09,3.55c-6.13,1.63-12.37,1.61-18.05-.91a24.74,24.74,0,0,1-7.49-5.22,32.23,32.23,0,0,1-4.26-5.33c-19.61-29.8-18.62-112.06,4-211.58l27.61-9.35,25.17-8.52A385.6,385.6,0,0,1,293.52,155.36Z" transform="translate(-26.43 -18.99)"/><path class="cls-11" d="M241.37,91.91A733.39,733.39,0,0,0,230.6,314.22a24.74,24.74,0,0,1-7.49-5.22,32.23,32.23,0,0,1-4.26-5.33A678,678,0,0,1,229.79,96.06Z" transform="translate(-26.43 -18.99)"/><path class="cls-11" d="M161.34,315.84a65.7,65.7,0,0,1-15.7-7.48c-9.74-16.84-19.48-35.12-26.92-55.38-12.41-33.71-16.18-66.53-21.34-94.65l10.27-.8c4.28,26.88,7,57.74,18,88.34C135.18,272.17,148.54,295,161.34,315.84Z" transform="translate(-26.43 -18.99)"/><path class="cls-11" d="M228.78,295a29.09,29.09,0,0,1-5.32,11.44q-.33.44-.69.84c-11.54-29-22.81-63.19-43.68-95.48-14.21-21.95-31.81-39.71-48-56.06l7.63-.59.67,0,4.33-.33c15.15,16.19,31.32,34.09,45.19,55.79C207.19,239.05,218.11,269.15,228.78,295Z" transform="translate(-26.43 -18.99)"/><path class="cls-11" d="M276.58,96.24C281,125.45,288.42,161,289.35,199.81c.75,30.87-2,59-5.13,84.44a65.31,65.31,0,0,1-9.33,13.91c-.36.4-.71.79-1.08,1.18,3.4-30.11,6.89-63.14,5.79-101.31-1.12-38.4-7.79-75.76-12.08-105.4Z" transform="translate(-26.43 -18.99)"/><path class="cls-11" d="M253.83,94.81a827.22,827.22,0,0,1,8.81,102.36,857.15,857.15,0,0,1-4.9,114.41,44.34,44.34,0,0,1-9.09,3.55c.2-35.76,1.48-74.1.16-119.75-1.1-38.4.26-74.53-4-104.17Z" transform="translate(-26.43 -18.99)"/><path class="cls-11" d="M199,318.92a74.54,74.54,0,0,1-12.17.88c-9.56-22.75-19.9-47.08-32.45-73.77-15.27-32.52-27.8-64.09-42.25-88.85,3.19-.26,6.4-.5,9.59-.75a831.91,831.91,0,0,1,46.06,85.71C180.35,269.27,190.61,295.11,199,318.92Z" transform="translate(-26.43 -18.99)"/><path class="cls-23" d="M296.06,238.85c-1.67,16.45-5.21,32.36-11.84,45.4a65.31,65.31,0,0,1-9.33,13.91c-.36.4-.71.79-1.08,1.18a61.34,61.34,0,0,1-16.07,12.24,44.34,44.34,0,0,1-9.09,3.55c-6.13,1.63-12.37,1.61-18.05-.91a24.74,24.74,0,0,1-7.49-5.22,32.23,32.23,0,0,1-4.26-5.33c-19.61-29.8-18.62-112.06,4-211.58l27.61-9.35c-38,33.74-41.67,91.86-10.6,127.4C254.24,226.58,274.52,236.45,296.06,238.85Z" transform="translate(-26.43 -18.99)"/><path class="cls-24" d="M312.57,70.63C310.94,83.56,304,95,295.28,95.85c-2.77.26-9.95,1.72-14.69-1.88-1.84,2.17-16.17,13.46-36.72,12.72-10.82-.38-25.68-4.6-29.43-7.15-20.78,2.74-32.37-9-37.18-25a29.29,29.29,0,0,1-.42-13.64c2.75-15,15.16-31,35.07-29.87,5.2-3.68,19.46-10.49,42.46-8.39a65.7,65.7,0,0,1,26.5,8.42c1.37.15,21.89,2.73,29,18.82A39.43,39.43,0,0,1,312.57,70.63Z" transform="translate(-26.43 -18.99)"/><path class="cls-25" d="M312.57,70.63a28,28,0,0,1-4.55-.32A30.77,30.77,0,0,1,292.27,63a15.25,15.25,0,0,1-24.19-1.21,56.06,56.06,0,0,1-34,12,55.85,55.85,0,0,1-32.52-10.38A30.39,30.39,0,0,1,188,64.68a33.51,33.51,0,0,1-11.2-3.74c2.75-15,15.16-31,35.07-29.87,5.2-3.68,19.46-10.49,42.46-8.39a65.7,65.7,0,0,1,26.5,8.42c1.37.15,21.89,2.73,29,18.82A39.43,39.43,0,0,1,312.57,70.63Z" transform="translate(-26.43 -18.99)"/><path class="cls-23" d="M207,317c-14.25,4.53-32.4,3-45-1-44.7-14-58.47-69.68-64.55-94.28a189.78,189.78,0,0,1-5.28-54.45l46.62-12.22.77-.2-.1.15c-7.39,11.82-19.43,35.32-16.83,64.43C126.38,261.48,159.28,299.4,207,317Z" transform="translate(-26.43 -18.99)"/><path class="cls-26" d="M172.59,115.48c.91,16.41-6.32,30.27-10.86,37.3-.78,1.2-1.48,2.18-2,3-.38.53-.76,1-1.16,1.55a59.47,59.47,0,0,1-7,7.62,67.82,67.82,0,0,1-19.43,12.57s0,0-.06,0c-1.35.59-2.71,1.12-4.05,1.62s-2.4.86-3.59,1.23A91.28,91.28,0,0,1,108,183.88a94.39,94.39,0,0,1-10.87.69c-1.66,0-2.78-.06-3.26-.08A51.17,51.17,0,0,1,71,186.33a43.16,43.16,0,0,1-6-1.4c-19.68-6.14-35.27-26.58-37.38-44.71a28.52,28.52,0,0,1,2.26-15.85,24.88,24.88,0,0,1,5.93-7.76A38.69,38.69,0,0,1,46.53,110c.06-.19.15-.44.27-.74a58.05,58.05,0,0,1,3.69-7.92c3.88-7,10.82-16.51,22.22-22.89A49.51,49.51,0,0,1,77.77,76c1-.42,2-.82,3.06-1.19a55.68,55.68,0,0,1,33.93-.69,29.9,29.9,0,0,1,15.71-6.43l.59,0c12.56-.66,24,8.4,31.57,19.74a61.62,61.62,0,0,1,8.11,17.17A50.57,50.57,0,0,1,172.59,115.48Z" transform="translate(-26.43 -18.99)"/><path class="cls-27" d="M162.63,87.35A23.65,23.65,0,0,1,155,96.51a24.07,24.07,0,0,1-12.84,4.2,116.65,116.65,0,0,1-35.4,28,117.26,117.26,0,0,1-53,12.82,34.85,34.85,0,0,1-11,1.85,38.23,38.23,0,0,1-15.16-3.17,28.52,28.52,0,0,1,2.26-15.85,24.88,24.88,0,0,1,5.93-7.76A38.69,38.69,0,0,1,46.53,110c.06-.19.15-.44.27-.74a58.05,58.05,0,0,1,3.69-7.92c3.88-7,10.82-16.51,22.22-22.89A49.51,49.51,0,0,1,77.77,76c1-.42,2-.82,3.06-1.19a55.68,55.68,0,0,1,33.93-.69,29.9,29.9,0,0,1,15.71-6.43l.59,0C143.62,67,155,76,162.63,87.35Z" transform="translate(-26.43 -18.99)"/><path class="cls-28" d="M71,186.33a12.79,12.79,0,0,1-6.66-.35c-25.86-8.07-42.95-41.71-34.93-62.13.89-2.25,2-6.33,6.4-7.24-2.7,4.87-4,11.73-4.34,18.42C30.89,147.21,38,164.31,71,186.33Z" transform="translate(-26.43 -18.99)"/><path class="cls-28" d="M172.59,115.48c-3.81-11.87-11.41-27.44-26.79-39a71.41,71.41,0,0,0-15.33-8.81c.1-.41.6-.52.81-.52,18.44.5,32.85,17,39.75,33.89C172.54,104.72,174.8,111.92,172.59,115.48Z" transform="translate(-26.43 -18.99)"/><path class="cls-29" d="M211.9,31.07a3.72,3.72,0,0,0-2.25-2.35,4.22,4.22,0,0,0-2.85.39c-3.66,1.76-10.55,18.4-7.46,38.15,1.06,6.82,4.34,20.6,16.79,35.14a2.73,2.73,0,0,0,1.11.53,3.23,3.23,0,0,0,2.68-1c-1.24-2.16-3.09-5.52-5.42-9.27-5.23-8.43-8.47-16.63-9.6-22.32C203.82,64.9,200.14,43.09,211.9,31.07Z" transform="translate(-26.43 -18.99)"/><path class="cls-29" d="M272.68,27.13c0-.5,1.77-2.56,2.95-3.21a5.94,5.94,0,0,1,5.1.13C284.32,26,293,36,294.46,56.12c.5,7-.88,21.15-9.74,38.27a2.17,2.17,0,0,1-1.84,1.18A2.23,2.23,0,0,1,280.6,94c.72-2.41,1.79-5.4,3.21-9.62,3.2-9.48,4.51-18.29,4.33-24.14C288,54.57,286.85,36.29,272.68,27.13Z" transform="translate(-26.43 -18.99)"/><path class="cls-29" d="M246.92,22.29a3.9,3.9,0,0,1,2-2.85,4.82,4.82,0,0,1,3.31-.3c4.56,1.05,16.59,18.21,18.26,41.55.57,8.06.46,24.64-9.73,44.49a3.15,3.15,0,0,1-1.11.89,3.62,3.62,0,0,1-3.25-.4c.84-2.79,2-7.1,3.68-12,3.68-11,5.19-21.19,5-28C264.84,59.18,263.23,32.9,246.92,22.29Z" transform="translate(-26.43 -18.99)"/><path class="cls-29" d="M189.79,38.32a2.94,2.94,0,0,0-2.13-1.81,5,5,0,0,0-2.85.42c-3.7,1.59-11.1,15.71-8.7,32.1.83,5.66,3.62,17.06,15.49,28.78a2.83,2.83,0,0,0,1.09.4,3.76,3.76,0,0,0,2.69-.89c-1.16-1.76-2.89-4.51-5.07-7.56-4.91-6.86-7.86-13.6-8.78-18.31C180.64,66.92,177.7,48.75,189.79,38.32Z" transform="translate(-26.43 -18.99)"/><path class="cls-28" d="M108,183.88c-4.94,2.84-11.32,2.89-14.13.61-7.24-3-16.82-7-24.35-14.66-4.79-4.87-14.74-15-19.85-30C46,129,45.74,120.18,46,111.14c.06-2.38.2-6.53,4.51-9.81a75.59,75.59,0,0,0,1.33,25.91c6,26,24.69,40.86,27.42,43A75.71,75.71,0,0,0,108,183.88Z" transform="translate(-26.43 -18.99)"/><path class="cls-28" d="M161.73,152.78a11.06,11.06,0,0,1-1.83,6.13c-2.49,3.47-3.88,4.71-8.32,6a58.79,58.79,0,0,0,2.59-20.34c-1.12-21-8.79-35.71-22.34-52.42-8.34-10.28-9.68-11.62-17.07-18.07-.4-.43.12-1.35,1.14-.84,6.23,3.12,13.31,9,23.54,19.49C143.36,96.75,164.17,123.86,161.73,152.78Z" transform="translate(-26.43 -18.99)"/><path class="cls-28" d="M132.09,177.5c-2,2.08-4.05,3-7.64,2.85a374,374,0,0,0-21.82-52.74A374.72,374.72,0,0,0,72.71,78.44C73.65,76.9,75.2,76,77.77,76a399.79,399.79,0,0,1,30.33,47.78A397.71,397.71,0,0,1,132.09,177.5Z" transform="translate(-26.43 -18.99)"/><path class="cls-18" d="M49.31,100.84a4.28,4.28,0,1,1-5.56,2.38A4.28,4.28,0,0,1,49.31,100.84Z" transform="translate(-26.43 -18.99)"/><path class="cls-18" d="M103.14,119.84a4.28,4.28,0,1,1-5.57,2.38A4.28,4.28,0,0,1,103.14,119.84Z" transform="translate(-26.43 -18.99)"/><path class="cls-18" d="M56.26,131.68a5.26,5.26,0,1,1-6.21-4.09A5.26,5.26,0,0,1,56.26,131.68Z" transform="translate(-26.43 -18.99)"/><path class="cls-18" d="M81.82,175.05a3.55,3.55,0,1,1-4.18-2.76A3.54,3.54,0,0,1,81.82,175.05Z" transform="translate(-26.43 -18.99)"/><path class="cls-18" d="M87.77,85a3.55,3.55,0,1,1-3.87-3.19A3.54,3.54,0,0,1,87.77,85Z" transform="translate(-26.43 -18.99)"/><circle class="cls-18" cx="5.26" cy="132.71" r="5.26"/><path class="cls-18" d="M129.22,159A5.26,5.26,0,1,1,123,155,5.26,5.26,0,0,1,129.22,159Z" transform="translate(-26.43 -18.99)"/><path class="cls-18" d="M142.74,89.33a5.26,5.26,0,1,1-6.2-4.09A5.25,5.25,0,0,1,142.74,89.33Z" transform="translate(-26.43 -18.99)"/><path class="cls-17" d="M202.63,48.75a4.71,4.71,0,1,1-5.56-3.67A4.71,4.71,0,0,1,202.63,48.75Z" transform="translate(-26.43 -18.99)"/><path class="cls-17" d="M211.9,78.45a6.11,6.11,0,1,1-7.21-4.76A6.11,6.11,0,0,1,211.9,78.45Z" transform="translate(-26.43 -18.99)"/><path class="cls-17" d="M266.11,30.94a4,4,0,1,1-4.74-3.13A4,4,0,0,1,266.11,30.94Z" transform="translate(-26.43 -18.99)"/><path class="cls-17" d="M269.66,74.11a3.8,3.8,0,1,1-4.48-3A3.79,3.79,0,0,1,269.66,74.11Z" transform="translate(-26.43 -18.99)"/><circle class="cls-17" cx="265.42" cy="27.47" r="3.8"/><circle class="cls-17" cx="263.15" cy="60.84" r="4.39"/><circle class="cls-18" cx="127.03" cy="114.17" r="4.25"/><path class="cls-18" d="M50.62,177.28a4.08,4.08,0,1,1-4.81-3.17A4.07,4.07,0,0,1,50.62,177.28Z" transform="translate(-26.43 -18.99)"/><path class="cls-17" d="M192.64,86.17a3.7,3.7,0,1,1-4.37-2.88A3.7,3.7,0,0,1,192.64,86.17Z" transform="translate(-26.43 -18.99)"/></g></svg>