<svg xmlns="http://www.w3.org/2000/svg" viewBox="0 0 516.75 348.37"><defs><style>.cls-1{fill:#f9f8f6;}.cls-2{fill:#e6a06c;}.cls-3{fill:#fedea3;}.cls-4{fill:#747780;}.cls-5{fill:#9ca7d0;}.cls-6{fill:#fff;}.cls-7{fill:#b7c06f;}.cls-8{fill:#b7d8f7;}.cls-9{fill:#a6a056;}.cls-10{fill:#d9b4a3;}.cls-11{fill:#331338;}.cls-12{fill:#c48163;}.cls-13{fill:#d4a189;}.cls-14{fill:#f5cbb8;}.cls-15{fill:#ede0da;}.cls-16{fill:#7381c6;}.cls-17{fill:#353535;}.cls-18{fill:#c3cbf1;}.cls-19{fill:#424a66;}.cls-20{fill:#a1c8b1;}.cls-21{fill:#e45b7e;}.cls-22{fill:#ed1b2e;}.cls-23{fill:#231f20;}.cls-24{fill:#fee8bf;}.cls-25{fill:#dba178;}.cls-26{fill:#312823;}</style></defs><g id="bg"><path class="cls-1" d="M61.07,343s24.62,32.85,139.54,21.22c121.77-12.32,135.84-10.9,237.6-5.09s109.88-34.35,54.51-70.65c-61.05-40,61.79-54.26,39.25-135-11.81-42.36-64-94.56-195.24-114.84C190.94,16.06,210.23,96,178.23,121.17c-25,19.68-59.83-3.78-80.19,20.36-34.13,40.49,27.56,91,30,115.87C131.48,293.45,36.36,304.38,61.07,343Z" transform="translate(-43.28 -29.97)"/></g><g id="books"><rect class="cls-2" x="324.69" y="221.94" width="127.03" height="27.42" rx="2.39"/><rect class="cls-3" x="324.35" y="204.73" width="100.95" height="17.21" rx="1.47"/><rect class="cls-4" x="168.03" y="185.19" width="12.24" height="114.68" transform="translate(-165.01 172.52) rotate(-46.61)"/><rect class="cls-5" x="406.47" y="204.73" width="7.89" height="17.21"/><rect class="cls-6" x="428.45" y="221.94" width="11.42" height="27.38"/><rect class="cls-5" x="74.63" y="121.2" width="20.51" height="114.68" rx="2.15"/><rect class="cls-7" x="54.12" y="165.85" width="20.51" height="70.03" rx="2.15"/><rect class="cls-2" x="122.62" y="222.93" width="20.51" height="106.34" rx="2.15" transform="translate(-186.5 379.01) rotate(-90)"/><rect class="cls-3" x="108.98" y="235.88" width="10.63" height="20.51"/><rect class="cls-8" x="54.12" y="219.8" width="20.51" height="5.59"/><rect class="cls-6" x="74.63" y="212.25" width="20.51" height="9.51"/></g><g id="flower"><path class="cls-9" d="M424.45,192.46c3.17-3.05-.83-52.32-27.16-79.94-39.77-41.71-74.1-56.08-92.84-57.43-14.64-1.06-18.37,7.51-5.29,10.75s22.54,11,20.08,24,7.08,18.9,15.93,15,26.53-7.58,33.57,13S367,159.19,387.26,167s22.95,36.27,22.95,36.27Z" transform="translate(-43.28 -29.97)"/><path class="cls-9" d="M427.62,186.66c1.7-1.37,13.45-24.86,13.45-48.84,0-29.57-16.62-42.51-36.55-60.15-12.9-11.41,10.9-39.79-4.54-46.57s-38,18.54-33.53,33.46,20.12,12.21,24.35,28c2,7.58-12.18,17.56-4.23,30.26,7.25,11.59,30.6-.66,28.43,33.18-1.54,24-5.13,29.77-5.13,29.77Z" transform="translate(-43.28 -29.97)"/><path class="cls-7" d="M420.1,186.79a.45.45,0,0,1-.2,0,.49.49,0,0,1-.26-.65c.17-.39,16.82-39.35,7.51-64.76-5.69-15.53-17-26.29-27.85-36.69-4.62-4.41-9-8.58-12.89-13.05-11.88-13.61,3.85-32.61,4-32.8a.51.51,0,0,1,.71-.06.52.52,0,0,1,.06.71c-.16.18-15.34,18.53-4,31.49,3.88,4.44,8.23,8.59,12.83,13,11,10.48,22.33,21.31,28.1,37.07,9.45,25.79-7.36,65.1-7.53,65.49A.51.51,0,0,1,420.1,186.79Z" transform="translate(-43.28 -29.97)"/><path class="cls-7" d="M427.62,186.66s-12-32.39.57-43.92,22.7-7.81,21.23-35.31c-1.33-24.7,9.91-24.07,12.43-17.75,1.58,3.95,8.09,32.07.89,44.24s-22.51,11.82-21.67,34,0,28.8,0,28.8Z" transform="translate(-43.28 -29.97)"/><path class="cls-9" d="M427.73,175.85c-.55-3,0-26.38,28.06-46.66,23.33-16.85,29.67-19.54,31.86-49.18s11.44-40.3,25.85-35c10.87,4,16.42,27.49.5,51.28s-26.22,28.4-23.05,45.18c4.05,21.47-3.6,32.42-17.5,27.72-19-6.43-20.9-9.24-30.78,7.87Z" transform="translate(-43.28 -29.97)"/><path class="cls-7" d="M431.24,179.4a.58.58,0,0,1-.19,0,.5.5,0,0,1-.27-.66c7.38-17.81,13.6-23.35,18.71-26.41,5.63-3.39,9.55-2,13.68-.55a27.34,27.34,0,0,0,7.38,1.79,7.41,7.41,0,0,0,5.72-1.62c2.71-2.39,3.32-7.12,3.54-11,.78-13.64,7.67-25.46,14.32-36.89,8.56-14.7,16.64-28.57,13.11-46.13a.5.5,0,1,1,1-.2c3.61,17.93-5,32.62-13.22,46.83-6.6,11.33-13.42,23-14.19,36.44-.24,4.05-.89,9-3.88,11.67a8.45,8.45,0,0,1-6.45,1.87,27.88,27.88,0,0,1-7.64-1.85c-4.08-1.44-7.61-2.68-12.84.46-5,3-11,8.4-18.3,25.95A.5.5,0,0,1,431.24,179.4Z" transform="translate(-43.28 -29.97)"/><path class="cls-10" d="M463.1,169.18l-2,16.26L455,234.7H393.9l-8.1-65.52h0c0-1.32,17.23-2.39,38.49-2.39,5.49,0,10.71.07,15.44.2h.15c13.5.37,22.91,1.2,22.91,2.18Z" transform="translate(-43.28 -29.97)"/><path class="cls-7" d="M401.86,174.16a.5.5,0,0,1-.49-.44c-6.12-45.64-32.79-74-54.08-89.67-23.08-17-45-23.34-45.19-23.4a.5.5,0,0,1-.34-.62.49.49,0,0,1,.61-.35,159.45,159.45,0,0,1,45.52,23.57c21.44,15.82,48.3,44.35,54.47,90.34a.49.49,0,0,1-.43.56Z" transform="translate(-43.28 -29.97)"/><path class="cls-11" d="M463.1,169.18l-2,16.26a10.4,10.4,0,0,1-5.25-5.41,23.09,23.09,0,0,0-15.95-13c13.5.37,22.91,1.2,22.91,2.18Z" transform="translate(-43.28 -29.97)"/></g><g id="a_cup" data-name="a cup"><path class="cls-12" d="M111.42,316.4c0,3.07-10.45,5.56-23.34,5.56s-23.34-2.49-23.34-5.56,10.45-5.56,23.34-5.56S111.42,313.33,111.42,316.4Z" transform="translate(-43.28 -29.97)"/><ellipse class="cls-13" cx="44.8" cy="280.88" rx="44.8" ry="8.08"/><path class="cls-1" d="M88.08,317.71c-19.63,0-39.94-2.57-39.94-6.87S68.45,304,88.08,304,128,306.54,128,310.84,107.71,317.71,88.08,317.71Zm0-13.23c-23.59,0-39.44,3.29-39.44,6.36s15.85,6.37,39.44,6.37,39.44-3.29,39.44-6.37S111.67,304.48,88.08,304.48Z" transform="translate(-43.28 -29.97)"/><ellipse class="cls-12" cx="49.09" cy="280.88" rx="22.67" ry="4.82"/><path class="cls-14" d="M89.57,313.58h-3a19.41,19.41,0,0,1-19.3-17.29l-1.82-16.57h45.22l-1.82,16.57A19.41,19.41,0,0,1,89.57,313.58Z" transform="translate(-43.28 -29.97)"/><path class="cls-14" d="M78.17,303H67.48a8.89,8.89,0,0,1-8.88-8.88v-3.42a8.89,8.89,0,0,1,8.88-8.88H78.17ZM67.48,286.81a3.88,3.88,0,0,0-3.88,3.88v3.42A3.88,3.88,0,0,0,67.48,298h5.69V286.81Z" transform="translate(-43.28 -29.97)"/><ellipse class="cls-15" cx="44.8" cy="249.75" rx="22.67" ry="1.98"/></g><g id="laptop"><path class="cls-16" d="M442,343H141a13,13,0,0,1-13-13H455A13,13,0,0,1,442,343Z" transform="translate(-43.28 -29.97)"/><rect class="cls-11" x="126.77" y="71.16" width="244.94" height="170.59" rx="8.26"/><rect class="cls-17" x="135.23" y="80.2" width="228.04" height="152.51" rx="7.54"/><path class="cls-18" d="M229.85,331.5a9.2,9.2,0,0,1-1.45-.11,5.67,5.67,0,0,1-1.12-.29,1.87,1.87,0,0,1-.69-.44.56.56,0,0,1-.15-.53l7.25-25.65a.77.77,0,0,1,.38-.41,2.94,2.94,0,0,1,.81-.34,6.3,6.3,0,0,1,1.12-.23,10.84,10.84,0,0,1,1.31-.08l108.31,0h0a11,11,0,0,1,1.32.08,6.37,6.37,0,0,1,1.11.23,3.48,3.48,0,0,1,.81.33.8.8,0,0,1,.37.42l7.35,25.65a.57.57,0,0,1-.14.53,1.86,1.86,0,0,1-.69.43,5.67,5.67,0,0,1-1.12.29,9.2,9.2,0,0,1-1.45.11l-123.34,0ZM369.4,301.1a2.6,2.6,0,0,1-.4,0,2.81,2.81,0,0,1-.35-.06,1.27,1.27,0,0,1-.26-.11.31.31,0,0,1-.13-.12l-.73-1.9a.14.14,0,0,1,0-.12.5.5,0,0,1,.18-.1,1.77,1.77,0,0,1,.29-.07l.39,0h13.73a2.55,2.55,0,0,1,.4,0,2.7,2.7,0,0,1,.35.07,1.18,1.18,0,0,1,.27.1.26.26,0,0,1,.13.12l.88,1.9a.09.09,0,0,1,0,.12.38.38,0,0,1-.17.1,1,1,0,0,1-.29.07,2.17,2.17,0,0,1-.38,0Zm18.08,0a2.6,2.6,0,0,1-.4,0,1.91,1.91,0,0,1-.36-.07,1.39,1.39,0,0,1-.27-.1.31.31,0,0,1-.13-.12l-.91-1.9a.1.1,0,0,1,0-.12.45.45,0,0,1,.17-.1,1.54,1.54,0,0,1,.29-.07,2.24,2.24,0,0,1,.38,0H400a2.73,2.73,0,0,1,.41,0,2.81,2.81,0,0,1,.35.06,2,2,0,0,1,.27.1.32.32,0,0,1,.15.12l1.05,1.9a.1.1,0,0,1,0,.13.34.34,0,0,1-.16.1,1.42,1.42,0,0,1-.28.07l-.38,0Zm17.87,0-.41,0-.36-.07a1.18,1.18,0,0,1-.27-.1.28.28,0,0,1-.15-.13l-1.09-1.9a.11.11,0,0,1,0-.12.44.44,0,0,1,.16-.1,1.49,1.49,0,0,1,.28-.06,2.05,2.05,0,0,1,.37,0h13.74l.41,0,.36.07a1.51,1.51,0,0,1,.28.1.39.39,0,0,1,.15.12l1.24,1.9a.13.13,0,0,1,0,.12.34.34,0,0,1-.16.11,1.49,1.49,0,0,1-.28.06,2.17,2.17,0,0,1-.38,0Zm-240.76.05a3.43,3.43,0,0,1-.48,0,1.36,1.36,0,0,1-.35-.09.42.42,0,0,1-.19-.13.11.11,0,0,1,0-.15l2.57-4a.57.57,0,0,1,.2-.15l.34-.12.45-.08a4.36,4.36,0,0,1,.51,0h13a3.38,3.38,0,0,1,.47,0,2,2,0,0,1,.35.08.7.7,0,0,1,.2.12.12.12,0,0,1,0,.15l-2.27,4a.45.45,0,0,1-.19.16,1.62,1.62,0,0,1-.34.13l-.45.08a4.38,4.38,0,0,1-.52,0Zm17.85,0a3.43,3.43,0,0,1-.48,0,2.45,2.45,0,0,1-.36-.08.53.53,0,0,1-.2-.13.13.13,0,0,1,0-.16l2.21-4a.57.57,0,0,1,.18-.15l.34-.12.44-.08a4.07,4.07,0,0,1,.5,0h13a3.38,3.38,0,0,1,.47,0,1.4,1.4,0,0,1,.35.08.42.42,0,0,1,.21.12.14.14,0,0,1,0,.15l-1.9,4a.33.33,0,0,1-.17.16,1.27,1.27,0,0,1-.33.12,2.75,2.75,0,0,1-.45.09,4.12,4.12,0,0,1-.51,0Zm17.79,0a3.53,3.53,0,0,1-.48,0,1.67,1.67,0,0,1-.37-.09.42.42,0,0,1-.21-.12.12.12,0,0,1,0-.16l1.85-4a.43.43,0,0,1,.17-.15,1.27,1.27,0,0,1,.33-.12,2.72,2.72,0,0,1,.43-.09,4.07,4.07,0,0,1,.5,0h13a3.53,3.53,0,0,1,.48,0,2.45,2.45,0,0,1,.36.08.64.64,0,0,1,.22.13.14.14,0,0,1,0,.15l-1.54,4a.34.34,0,0,1-.16.15,1.06,1.06,0,0,1-.32.13,2.63,2.63,0,0,1-.44.09,4.12,4.12,0,0,1-.51,0Zm17.78,0a3.68,3.68,0,0,1-.49,0,1.67,1.67,0,0,1-.37-.09.46.46,0,0,1-.22-.13.12.12,0,0,1,0-.15l1.49-4a.3.3,0,0,1,.16-.15,1.31,1.31,0,0,1,.31-.13l.42-.08a4.07,4.07,0,0,1,.5,0h17a3.64,3.64,0,0,1,.48,0,2.61,2.61,0,0,1,.37.08.7.7,0,0,1,.23.12.17.17,0,0,1,.06.15l-1.1,4c0,.06-.06.11-.14.16a1.31,1.31,0,0,1-.31.13l-.43.08a3.9,3.9,0,0,1-.5,0Zm21.77,0a3.68,3.68,0,0,1-.49,0,2.49,2.49,0,0,1-.38-.08.66.66,0,0,1-.24-.13.17.17,0,0,1-.06-.16l1.06-4c0-.05.06-.1.14-.15a1.09,1.09,0,0,1,.3-.12l.41-.08a3.91,3.91,0,0,1,.49,0l83.69,0a3.91,3.91,0,0,1,.49,0l.41.08a1.7,1.7,0,0,1,.29.12.29.29,0,0,1,.13.15l.72,4c0,.05,0,.1-.08.15a.72.72,0,0,1-.25.13,1.87,1.87,0,0,1-.39.09,3.79,3.79,0,0,1-.49,0Zm90.23,0a3.75,3.75,0,0,1-.5,0,3.51,3.51,0,0,1-.42-.08,1.07,1.07,0,0,1-.3-.13.25.25,0,0,1-.13-.15l-.76-4a.15.15,0,0,1,.07-.15.88.88,0,0,1,.24-.12,2.78,2.78,0,0,1,.38-.08,3.53,3.53,0,0,1,.48,0h17a4,4,0,0,1,.5,0l.42.08a1.44,1.44,0,0,1,.3.12.39.39,0,0,1,.14.15l1.16,4a.14.14,0,0,1-.06.16.7.7,0,0,1-.23.13,2.78,2.78,0,0,1-.38.08,3.68,3.68,0,0,1-.49,0Zm22.16,0a4.07,4.07,0,0,1-.5,0l-.44-.08a1.52,1.52,0,0,1-.31-.13.32.32,0,0,1-.15-.16l-1.2-4a.16.16,0,0,1,.05-.15.7.7,0,0,1,.23-.12,1.7,1.7,0,0,1,.37-.08,3.64,3.64,0,0,1,.48,0h13.07a4.07,4.07,0,0,1,.5,0,2.38,2.38,0,0,1,.42.09,1,1,0,0,1,.31.12.34.34,0,0,1,.16.15l1.53,4a.16.16,0,0,1,0,.16.7.7,0,0,1-.23.12,1.67,1.67,0,0,1-.37.09,3.68,3.68,0,0,1-.49,0Zm34.1-2.53a2.73,2.73,0,0,1-.41,0l-.35-.07a.88.88,0,0,1-.26-.1.22.22,0,0,1-.13-.12l-.89-1.85a.11.11,0,0,1,0-.12.38.38,0,0,1,.17-.09,1.42,1.42,0,0,1,.28-.07l.37,0h13.57a2.69,2.69,0,0,1,.4,0c.12,0,.24,0,.35.06a1.28,1.28,0,0,1,.26.1.49.49,0,0,1,.15.12l1,1.85a.11.11,0,0,1,0,.12.34.34,0,0,1-.16.1,1.42,1.42,0,0,1-.28.07l-.38,0ZM168,295.77a3.38,3.38,0,0,1-.47,0,1.06,1.06,0,0,1-.34-.08.39.39,0,0,1-.19-.12.12.12,0,0,1,0-.14l2.44-3.83a.62.62,0,0,1,.19-.14,1.82,1.82,0,0,1,.33-.11,2.66,2.66,0,0,1,.44-.08,3.79,3.79,0,0,1,.49,0H204.2a3.23,3.23,0,0,1,.46,0,2.29,2.29,0,0,1,.35.08.43.43,0,0,1,.2.12.1.1,0,0,1,0,.14l-1.72,3.82a.39.39,0,0,1-.16.15l-.32.12-.43.08a4.07,4.07,0,0,1-.5,0Zm39.18,0a3.13,3.13,0,0,1-.46,0,1.58,1.58,0,0,1-.36-.09.47.47,0,0,1-.21-.12.11.11,0,0,1,0-.14l1.68-3.82a.35.35,0,0,1,.15-.15,1.58,1.58,0,0,1,.31-.11l.42-.08a3.79,3.79,0,0,1,.49,0h12.73a3.33,3.33,0,0,1,.46,0,1.4,1.4,0,0,1,.35.08.56.56,0,0,1,.22.11.12.12,0,0,1,.05.14l-1.37,3.82a.27.27,0,0,1-.15.15,1.11,1.11,0,0,1-.31.12,2.59,2.59,0,0,1-.42.09,4.07,4.07,0,0,1-.5,0H207.16Zm17.41,0a3.38,3.38,0,0,1-.47,0,1.7,1.7,0,0,1-.37-.08.51.51,0,0,1-.22-.12.12.12,0,0,1,0-.15l1.33-3.82a.24.24,0,0,1,.14-.14,1.46,1.46,0,0,1,.3-.11,2.29,2.29,0,0,1,.41-.08,3.75,3.75,0,0,1,.48,0h12.74a3.38,3.38,0,0,1,.47,0,1.64,1.64,0,0,1,.36.07,1,1,0,0,1,.23.12.12.12,0,0,1,0,.14l-1,3.82a.32.32,0,0,1-.14.15,1.09,1.09,0,0,1-.3.12l-.41.08a3.91,3.91,0,0,1-.49,0Zm17.41,0a3.43,3.43,0,0,1-.48,0l-.38-.08a.7.7,0,0,1-.23-.12s-.08-.1-.06-.15l1-3.82a.25.25,0,0,1,.13-.14,1.7,1.7,0,0,1,.29-.12,2.33,2.33,0,0,1,.41-.07,3.64,3.64,0,0,1,.48,0h12.73l.46,0a2.33,2.33,0,0,1,.37.08.54.54,0,0,1,.24.12.13.13,0,0,1,.07.14l-.68,3.82a.27.27,0,0,1-.12.15l-.29.12-.41.08a3.79,3.79,0,0,1-.49,0Zm17.39,0a3.64,3.64,0,0,1-.48,0l-.38-.08a1.06,1.06,0,0,1-.24-.12.15.15,0,0,1-.07-.15l.64-3.82a.22.22,0,0,1,.12-.14.91.91,0,0,1,.28-.12l.4-.08a3.64,3.64,0,0,1,.48,0h12.72a3.38,3.38,0,0,1,.47,0,1.91,1.91,0,0,1,.39.08,1,1,0,0,1,.25.11.21.21,0,0,1,.08.15l-.34,3.82a.24.24,0,0,1-.11.14.91.91,0,0,1-.28.12,2.15,2.15,0,0,1-.4.09c-.15,0-.32,0-.49,0Zm17.4,0c-.17,0-.33,0-.48,0a1.87,1.87,0,0,1-.39-.09.7.7,0,0,1-.26-.12.15.15,0,0,1-.08-.15l.31-3.81c0-.06,0-.1.1-.15a1.16,1.16,0,0,1,.27-.11,2,2,0,0,1,.4-.08,3.38,3.38,0,0,1,.47,0h12.73a3.38,3.38,0,0,1,.47,0,1.72,1.72,0,0,1,.38.07,1.29,1.29,0,0,1,.26.12.19.19,0,0,1,.1.14v3.82a.22.22,0,0,1-.1.15.91.91,0,0,1-.26.12l-.4.08a3.64,3.64,0,0,1-.48,0Zm17.4,0a3.79,3.79,0,0,1-.49,0l-.39-.08a1.14,1.14,0,0,1-.27-.12.2.2,0,0,1-.09-.15l0-3.82a.17.17,0,0,1,.09-.14.91.91,0,0,1,.26-.12,2,2,0,0,1,.38-.07,3.64,3.64,0,0,1,.48,0h12.72a3.64,3.64,0,0,1,.48,0,3,3,0,0,1,.39.08.81.81,0,0,1,.28.12.19.19,0,0,1,.1.14l.35,3.82a.2.2,0,0,1-.09.15,1.17,1.17,0,0,1-.25.12,3,3,0,0,1-.39.08,3.68,3.68,0,0,1-.49,0Zm17.4,0a3.79,3.79,0,0,1-.49,0l-.4-.08a1.55,1.55,0,0,1-.28-.12c-.07,0-.11-.1-.11-.15l-.38-3.82a.14.14,0,0,1,.08-.14.65.65,0,0,1,.25-.12l.38-.08a3.38,3.38,0,0,1,.47,0h12.73a3.48,3.48,0,0,1,.47,0l.4.08a1.09,1.09,0,0,1,.28.11c.07.05.11.09.12.14l.69,3.83a.16.16,0,0,1-.08.14.54.54,0,0,1-.24.12,1.34,1.34,0,0,1-.38.08,3.53,3.53,0,0,1-.48,0Zm17.39,0a3.91,3.91,0,0,1-.49,0,1.66,1.66,0,0,1-.41-.08.91.91,0,0,1-.28-.12.25.25,0,0,1-.13-.14l-.72-3.83c0-.05,0-.09.07-.14a.67.67,0,0,1,.24-.11,2.61,2.61,0,0,1,.37-.08,3.33,3.33,0,0,1,.46,0H340.8a3.64,3.64,0,0,1,.48,0,2.29,2.29,0,0,1,.41.08,1.18,1.18,0,0,1,.29.11.27.27,0,0,1,.14.14l1,3.82a.13.13,0,0,1-.06.15.55.55,0,0,1-.23.12,1.8,1.8,0,0,1-.38.08,3.38,3.38,0,0,1-.47,0Zm17.4,0a3.91,3.91,0,0,1-.49,0,2.41,2.41,0,0,1-.42-.08,1,1,0,0,1-.3-.12.25.25,0,0,1-.14-.15L344,291.54c0-.05,0-.1.06-.14a.79.79,0,0,1,.23-.12,1.64,1.64,0,0,1,.36-.07,3.38,3.38,0,0,1,.47,0h12.74a3.64,3.64,0,0,1,.48,0,2.21,2.21,0,0,1,.4.07l.3.12a.31.31,0,0,1,.14.14l1.37,3.82a.15.15,0,0,1,0,.15,1,1,0,0,1-.23.12,2.45,2.45,0,0,1-.36.08,3.38,3.38,0,0,1-.47,0Zm17.4,0a4,4,0,0,1-.5,0l-.42-.08a2,2,0,0,1-.31-.12.35.35,0,0,1-.15-.15L361,291.54a.12.12,0,0,1,0-.14.47.47,0,0,1,.21-.12,2.45,2.45,0,0,1,.36-.08,3.23,3.23,0,0,1,.46,0h12.73a3.75,3.75,0,0,1,.48,0,3.51,3.51,0,0,1,.42.08,1.07,1.07,0,0,1,.32.12.38.38,0,0,1,.16.14l1.71,3.81a.12.12,0,0,1,0,.15.42.42,0,0,1-.21.12,1.58,1.58,0,0,1-.36.09,3.38,3.38,0,0,1-.47,0Zm17.4,0a3.84,3.84,0,0,1-.5,0,2.63,2.63,0,0,1-.44-.09,1.07,1.07,0,0,1-.32-.12.36.36,0,0,1-.17-.15L378,291.53s0-.09,0-.14a.51.51,0,0,1,.21-.11,1.4,1.4,0,0,1,.35-.08,3.23,3.23,0,0,1,.46,0h33.61l.49,0,.44.08a1.78,1.78,0,0,1,.33.12.43.43,0,0,1,.19.14l2.47,3.82a.12.12,0,0,1,0,.15.52.52,0,0,1-.19.12,2,2,0,0,1-.35.08,3.13,3.13,0,0,1-.46,0Zm-210-5.05a3.23,3.23,0,0,1-.46,0,1.36,1.36,0,0,1-.33-.07.48.48,0,0,1-.19-.12.12.12,0,0,1,0-.14l2.32-3.62a.39.39,0,0,1,.18-.14,1.48,1.48,0,0,1,.32-.11,2.45,2.45,0,0,1,.42-.07,3.64,3.64,0,0,1,.48,0h24.24l.45,0a2,2,0,0,1,.33.08.38.38,0,0,1,.2.11.11.11,0,0,1,0,.13l-1.8,3.63c0,.05-.08.09-.16.14a1.48,1.48,0,0,1-.32.11l-.42.08a3.75,3.75,0,0,1-.48,0Zm28.78,0a3.33,3.33,0,0,1-.46,0,2.14,2.14,0,0,1-.34-.08.51.51,0,0,1-.21-.11.13.13,0,0,1,0-.14l1.77-3.63a.31.31,0,0,1,.16-.13,1.12,1.12,0,0,1,.31-.11,2.29,2.29,0,0,1,.41-.08,3.64,3.64,0,0,1,.48,0h12.4a3,3,0,0,1,.45,0,2.24,2.24,0,0,1,.34.07.51.51,0,0,1,.21.11.13.13,0,0,1,0,.14L214,290.32a.29.29,0,0,1-.15.14,1,1,0,0,1-.3.12l-.42.08-.48,0Zm16.94,0-.45,0a2.45,2.45,0,0,1-.36-.08.58.58,0,0,1-.21-.12.13.13,0,0,1,0-.14l1.44-3.62a.29.29,0,0,1,.15-.14,1.46,1.46,0,0,1,.3-.11,3.27,3.27,0,0,1,.4-.07,3.59,3.59,0,0,1,.47,0H231a3.19,3.19,0,0,1,.45,0,1.67,1.67,0,0,1,.35.07.64.64,0,0,1,.22.11.12.12,0,0,1,0,.14L231,290.32a.27.27,0,0,1-.14.14l-.3.12-.41.07a3.64,3.64,0,0,1-.48,0Zm17,0a3.33,3.33,0,0,1-.46,0,2.56,2.56,0,0,1-.36-.07,1,1,0,0,1-.23-.12.13.13,0,0,1,0-.14l1.12-3.63a.27.27,0,0,1,.13-.13,1.6,1.6,0,0,1,.29-.11,2.38,2.38,0,0,1,.4-.07,3.59,3.59,0,0,1,.47,0h12.41l.45,0a2.45,2.45,0,0,1,.36.08.55.55,0,0,1,.23.11.13.13,0,0,1,.06.13l-.83,3.63c0,.05-.06.09-.13.14a1.26,1.26,0,0,1-.28.11,2.36,2.36,0,0,1-.4.08,3.64,3.64,0,0,1-.48,0Zm16.95,0a3.38,3.38,0,0,1-.47,0,3,3,0,0,1-.37-.08.7.7,0,0,1-.23-.11.15.15,0,0,1-.06-.14l.79-3.63c0-.05.05-.09.12-.13a.91.91,0,0,1,.28-.11l.39-.08.47,0h12.4a3.33,3.33,0,0,1,.46,0,2.56,2.56,0,0,1,.36.07.91.91,0,0,1,.24.11.14.14,0,0,1,.08.14l-.5,3.62a.22.22,0,0,1-.12.14.81.81,0,0,1-.28.12l-.39.08-.48,0Zm16.94,0-.46,0a2.49,2.49,0,0,1-.38-.08.65.65,0,0,1-.25-.12.15.15,0,0,1-.07-.14l.46-3.62a.22.22,0,0,1,.12-.14,1.23,1.23,0,0,1,.27-.11l.38-.07a3.48,3.48,0,0,1,.47,0h12.4a3.33,3.33,0,0,1,.46,0l.37.07a1,1,0,0,1,.25.11.19.19,0,0,1,.08.14l-.18,3.62a.19.19,0,0,1-.1.14,1.29,1.29,0,0,1-.26.12,3.08,3.08,0,0,1-.39.07,3.59,3.59,0,0,1-.47,0Zm16.94,0a3.59,3.59,0,0,1-.47,0l-.38-.07a1.47,1.47,0,0,1-.25-.12.17.17,0,0,1-.09-.14l.15-3.62a.17.17,0,0,1,.09-.14.92.92,0,0,1,.26-.11,2,2,0,0,1,.38-.07,3.33,3.33,0,0,1,.46,0h12.4l.46,0a2.49,2.49,0,0,1,.38.08.92.92,0,0,1,.26.11.17.17,0,0,1,.1.13l.15,3.63a.17.17,0,0,1-.09.14.92.92,0,0,1-.26.11,2,2,0,0,1-.38.08,3.59,3.59,0,0,1-.47,0Zm16.95,0a3.38,3.38,0,0,1-.47,0,3,3,0,0,1-.39-.08,1,1,0,0,1-.27-.11c-.06-.05-.1-.09-.1-.14l-.18-3.63a.17.17,0,0,1,.09-.13.74.74,0,0,1,.25-.11,2.61,2.61,0,0,1,.37-.08l.46,0h12.4a3.48,3.48,0,0,1,.47,0,2,2,0,0,1,.38.08.84.84,0,0,1,.27.11.22.22,0,0,1,.11.13l.46,3.62a.15.15,0,0,1-.07.14.65.65,0,0,1-.25.12,2.61,2.61,0,0,1-.37.08,3.38,3.38,0,0,1-.47,0Zm16.94,0a3.64,3.64,0,0,1-.48,0l-.39-.08a.75.75,0,0,1-.27-.12.22.22,0,0,1-.12-.14l-.5-3.62c0-.05,0-.09.07-.14a.91.91,0,0,1,.24-.1,1.74,1.74,0,0,1,.36-.08,3.33,3.33,0,0,1,.46,0h12.4a3.48,3.48,0,0,1,.47,0,3.08,3.08,0,0,1,.39.07,1.09,1.09,0,0,1,.28.11.22.22,0,0,1,.12.14l.8,3.62a.13.13,0,0,1-.07.14.7.7,0,0,1-.23.12,1.87,1.87,0,0,1-.37.07,3.38,3.38,0,0,1-.47,0Zm17,0a3.64,3.64,0,0,1-.48,0l-.41-.07-.28-.12a.22.22,0,0,1-.13-.14l-.83-3.62a.14.14,0,0,1,.06-.14.7.7,0,0,1,.23-.11,2.88,2.88,0,0,1,.36-.07,3.33,3.33,0,0,1,.46,0h12.4a3.59,3.59,0,0,1,.47,0,2.21,2.21,0,0,1,.4.07,1.26,1.26,0,0,1,.28.11.36.36,0,0,1,.14.13l1.11,3.63a.12.12,0,0,1-.05.14.56.56,0,0,1-.22.11,1.6,1.6,0,0,1-.36.08,3.23,3.23,0,0,1-.46,0Zm16.93,0a3.75,3.75,0,0,1-.48,0,2,2,0,0,1-.4-.08,1.46,1.46,0,0,1-.3-.11.31.31,0,0,1-.14-.14L350,286.67s0-.09.05-.13a.64.64,0,0,1,.22-.11,1.44,1.44,0,0,1,.35-.07,3.09,3.09,0,0,1,.45,0h12.4l.47,0,.41.08a1,1,0,0,1,.3.11c.07,0,.13.08.14.13l1.45,3.63c0,.05,0,.09,0,.14a.64.64,0,0,1-.22.11l-.35.08a3.38,3.38,0,0,1-.47,0Zm16.95,0a3.91,3.91,0,0,1-.49,0l-.41-.08a1.37,1.37,0,0,1-.31-.11.34.34,0,0,1-.15-.14l-1.48-3.63a.11.11,0,0,1,0-.13.41.41,0,0,1,.21-.11,1.4,1.4,0,0,1,.35-.08,3,3,0,0,1,.45,0H380a3.48,3.48,0,0,1,.47,0l.41.07a2.45,2.45,0,0,1,.3.11.46.46,0,0,1,.16.14l1.76,3.62a.11.11,0,0,1,0,.14.42.42,0,0,1-.21.12,1.45,1.45,0,0,1-.34.07,3.23,3.23,0,0,1-.46,0Zm17.25,0a3.91,3.91,0,0,1-.49,0,2.45,2.45,0,0,1-.42-.07,1.44,1.44,0,0,1-.32-.12.41.41,0,0,1-.17-.14l-1.8-3.62a.11.11,0,0,1,0-.14.53.53,0,0,1,.2-.11l.34-.07a3.19,3.19,0,0,1,.45,0h25.07l.47,0,.43.08a1.82,1.82,0,0,1,.33.11.56.56,0,0,1,.18.13l2.33,3.63a.1.1,0,0,1,0,.14.37.37,0,0,1-.18.11,1.42,1.42,0,0,1-.34.08,3.09,3.09,0,0,1-.45,0ZM174.2,285.87a2.94,2.94,0,0,1-.44,0,2.09,2.09,0,0,1-.33-.07.37.37,0,0,1-.18-.11.12.12,0,0,1,0-.14l2.2-3.44a.38.38,0,0,1,.18-.13,1.62,1.62,0,0,1,.31-.1,2.33,2.33,0,0,1,.41-.07,3.59,3.59,0,0,1,.47,0h19.8l.43,0a2.09,2.09,0,0,1,.33.07.48.48,0,0,1,.19.11.11.11,0,0,1,0,.13l-1.79,3.44a.31.31,0,0,1-.16.13,1,1,0,0,1-.3.11l-.42.08-.47,0Zm24.69,0-.44,0a2.14,2.14,0,0,1-.34-.08.42.42,0,0,1-.2-.11.11.11,0,0,1,0-.13l1.75-3.44a.36.36,0,0,1,.16-.13,1.46,1.46,0,0,1,.3-.11l.4-.07a3.39,3.39,0,0,1,.46,0h12.1a2.81,2.81,0,0,1,.43,0,2,2,0,0,1,.34.07,1,1,0,0,1,.21.1.11.11,0,0,1,0,.13l-1.47,3.45a.28.28,0,0,1-.15.13,1.46,1.46,0,0,1-.3.11,2.38,2.38,0,0,1-.4.07,3.59,3.59,0,0,1-.47,0Zm16.51,0a2.94,2.94,0,0,1-.44,0,1.54,1.54,0,0,1-.35-.07.53.53,0,0,1-.2-.11.12.12,0,0,1,0-.13l1.43-3.45a.33.33,0,0,1,.15-.13,1.9,1.9,0,0,1,.29-.1,3.81,3.81,0,0,1,.85-.1H229.2a3,3,0,0,1,.44,0,1.57,1.57,0,0,1,.34.07.69.69,0,0,1,.21.1.11.11,0,0,1,0,.13l-1.15,3.44a.31.31,0,0,1-.14.14,1.18,1.18,0,0,1-.29.11l-.4.07a3.38,3.38,0,0,1-.47,0Zm16.52,0a3.19,3.19,0,0,1-.45,0,2.7,2.7,0,0,1-.35-.07.64.64,0,0,1-.22-.11.16.16,0,0,1-.05-.14l1.13-3.44a.3.3,0,0,1,.14-.13,1.11,1.11,0,0,1,.28-.1,2,2,0,0,1,.38-.07,3.44,3.44,0,0,1,.46,0h12.1l.44,0,.35.07a.56.56,0,0,1,.22.11c.05,0,.08.08.06.13l-.85,3.44a.33.33,0,0,1-.13.14,1.11,1.11,0,0,1-.28.1,2.06,2.06,0,0,1-.39.08,3.48,3.48,0,0,1-.47,0Zm16.51,0-.45,0a2.45,2.45,0,0,1-.36-.08.65.65,0,0,1-.22-.1.15.15,0,0,1-.06-.14l.81-3.44c0-.05.06-.09.12-.13a1.09,1.09,0,0,1,.28-.11l.38-.07.45,0h12.11l.44,0a2.15,2.15,0,0,1,.35.07.7.7,0,0,1,.23.11.11.11,0,0,1,.07.12l-.54,3.45a.22.22,0,0,1-.11.13,1.16,1.16,0,0,1-.27.11,2,2,0,0,1-.39.07,3.33,3.33,0,0,1-.46,0Zm16.52,0a3.33,3.33,0,0,1-.46,0,1.64,1.64,0,0,1-.36-.07.67.67,0,0,1-.24-.11c-.06,0-.08-.08-.07-.13l.51-3.45a.21.21,0,0,1,.11-.12,1.27,1.27,0,0,1,.26-.11l.38-.07.45,0h12.1a2.94,2.94,0,0,1,.44,0l.37.07a.91.91,0,0,1,.24.1.19.19,0,0,1,.08.13l-.24,3.45a.19.19,0,0,1-.1.13.92.92,0,0,1-.26.11l-.38.07a3.33,3.33,0,0,1-.46,0Zm16.51,0a3.23,3.23,0,0,1-.46,0,2.73,2.73,0,0,1-.37-.07.77.77,0,0,1-.24-.11.17.17,0,0,1-.09-.13l.2-3.45a.19.19,0,0,1,.1-.13,1,1,0,0,1,.25-.1,1.87,1.87,0,0,1,.37-.07,3.19,3.19,0,0,1,.45,0h12.12a2.94,2.94,0,0,1,.44,0,1.64,1.64,0,0,1,.36.07.86.86,0,0,1,.25.1c.06,0,.09.08.09.13l.08,3.44a.2.2,0,0,1-.09.14,1,1,0,0,1-.25.11l-.38.07a3.19,3.19,0,0,1-.45,0Zm16.51,0a3.33,3.33,0,0,1-.46,0l-.38-.07a1.53,1.53,0,0,1-.25-.11.17.17,0,0,1-.1-.14l-.1-3.44c0-.05,0-.09.09-.13a.79.79,0,0,1,.24-.1,2.45,2.45,0,0,1,.36-.08l.45,0h12.09l.45,0,.38.07a1,1,0,0,1,.25.11.19.19,0,0,1,.11.13l.38,3.44c0,.05,0,.09-.08.13a.67.67,0,0,1-.24.11,2.45,2.45,0,0,1-.36.08l-.46,0Zm16.51,0-.46,0-.38-.08a1.16,1.16,0,0,1-.27-.11.22.22,0,0,1-.11-.13l-.41-3.45s0-.08.07-.12a.9.9,0,0,1,.24-.11l.35-.07.45,0h12.1a3.19,3.19,0,0,1,.45,0l.38.07a1.18,1.18,0,0,1,.27.1.29.29,0,0,1,.12.13l.69,3.45a.14.14,0,0,1-.07.13.7.7,0,0,1-.23.11,1.64,1.64,0,0,1-.36.07,3.19,3.19,0,0,1-.45,0Zm16.52,0a3.38,3.38,0,0,1-.47,0,3.08,3.08,0,0,1-.39-.07,1.09,1.09,0,0,1-.28-.11.24.24,0,0,1-.12-.13l-.72-3.45a.13.13,0,0,1,.06-.13.71.71,0,0,1,.23-.1l.35-.07a3.19,3.19,0,0,1,.45,0H342.2a3.19,3.19,0,0,1,.45,0,2,2,0,0,1,.39.07,1.28,1.28,0,0,1,.28.1c.07,0,.11.08.12.13l1,3.45s0,.09-.05.13a.64.64,0,0,1-.22.11l-.35.07a3.23,3.23,0,0,1-.46,0Zm16.5,0a3.59,3.59,0,0,1-.47,0,3.45,3.45,0,0,1-.39-.07,1.09,1.09,0,0,1-.28-.11.3.3,0,0,1-.14-.13l-1-3.45a.14.14,0,0,1,.05-.13.65.65,0,0,1,.22-.1,1.45,1.45,0,0,1,.34-.07,3,3,0,0,1,.44,0h12.1a3.33,3.33,0,0,1,.46,0,2.09,2.09,0,0,1,.39.07.89.89,0,0,1,.29.1.3.3,0,0,1,.14.13l1.31,3.44a.14.14,0,0,1-.05.14.51.51,0,0,1-.21.1,2,2,0,0,1-.35.08l-.45,0Zm16.52,0-.47,0-.41-.08a1.5,1.5,0,0,1-.3-.1.37.37,0,0,1-.14-.14l-1.34-3.44a.11.11,0,0,1,0-.13.58.58,0,0,1,.21-.11,2.24,2.24,0,0,1,.34-.07l.44,0H374.5l.45,0,.4.07a1.6,1.6,0,0,1,.29.11.35.35,0,0,1,.14.12l1.62,3.45a.11.11,0,0,1,0,.13.53.53,0,0,1-.2.11,1.45,1.45,0,0,1-.34.07,3,3,0,0,1-.45,0Zm16.5,0a3.59,3.59,0,0,1-.47,0,2.33,2.33,0,0,1-.41-.07,1.46,1.46,0,0,1-.3-.11.31.31,0,0,1-.16-.13L377.53,282a.1.1,0,0,1,0-.12.53.53,0,0,1,.2-.11,2.09,2.09,0,0,1,.33-.07,3,3,0,0,1,.44,0h12.09a3.44,3.44,0,0,1,.46,0l.41.07a1.62,1.62,0,0,1,.31.1.45.45,0,0,1,.16.13l1.92,3.45a.1.1,0,0,1,0,.13.41.41,0,0,1-.19.11,2.09,2.09,0,0,1-.33.07,3.19,3.19,0,0,1-.45,0Zm16.34,0a3.59,3.59,0,0,1-.47,0l-.42-.07a1.58,1.58,0,0,1-.31-.11.35.35,0,0,1-.17-.13l-2-3.45a.13.13,0,0,1,0-.13.48.48,0,0,1,.19-.1,2.09,2.09,0,0,1,.33-.07,2.94,2.94,0,0,1,.44,0H406.6a3.44,3.44,0,0,1,.46,0,2.33,2.33,0,0,1,.41.07,1.74,1.74,0,0,1,.32.1.4.4,0,0,1,.17.13l2.23,3.44a.12.12,0,0,1,0,.14.46.46,0,0,1-.18.11,2.09,2.09,0,0,1-.33.07,2.85,2.85,0,0,1-.44,0ZM177.1,281.29a2.81,2.81,0,0,1-.43,0,1.73,1.73,0,0,1-.32-.07.37.37,0,0,1-.18-.1.1.1,0,0,1,0-.13l2.1-3.28a.44.44,0,0,1,.16-.12,1.89,1.89,0,0,1,.31-.1l.4-.07.45,0h11.8a2.89,2.89,0,0,1,.43,0,1.94,1.94,0,0,1,.32.07.48.48,0,0,1,.19.1.11.11,0,0,1,0,.12L190.51,281a.5.5,0,0,1-.17.12,1.46,1.46,0,0,1-.3.11l-.41.07-.46,0Zm16.11,0-.43,0a2.09,2.09,0,0,1-.33-.07.41.41,0,0,1-.19-.11s0-.08,0-.12l1.8-3.28a.32.32,0,0,1,.15-.12,1.5,1.5,0,0,1,.3-.1l.4-.07a3.24,3.24,0,0,1,.45,0h11.8a2.81,2.81,0,0,1,.43,0,1.18,1.18,0,0,1,.32.07.54.54,0,0,1,.2.09.11.11,0,0,1,0,.13L206.58,281a.33.33,0,0,1-.15.13,1.46,1.46,0,0,1-.3.11l-.39.07-.46,0Zm16.09,0a2.72,2.72,0,0,1-.43,0,1.36,1.36,0,0,1-.33-.07.41.41,0,0,1-.19-.1.11.11,0,0,1,0-.13l1.51-3.27a.28.28,0,0,1,.15-.13l.28-.1c.12,0,.25-.05.39-.06a3.29,3.29,0,0,1,.45,0h11.8a2.81,2.81,0,0,1,.43,0,1.59,1.59,0,0,1,.34.06.53.53,0,0,1,.2.1s.06.08,0,.12L222.66,281a.3.3,0,0,1-.14.13,1.39,1.39,0,0,1-.29.1,2.21,2.21,0,0,1-.4.07,3.29,3.29,0,0,1-.45,0H209.3Zm16.12,0a2.94,2.94,0,0,1-.44,0,2.24,2.24,0,0,1-.34-.07.59.59,0,0,1-.21-.1.11.11,0,0,1,0-.13l1.21-3.28a.35.35,0,0,1,.14-.12,1.11,1.11,0,0,1,.28-.1,2,2,0,0,1,.38-.06,3.19,3.19,0,0,1,.45,0h11.8l.43,0,.34.07a.69.69,0,0,1,.21.1.13.13,0,0,1,.05.12l-1,3.28a.32.32,0,0,1-.13.13,1.11,1.11,0,0,1-.28.1l-.38.07a3.39,3.39,0,0,1-.46,0Zm16.1,0a3,3,0,0,1-.44,0l-.35-.07a.69.69,0,0,1-.21-.1.13.13,0,0,1-.06-.13l.93-3.28s.05-.08.12-.12a1.18,1.18,0,0,1,.27-.1l.37-.07.45,0h11.8l.43,0,.35.07a.65.65,0,0,1,.22.1.14.14,0,0,1,.07.12l-.66,3.28a.2.2,0,0,1-.12.12,1.16,1.16,0,0,1-.27.11l-.38.07-.46,0Zm16.11,0-.45,0-.35-.07a.7.7,0,0,1-.23-.11.14.14,0,0,1-.07-.12l.63-3.28a.2.2,0,0,1,.12-.12.94.94,0,0,1,.26-.1l.37-.07a3.19,3.19,0,0,1,.45,0h11.8a2.9,2.9,0,0,1,.43,0,2.81,2.81,0,0,1,.35.06,1,1,0,0,1,.23.1c.05,0,.08.08.07.13l-.36,3.28a.24.24,0,0,1-.11.12.71.71,0,0,1-.26.1,1.74,1.74,0,0,1-.37.07,3.19,3.19,0,0,1-.45,0Zm16.1,0a3.19,3.19,0,0,1-.45,0,1.77,1.77,0,0,1-.36-.07.71.71,0,0,1-.23-.1.17.17,0,0,1-.08-.13l.34-3.27c0-.05,0-.09.1-.13l.25-.1a3,3,0,0,1,.36-.06,3.15,3.15,0,0,1,.44,0h11.8l.44,0a2.56,2.56,0,0,1,.36.07.91.91,0,0,1,.24.1q.09.06.09.12l-.08,3.28c0,.05,0,.09-.09.13a1,1,0,0,1-.25.1l-.37.07a3.19,3.19,0,0,1-.45,0Zm16.09,0a3.19,3.19,0,0,1-.45,0l-.36-.07a.91.91,0,0,1-.24-.1c-.06,0-.09-.08-.09-.13l0-3.28a.21.21,0,0,1,.1-.12.79.79,0,0,1,.24-.1,2.88,2.88,0,0,1,.36-.07l.44,0h11.8l.44,0a2.88,2.88,0,0,1,.36.07,1,1,0,0,1,.25.1q.09.06.09.12l.22,3.28a.16.16,0,0,1-.08.13,1.45,1.45,0,0,1-.24.1,2.56,2.56,0,0,1-.36.07,3.17,3.17,0,0,1-.44,0H289.82Zm16.11,0-.45,0-.37-.07a1,1,0,0,1-.25-.11.16.16,0,0,1-.1-.12l-.25-3.28a.14.14,0,0,1,.08-.12.71.71,0,0,1,.23-.1l.35-.07.44,0h11.8a3.17,3.17,0,0,1,.44,0l.37.07a.78.78,0,0,1,.26.1.18.18,0,0,1,.11.12l.51,3.28a.15.15,0,0,1-.07.12.9.9,0,0,1-.24.11,2.81,2.81,0,0,1-.35.06,3.19,3.19,0,0,1-.45,0Zm16.11,0a3.33,3.33,0,0,1-.46,0,3.38,3.38,0,0,1-.38-.06.92.92,0,0,1-.26-.11c-.07,0-.11-.08-.11-.12l-.55-3.28a.13.13,0,0,1,.07-.12.55.55,0,0,1,.23-.1l.35-.07a3,3,0,0,1,.43,0h11.8a3.19,3.19,0,0,1,.45,0,3.58,3.58,0,0,1,.37.06,1.42,1.42,0,0,1,.26.1q.11.06.12.12l.81,3.28a.13.13,0,0,1-.06.13.76.76,0,0,1-.22.1,1.67,1.67,0,0,1-.35.07,2.94,2.94,0,0,1-.44,0Zm16.09,0a3.19,3.19,0,0,1-.45,0,2,2,0,0,1-.38-.07,1,1,0,0,1-.27-.1.27.27,0,0,1-.13-.13l-.83-3.28a.13.13,0,0,1,.05-.12.93.93,0,0,1,.22-.1,1.49,1.49,0,0,1,.34-.06,2.81,2.81,0,0,1,.43,0h11.8l.45,0,.38.07a1.18,1.18,0,0,1,.27.1c.07,0,.12.08.13.12l1.1,3.28c0,.05,0,.09-.05.13a.59.59,0,0,1-.21.1l-.35.07a2.94,2.94,0,0,1-.44,0Zm16.11,0a3.33,3.33,0,0,1-.46,0,3.45,3.45,0,0,1-.39-.07,2.39,2.39,0,0,1-.29-.1.32.32,0,0,1-.13-.13l-1.13-3.28a.11.11,0,0,1,.05-.12.51.51,0,0,1,.21-.1,2.09,2.09,0,0,1,.33-.07l.43,0h11.8l.45,0,.39.07a1.51,1.51,0,0,1,.28.1.35.35,0,0,1,.14.12l1.39,3.28s0,.08,0,.12a.53.53,0,0,1-.2.11,2.09,2.09,0,0,1-.33.07l-.44,0Zm16.09,0-.45,0-.4-.07a1.18,1.18,0,0,1-.29-.11c-.07,0-.13-.08-.14-.12l-1.43-3.28a.1.1,0,0,1,0-.12.56.56,0,0,1,.19-.1,2.09,2.09,0,0,1,.33-.07l.43,0h11.8a3.29,3.29,0,0,1,.45,0,2.09,2.09,0,0,1,.39.07,1.54,1.54,0,0,1,.3.09.39.39,0,0,1,.15.13l1.68,3.27a.09.09,0,0,1,0,.13.42.42,0,0,1-.2.1,2,2,0,0,1-.33.08l-.44,0Zm15.73,0a3.33,3.33,0,0,1-.46,0,2.06,2.06,0,0,1-.4-.07,1.31,1.31,0,0,1-.3-.1.31.31,0,0,1-.16-.13L383,277.65a.11.11,0,0,1,0-.13.43.43,0,0,1,.18-.09,1.36,1.36,0,0,1,.33-.07,2.67,2.67,0,0,1,.42,0h19.8l.46,0,.4.07a1.5,1.5,0,0,1,.3.1.5.5,0,0,1,.17.12l2.12,3.28a.11.11,0,0,1,0,.13.37.37,0,0,1-.18.1,1.73,1.73,0,0,1-.32.07,2.72,2.72,0,0,1-.43,0ZM179.25,277l-.42,0a1.67,1.67,0,0,1-.3-.07.43.43,0,0,1-.18-.1.11.11,0,0,1,0-.12l1.07-1.67a.38.38,0,0,1,.17-.11,1.5,1.5,0,0,1,.3-.1l.39-.07.45,0h12.83l.41,0a1.94,1.94,0,0,1,.32.07.5.5,0,0,1,.18.09.09.09,0,0,1,0,.12l-.92,1.67a.44.44,0,0,1-.16.12,1.21,1.21,0,0,1-.29.1c-.12,0-.25.05-.39.06a3.4,3.4,0,0,1-.45,0h-13Zm16.84,0a2.58,2.58,0,0,1-.42,0,1.19,1.19,0,0,1-.31-.07.43.43,0,0,1-.18-.09.09.09,0,0,1,0-.12l.91-1.67a.32.32,0,0,1,.15-.12,1.66,1.66,0,0,1,.29-.09l.39-.07.45,0h12.82a2.82,2.82,0,0,1,.42,0,2.29,2.29,0,0,1,.32.06.48.48,0,0,1,.19.1.12.12,0,0,1,0,.12l-.77,1.67a.35.35,0,0,1-.14.12,1.66,1.66,0,0,1-.29.09,2.26,2.26,0,0,1-.39.07,3.19,3.19,0,0,1-.45,0h-13ZM213,277a2.67,2.67,0,0,1-.42,0,1.36,1.36,0,0,1-.33-.07.54.54,0,0,1-.2-.09s-.05-.08,0-.12l.75-1.67a.35.35,0,0,1,.14-.12,1.28,1.28,0,0,1,.28-.1,3.38,3.38,0,0,1,.38-.06,3.17,3.17,0,0,1,.44,0h12.83a2.81,2.81,0,0,1,.43,0,1.4,1.4,0,0,1,.32.06.53.53,0,0,1,.2.1.1.1,0,0,1,0,.12l-.6,1.66a.29.29,0,0,1-.14.12,1.11,1.11,0,0,1-.28.1l-.38.07-.45,0Zm16.84,0-.43,0a2.36,2.36,0,0,1-.33-.07.69.69,0,0,1-.21-.1.1.1,0,0,1,0-.12l.59-1.66a.22.22,0,0,1,.13-.12,1.18,1.18,0,0,1,.27-.1l.38-.07.44,0h12.83l.42,0,.34.07.21.09a.13.13,0,0,1,.05.12l-.45,1.67s-.05.08-.12.12a.94.94,0,0,1-.26.1l-.38.07-.44,0Zm16.85,0a3,3,0,0,1-.44,0,1.59,1.59,0,0,1-.34-.06.59.59,0,0,1-.21-.1q-.08-.06-.06-.12L246,275a.24.24,0,0,1,.11-.12l.26-.09.37-.07.44,0H260a2.89,2.89,0,0,1,.43,0l.34.06a.71.71,0,0,1,.23.1q.08.06.06.12l-.29,1.67a.2.2,0,0,1-.11.12,1.61,1.61,0,0,1-.25.1,3.18,3.18,0,0,1-.37.06,3.15,3.15,0,0,1-.44,0Zm16.84,0a3,3,0,0,1-.44,0,2.35,2.35,0,0,1-.34-.06,1,1,0,0,1-.23-.1c-.05,0-.08-.08-.07-.12l.28-1.67a.21.21,0,0,1,.1-.12,1.09,1.09,0,0,1,.26-.1l.36-.06a3,3,0,0,1,.43,0h12.83a3,3,0,0,1,.43,0,2.81,2.81,0,0,1,.35.06,1,1,0,0,1,.23.1.14.14,0,0,1,.08.12l-.14,1.67s0,.08-.09.12a1,1,0,0,1-.25.09,2.88,2.88,0,0,1-.36.07,3.17,3.17,0,0,1-.44,0Zm16.84,0a3.1,3.1,0,0,1-.44,0l-.35-.07a.91.91,0,0,1-.24-.1.14.14,0,0,1-.08-.11l.12-1.67a.15.15,0,0,1,.09-.12,1,1,0,0,1,.25-.1,2.81,2.81,0,0,1,.35-.06,3,3,0,0,1,.44,0h12.82a2.9,2.9,0,0,1,.43,0,1.93,1.93,0,0,1,.36.06.91.91,0,0,1,.24.1c.05,0,.09.07.09.11l0,1.67s0,.08-.08.12a.91.91,0,0,1-.24.1l-.35.07-.44,0Zm16.83,0-.44,0-.35-.07a.79.79,0,0,1-.24-.1.21.21,0,0,1-.1-.12l0-1.67s0-.08.09-.11a.71.71,0,0,1,.23-.1,2.56,2.56,0,0,1,.36-.07l.43,0H309.9l.43,0,.37.07a1,1,0,0,1,.25.09.21.21,0,0,1,.1.12l.19,1.67a.17.17,0,0,1-.08.12.71.71,0,0,1-.23.1,1.58,1.58,0,0,1-.35.06,2.81,2.81,0,0,1-.43,0ZM314,277a3.15,3.15,0,0,1-.44,0,3,3,0,0,1-.36-.06.86.86,0,0,1-.25-.1.24.24,0,0,1-.11-.12l-.21-1.67a.17.17,0,0,1,.08-.12.77.77,0,0,1,.22-.09l.35-.07.43,0h12.82a3.17,3.17,0,0,1,.44,0,3,3,0,0,1,.36.06,1.09,1.09,0,0,1,.26.1.24.24,0,0,1,.11.12l.36,1.67a.15.15,0,0,1-.07.12.66.66,0,0,1-.22.09,1.45,1.45,0,0,1-.34.07,2.81,2.81,0,0,1-.43,0Zm16.84,0a3.15,3.15,0,0,1-.44,0,1.87,1.87,0,0,1-.37-.07,1,1,0,0,1-.26-.09c-.07,0-.11-.08-.11-.12l-.38-1.67s0-.08.07-.12a.59.59,0,0,1,.21-.1,2.63,2.63,0,0,1,.34-.06,3,3,0,0,1,.43,0h12.82a3,3,0,0,1,.44,0,1.91,1.91,0,0,1,.37.06,1.18,1.18,0,0,1,.27.1.2.2,0,0,1,.12.12l.51,1.66a.09.09,0,0,1-.05.12.59.59,0,0,1-.21.1,2.24,2.24,0,0,1-.34.07l-.43,0Zm16.84,0-.44,0-.38-.07a1.18,1.18,0,0,1-.27-.1.26.26,0,0,1-.13-.12l-.53-1.66a.11.11,0,0,1,.05-.12.69.69,0,0,1,.21-.1,1.39,1.39,0,0,1,.33-.06,2.77,2.77,0,0,1,.42,0h12.83l.44,0,.38.07a1.18,1.18,0,0,1,.27.1.27.27,0,0,1,.14.11l.67,1.67s0,.08,0,.12a.53.53,0,0,1-.2.1,2.09,2.09,0,0,1-.33.07l-.43,0Zm16.84,0a3.19,3.19,0,0,1-.45,0,2,2,0,0,1-.38-.06,1.28,1.28,0,0,1-.28-.1.32.32,0,0,1-.15-.12l-.68-1.67a.1.1,0,0,1,0-.11.53.53,0,0,1,.2-.1,2.21,2.21,0,0,1,.32-.07l.42,0h12.83l.44,0,.39.07a1.32,1.32,0,0,1,.28.09.32.32,0,0,1,.15.12l.82,1.67s0,.08,0,.12a.65.65,0,0,1-.19.1,2.19,2.19,0,0,1-.33.06,2.67,2.67,0,0,1-.42,0Zm16.84,0a3.19,3.19,0,0,1-.45,0,3.59,3.59,0,0,1-.39-.06,2.39,2.39,0,0,1-.29-.1.32.32,0,0,1-.15-.12l-.85-1.67a.1.1,0,0,1,0-.12.48.48,0,0,1,.19-.09,1.8,1.8,0,0,1,.31-.07l.42,0H393l.45,0a3.38,3.38,0,0,1,.38.06,1.5,1.5,0,0,1,.3.1c.08,0,.13.07.15.12l1,1.67s0,.08,0,.12a.43.43,0,0,1-.18.09,2.21,2.21,0,0,1-.32.07,2.82,2.82,0,0,1-.42,0Zm16.23,0a2.11,2.11,0,0,1-.36,0l-.32-.05a1,1,0,0,1-.24-.08.36.36,0,0,1-.13-.09l-1.07-1.79a.08.08,0,0,1,0-.1.5.5,0,0,1,.15-.08l.24-.05.34,0h6.11l.36,0,.31.05a2.23,2.23,0,0,1,.24.08.36.36,0,0,1,.13.09l1.16,1.79a.08.08,0,0,1,0,.1.37.37,0,0,1-.14.08l-.25.05-.34,0Zm8.41-5.56-229.19,0a27,27,0,0,0-2.89.15,23.91,23.91,0,0,0-2.57.41,12,12,0,0,0-2,.62,2.67,2.67,0,0,0-1.11.76l-40.33,56.51a1.3,1.3,0,0,0-.2,1.35,2.58,2.58,0,0,0,1.28,1.12,9.86,9.86,0,0,0,2.57.76,21.32,21.32,0,0,0,3.6.28h0l312.63-.07a21.53,21.53,0,0,0,3.61-.28,9.66,9.66,0,0,0,2.56-.76,2.57,2.57,0,0,0,1.29-1.12,1.3,1.3,0,0,0-.21-1.35l-40.53-56.48a2.67,2.67,0,0,0-1.11-.76,12,12,0,0,0-2-.62,24.32,24.32,0,0,0-2.57-.41,27.12,27.12,0,0,0-2.89-.15Z" transform="translate(-43.28 -29.97)"/><path class="cls-6" d="M345.63,303.4h0l-108.31,0a10.84,10.84,0,0,0-1.31.08,6.3,6.3,0,0,0-1.12.23,2.94,2.94,0,0,0-.81.34.77.77,0,0,0-.38.41l-7.25,25.65a.56.56,0,0,0,.15.53,1.87,1.87,0,0,0,.69.44,5.67,5.67,0,0,0,1.12.29,9.2,9.2,0,0,0,1.45.11l123.34,0a9.2,9.2,0,0,0,1.45-.11,5.67,5.67,0,0,0,1.12-.29,1.86,1.86,0,0,0,.69-.43.57.57,0,0,0,.14-.53l-7.35-25.65a.8.8,0,0,0-.37-.42,3.48,3.48,0,0,0-.81-.33,6.37,6.37,0,0,0-1.11-.23,11,11,0,0,0-1.32-.08Z" transform="translate(-43.28 -29.97)"/><path class="cls-11" d="M376.38,274.67H363.55l-.42,0a2.21,2.21,0,0,0-.32.07.53.53,0,0,0-.2.1.1.1,0,0,0,0,.11l.68,1.67a.32.32,0,0,0,.15.12,1.28,1.28,0,0,0,.28.1,2,2,0,0,0,.38.06,3.19,3.19,0,0,0,.45,0h13a2.67,2.67,0,0,0,.42,0,2.19,2.19,0,0,0,.33-.06.65.65,0,0,0,.19-.1s.05-.08,0-.12l-.82-1.67a.32.32,0,0,0-.15-.12,1.32,1.32,0,0,0-.28-.09l-.39-.07-.44,0Z" transform="translate(-43.28 -29.97)"/><path class="cls-11" d="M359.76,274.67H346.93a2.77,2.77,0,0,0-.42,0,1.39,1.39,0,0,0-.33.06.69.69,0,0,0-.21.1.11.11,0,0,0-.05.12l.53,1.66a.26.26,0,0,0,.13.12,1.18,1.18,0,0,0,.27.1l.38.07.44,0h13l.43,0a2.09,2.09,0,0,0,.33-.07.53.53,0,0,0,.2-.1c.05,0,.06-.08,0-.12L361,275a.27.27,0,0,0-.14-.11,1.18,1.18,0,0,0-.27-.1l-.38-.07-.44,0Z" transform="translate(-43.28 -29.97)"/><path class="cls-11" d="M343.14,274.67H330.32a3,3,0,0,0-.43,0,2.63,2.63,0,0,0-.34.06.59.59,0,0,0-.21.1s-.08.08-.07.12l.38,1.67s0,.08.11.12a1,1,0,0,0,.26.09,1.87,1.87,0,0,0,.37.07,3.15,3.15,0,0,0,.44,0h13l.43,0a2.24,2.24,0,0,0,.34-.07.59.59,0,0,0,.21-.1.09.09,0,0,0,.05-.12l-.51-1.66a.2.2,0,0,0-.12-.12,1.18,1.18,0,0,0-.27-.1,1.91,1.91,0,0,0-.37-.06,3,3,0,0,0-.44,0Z" transform="translate(-43.28 -29.97)"/><path class="cls-11" d="M326.52,274.68H313.7l-.43,0-.35.07a.77.77,0,0,0-.22.09.17.17,0,0,0-.08.12l.21,1.67a.24.24,0,0,0,.11.12.86.86,0,0,0,.25.1,3,3,0,0,0,.36.06,3.15,3.15,0,0,0,.44,0h13a2.81,2.81,0,0,0,.43,0,1.45,1.45,0,0,0,.34-.07.66.66,0,0,0,.22-.09.15.15,0,0,0,.07-.12l-.36-1.67a.24.24,0,0,0-.11-.12,1.09,1.09,0,0,0-.26-.1,3,3,0,0,0-.36-.06,3.17,3.17,0,0,0-.44,0Z" transform="translate(-43.28 -29.97)"/><path class="cls-11" d="M309.9,274.68H297.08l-.43,0a2.56,2.56,0,0,0-.36.07.71.71,0,0,0-.23.1c-.06,0-.09.07-.09.11l0,1.67a.21.21,0,0,0,.1.12.79.79,0,0,0,.24.1l.35.07.44,0h13a2.81,2.81,0,0,0,.43,0,1.58,1.58,0,0,0,.35-.06.71.71,0,0,0,.23-.1.17.17,0,0,0,.08-.12l-.19-1.67a.21.21,0,0,0-.1-.12,1,1,0,0,0-.25-.09l-.37-.07-.43,0Z" transform="translate(-43.28 -29.97)"/><path class="cls-11" d="M293.28,274.68H280.46a3,3,0,0,0-.44,0,2.81,2.81,0,0,0-.35.06,1,1,0,0,0-.25.1.15.15,0,0,0-.09.12l-.12,1.67a.14.14,0,0,0,.08.11.91.91,0,0,0,.24.1l.35.07a3.1,3.1,0,0,0,.44,0h13l.44,0,.35-.07a.91.91,0,0,0,.24-.1c.05,0,.09-.08.08-.12l0-1.67s0-.08-.09-.11a.91.91,0,0,0-.24-.1,1.93,1.93,0,0,0-.36-.06,2.9,2.9,0,0,0-.43,0Z" transform="translate(-43.28 -29.97)"/><path class="cls-11" d="M276.66,274.68H263.83a3,3,0,0,0-.43,0l-.36.06a1.09,1.09,0,0,0-.26.1.21.21,0,0,0-.1.12l-.28,1.67s0,.08.07.12a1,1,0,0,0,.23.1,2.35,2.35,0,0,0,.34.06,3,3,0,0,0,.44,0h13a3.17,3.17,0,0,0,.44,0,2.88,2.88,0,0,0,.36-.07,1,1,0,0,0,.25-.09q.09-.06.09-.12l.14-1.67a.14.14,0,0,0-.08-.12,1,1,0,0,0-.23-.1,2.81,2.81,0,0,0-.35-.06,3,3,0,0,0-.43,0Z" transform="translate(-43.28 -29.97)"/><path class="cls-11" d="M260,274.69H247.21l-.44,0-.37.07-.26.09a.24.24,0,0,0-.11.12l-.44,1.67s0,.08.06.12a.59.59,0,0,0,.21.1,1.59,1.59,0,0,0,.34.06,3,3,0,0,0,.44,0h13a3.15,3.15,0,0,0,.44,0,3.18,3.18,0,0,0,.37-.06,1.61,1.61,0,0,0,.25-.1.2.2,0,0,0,.11-.12l.29-1.67s0-.08-.06-.12a.71.71,0,0,0-.23-.1l-.34-.06a2.89,2.89,0,0,0-.43,0Z" transform="translate(-43.28 -29.97)"/><path class="cls-11" d="M243.42,274.69H230.59l-.44,0-.38.07a1.18,1.18,0,0,0-.27.1.22.22,0,0,0-.13.12l-.59,1.66a.1.1,0,0,0,0,.12.69.69,0,0,0,.21.1,2.36,2.36,0,0,0,.33.07l.43,0h13l.44,0,.38-.07a.94.94,0,0,0,.26-.1q.1-.06.12-.12l.45-1.67a.13.13,0,0,0-.05-.12l-.21-.09-.34-.07-.42,0Z" transform="translate(-43.28 -29.97)"/><path class="cls-11" d="M196.09,277h0Zm14.14,0h0Z" transform="translate(-43.28 -29.97)"/><path class="cls-11" d="M193.55,274.7H180.72l-.45,0-.39.07a1.5,1.5,0,0,0-.3.1.38.38,0,0,0-.17.11l-1.07,1.67a.11.11,0,0,0,0,.12.43.43,0,0,0,.18.1,1.67,1.67,0,0,0,.3.07l.42,0h13a3.4,3.4,0,0,0,.45,0c.14,0,.27,0,.39-.06a1.21,1.21,0,0,0,.29-.1.44.44,0,0,0,.16-.12l.92-1.67a.09.09,0,0,0,0-.12.5.5,0,0,0-.18-.09,1.94,1.94,0,0,0-.32-.07l-.41,0Z" transform="translate(-43.28 -29.97)"/><path class="cls-11" d="M380.41,277.33h-11.8l-.43,0a2.09,2.09,0,0,0-.33.07.56.56,0,0,0-.19.1.1.1,0,0,0,0,.12l1.43,3.28s.07.08.14.12a1.18,1.18,0,0,0,.29.11l.4.07.45,0h12.06l.44,0a2,2,0,0,0,.33-.08.42.42,0,0,0,.2-.1.09.09,0,0,0,0-.13l-1.68-3.27a.39.39,0,0,0-.15-.13,1.54,1.54,0,0,0-.3-.09,2.09,2.09,0,0,0-.39-.07,3.29,3.29,0,0,0-.45,0Z" transform="translate(-43.28 -29.97)"/><path class="cls-11" d="M403.79,277.33H384a2.67,2.67,0,0,0-.42,0,1.36,1.36,0,0,0-.33.07.43.43,0,0,0-.18.09.11.11,0,0,0,0,.13l1.71,3.27a.31.31,0,0,0,.16.13,1.31,1.31,0,0,0,.3.1,2.06,2.06,0,0,0,.4.07,3.33,3.33,0,0,0,.46,0H406.3a2.72,2.72,0,0,0,.43,0,1.73,1.73,0,0,0,.32-.07.37.37,0,0,0,.18-.1.11.11,0,0,0,0-.13l-2.12-3.28a.5.5,0,0,0-.17-.12,1.5,1.5,0,0,0-.3-.1l-.4-.07-.46,0Z" transform="translate(-43.28 -29.97)"/><path class="cls-11" d="M364.66,277.34h-11.8l-.43,0a2.09,2.09,0,0,0-.33.07.51.51,0,0,0-.21.1.11.11,0,0,0-.05.12l1.13,3.28a.32.32,0,0,0,.13.13,2.39,2.39,0,0,0,.29.1,3.45,3.45,0,0,0,.39.07,3.33,3.33,0,0,0,.46,0H366.3l.44,0a2.09,2.09,0,0,0,.33-.07.53.53,0,0,0,.2-.11s.06-.08,0-.12l-1.39-3.28a.35.35,0,0,0-.14-.12,1.51,1.51,0,0,0-.28-.1l-.39-.07-.45,0Z" transform="translate(-43.28 -29.97)"/><path class="cls-11" d="M348.91,277.34h-11.8a2.81,2.81,0,0,0-.43,0,1.49,1.49,0,0,0-.34.06.93.93,0,0,0-.22.1.13.13,0,0,0-.05.12l.83,3.28a.27.27,0,0,0,.13.13,1,1,0,0,0,.27.1,2,2,0,0,0,.38.07,3.19,3.19,0,0,0,.45,0h12.06a2.94,2.94,0,0,0,.44,0l.35-.07a.59.59,0,0,0,.21-.1c.05,0,.07-.08.05-.13l-1.1-3.28s-.06-.08-.13-.12a1.18,1.18,0,0,0-.27-.1l-.38-.07-.45,0Z" transform="translate(-43.28 -29.97)"/><path class="cls-11" d="M333.16,277.34h-11.8a3,3,0,0,0-.43,0l-.35.07a.55.55,0,0,0-.23.1.13.13,0,0,0-.07.12l.55,3.28s0,.08.11.12a.92.92,0,0,0,.26.11,3.38,3.38,0,0,0,.38.06,3.33,3.33,0,0,0,.46,0H334.1a2.94,2.94,0,0,0,.44,0,1.67,1.67,0,0,0,.35-.07.76.76,0,0,0,.22-.1.13.13,0,0,0,.06-.13l-.81-3.28s-.05-.08-.12-.12a1.42,1.42,0,0,0-.26-.1,3.58,3.58,0,0,0-.37-.06,3.19,3.19,0,0,0-.45,0Z" transform="translate(-43.28 -29.97)"/><path class="cls-11" d="M317.41,277.35h-11.8l-.44,0-.35.07a.71.71,0,0,0-.23.1.14.14,0,0,0-.08.12l.25,3.28a.16.16,0,0,0,.1.12,1,1,0,0,0,.25.11l.37.07.45,0H318a3.19,3.19,0,0,0,.45,0,2.81,2.81,0,0,0,.35-.06.9.9,0,0,0,.24-.11.15.15,0,0,0,.07-.12l-.51-3.28a.18.18,0,0,0-.11-.12.78.78,0,0,0-.26-.1l-.37-.07a3.17,3.17,0,0,0-.44,0Z" transform="translate(-43.28 -29.97)"/><path class="cls-11" d="M301.66,277.35h-11.8l-.44,0a2.88,2.88,0,0,0-.36.07.79.79,0,0,0-.24.1.21.21,0,0,0-.1.12l0,3.28c0,.05,0,.09.09.13a.91.91,0,0,0,.24.1l.36.07a3.19,3.19,0,0,0,.45,0H301.9a3.17,3.17,0,0,0,.44,0,2.56,2.56,0,0,0,.36-.07,1.45,1.45,0,0,0,.24-.1.16.16,0,0,0,.08-.13l-.22-3.28s0-.08-.09-.12a1,1,0,0,0-.25-.1,2.88,2.88,0,0,0-.36-.07l-.44,0Z" transform="translate(-43.28 -29.97)"/><path class="cls-11" d="M285.9,277.35H274.1a3.15,3.15,0,0,0-.44,0,3,3,0,0,0-.36.06l-.25.1c-.06,0-.1.08-.1.13l-.34,3.27a.17.17,0,0,0,.08.13.71.71,0,0,0,.23.1,1.77,1.77,0,0,0,.36.07,3.19,3.19,0,0,0,.45,0h12.06a3.19,3.19,0,0,0,.45,0l.37-.07a1,1,0,0,0,.25-.1c.06,0,.09-.08.09-.13l.08-3.28s0-.08-.09-.12a.91.91,0,0,0-.24-.1,2.56,2.56,0,0,0-.36-.07l-.44,0Z" transform="translate(-43.28 -29.97)"/><path class="cls-11" d="M270.16,277.35h-11.8a3.19,3.19,0,0,0-.45,0l-.37.07a.94.94,0,0,0-.26.1.2.2,0,0,0-.12.12l-.63,3.28a.14.14,0,0,0,.07.12.7.7,0,0,0,.23.11l.35.07.45,0h12.06a3.19,3.19,0,0,0,.45,0,1.74,1.74,0,0,0,.37-.07.71.71,0,0,0,.26-.1.24.24,0,0,0,.11-.12l.36-3.28c0-.05,0-.09-.07-.13a1,1,0,0,0-.23-.1,2.81,2.81,0,0,0-.35-.06,2.9,2.9,0,0,0-.43,0Z" transform="translate(-43.28 -29.97)"/><path class="cls-11" d="M254.4,277.36H242.6l-.45,0-.37.07a1.18,1.18,0,0,0-.27.1q-.1.06-.12.12l-.93,3.28a.13.13,0,0,0,.06.13.69.69,0,0,0,.21.1l.35.07a3,3,0,0,0,.44,0h12.06l.46,0,.38-.07a1.16,1.16,0,0,0,.27-.11.2.2,0,0,0,.12-.12l.66-3.28a.14.14,0,0,0-.07-.12.65.65,0,0,0-.22-.1l-.35-.07-.43,0Z" transform="translate(-43.28 -29.97)"/><path class="cls-11" d="M238.65,277.36h-11.8a3.19,3.19,0,0,0-.45,0,2,2,0,0,0-.38.06,1.11,1.11,0,0,0-.28.1.35.35,0,0,0-.14.12L224.39,281a.11.11,0,0,0,0,.13.59.59,0,0,0,.21.1,2.24,2.24,0,0,0,.34.07,2.94,2.94,0,0,0,.44,0h12.06a3.39,3.39,0,0,0,.46,0l.38-.07a1.11,1.11,0,0,0,.28-.1.32.32,0,0,0,.13-.13l1-3.28a.13.13,0,0,0-.05-.12.69.69,0,0,0-.21-.1l-.34-.07-.43,0Z" transform="translate(-43.28 -29.97)"/><path class="cls-11" d="M222.89,277.36h-11.8a3.29,3.29,0,0,0-.45,0c-.14,0-.27,0-.39.06l-.28.1a.28.28,0,0,0-.15.13L208.31,281a.11.11,0,0,0,0,.13.41.41,0,0,0,.19.1,1.36,1.36,0,0,0,.33.07,2.72,2.72,0,0,0,.43,0h12.08a3.29,3.29,0,0,0,.45,0,2.21,2.21,0,0,0,.4-.07,1.39,1.39,0,0,0,.29-.1.3.3,0,0,0,.14-.13l1.24-3.28s0-.08,0-.12a.53.53,0,0,0-.2-.1,1.59,1.59,0,0,0-.34-.06,2.81,2.81,0,0,0-.43,0Z" transform="translate(-43.28 -29.97)"/><path class="cls-11" d="M207.14,277.36h-11.8a3.24,3.24,0,0,0-.45,0l-.4.07a1.5,1.5,0,0,0-.3.1.32.32,0,0,0-.15.12l-1.8,3.28s0,.08,0,.12a.41.41,0,0,0,.19.11,2.09,2.09,0,0,0,.33.07l.43,0h12.07l.46,0,.39-.07a1.46,1.46,0,0,0,.3-.11.33.33,0,0,0,.15-.13l1.54-3.27a.11.11,0,0,0,0-.13.54.54,0,0,0-.2-.09,1.18,1.18,0,0,0-.32-.07,2.81,2.81,0,0,0-.43,0Z" transform="translate(-43.28 -29.97)"/><path class="cls-11" d="M390.62,281.71H378.53a3,3,0,0,0-.44,0,2.09,2.09,0,0,0-.33.07.53.53,0,0,0-.2.11.1.1,0,0,0,0,.12l1.65,3.45a.31.31,0,0,0,.16.13,1.46,1.46,0,0,0,.3.11,2.33,2.33,0,0,0,.41.07,3.59,3.59,0,0,0,.47,0h12.37a3.19,3.19,0,0,0,.45,0,2.09,2.09,0,0,0,.33-.07.41.41,0,0,0,.19-.11.1.1,0,0,0,0-.13L392,282a.45.45,0,0,0-.16-.13,1.62,1.62,0,0,0-.31-.1l-.41-.07a3.44,3.44,0,0,0-.46,0Z" transform="translate(-43.28 -29.97)"/><path class="cls-11" d="M406.6,281.71H394.51a2.94,2.94,0,0,0-.44,0,2.09,2.09,0,0,0-.33.07.48.48,0,0,0-.19.1.13.13,0,0,0,0,.13l2,3.45a.35.35,0,0,0,.17.13,1.58,1.58,0,0,0,.31.11l.42.07a3.59,3.59,0,0,0,.47,0h12.37a2.85,2.85,0,0,0,.44,0,2.09,2.09,0,0,0,.33-.07.46.46,0,0,0,.18-.11.12.12,0,0,0,0-.14L408,282a.4.4,0,0,0-.17-.13,1.74,1.74,0,0,0-.32-.1,2.33,2.33,0,0,0-.41-.07,3.44,3.44,0,0,0-.46,0Z" transform="translate(-43.28 -29.97)"/><path class="cls-11" d="M374.5,281.72H362.39l-.44,0a2.24,2.24,0,0,0-.34.07.58.58,0,0,0-.21.11.11.11,0,0,0,0,.13l1.34,3.44a.37.37,0,0,0,.14.14,1.5,1.5,0,0,0,.3.1l.41.08.47,0h12.36a3,3,0,0,0,.45,0,1.45,1.45,0,0,0,.34-.07.53.53,0,0,0,.2-.11.11.11,0,0,0,0-.13L375.78,282a.35.35,0,0,0-.14-.12,1.6,1.6,0,0,0-.29-.11l-.4-.07-.45,0Z" transform="translate(-43.28 -29.97)"/><path class="cls-11" d="M358.34,281.72h-12.1a3,3,0,0,0-.44,0,1.45,1.45,0,0,0-.34.07.65.65,0,0,0-.22.1.14.14,0,0,0-.05.13l1,3.45a.3.3,0,0,0,.14.13,1.09,1.09,0,0,0,.28.11,3.45,3.45,0,0,0,.39.07,3.59,3.59,0,0,0,.47,0h12.37l.45,0a2,2,0,0,0,.35-.08.51.51,0,0,0,.21-.1.14.14,0,0,0,.05-.14l-1.31-3.44a.3.3,0,0,0-.14-.13.89.89,0,0,0-.29-.1,2.09,2.09,0,0,0-.39-.07,3.33,3.33,0,0,0-.46,0Z" transform="translate(-43.28 -29.97)"/><path class="cls-11" d="M342.2,281.72H330.11a3.19,3.19,0,0,0-.45,0l-.35.07a.71.71,0,0,0-.23.1.13.13,0,0,0-.06.13l.72,3.45a.24.24,0,0,0,.12.13,1.09,1.09,0,0,0,.28.11,3.08,3.08,0,0,0,.39.07,3.38,3.38,0,0,0,.47,0h12.36a3.23,3.23,0,0,0,.46,0l.35-.07a.64.64,0,0,0,.22-.11c.05,0,.07-.09.05-.13l-1-3.45c0-.05-.05-.09-.12-.13a1.28,1.28,0,0,0-.28-.1,2,2,0,0,0-.39-.07,3.19,3.19,0,0,0-.45,0Z" transform="translate(-43.28 -29.97)"/><path class="cls-11" d="M326.06,281.72H314l-.45,0-.35.07a.9.9,0,0,0-.24.11c-.05,0-.08.08-.07.12l.41,3.45a.22.22,0,0,0,.11.13,1.16,1.16,0,0,0,.27.11l.38.08.46,0h12.38a3.19,3.19,0,0,0,.45,0,1.64,1.64,0,0,0,.36-.07.7.7,0,0,0,.23-.11.14.14,0,0,0,.07-.13l-.69-3.45a.29.29,0,0,0-.12-.13,1.18,1.18,0,0,0-.27-.1l-.38-.07a3.19,3.19,0,0,0-.45,0Z" transform="translate(-43.28 -29.97)"/><path class="cls-11" d="M309.91,281.73H297.82l-.45,0a2.45,2.45,0,0,0-.36.08.79.79,0,0,0-.24.1c-.06,0-.09.08-.09.13l.1,3.44a.17.17,0,0,0,.1.14,1.53,1.53,0,0,0,.25.11l.38.07a3.33,3.33,0,0,0,.46,0h12.37l.46,0a2.45,2.45,0,0,0,.36-.08.67.67,0,0,0,.24-.11c.06,0,.09-.08.08-.13l-.38-3.44a.19.19,0,0,0-.11-.13,1,1,0,0,0-.25-.11l-.38-.07-.45,0Z" transform="translate(-43.28 -29.97)"/><path class="cls-11" d="M293.79,281.73H281.67a3.19,3.19,0,0,0-.45,0,1.87,1.87,0,0,0-.37.07,1,1,0,0,0-.25.1.19.19,0,0,0-.1.13l-.2,3.45a.17.17,0,0,0,.09.13.77.77,0,0,0,.24.11,2.73,2.73,0,0,0,.37.07,3.23,3.23,0,0,0,.46,0h12.38a3.19,3.19,0,0,0,.45,0l.38-.07a1,1,0,0,0,.25-.11.2.2,0,0,0,.09-.14l-.08-3.44c0-.05,0-.09-.09-.13a.86.86,0,0,0-.25-.1,1.64,1.64,0,0,0-.36-.07,2.94,2.94,0,0,0-.44,0Z" transform="translate(-43.28 -29.97)"/><path class="cls-11" d="M277.63,281.73h-12.1l-.45,0-.38.07a1.27,1.27,0,0,0-.26.11.21.21,0,0,0-.11.12l-.51,3.45c0,.05,0,.09.07.13a.67.67,0,0,0,.24.11,1.64,1.64,0,0,0,.36.07,3.33,3.33,0,0,0,.46,0h12.37a3.33,3.33,0,0,0,.46,0l.38-.07a.92.92,0,0,0,.26-.11.19.19,0,0,0,.1-.13l.24-3.45a.19.19,0,0,0-.08-.13.91.91,0,0,0-.24-.1l-.37-.07a2.94,2.94,0,0,0-.44,0Z" transform="translate(-43.28 -29.97)"/><path class="cls-11" d="M261.49,281.74H249.38l-.45,0-.38.07a1.09,1.09,0,0,0-.28.11c-.06,0-.11.08-.12.13l-.81,3.44a.15.15,0,0,0,.06.14.65.65,0,0,0,.22.1,2.45,2.45,0,0,0,.36.08l.45,0h12.38a3.33,3.33,0,0,0,.46,0,2,2,0,0,0,.39-.07,1.16,1.16,0,0,0,.27-.11.22.22,0,0,0,.11-.13l.54-3.45a.11.11,0,0,0-.07-.12.7.7,0,0,0-.23-.11,2.15,2.15,0,0,0-.35-.07l-.44,0Z" transform="translate(-43.28 -29.97)"/><path class="cls-11" d="M245.34,281.74h-12.1a3.44,3.44,0,0,0-.46,0,2,2,0,0,0-.38.07,1.11,1.11,0,0,0-.28.1.3.3,0,0,0-.14.13l-1.13,3.44a.16.16,0,0,0,.05.14.64.64,0,0,0,.22.11,2.7,2.7,0,0,0,.35.07,3.19,3.19,0,0,0,.45,0h12.37a3.48,3.48,0,0,0,.47,0,2.06,2.06,0,0,0,.39-.08,1.11,1.11,0,0,0,.28-.1.33.33,0,0,0,.13-.14l.85-3.44c0-.05,0-.09-.06-.13a.56.56,0,0,0-.22-.11l-.35-.07-.44,0Z" transform="translate(-43.28 -29.97)"/><path class="cls-11" d="M229.2,281.74H217.09a3.81,3.81,0,0,0-.85.1,1.9,1.9,0,0,0-.29.1.33.33,0,0,0-.15.13l-1.43,3.45a.12.12,0,0,0,0,.13.53.53,0,0,0,.2.11,1.54,1.54,0,0,0,.35.07,2.94,2.94,0,0,0,.44,0h12.38a3.38,3.38,0,0,0,.47,0l.4-.07a1.18,1.18,0,0,0,.29-.11.31.31,0,0,0,.14-.14l1.15-3.44a.11.11,0,0,0,0-.13.69.69,0,0,0-.21-.1,1.57,1.57,0,0,0-.34-.07,3,3,0,0,0-.44,0Z" transform="translate(-43.28 -29.97)"/><path class="cls-11" d="M213.05,281.74H201a3.39,3.39,0,0,0-.46,0l-.4.07a1.46,1.46,0,0,0-.3.11.36.36,0,0,0-.16.13l-1.75,3.44a.11.11,0,0,0,0,.13.42.42,0,0,0,.2.11,2.14,2.14,0,0,0,.34.08l.44,0h12.38a3.59,3.59,0,0,0,.47,0,2.38,2.38,0,0,0,.4-.07,1.46,1.46,0,0,0,.3-.11.28.28,0,0,0,.15-.13l1.47-3.45a.11.11,0,0,0,0-.13,1,1,0,0,0-.21-.1,2,2,0,0,0-.34-.07,2.81,2.81,0,0,0-.43,0Z" transform="translate(-43.28 -29.97)"/><path class="cls-11" d="M196.61,281.75h-19.8a3.59,3.59,0,0,0-.47,0,2.33,2.33,0,0,0-.41.07,1.62,1.62,0,0,0-.31.1.38.38,0,0,0-.18.13l-2.2,3.44a.12.12,0,0,0,0,.14.37.37,0,0,0,.18.11,2.09,2.09,0,0,0,.33.07,2.94,2.94,0,0,0,.44,0h20.25l.47,0,.42-.08a1,1,0,0,0,.3-.11.31.31,0,0,0,.16-.13l1.79-3.44a.11.11,0,0,0,0-.13.48.48,0,0,0-.19-.11,2.09,2.09,0,0,0-.33-.07l-.43,0Z" transform="translate(-43.28 -29.97)"/><path class="cls-11" d="M380,286.32H367.63a3,3,0,0,0-.45,0,1.4,1.4,0,0,0-.35.08.41.41,0,0,0-.21.11.11.11,0,0,0,0,.13l1.48,3.63a.34.34,0,0,0,.15.14,1.37,1.37,0,0,0,.31.11l.41.08a3.91,3.91,0,0,0,.49,0h12.69a3.23,3.23,0,0,0,.46,0,1.45,1.45,0,0,0,.34-.07.42.42,0,0,0,.21-.12.11.11,0,0,0,0-.14l-1.76-3.62a.46.46,0,0,0-.16-.14,2.45,2.45,0,0,0-.3-.11l-.41-.07a3.48,3.48,0,0,0-.47,0Z" transform="translate(-43.28 -29.97)"/><path class="cls-11" d="M409.55,286.32H384.48a3.19,3.19,0,0,0-.45,0l-.34.07a.53.53,0,0,0-.2.11.11.11,0,0,0,0,.14l1.8,3.62a.41.41,0,0,0,.17.14,1.44,1.44,0,0,0,.32.12,2.45,2.45,0,0,0,.42.07,3.91,3.91,0,0,0,.49,0h25.65a3.09,3.09,0,0,0,.45,0,1.42,1.42,0,0,0,.34-.08.37.37,0,0,0,.18-.11.1.1,0,0,0,0-.14L411,286.66a.56.56,0,0,0-.18-.13,1.82,1.82,0,0,0-.33-.11l-.43-.08-.47,0Z" transform="translate(-43.28 -29.97)"/><path class="cls-11" d="M363.47,286.33h-12.4a3.09,3.09,0,0,0-.45,0,1.44,1.44,0,0,0-.35.07.64.64,0,0,0-.22.11c-.05,0-.07.09-.05.13l1.15,3.63a.31.31,0,0,0,.14.14,1.46,1.46,0,0,0,.3.11,2,2,0,0,0,.4.08,3.75,3.75,0,0,0,.48,0h12.69a3.38,3.38,0,0,0,.47,0l.35-.08a.64.64,0,0,0,.22-.11c0-.05.06-.09,0-.14l-1.45-3.63c0-.05-.07-.09-.14-.13a1,1,0,0,0-.3-.11l-.41-.08-.47,0Z" transform="translate(-43.28 -29.97)"/><path class="cls-11" d="M346.92,286.33h-12.4a3.33,3.33,0,0,0-.46,0,2.88,2.88,0,0,0-.36.07.7.7,0,0,0-.23.11.14.14,0,0,0-.06.14l.83,3.62a.22.22,0,0,0,.13.14l.28.12.41.07a3.64,3.64,0,0,0,.48,0h12.69a3.23,3.23,0,0,0,.46,0,1.6,1.6,0,0,0,.36-.08.56.56,0,0,0,.22-.11.12.12,0,0,0,.05-.14l-1.11-3.63a.36.36,0,0,0-.14-.13,1.26,1.26,0,0,0-.28-.11,2.21,2.21,0,0,0-.4-.07,3.59,3.59,0,0,0-.47,0Z" transform="translate(-43.28 -29.97)"/><path class="cls-11" d="M330.36,286.33H318a3.33,3.33,0,0,0-.46,0,1.74,1.74,0,0,0-.36.08.91.91,0,0,0-.24.1s-.08.09-.07.14l.5,3.62a.22.22,0,0,0,.12.14.75.75,0,0,0,.27.12l.39.08a3.64,3.64,0,0,0,.48,0h12.69a3.38,3.38,0,0,0,.47,0,1.87,1.87,0,0,0,.37-.07.7.7,0,0,0,.23-.12.13.13,0,0,0,.07-.14l-.8-3.62a.22.22,0,0,0-.12-.14,1.09,1.09,0,0,0-.28-.11,3.08,3.08,0,0,0-.39-.07,3.48,3.48,0,0,0-.47,0Z" transform="translate(-43.28 -29.97)"/><path class="cls-11" d="M313.81,286.33h-12.4l-.46,0a2.61,2.61,0,0,0-.37.08.74.74,0,0,0-.25.11.17.17,0,0,0-.09.13l.18,3.63c0,.05,0,.09.1.14a1,1,0,0,0,.27.11,3,3,0,0,0,.39.08,3.38,3.38,0,0,0,.47,0h12.69a3.38,3.38,0,0,0,.47,0,2.61,2.61,0,0,0,.37-.08.65.65,0,0,0,.25-.12.15.15,0,0,0,.07-.14l-.46-3.62a.22.22,0,0,0-.11-.13.84.84,0,0,0-.27-.11,2,2,0,0,0-.38-.08,3.48,3.48,0,0,0-.47,0Z" transform="translate(-43.28 -29.97)"/><path class="cls-11" d="M297.25,286.34h-12.4a3.33,3.33,0,0,0-.46,0,2,2,0,0,0-.38.07.92.92,0,0,0-.26.11.17.17,0,0,0-.09.14l-.15,3.62a.17.17,0,0,0,.09.14,1.47,1.47,0,0,0,.25.12l.38.07a3.59,3.59,0,0,0,.47,0h12.7a3.59,3.59,0,0,0,.47,0,2,2,0,0,0,.38-.08.92.92,0,0,0,.26-.11.17.17,0,0,0,.09-.14l-.15-3.63a.17.17,0,0,0-.1-.13.92.92,0,0,0-.26-.11,2.49,2.49,0,0,0-.38-.08l-.46,0Z" transform="translate(-43.28 -29.97)"/><path class="cls-11" d="M280.7,286.34H268.3a3.48,3.48,0,0,0-.47,0l-.38.07a1.23,1.23,0,0,0-.27.11.22.22,0,0,0-.12.14l-.46,3.62a.15.15,0,0,0,.07.14.65.65,0,0,0,.25.12,2.49,2.49,0,0,0,.38.08l.46,0h12.7a3.59,3.59,0,0,0,.47,0,3.08,3.08,0,0,0,.39-.07,1.29,1.29,0,0,0,.26-.12.19.19,0,0,0,.1-.14l.18-3.62a.19.19,0,0,0-.08-.14,1,1,0,0,0-.25-.11l-.37-.07a3.33,3.33,0,0,0-.46,0Z" transform="translate(-43.28 -29.97)"/><path class="cls-11" d="M264.14,286.34h-12.4l-.47,0-.39.08a.91.91,0,0,0-.28.11c-.07,0-.11.08-.12.13l-.79,3.63a.15.15,0,0,0,.06.14.7.7,0,0,0,.23.11,3,3,0,0,0,.37.08,3.38,3.38,0,0,0,.47,0h12.69l.48,0,.39-.08a.81.81,0,0,0,.28-.12.22.22,0,0,0,.12-.14l.5-3.62a.14.14,0,0,0-.08-.14.91.91,0,0,0-.24-.11,2.56,2.56,0,0,0-.36-.07,3.33,3.33,0,0,0-.46,0Z" transform="translate(-43.28 -29.97)"/><path class="cls-11" d="M247.59,286.35H235.18a3.59,3.59,0,0,0-.47,0,2.38,2.38,0,0,0-.4.07,1.6,1.6,0,0,0-.29.11.27.27,0,0,0-.13.13l-1.12,3.63a.13.13,0,0,0,0,.14,1,1,0,0,0,.23.12,2.56,2.56,0,0,0,.36.07,3.33,3.33,0,0,0,.46,0h12.7a3.64,3.64,0,0,0,.48,0,2.36,2.36,0,0,0,.4-.08,1.26,1.26,0,0,0,.28-.11c.07,0,.12-.09.13-.14l.83-3.63a.13.13,0,0,0-.06-.13.55.55,0,0,0-.23-.11,2.45,2.45,0,0,0-.36-.08l-.45,0Z" transform="translate(-43.28 -29.97)"/><path class="cls-11" d="M231,286.35H218.62a3.59,3.59,0,0,0-.47,0,3.27,3.27,0,0,0-.4.07,1.46,1.46,0,0,0-.3.11.29.29,0,0,0-.15.14l-1.44,3.62a.13.13,0,0,0,0,.14.58.58,0,0,0,.21.12,2.45,2.45,0,0,0,.36.08l.45,0h12.7a3.64,3.64,0,0,0,.48,0l.41-.07.3-.12a.27.27,0,0,0,.14-.14l1.15-3.62a.12.12,0,0,0,0-.14.64.64,0,0,0-.22-.11,1.67,1.67,0,0,0-.35-.07,3.19,3.19,0,0,0-.45,0Z" transform="translate(-43.28 -29.97)"/><path class="cls-11" d="M214.47,286.35h-12.4a3.64,3.64,0,0,0-.48,0,2.29,2.29,0,0,0-.41.08,1.12,1.12,0,0,0-.31.11.31.31,0,0,0-.16.13l-1.77,3.63a.13.13,0,0,0,0,.14.51.51,0,0,0,.21.11,2.14,2.14,0,0,0,.34.08,3.33,3.33,0,0,0,.46,0h12.7l.48,0,.42-.08a1,1,0,0,0,.3-.12.29.29,0,0,0,.15-.14l1.48-3.62a.13.13,0,0,0,0-.14.51.51,0,0,0-.21-.11,2.24,2.24,0,0,0-.34-.07,3,3,0,0,0-.45,0Z" transform="translate(-43.28 -29.97)"/><path class="cls-11" d="M412.65,291.17H379a3.23,3.23,0,0,0-.46,0,1.4,1.4,0,0,0-.35.08.51.51,0,0,0-.21.11c0,.05-.06.09,0,.14l1.74,3.82a.36.36,0,0,0,.17.15,1.07,1.07,0,0,0,.32.12,2.63,2.63,0,0,0,.44.09,3.84,3.84,0,0,0,.5,0h34.41a3.13,3.13,0,0,0,.46,0,2,2,0,0,0,.35-.08.52.52,0,0,0,.19-.12.12.12,0,0,0,0-.15l-2.47-3.82a.43.43,0,0,0-.19-.14,1.78,1.78,0,0,0-.33-.12l-.44-.08-.49,0Z" transform="translate(-43.28 -29.97)"/><path class="cls-11" d="M374.78,291.17H362.05a3.23,3.23,0,0,0-.46,0,2.45,2.45,0,0,0-.36.08.47.47,0,0,0-.21.12.12.12,0,0,0,0,.14l1.41,3.82a.35.35,0,0,0,.15.15,2,2,0,0,0,.31.12l.42.08a4,4,0,0,0,.5,0h13a3.38,3.38,0,0,0,.47,0,1.58,1.58,0,0,0,.36-.09.42.42,0,0,0,.21-.12.12.12,0,0,0,0-.15l-1.71-3.81a.38.38,0,0,0-.16-.14,1.07,1.07,0,0,0-.32-.12,3.51,3.51,0,0,0-.42-.08,3.75,3.75,0,0,0-.48,0Z" transform="translate(-43.28 -29.97)"/><path class="cls-11" d="M357.81,291.18H345.07a3.38,3.38,0,0,0-.47,0,1.64,1.64,0,0,0-.36.07.79.79,0,0,0-.23.12c-.05,0-.08.09-.06.14l1.06,3.82a.25.25,0,0,0,.14.15,1,1,0,0,0,.3.12,2.41,2.41,0,0,0,.42.08,3.91,3.91,0,0,0,.49,0h13a3.38,3.38,0,0,0,.47,0,2.45,2.45,0,0,0,.36-.08,1,1,0,0,0,.23-.12.15.15,0,0,0,0-.15l-1.37-3.82a.31.31,0,0,0-.14-.14l-.3-.12a2.21,2.21,0,0,0-.4-.07,3.64,3.64,0,0,0-.48,0Z" transform="translate(-43.28 -29.97)"/><path class="cls-11" d="M340.8,291.18H328.07a3.33,3.33,0,0,0-.46,0,2.61,2.61,0,0,0-.37.08.67.67,0,0,0-.24.11c-.05.05-.08.09-.07.14l.72,3.83a.25.25,0,0,0,.13.14.91.91,0,0,0,.28.12,1.66,1.66,0,0,0,.41.08,3.91,3.91,0,0,0,.49,0h13a3.38,3.38,0,0,0,.47,0,1.8,1.8,0,0,0,.38-.08.55.55,0,0,0,.23-.12.13.13,0,0,0,.06-.15l-1-3.82a.27.27,0,0,0-.14-.14,1.18,1.18,0,0,0-.29-.11,2.29,2.29,0,0,0-.41-.08,3.64,3.64,0,0,0-.48,0Z" transform="translate(-43.28 -29.97)"/><path class="cls-11" d="M323.82,291.18H311.09a3.38,3.38,0,0,0-.47,0l-.38.08a.65.65,0,0,0-.25.12.14.14,0,0,0-.08.14l.38,3.82c0,.05,0,.1.11.15a1.55,1.55,0,0,0,.28.12l.4.08a3.79,3.79,0,0,0,.49,0h13a3.53,3.53,0,0,0,.48,0,1.34,1.34,0,0,0,.38-.08.54.54,0,0,0,.24-.12.16.16,0,0,0,.08-.14l-.69-3.83c0-.05,0-.09-.12-.14a1.09,1.09,0,0,0-.28-.11l-.4-.08a3.48,3.48,0,0,0-.47,0Z" transform="translate(-43.28 -29.97)"/><path class="cls-11" d="M306.82,291.18H294.1a3.64,3.64,0,0,0-.48,0,2,2,0,0,0-.38.07.91.91,0,0,0-.26.12.17.17,0,0,0-.09.14l0,3.82a.2.2,0,0,0,.09.15,1.14,1.14,0,0,0,.27.12l.39.08a3.79,3.79,0,0,0,.49,0h13a3.68,3.68,0,0,0,.49,0,3,3,0,0,0,.39-.08,1.17,1.17,0,0,0,.25-.12.2.2,0,0,0,.09-.15l-.35-3.82a.19.19,0,0,0-.1-.14.81.81,0,0,0-.28-.12,3,3,0,0,0-.39-.08,3.64,3.64,0,0,0-.48,0Z" transform="translate(-43.28 -29.97)"/><path class="cls-11" d="M289.84,291.19H277.11a3.38,3.38,0,0,0-.47,0,2,2,0,0,0-.4.08,1.16,1.16,0,0,0-.27.11c-.06,0-.1.09-.1.15l-.31,3.81a.15.15,0,0,0,.08.15.7.7,0,0,0,.26.12,1.87,1.87,0,0,0,.39.09c.15,0,.31,0,.48,0h13a3.64,3.64,0,0,0,.48,0l.4-.08a.91.91,0,0,0,.26-.12.22.22,0,0,0,.1-.15v-3.82a.19.19,0,0,0-.1-.14,1.29,1.29,0,0,0-.26-.12,1.72,1.72,0,0,0-.38-.07,3.38,3.38,0,0,0-.47,0Z" transform="translate(-43.28 -29.97)"/><path class="cls-11" d="M272.84,291.19H260.12a3.64,3.64,0,0,0-.48,0l-.4.08a.91.91,0,0,0-.28.12.22.22,0,0,0-.12.14l-.64,3.82a.15.15,0,0,0,.07.15,1.06,1.06,0,0,0,.24.12l.38.08a3.64,3.64,0,0,0,.48,0h13c.17,0,.34,0,.49,0a2.15,2.15,0,0,0,.4-.09.91.91,0,0,0,.28-.12.24.24,0,0,0,.11-.14l.34-3.82a.21.21,0,0,0-.08-.15,1,1,0,0,0-.25-.11,1.91,1.91,0,0,0-.39-.08,3.38,3.38,0,0,0-.47,0Z" transform="translate(-43.28 -29.97)"/><path class="cls-11" d="M255.86,291.2H243.13a3.64,3.64,0,0,0-.48,0,2.33,2.33,0,0,0-.41.07,1.7,1.7,0,0,0-.29.12.25.25,0,0,0-.13.14l-1,3.82c0,.05,0,.1.06.15a.7.7,0,0,0,.23.12l.38.08a3.43,3.43,0,0,0,.48,0h13a3.79,3.79,0,0,0,.49,0l.41-.08.29-.12a.27.27,0,0,0,.12-.15l.68-3.82a.13.13,0,0,0-.07-.14.54.54,0,0,0-.24-.12,2.33,2.33,0,0,0-.37-.08l-.46,0Z" transform="translate(-43.28 -29.97)"/><path class="cls-11" d="M238.87,291.2H226.13a3.75,3.75,0,0,0-.48,0,2.29,2.29,0,0,0-.41.08,1.46,1.46,0,0,0-.3.11.24.24,0,0,0-.14.14l-1.33,3.82a.12.12,0,0,0,0,.15.51.51,0,0,0,.22.12,1.7,1.7,0,0,0,.37.08,3.38,3.38,0,0,0,.47,0h13.05a3.91,3.91,0,0,0,.49,0l.41-.08a1.09,1.09,0,0,0,.3-.12.32.32,0,0,0,.14-.15l1-3.82a.12.12,0,0,0,0-.14,1,1,0,0,0-.23-.12,1.64,1.64,0,0,0-.36-.07,3.38,3.38,0,0,0-.47,0Z" transform="translate(-43.28 -29.97)"/><path class="cls-11" d="M221.88,291.2H209.15a3.79,3.79,0,0,0-.49,0l-.42.08a1.58,1.58,0,0,0-.31.11.35.35,0,0,0-.15.15l-1.68,3.82a.11.11,0,0,0,0,.14.47.47,0,0,0,.21.12,1.58,1.58,0,0,0,.36.09,3.13,3.13,0,0,0,.46,0h13.05a4.07,4.07,0,0,0,.5,0,2.59,2.59,0,0,0,.42-.09,1.11,1.11,0,0,0,.31-.12.27.27,0,0,0,.15-.15l1.37-3.82a.12.12,0,0,0-.05-.14.56.56,0,0,0-.22-.11,1.4,1.4,0,0,0-.35-.08,3.33,3.33,0,0,0-.46,0Z" transform="translate(-43.28 -29.97)"/><path class="cls-11" d="M198.18,286.36H173.94a3.64,3.64,0,0,0-.48,0,2.45,2.45,0,0,0-.42.07,1.48,1.48,0,0,0-.32.11.39.39,0,0,0-.18.14l-2.32,3.62a.12.12,0,0,0,0,.14.48.48,0,0,0,.19.12,1.36,1.36,0,0,0,.33.07,3.23,3.23,0,0,0,.46,0H196a3.75,3.75,0,0,0,.48,0l.42-.08a1.48,1.48,0,0,0,.32-.11c.08-.05.14-.09.16-.14l1.8-3.63a.11.11,0,0,0,0-.13.38.38,0,0,0-.2-.11,2,2,0,0,0-.33-.08l-.45,0Z" transform="translate(-43.28 -29.97)"/><path class="cls-11" d="M204.2,291.2H170.87a3.79,3.79,0,0,0-.49,0,2.66,2.66,0,0,0-.44.08,1.82,1.82,0,0,0-.33.11.62.62,0,0,0-.19.14L167,295.4a.12.12,0,0,0,0,.14.39.39,0,0,0,.19.12,1.06,1.06,0,0,0,.34.08,3.38,3.38,0,0,0,.47,0h34.13a4.07,4.07,0,0,0,.5,0l.43-.08.32-.12a.39.39,0,0,0,.16-.15l1.72-3.82a.1.1,0,0,0,0-.14.43.43,0,0,0-.2-.12,2.29,2.29,0,0,0-.35-.08,3.23,3.23,0,0,0-.46,0Z" transform="translate(-43.28 -29.97)"/><path class="cls-11" d="M180.66,296.32h-13a4.36,4.36,0,0,0-.51,0l-.45.08-.34.12a.57.57,0,0,0-.2.15l-2.57,4a.11.11,0,0,0,0,.15.42.42,0,0,0,.19.13,1.36,1.36,0,0,0,.35.09,3.43,3.43,0,0,0,.48,0h13.34a4.38,4.38,0,0,0,.52,0l.45-.08a1.62,1.62,0,0,0,.34-.13.45.45,0,0,0,.19-.16l2.27-4a.12.12,0,0,0,0-.15.7.7,0,0,0-.2-.12,2,2,0,0,0-.35-.08,3.38,3.38,0,0,0-.47,0Z" transform="translate(-43.28 -29.97)"/><path class="cls-11" d="M198.09,296.32h-13a4.07,4.07,0,0,0-.5,0l-.44.08-.34.12a.57.57,0,0,0-.18.15l-2.21,4a.13.13,0,0,0,0,.16.53.53,0,0,0,.2.13,2.45,2.45,0,0,0,.36.08,3.43,3.43,0,0,0,.48,0h13.35a4.12,4.12,0,0,0,.51,0,2.75,2.75,0,0,0,.45-.09,1.27,1.27,0,0,0,.33-.12.33.33,0,0,0,.17-.16l1.9-4a.14.14,0,0,0,0-.15.42.42,0,0,0-.21-.12,1.4,1.4,0,0,0-.35-.08,3.38,3.38,0,0,0-.47,0Z" transform="translate(-43.28 -29.97)"/><path class="cls-11" d="M215.44,296.31h-13a4.07,4.07,0,0,0-.5,0,2.72,2.72,0,0,0-.43.09,1.27,1.27,0,0,0-.33.12.43.43,0,0,0-.17.15l-1.85,4a.12.12,0,0,0,0,.16.42.42,0,0,0,.21.12,1.67,1.67,0,0,0,.37.09,3.53,3.53,0,0,0,.48,0h13.34a4.12,4.12,0,0,0,.51,0,2.63,2.63,0,0,0,.44-.09,1.06,1.06,0,0,0,.32-.13.34.34,0,0,0,.16-.15l1.54-4a.14.14,0,0,0,0-.15.64.64,0,0,0-.22-.13,2.45,2.45,0,0,0-.36-.08,3.53,3.53,0,0,0-.48,0Z" transform="translate(-43.28 -29.97)"/><path class="cls-11" d="M236.75,296.31h-17a4.07,4.07,0,0,0-.5,0l-.42.08a1.31,1.31,0,0,0-.31.13.3.3,0,0,0-.16.15l-1.49,4a.12.12,0,0,0,0,.15.46.46,0,0,0,.22.13,1.67,1.67,0,0,0,.37.09,3.68,3.68,0,0,0,.49,0h17.4a3.9,3.9,0,0,0,.5,0l.43-.08a1.31,1.31,0,0,0,.31-.13c.08-.05.13-.1.14-.16l1.1-4a.17.17,0,0,0-.06-.15.7.7,0,0,0-.23-.12,2.61,2.61,0,0,0-.37-.08,3.64,3.64,0,0,0-.48,0Z" transform="translate(-43.28 -29.97)"/><path class="cls-11" d="M346,296.29h-17a3.53,3.53,0,0,0-.48,0,2.78,2.78,0,0,0-.38.08.88.88,0,0,0-.24.12.15.15,0,0,0-.07.15l.76,4a.25.25,0,0,0,.13.15,1.07,1.07,0,0,0,.3.13,3.51,3.51,0,0,0,.42.08,3.75,3.75,0,0,0,.5,0H347.4a3.68,3.68,0,0,0,.49,0,2.78,2.78,0,0,0,.38-.08.7.7,0,0,0,.23-.13.14.14,0,0,0,.06-.16l-1.16-4a.39.39,0,0,0-.14-.15,1.44,1.44,0,0,0-.3-.12l-.42-.08a4,4,0,0,0-.5,0Z" transform="translate(-43.28 -29.97)"/><path class="cls-11" d="M363.77,296.28H350.7a3.64,3.64,0,0,0-.48,0,1.7,1.7,0,0,0-.37.08.7.7,0,0,0-.23.12.16.16,0,0,0-.05.15l1.2,4a.32.32,0,0,0,.15.16,1.52,1.52,0,0,0,.31.13l.44.08a4.07,4.07,0,0,0,.5,0h13.39a3.68,3.68,0,0,0,.49,0,1.67,1.67,0,0,0,.37-.09.7.7,0,0,0,.23-.12.16.16,0,0,0,0-.16l-1.53-4a.34.34,0,0,0-.16-.15,1,1,0,0,0-.31-.12,2.38,2.38,0,0,0-.42-.09,4.07,4.07,0,0,0-.5,0Z" transform="translate(-43.28 -29.97)"/><path class="cls-11" d="M324.7,296.29l-83.69,0a3.91,3.91,0,0,0-.49,0l-.41.08a1.09,1.09,0,0,0-.3.12c-.08,0-.13.1-.14.15l-1.06,4a.17.17,0,0,0,.06.16.66.66,0,0,0,.24.13,2.49,2.49,0,0,0,.38.08,3.68,3.68,0,0,0,.49,0h85.75a3.79,3.79,0,0,0,.49,0,1.87,1.87,0,0,0,.39-.09.72.72,0,0,0,.25-.13c.06-.05.09-.1.08-.15l-.72-4a.29.29,0,0,0-.13-.15,1.7,1.7,0,0,0-.29-.12l-.41-.08a3.91,3.91,0,0,0-.49,0Z" transform="translate(-43.28 -29.97)"/><path class="cls-11" d="M191.38,277.37h-11.8l-.45,0-.4.07a1.89,1.89,0,0,0-.31.1.44.44,0,0,0-.16.12l-2.1,3.28a.1.1,0,0,0,0,.13.37.37,0,0,0,.18.1,1.73,1.73,0,0,0,.32.07,2.81,2.81,0,0,0,.43,0h12.07l.46,0,.41-.07a1.46,1.46,0,0,0,.3-.11.5.5,0,0,0,.17-.12l1.83-3.28a.11.11,0,0,0,0-.12.48.48,0,0,0-.19-.1,1.94,1.94,0,0,0-.32-.07,2.89,2.89,0,0,0-.43,0Z" transform="translate(-43.28 -29.97)"/><path class="cls-11" d="M393,274.66H380.17l-.42,0a1.8,1.8,0,0,0-.31.07.48.48,0,0,0-.19.09.1.1,0,0,0,0,.12l.85,1.67a.32.32,0,0,0,.15.12,2.39,2.39,0,0,0,.29.1,3.59,3.59,0,0,0,.39.06,3.19,3.19,0,0,0,.45,0h13a2.82,2.82,0,0,0,.42,0,2.21,2.21,0,0,0,.32-.07.43.43,0,0,0,.18-.09s.05-.08,0-.12l-1-1.67c0-.05-.07-.08-.15-.12a1.5,1.5,0,0,0-.3-.1,3.38,3.38,0,0,0-.38-.06l-.45,0Z" transform="translate(-43.28 -29.97)"/><path class="cls-11" d="M226.79,274.69H214a3.17,3.17,0,0,0-.44,0,3.38,3.38,0,0,0-.38.06,1.28,1.28,0,0,0-.28.1.35.35,0,0,0-.14.12l-.75,1.67s0,.08,0,.12a.54.54,0,0,0,.2.09,1.36,1.36,0,0,0,.33.07,2.67,2.67,0,0,0,.42,0h13l.45,0,.38-.07a1.11,1.11,0,0,0,.28-.1.29.29,0,0,0,.14-.12l.6-1.66a.1.1,0,0,0,0-.12.53.53,0,0,0-.2-.1,1.4,1.4,0,0,0-.32-.06,2.81,2.81,0,0,0-.43,0Z" transform="translate(-43.28 -29.97)"/><path class="cls-11" d="M210.17,274.7H197.35l-.45,0-.39.07a1.66,1.66,0,0,0-.29.09.32.32,0,0,0-.15.12l-.91,1.67a.09.09,0,0,0,0,.12.43.43,0,0,0,.18.09,1.19,1.19,0,0,0,.31.07,2.58,2.58,0,0,0,.42,0h13a3.19,3.19,0,0,0,.45,0,2.26,2.26,0,0,0,.39-.07,1.66,1.66,0,0,0,.29-.09.35.35,0,0,0,.14-.12l.77-1.67a.12.12,0,0,0,0-.12.48.48,0,0,0-.19-.1,2.29,2.29,0,0,0-.32-.06,2.82,2.82,0,0,0-.42,0Z" transform="translate(-43.28 -29.97)"/><path class="cls-11" d="M402.31,274.66H396.2l-.34,0-.24.05a.5.5,0,0,0-.15.08.08.08,0,0,0,0,.1l1.07,1.79a.36.36,0,0,0,.13.09,1,1,0,0,0,.24.08l.32.05a2.11,2.11,0,0,0,.36,0h6.19l.34,0,.25-.05a.37.37,0,0,0,.14-.08.08.08,0,0,0,0-.1l-1.16-1.79a.36.36,0,0,0-.13-.09,2.23,2.23,0,0,0-.24-.08l-.31-.05-.36,0Z" transform="translate(-43.28 -29.97)"/><path class="cls-11" d="M382.15,298.57H368.42l-.39,0a1.77,1.77,0,0,0-.29.07.5.5,0,0,0-.18.1.14.14,0,0,0,0,.12l.73,1.9a.31.31,0,0,0,.13.12,1.27,1.27,0,0,0,.26.11,2.81,2.81,0,0,0,.35.06,2.6,2.6,0,0,0,.4,0h13.92a2.17,2.17,0,0,0,.38,0A1,1,0,0,0,384,301a.38.38,0,0,0,.17-.1.09.09,0,0,0,0-.12l-.88-1.9a.26.26,0,0,0-.13-.12,1.18,1.18,0,0,0-.27-.1,2.7,2.7,0,0,0-.35-.07,2.55,2.55,0,0,0-.4,0Z" transform="translate(-43.28 -29.97)"/><path class="cls-11" d="M400,298.56H386.27a2.24,2.24,0,0,0-.38,0,1.54,1.54,0,0,0-.29.07.45.45,0,0,0-.17.1.1.1,0,0,0,0,.12l.91,1.9a.31.31,0,0,0,.13.12,1.39,1.39,0,0,0,.27.1,1.91,1.91,0,0,0,.36.07,2.6,2.6,0,0,0,.4,0H401.4l.38,0a1.42,1.42,0,0,0,.28-.07.34.34,0,0,0,.16-.1.1.1,0,0,0,0-.13l-1.05-1.9a.32.32,0,0,0-.15-.12,2,2,0,0,0-.27-.1,2.81,2.81,0,0,0-.35-.06,2.73,2.73,0,0,0-.41,0Z" transform="translate(-43.28 -29.97)"/><path class="cls-11" d="M398.64,296.09H385.07l-.37,0a1.42,1.42,0,0,0-.28.07.38.38,0,0,0-.17.09.11.11,0,0,0,0,.12l.89,1.85a.22.22,0,0,0,.13.12.88.88,0,0,0,.26.1l.35.07a2.73,2.73,0,0,0,.41,0H400l.38,0a1.42,1.42,0,0,0,.28-.07.34.34,0,0,0,.16-.1.11.11,0,0,0,0-.12l-1-1.85a.49.49,0,0,0-.15-.12,1.28,1.28,0,0,0-.26-.1c-.11,0-.23-.05-.35-.06a2.69,2.69,0,0,0-.4,0Z" transform="translate(-43.28 -29.97)"/><path class="cls-11" d="M417.64,298.56H403.9a2.05,2.05,0,0,0-.37,0,1.49,1.49,0,0,0-.28.06.44.44,0,0,0-.16.1.11.11,0,0,0,0,.12l1.09,1.9a.28.28,0,0,0,.15.13,1.18,1.18,0,0,0,.27.1l.36.07.41,0h13.91a2.17,2.17,0,0,0,.38,0,1.49,1.49,0,0,0,.28-.06.34.34,0,0,0,.16-.11.13.13,0,0,0,0-.12l-1.24-1.9a.39.39,0,0,0-.15-.12,1.51,1.51,0,0,0-.28-.1l-.36-.07-.41,0Z" transform="translate(-43.28 -29.97)"/><path class="cls-19" d="M406.55,118.27v3.9H178.23v-3.9c0-4.57,3.15-8.27,8.54-8.27H398C403.69,110,406.55,112.86,406.55,118.27Z" transform="translate(-43.28 -29.97)"/><circle class="cls-20" cx="334.07" cy="86.12" r="2.3"/><circle class="cls-3" cx="342.34" cy="86.12" r="2.3"/><path class="cls-21" d="M396.19,116.08a2.31,2.31,0,1,1-2.3-2.3A2.3,2.3,0,0,1,396.19,116.08Z" transform="translate(-43.28 -29.97)"/><path class="cls-22" d="M384.65,256.86l1.65.41,1.62-.41V244.12h10.44v-2.94H387.92v-9.53h-3.27v9.53H374.2v2.94h10.45Z" transform="translate(-43.28 -29.97)"/><path class="cls-22" d="M388,226.65c1.83.14,1.83,1.29,2.27,1.83.17.2-1.45.67-3.15.2-.54-.24-1-1.52-1.14-1.69a3.46,3.46,0,0,1,2-.34Zm7.3,2c1.69.47,2.77,0,2.94-.3s-.23-1.59-2.06-1.73a3.48,3.48,0,0,0-2,.34c.14.17.58,1.46,1.15,1.69Zm-15.47-2.06c1.79.17,1.82,1.28,2.26,1.82.17.2-1.45.68-3.14.2-.54-.23-1-1.52-1.15-1.69A3.94,3.94,0,0,1,379.85,226.55Z" transform="translate(-43.28 -29.97)"/><path class="cls-23" d="M399.44,223.34a11.36,11.36,0,0,0-1.95-.31,15.9,15.9,0,0,0-2.13.11,13.8,13.8,0,0,1-3.28,0,2.5,2.5,0,0,0-1.15.17,1.71,1.71,0,0,1,.24-.21,4.63,4.63,0,0,1,1.28-1.25,4.42,4.42,0,0,0,.44-.23,2.6,2.6,0,0,0,2.37,0,2.41,2.41,0,0,0,2.77,0,1.7,1.7,0,0,0,.61-1.32,3,3,0,0,0-.07-.5,1.81,1.81,0,0,0-1.65-1.18,3.66,3.66,0,0,0-.21-.51,3.75,3.75,0,0,0,.24-.3c.07-.11.34-.51-.34-.17a1.58,1.58,0,0,1-.16.1,2.91,2.91,0,0,0-.31-.24,3,3,0,0,0-2.33-.2,1.81,1.81,0,0,0-.71-1.08,2,2,0,0,0-1.45-.2.62.62,0,0,1,.1-.2c.24-.54.1-.68-.14-.44s-.47.47-.64.6a3.41,3.41,0,0,0-2.09-1.65,3.2,3.2,0,0,0-2.23.24c0-.37-.11-.64-.14-.81-.14-.44-.3-.11-.3,0s-.07.44-.11.71a3,3,0,0,0-2.23-.27,2.82,2.82,0,0,0-1.79,1.69,4.42,4.42,0,0,0-.81-.21,4.15,4.15,0,0,0-.67-.71c-.21-.16-.37-.1-.27.28,0,.13.1.27.13.37a2.3,2.3,0,0,0-1.28.44,2.26,2.26,0,0,0-.85,1.45.1.1,0,0,0-.06,0,2.06,2.06,0,0,0-1.49.92c-.07,0-.13-.07-.13-.11-1.19-.77-.65.24-.17.68-1.59.23-2,1-2.13,1.42a.74.74,0,0,0-.05.33,1.65,1.65,0,0,0,.71,1.31,1.47,1.47,0,0,0,1.73,0,3,3,0,0,0,2.53-.34,12.37,12.37,0,0,0,1,1,4.85,4.85,0,0,0,1.52,1,3.26,3.26,0,0,0-1.52-.2,9.82,9.82,0,0,1-2.63-.1,14,14,0,0,0-2.27.06,13.76,13.76,0,0,0-1.48.27c-.37.07-.34.31.17.44s1.42.21,1.65.34a8,8,0,0,0,3.11.58,3.34,3.34,0,0,1,1.52.33,7.28,7.28,0,0,0,1.49.34s0,.48,0,.71c-.14,0-.24.1-.37.14a4.71,4.71,0,0,0-4.06-.07,3.55,3.55,0,0,0-2.56-.24,1.54,1.54,0,0,0-.78,2.54,1.67,1.67,0,0,0,2.3.27,2,2,0,0,0,2.26,0,5.73,5.73,0,0,0,3.85,0,44.2,44.2,0,0,0,4.19,0,3.18,3.18,0,0,0,1.93.38c1.42,0,1.75-.24,2-.41a24,24,0,0,0,4.29.07,4.89,4.89,0,0,0,3.44-.07c.88-.61.44-1.82-.5-2.4a4.55,4.55,0,0,0-4.06,0,4.16,4.16,0,0,0-2.9-.38,2.45,2.45,0,0,0,0-.47v-.07a3.74,3.74,0,0,1,1.25-.37c.94-.06,3.14,0,4.22-.6.64-.34,2.81-.75,3.11-.92s.2-.34,0-.44Zm-8-1.29c-.78.95-1.19,1.26-1.32,1.26a3.47,3.47,0,0,0-.71-.88c.27-.31,1.52-.88,2.1-1.32l.44-.27a2.28,2.28,0,0,0,.54.47A5.57,5.57,0,0,0,391.44,222.05ZM380,220a2.42,2.42,0,0,0,2-.58c.71,1.12.71,2.1,1.38,2.81-.84-.81-1.58-.81-2.8-1.45-.2-.11-.51-.31-.61-.37s0-.21,0-.34S380,220.06,380,220Zm5.13,1.25s-.34-.51-.37-.58-.3-.37-.47-.61-.54-.64-.75-.84a3.53,3.53,0,0,0,1.62-.95.85.85,0,0,1,.21.14,3.33,3.33,0,0,1-.11.47c-.13.75-.13,1.32-.16,1.56S385.15,221.08,385.15,221.28Zm-1-.68a7.16,7.16,0,0,1,.61,1,7.48,7.48,0,0,0-.94.47,12.6,12.6,0,0,1-1.09-2.33,1.28,1.28,0,0,1-.2-.34,3.83,3.83,0,0,0,.58.07A6,6,0,0,1,384.1,220.6Zm2.17,1.08a4.1,4.1,0,0,1,4.12,4.13,4.66,4.66,0,0,1,0,.61,5.63,5.63,0,0,0-.75.27,4.11,4.11,0,0,0-3.95,0,4.83,4.83,0,0,0-3.45-.34c0-.24-.07-.44-.07-.54a4.15,4.15,0,0,1,4.13-4.13Zm-.58-1.58a8.52,8.52,0,0,1,.2-1.39l.54.2a6.31,6.31,0,0,1,.31,2.37,4.34,4.34,0,0,0-1,0A4.7,4.7,0,0,1,385.69,220.1Zm3.65.1c-.24.5-.1,1.15-.71,1.72a7.91,7.91,0,0,0-.91-.44,4.22,4.22,0,0,1,1.32-2.2,2,2,0,0,0,.54.44A4,4,0,0,0,389.34,220.2ZM390,220s0-.07.07-.14a4,4,0,0,0,1.42.14,3.59,3.59,0,0,0,.2.51c-.24.1-.94.6-2,1.18a1.91,1.91,0,0,0-.54.4,3.18,3.18,0,0,0,.34-.57A5.7,5.7,0,0,1,390,220Zm-2.53.61a4.13,4.13,0,0,0-.2.6A6.4,6.4,0,0,0,387,219a3.29,3.29,0,0,0,1.62-.44.94.94,0,0,0,.17.33,5.34,5.34,0,0,0-1.32,1.8Zm-8.45.64a2.49,2.49,0,0,1-2.26.3.23.23,0,0,0-.24,0,1,1,0,0,1-1.25.07,1.12,1.12,0,0,1-.47-1.15c.14-.57.84-1,1.93-1.08a.28.28,0,0,0,.23-.2c.2-1,.85-1.12,1.45-1.25l.28-.07a.2.2,0,0,0,.16-.27,1.72,1.72,0,0,1,.65-1.22,2.65,2.65,0,0,1,2.63,0,.23.23,0,0,0,.2,0,.27.27,0,0,0,.14-.14,2.34,2.34,0,0,1,1.55-1.58,2.53,2.53,0,0,1,2.27.44.27.27,0,0,0,.3,0,2.73,2.73,0,0,1,2.2-.38,3.28,3.28,0,0,1,2,1.76.31.31,0,0,0,.31.14,2.22,2.22,0,0,1,1.79,0,1.35,1.35,0,0,1,.57,1,.29.29,0,0,0,.1.17.39.39,0,0,0,.21,0,2.57,2.57,0,0,1,2.16.1,1.29,1.29,0,0,1,.64.94c0,.11.1.21.24.21a1.44,1.44,0,0,1,1.38.84,1.22,1.22,0,0,1-.37,1.28,2.09,2.09,0,0,1-2.29-.06.33.33,0,0,0-.24,0,2.11,2.11,0,0,1-2.06.06,2.31,2.31,0,0,1-1.22-1.52.2.2,0,0,0-.1-.17.25.25,0,0,0-.2,0c-.51.07-2.23.24-2.6-1.42a.39.39,0,0,0-.14-.17c-.07,0-.17,0-.24.07a2.56,2.56,0,0,1-3.27-.17.26.26,0,0,0-.34,0c-1.22,1.22-2.2,1.15-2.67,1a.27.27,0,0,0-.31.1,1.94,1.94,0,0,1-2.16.67.22.22,0,0,0-.24,0,.28.28,0,0,0-.1.24,1.89,1.89,0,0,1-.61,1.52Zm.58.2a2.48,2.48,0,0,0,.3-.61.57.57,0,0,1,.14.11s.4.27.64.4a11.66,11.66,0,0,1,2.4,1.18,3.54,3.54,0,0,0-.68.91A6.16,6.16,0,0,1,379.58,221.48Zm.77,3.35a4.39,4.39,0,0,0-1.52-.34,7.57,7.57,0,0,1-3-.51c-.17-.06-1.59-.2-.2-.2a9.54,9.54,0,0,1,2,0,14.07,14.07,0,0,0,2.91.07,1.82,1.82,0,0,1,1.48.44,5,5,0,0,0-.17.88,5.57,5.57,0,0,1-1.45-.34Zm-3.51,3.78c-.64-.44-1-1.28-1.49-1.15-.17.07-.2.41,0,.41s.47.47.67.67c0,.24-.67.51-1.35.11a1.13,1.13,0,0,1-.37-1.53,1.75,1.75,0,0,1,1.62-.57c1.45,0,1.89,1.69,2.23,2A1.13,1.13,0,0,1,376.84,228.61Zm2.13,0c-.54-.24-1-1.52-1.15-1.69a3.48,3.48,0,0,1,2-.34c1.82.17,1.82,1.28,2.26,1.82.17.24-1.49.68-3.14.21Zm5.91.13a9,9,0,0,1-.88-1c-.17-.23-.51-.44-.67-.23s0,.27.16.34a2.87,2.87,0,0,1,.65.77.91.91,0,0,1-1.32-.1c-.24-.3-.71-1.18-1-1.55a4.44,4.44,0,0,1,3.14-.11c.84.41,1,1.29,1.32,1.73.06.3-.88.47-1.39.13Zm2.26,0c-.54-.24-1-1.52-1.14-1.69a3.46,3.46,0,0,1,2-.34c1.83.17,1.83,1.29,2.27,1.83.17.2-1.45.67-3.15.2Zm9.06-2.09c1.83.16,2.23,1.35,2.06,1.72s-1.25.78-2.94.3c-.54-.23-1-1.52-1.14-1.69a3.21,3.21,0,0,1,2-.33Zm-3.07.26c.84.41,1,1.29,1.31,1.73.07.3-.94.37-1.38.13a8.09,8.09,0,0,1-.88-1c-.17-.23-.47-.37-.61-.17s0,.28.17.34a2.27,2.27,0,0,1,.58.71c0,.17-.75.4-1.29-.13a10.74,10.74,0,0,1-.94-1.59A4.31,4.31,0,0,1,393.13,226.85Zm4.86-3.14a15.08,15.08,0,0,0-2,.54,13.72,13.72,0,0,1-3.92.51c-.81,0-1,.34-1.35.3a3.29,3.29,0,0,0-.27-1.05,3.7,3.7,0,0,1,1.65-.33,21.6,21.6,0,0,0,3.32,0c.4-.06,1.89-.06,2.09-.06l.51,0C398.43,223.64,398.16,223.68,398,223.71Z" transform="translate(-43.28 -29.97)"/><path class="cls-23" d="M376.77,220.2a1.3,1.3,0,0,0-1.11.34c-.34.37-.24.54-.31.6s-.3-.06-.3-.23c0-.85,1.05-1.19,1.65-1.12.24,0,.27.41.07.41" transform="translate(-43.28 -29.97)"/><path class="cls-23" d="M378.6,218.78a.92.92,0,0,0-1,.74c0,.14-.41,0-.34-.23a1.25,1.25,0,0,1,1.35-.92c.07,0,0,.41-.06.41" transform="translate(-43.28 -29.97)"/><path class="cls-23" d="M381.4,217.05a1.35,1.35,0,0,0-1.89,1.12c0,.1-.41.07-.34-.24a1.77,1.77,0,0,1,2.4-1.31c.13,0,0,.5-.17.43" transform="translate(-43.28 -29.97)"/><path class="cls-23" d="M385.66,215.91a1.65,1.65,0,0,0-2.33.37c-.21.23-.44-.17-.34-.31a1.9,1.9,0,0,1,2.84-.5c.13.13,0,.54-.17.44" transform="translate(-43.28 -29.97)"/><path class="cls-23" d="M390,216.89c-.11.06-.14-.07-.21-.17a1.93,1.93,0,0,0-3.11-.41c-.1.14-.33-.24-.2-.44a2.32,2.32,0,0,1,3.69.61c.1.2-.07.34-.17.41" transform="translate(-43.28 -29.97)"/><path class="cls-23" d="M392.65,217.83c-.27-.71-.77-.67-1.35-.47-.27.1-.2-.37-.1-.41.58-.2,1.56-.3,1.82.68,0,.27-.3.4-.37.2" transform="translate(-43.28 -29.97)"/><path class="cls-23" d="M395.76,219.32a1.39,1.39,0,0,0-1.89-.64c-.14.06-.27-.31,0-.44a1.58,1.58,0,0,1,2.26.84c.07.2-.2.54-.34.24" transform="translate(-43.28 -29.97)"/><path class="cls-23" d="M397.72,220.7c0,.14-.4.17-.37,0,.07-.7-.3-.77-.77-.77-.17,0-.17-.37,0-.41a1,1,0,0,1,1.18,1.18" transform="translate(-43.28 -29.97)"/><path class="cls-23" d="M385.39,224.39a.48.48,0,0,1-.95-.07v-.06c0-.07-.27-.14-.58.06s-.33,0-.06-.2a1.56,1.56,0,0,1,.81-.44,3.43,3.43,0,0,1,1.22.17c.1,0,0,.57,0,.54a.83.83,0,0,0-.44-.07Z" transform="translate(-43.28 -29.97)"/><path class="cls-23" d="M386.74,225.84c-.07.24-.95.34-1.12,0-.06-.13-.13-.44,0-.37a2.63,2.63,0,0,0,1,0c.11,0,0-.2.11-.17s.13.3,0,.54" transform="translate(-43.28 -29.97)"/><path class="cls-23" d="M388.8,224.49c-.2-.17-.5-.27-.61-.17v0a.47.47,0,1,1-.94.07v0a1,1,0,0,0-.48,0s-.13-.51,0-.58c.41-.17,1.76-.23,2.13.51,0,.1,0,.21-.1.14" transform="translate(-43.28 -29.97)"/><path class="cls-23" d="M388.46,231.65h9.91v9h-9.91Zm-14.26,0h9.91v9H374.2Zm9.94,25a16.68,16.68,0,0,1-6.62-3.24,8.77,8.77,0,0,1-1.46-1.72h2.54v.37h1.18v-.37h2.84v-4.8H382v-.88a9.79,9.79,0,0,1-2.06-.2,1.22,1.22,0,0,0-.75.2,1.32,1.32,0,0,0-.74-.2,9.79,9.79,0,0,1-2.06.2v.88h-.61v4.29a13.16,13.16,0,0,1-1.52-6.19l0-.37h9.91Zm-7.27-5.91v-4.12a14,14,0,0,0,1.59-.21c.34,0,.44.17.44.17v4.16a1.5,1.5,0,0,0-1.15,0C377.11,251,376.87,250.78,376.87,250.78Zm2.64,0v-4.16s.1-.2.44-.17a10.91,10.91,0,0,0,1.59.21v4.12s-.24.17-.85,0C379.85,250.54,379.51,250.78,379.51,250.78Zm8.41,6.08-1.65.41-1.62-.44V244.12H374.2v-2.93h10.45v-9.54h3.27v9.54h10.41v2.93H387.92Zm9-5.57V247h-.61v-.88a9.17,9.17,0,0,1-2.06-.2,1.22,1.22,0,0,0-.75.2,1.17,1.17,0,0,0-.74-.2,9.23,9.23,0,0,1-2.06.2V247h-.61v4.8h2.84v.37h1.18v-.37h2.57a10.38,10.38,0,0,1-1.49,1.72,16.76,16.76,0,0,1-6.66,3.21v-12h9.9v.41a13.82,13.82,0,0,1-1.51,6.22Zm-1.12-4.67v4.13s-.24.17-.84,0c-.81-.24-1.15,0-1.15,0v-4.16s.1-.2.44-.17c.61,0,1.21.24,1.55.17Zm-2.63,0v4.16a1.5,1.5,0,0,0-1.15,0c-.61.17-.85,0-.85,0v-4.13a13.58,13.58,0,0,0,1.59-.2c.34,0,.41.2.41.2ZM373.6,231v13.32c0,4.39,1.08,7.43,3.44,9.56s5.81,3.21,9.23,4c3.51-.84,6.89-1.86,9.22-4s3.45-5.17,3.45-9.56V231Z" transform="translate(-43.28 -29.97)"/><path class="cls-23" d="M382,234v-.88a9.79,9.79,0,0,1-2.06-.2,1.22,1.22,0,0,0-.75.2,1.32,1.32,0,0,0-.74-.2,9.86,9.86,0,0,1-2.06.2V234h-.61v4.8h2.84v.37h1.18v-.37h2.84V234Zm-3.14,3.82a1.52,1.52,0,0,0-1.15,0c-.61.17-.85,0-.85,0v-4.12a13.58,13.58,0,0,0,1.59-.2c.34,0,.44.17.44.17Zm2.63,0s-.24.17-.84,0c-.81-.23-1.15,0-1.15,0v-4.16s.1-.2.44-.17a12.2,12.2,0,0,0,1.59.2Z" transform="translate(-43.28 -29.97)"/><path class="cls-23" d="M396.27,234v-.88a9.79,9.79,0,0,1-2.06-.2,1.22,1.22,0,0,0-.75.2,1.17,1.17,0,0,0-.74-.2,9.86,9.86,0,0,1-2.06.2V234h-.61v4.8h2.84v.37h1.18v-.37h2.84V234Zm-3.21,3.82a1.52,1.52,0,0,0-1.15,0c-.61.17-.84,0-.84,0v-4.12a13.72,13.72,0,0,0,1.58-.2c.34,0,.44.17.44.17v4.19Zm2.64,0s-.24.17-.85,0c-.81-.23-1.15,0-1.15,0v-4.16a.43.43,0,0,1,.44-.17,12.2,12.2,0,0,0,1.59.2v4.09Z" transform="translate(-43.28 -29.97)"/><path class="cls-6" d="M388.46,256.69a16.82,16.82,0,0,0,6.66-3.21,8.79,8.79,0,0,0,1.49-1.72H394v.37h-1.18v-.37H390V247h.61v-.88a9.17,9.17,0,0,0,2.06-.2,1.17,1.17,0,0,1,.74.2,1.37,1.37,0,0,1,.75-.2,9.17,9.17,0,0,0,2.06.2V247h.61v4.33a13.58,13.58,0,0,0,1.49-6.22v-.41h-9.91v12Z" transform="translate(-43.28 -29.97)"/><path class="cls-6" d="M374.24,245a13.52,13.52,0,0,0,1.52,6.19v-4.29h.61v-.88a9.79,9.79,0,0,0,2.06-.2,1.17,1.17,0,0,1,.74.2,1.37,1.37,0,0,1,.75-.2,9.79,9.79,0,0,0,2.06.2v.88h.61v4.8h-2.85v.37h-1.18v-.37H376a9.66,9.66,0,0,0,1.45,1.72,16.55,16.55,0,0,0,6.62,3.24v-12h-9.9Z" transform="translate(-43.28 -29.97)"/><path class="cls-6" d="M378.87,250.78v-4.16a.43.43,0,0,0-.44-.17,10.91,10.91,0,0,1-1.59.21v4.12s.23.17.84,0C378.53,250.54,378.87,250.78,378.87,250.78Z" transform="translate(-43.28 -29.97)"/><path class="cls-6" d="M375.83,224a7.8,7.8,0,0,0,3,.51,4.52,4.52,0,0,1,1.53.34,5.52,5.52,0,0,0,1.42.33c0-.17.1-.67.16-.88a1.89,1.89,0,0,0-1.48-.44,11.8,11.8,0,0,1-2.91-.06,8.93,8.93,0,0,0-2,0c-1.39,0,.07.13.24.2Z" transform="translate(-43.28 -29.97)"/><path class="cls-6" d="M378.46,233.48a12.2,12.2,0,0,1-1.59.2v4.12s.24.17.85,0c.81-.23,1.14,0,1.14,0v-4.16A.42.42,0,0,0,378.46,233.48Z" transform="translate(-43.28 -29.97)"/><path class="cls-6" d="M394.11,233.48c-.34,0-.44.17-.44.17v4.15a1.56,1.56,0,0,1,1.15,0c.6.17.84,0,.84,0v-4.12a8,8,0,0,1-1.55-.17Z" transform="translate(-43.28 -29.97)"/><path class="cls-6" d="M398.37,231.65h-9.91v9h9.91Zm-1.49,7.17H394v.37h-1.18v-.37H390V234h.61v-.88a9.86,9.86,0,0,0,2.06-.2,1.2,1.2,0,0,1,.74.2,1.33,1.33,0,0,1,.75-.2,9.79,9.79,0,0,0,2.06.2V234h.61Z" transform="translate(-43.28 -29.97)"/><path class="cls-6" d="M393.77,246.62v4.16a1.5,1.5,0,0,1,1.15,0c.61.17.84,0,.84,0v-4.13a13.09,13.09,0,0,1-1.59-.2.43.43,0,0,0-.4.2Z" transform="translate(-43.28 -29.97)"/><path class="cls-6" d="M391.13,246.62v4.13s.24.17.85,0c.81-.24,1.14,0,1.14,0v-4.16s-.1-.2-.44-.17c-.6,0-1.17.24-1.55.17Z" transform="translate(-43.28 -29.97)"/><path class="cls-6" d="M392.62,233.48a12.2,12.2,0,0,1-1.59.2v4.12s.24.17.85,0c.81-.23,1.14,0,1.14,0v-4.16s-.06-.2-.4-.2Z" transform="translate(-43.28 -29.97)"/><path class="cls-6" d="M383.09,222.56a10.73,10.73,0,0,0-2.4-1.18,2.65,2.65,0,0,1-.64-.4.42.42,0,0,0-.14-.11,2.17,2.17,0,0,1-.3.61,6.25,6.25,0,0,0,2.84,2A2.88,2.88,0,0,1,383.09,222.56Z" transform="translate(-43.28 -29.97)"/><path class="cls-6" d="M382.51,219.32l.21.34A11.68,11.68,0,0,0,383.8,222a3.19,3.19,0,0,1,.94-.47,9.22,9.22,0,0,0-.6-1c-.58-.75-1-1.15-1-1.22A1.14,1.14,0,0,1,382.51,219.32Z" transform="translate(-43.28 -29.97)"/><path class="cls-6" d="M382.21,226.35c1.18-.27,2.77-.24,3.45.33a4.24,4.24,0,0,1,4,0,3,3,0,0,1,.74-.27,4.58,4.58,0,0,0,0-.61,4.1,4.1,0,0,0-4.12-4.12,4.14,4.14,0,0,0-4.12,4.12c0,.11,0,.31.06.55Zm4.56-2.5c.41-.17,1.76-.24,2.13.5,0,.1,0,.2-.1.1s-.51-.27-.61-.16v0a.48.48,0,1,1-.95.07v0a1,1,0,0,0-.47,0C386.71,224.42,386.6,223.91,386.77,223.85Zm-.13,1.58c.1,0,0-.2.1-.16s.1.3,0,.53-.95.34-1.12,0c-.06-.13-.13-.44,0-.37a2.07,2.07,0,0,0,1.05,0Zm-2.84-1.28a1.64,1.64,0,0,1,.81-.44,3.43,3.43,0,0,1,1.22.17c.1,0,0,.57,0,.54a1,1,0,0,0-.44-.07v0a.48.48,0,0,1-.95-.07v-.07c0-.06-.27-.13-.58.07-.13.13-.33.07,0-.17Z" transform="translate(-43.28 -29.97)"/><path class="cls-6" d="M385,226.85a4.39,4.39,0,0,0-3.14.11c.27.37.77,1.28,1,1.55a.91.91,0,0,0,1.32.1,6.33,6.33,0,0,0-.65-.77c-.16-.11-.23-.24-.16-.34s.47,0,.67.23a6.18,6.18,0,0,0,.88,1c.51.34,1.49.17,1.39-.13-.34-.44-.48-1.35-1.32-1.73Z" transform="translate(-43.28 -29.97)"/><path class="cls-6" d="M376,226.55a2,2,0,0,0-1.62.57,1.14,1.14,0,0,0,.37,1.53c.68.4,1.28.13,1.35-.11-.17-.2-.51-.67-.67-.67s-.24-.34,0-.41c.44-.13.88.68,1.49,1.15s1.35.1,1.35-.07C377.82,228.24,377.41,226.59,376,226.55Z" transform="translate(-43.28 -29.97)"/><path class="cls-6" d="M386.74,221.28a6,6,0,0,0-.3-2.37,1.2,1.2,0,0,1-.54-.2,5.67,5.67,0,0,0-.21,1.39,4,4,0,0,0,.07,1.18A4,4,0,0,1,386.74,221.28Z" transform="translate(-43.28 -29.97)"/><path class="cls-6" d="M389,219.28a4.34,4.34,0,0,0-1.32,2.2,9.94,9.94,0,0,1,.91.44c.61-.57.48-1.25.71-1.72.1-.2.2-.37.27-.48a3.47,3.47,0,0,1-.57-.44Z" transform="translate(-43.28 -29.97)"/><path class="cls-6" d="M391.07,228.51c.54.54,1.25.31,1.28.14a3.35,3.35,0,0,0-.58-.71c-.16-.1-.27-.24-.16-.34s.44-.07.6.17a5,5,0,0,0,.88,1c.48.27,1.49.17,1.39-.14-.27-.44-.47-1.35-1.32-1.72a4,4,0,0,0-3,.07A6.77,6.77,0,0,0,391.07,228.51Z" transform="translate(-43.28 -29.97)"/><path class="cls-6" d="M390.79,225.06c.28,0,.54-.3,1.35-.3a13.68,13.68,0,0,0,3.92-.51,10.58,10.58,0,0,1,2-.54c.17,0,.44-.06.1-.13-.06,0-.33,0-.5,0s-1.69,0-2.1.07a20.25,20.25,0,0,1-3.31,0,4.42,4.42,0,0,0-1.65.34S390.76,224.62,390.79,225.06Z" transform="translate(-43.28 -29.97)"/><path class="cls-6" d="M379.61,219.45c.07-.06.17,0,.23,0a1.9,1.9,0,0,0,2.17-.67.26.26,0,0,1,.3-.11c.48.2,1.49.27,2.67-.94a.25.25,0,0,1,.34,0,2.57,2.57,0,0,0,3.28.17c.06,0,.17-.11.23-.07a.22.22,0,0,1,.14.17c.37,1.65,2.09,1.52,2.6,1.42a.46.46,0,0,1,.2,0,.18.18,0,0,1,.1.17,2.46,2.46,0,0,0,1.22,1.52,2.13,2.13,0,0,0,2.06-.07.33.33,0,0,1,.24,0c.95.51,1.79.54,2.3.07a1.19,1.19,0,0,0,.37-1.29,1.41,1.41,0,0,0-1.39-.84.3.3,0,0,1-.24-.2,1.24,1.24,0,0,0-.64-.95,2.61,2.61,0,0,0-2.16-.1.24.24,0,0,1-.2,0,.21.21,0,0,1-.11-.17,1.25,1.25,0,0,0-.57-1,2.17,2.17,0,0,0-1.79,0,.27.27,0,0,1-.31-.13,3.12,3.12,0,0,0-2-1.76,2.73,2.73,0,0,0-2.2.37.24.24,0,0,1-.3,0,2.5,2.5,0,0,0-2.26-.44,2.43,2.43,0,0,0-1.56,1.59c0,.06-.07.13-.14.13a.18.18,0,0,1-.2,0,2.62,2.62,0,0,0-2.63,0,1.64,1.64,0,0,0-.64,1.21.28.28,0,0,1-.17.28l-.27.06c-.61.14-1.25.27-1.46,1.25a.25.25,0,0,1-.23.2c-1.09.11-1.76.51-1.93,1.09a1.13,1.13,0,0,0,.47,1.14,1,1,0,0,0,1.25-.06c.07,0,.17-.07.24,0a2.49,2.49,0,0,0,2.26-.31,1.61,1.61,0,0,0,.51-1.59c.11,0,.14-.1.21-.17Zm16.93.07a1,1,0,0,1,1.18,1.18c0,.14-.41.17-.37,0,.07-.71-.3-.78-.78-.78-.17,0-.17-.36,0-.4Zm-2.7-1.25a1.59,1.59,0,0,1,2.26.85c.07.2-.2.5-.34.23a1.39,1.39,0,0,0-1.89-.64C393.74,218.75,393.6,218.4,393.84,218.27ZM391.17,217c.57-.2,1.55-.3,1.82.68.07.27-.27.4-.34.2-.27-.71-.78-.68-1.35-.47-.3.1-.23-.37-.13-.41Zm-4.67-1.08a2.33,2.33,0,0,1,3.69.61.3.3,0,0,1-.17.41c-.11.06-.14-.07-.21-.17a1.93,1.93,0,0,0-3.11-.41C386.6,216.45,386.37,216.07,386.5,215.87ZM383,216a1.91,1.91,0,0,1,2.84-.51c.14.1,0,.54-.17.44a1.66,1.66,0,0,0-2.33.37C383.12,216.55,382.92,216.14,383,216Zm-6.25,4.19a1.3,1.3,0,0,0-1.11.34c-.34.37-.24.54-.31.6s-.3-.06-.3-.23c0-.85,1.05-1.19,1.65-1.12C376.94,219.82,377,220.2,376.77,220.2Zm1.83-1.42a.92.92,0,0,0-1,.74c0,.14-.41,0-.34-.23a1.25,1.25,0,0,1,1.35-.92C378.73,218.4,378.7,218.78,378.6,218.78Zm.54-.85a1.76,1.76,0,0,1,2.39-1.31c.21,0,.07.54-.13.44a1.35,1.35,0,0,0-1.89,1.11C379.48,218.24,379.07,218.2,379.14,217.93Z" transform="translate(-43.28 -29.97)"/><path class="cls-6" d="M391.94,220.84c-.1.07-.37.2-.44.27-.57.44-1.82,1-2.09,1.32a3.09,3.09,0,0,1,.71.88c.13,0,.54-.31,1.31-1.25a4.28,4.28,0,0,1,1-.75A1.42,1.42,0,0,1,391.94,220.84Z" transform="translate(-43.28 -29.97)"/><path class="cls-6" d="M380.66,250.78c.61.17.84,0,.84,0v-4.12a13.48,13.48,0,0,1-1.59-.21.51.51,0,0,0-.44.17v4.16A1.58,1.58,0,0,1,380.66,250.78Z" transform="translate(-43.28 -29.97)"/><path class="cls-6" d="M384.14,231.65H374.2v9h9.91Zm-1.52,7.17h-2.84v.37H378.6v-.37h-2.84V234h.61v-.88a9.86,9.86,0,0,0,2.06-.2,1.2,1.2,0,0,1,.74.2,1.33,1.33,0,0,1,.75-.2,9.79,9.79,0,0,0,2.06.2V234h.61v4.8Z" transform="translate(-43.28 -29.97)"/><path class="cls-6" d="M379.91,233.48a.51.51,0,0,0-.44.17v4.15a1.56,1.56,0,0,1,1.15,0c.61.17.85,0,.85,0v-4.12a8.65,8.65,0,0,1-1.56-.17Z" transform="translate(-43.28 -29.97)"/></g><g id="notebook_with_pen" data-name="notebook with pen"><polygon class="cls-14" points="516.75 299.87 515.34 309.68 443.54 313.48 444.69 303.16 516.75 299.87"/><polygon class="cls-14" points="444.69 303.16 443.54 313.48 399.39 276.63 400.21 267.55 444.69 303.16"/><polygon class="cls-24" points="465.01 266.27 516.75 299.87 444.69 303.16 400.21 267.55 465.01 266.27"/><path class="cls-16" d="M507.73,299.25a.5.5,0,0,1-.47-.33c-1.05-3-3.27-5-5.26-4.55a3.65,3.65,0,0,0-2.46,2.26.5.5,0,1,1-.91-.41,4.6,4.6,0,0,1,3.17-2.83c2.49-.5,5.19,1.69,6.4,5.2a.51.51,0,0,1-.31.64A.44.44,0,0,1,507.73,299.25Z" transform="translate(-43.28 -29.97)"/><path class="cls-16" d="M498.73,299.44a.49.49,0,0,1-.47-.34c-1.05-3-3.26-5-5.26-4.54a3.58,3.58,0,0,0-2.45,2.25.52.52,0,0,1-.67.25.5.5,0,0,1-.25-.66,4.59,4.59,0,0,1,3.17-2.82c2.5-.5,5.19,1.68,6.4,5.2a.49.49,0,0,1-.31.63A.41.41,0,0,1,498.73,299.44Z" transform="translate(-43.28 -29.97)"/><path class="cls-16" d="M489.73,299.62a.51.51,0,0,1-.47-.33c-1.05-3-3.26-5-5.26-4.55a3.62,3.62,0,0,0-2.45,2.26.51.51,0,0,1-.66.25.49.49,0,0,1-.25-.66,4.56,4.56,0,0,1,3.17-2.83c2.49-.49,5.18,1.69,6.4,5.2a.51.51,0,0,1-.31.64A.5.5,0,0,1,489.73,299.62Z" transform="translate(-43.28 -29.97)"/><path class="cls-16" d="M480.73,299.81a.5.5,0,0,1-.47-.34c-1.05-3-3.26-5-5.25-4.54a3.58,3.58,0,0,0-2.46,2.25.51.51,0,0,1-.66.25.49.49,0,0,1-.25-.66,4.55,4.55,0,0,1,3.17-2.82c2.5-.5,5.18,1.68,6.4,5.2a.5.5,0,0,1-.31.63A.51.51,0,0,1,480.73,299.81Z" transform="translate(-43.28 -29.97)"/><path class="cls-16" d="M471.74,300a.51.51,0,0,1-.48-.33c-1.05-3-3.26-5-5.25-4.55a3.63,3.63,0,0,0-2.46,2.26.5.5,0,0,1-.66.25.51.51,0,0,1-.25-.67,4.59,4.59,0,0,1,3.17-2.82c2.5-.5,5.19,1.68,6.4,5.2a.51.51,0,0,1-.31.64Z" transform="translate(-43.28 -29.97)"/><path class="cls-16" d="M462.74,300.18a.49.49,0,0,1-.47-.34c-1-3-3.27-4.95-5.26-4.54a3.62,3.62,0,0,0-2.46,2.25.5.5,0,0,1-.91-.41,4.59,4.59,0,0,1,3.17-2.82c2.5-.5,5.19,1.68,6.4,5.19a.5.5,0,0,1-.31.64A.45.45,0,0,1,462.74,300.18Z" transform="translate(-43.28 -29.97)"/><path class="cls-16" d="M453.74,300.36a.5.5,0,0,1-.47-.33c-1-3-3.27-4.95-5.26-4.55a3.65,3.65,0,0,0-2.46,2.26.5.5,0,0,1-.66.25.51.51,0,0,1-.25-.67,4.61,4.61,0,0,1,3.17-2.82c2.5-.5,5.19,1.68,6.4,5.2a.51.51,0,0,1-.31.64Z" transform="translate(-43.28 -29.97)"/><path class="cls-25" d="M469.63,306.09a1.7,1.7,0,0,1-1.49-.74c-.3-.47-1-.71-2.11-.74a24.46,24.46,0,0,0-7.27.9.5.5,0,0,1-.27-1,26,26,0,0,1,7.56-.93,3.44,3.44,0,0,1,2.93,1.2c.31.47,1.23.26,1.78-.07l.45-.3a3.6,3.6,0,0,1,2.3-.86c10.58.86,21.34,0,31.74-.83l.36,0a.51.51,0,0,1,.54.46.5.5,0,0,1-.46.54l-.36,0c-10.44.83-21.23,1.69-31.9.82a3,3,0,0,0-1.66.7l-.48.32A3.31,3.31,0,0,1,469.63,306.09Z" transform="translate(-43.28 -29.97)"/><path class="cls-25" d="M473.62,314.68a3.19,3.19,0,0,1-.75-.08,5.92,5.92,0,0,1-1.42-.56,6.17,6.17,0,0,0-.88-.4c-.58-.2-1.32-.14-1.56.3a.49.49,0,0,1-.67.22.5.5,0,0,1-.22-.67,2.25,2.25,0,0,1,2.78-.8,10.11,10.11,0,0,1,1,.45,3.66,3.66,0,0,0,3.74.12,49.6,49.6,0,0,1,10.95-2.05l.2,0a7.69,7.69,0,0,0,2.4-.41,6.48,6.48,0,0,0,.91-.46,4.4,4.4,0,0,1,3.51-.66c.21,0,.41.06.62.07a12.72,12.72,0,0,0,3.27-.27l1-.17a48.84,48.84,0,0,1,6.82-.34c3.36,0,6.54,0,9.58-1a.51.51,0,0,1,.64.32.5.5,0,0,1-.32.63c-5.34,1.79-11.13.59-16.57,1.4l-1,.16a13.31,13.31,0,0,1-3.52.29l-.67-.08a4.92,4.92,0,0,0-1.47-.06,4.79,4.79,0,0,0-1.41.61,10.78,10.78,0,0,1-1,.51,8.79,8.79,0,0,1-2.71.48l-.2,0a48.23,48.23,0,0,0-10.64,2A8.34,8.34,0,0,1,473.62,314.68Z" transform="translate(-43.28 -29.97)"/><path class="cls-25" d="M475.24,319.05a4.73,4.73,0,0,1-.65,0,.5.5,0,0,1-.43-.56.49.49,0,0,1,.56-.43,7.79,7.79,0,0,0,2.74-.33,7.59,7.59,0,0,1,3.45-.27,8.39,8.39,0,0,1,.85.27c.23.08.46.16.69.22a7.34,7.34,0,0,0,2.64-.05c9.09-1.27,18.33-2.38,27.46-3.32,4.47-.46,8.19-.74,12,.06a.5.5,0,0,1,.38.6.49.49,0,0,1-.59.38c-3.92-.84-8-.41-11.66,0-9.11.93-18.34,2-27.42,3.31a8,8,0,0,1-3,0,7.41,7.41,0,0,1-.8-.25,6.18,6.18,0,0,0-.73-.23,6.65,6.65,0,0,0-3,.27A10.6,10.6,0,0,1,475.24,319.05Z" transform="translate(-43.28 -29.97)"/><path class="cls-25" d="M485,328.83a.5.5,0,0,1-.08-1l9.77-1.58a.5.5,0,0,1,.41.11.49.49,0,0,1,.17.39v.71a7.28,7.28,0,0,0,3-.4l.35-.09a56.78,56.78,0,0,1,10.21-1.43L535,323.48a.5.5,0,0,1,.07,1L509,326.54a56.08,56.08,0,0,0-10,1.41l-.35.09a7.19,7.19,0,0,1-3.92.31.51.51,0,0,1-.36-.49v-.52l-9.19,1.49Z" transform="translate(-43.28 -29.97)"/><polygon class="cls-26" points="446.45 286.81 456.98 283.45 453.1 292.73 446.45 286.81"/><path class="cls-5" d="M431.24,378.34a4.5,4.5,0,0,1-3-7.89l61.23-53.36a4.5,4.5,0,1,1,5.91,6.78l-61.23,53.36A4.48,4.48,0,0,1,431.24,378.34Z" transform="translate(-43.28 -29.97)"/></g></svg>