<svg xmlns="http://www.w3.org/2000/svg" xmlns:xlink="http://www.w3.org/1999/xlink" viewBox="0 0 1350 900"><defs><style>.cls-1{isolation:isolate;}.cls-2{fill:#c99c88;}.cls-3{fill:#e2d0d0;}.cls-4{fill:#d5bab7;}.cls-5{fill:#f2e6e7;}.cls-6{fill:#ccc;}.cls-12,.cls-15,.cls-16,.cls-18,.cls-20,.cls-21,.cls-25,.cls-29,.cls-31,.cls-34,.cls-36,.cls-39,.cls-40,.cls-42,.cls-43,.cls-44,.cls-45,.cls-6{mix-blend-mode:color-burn;}.cls-13,.cls-14,.cls-27,.cls-28,.cls-32,.cls-33,.cls-35,.cls-37,.cls-41,.cls-7{mix-blend-mode:screen;}.cls-7{fill:url(#_Â_ÌÓ-·ÂÎ_È);}.cls-36,.cls-8{fill:#e6e6e6;}.cls-30,.cls-8{mix-blend-mode:multiply;}.cls-9{fill:#a98071;}.cls-10{fill:#44396a;}.cls-11{fill:#d4dcea;}.cls-12{fill:url(#_Â_ÌÓ-·ÂÎ_È-2);}.cls-13{fill:url(#_Â_ÌÓ-·ÂÎ_È-3);}.cls-14{fill:url(#_Â_ÌÓ-·ÂÎ_È-4);}.cls-15{fill:url(#_Â_ÌÓ-·ÂÎ_È-5);}.cls-16{fill:url(#_Â_ÌÓ-·ÂÎ_È-6);}.cls-17{fill:#667da7;}.cls-18{fill:url(#_Â_ÌÓ-·ÂÎ_È-7);}.cls-19{fill:#db5959;}.cls-20{fill:url(#_Â_ÌÓ-·ÂÎ_È-8);}.cls-21{fill:#999;}.cls-22{fill:#ff9456;}.cls-23{fill:#fab67b;}.cls-24{fill:#ffdaac;}.cls-25{fill:url(#_Â_ÌÓ-·ÂÎ_È-9);}.cls-26{fill:#ffddb6;}.cls-27{fill:url(#_Â_ÌÓ-·ÂÎ_È-10);}.cls-28{fill:url(#_Â_ÌÓ-·ÂÎ_È-11);}.cls-29{fill:url(#_Â_ÌÓ-·ÂÎ_È-12);}.cls-30{fill:#c69c6d;}.cls-31{fill:url(#_Â_ÌÓ-·ÂÎ_È-13);}.cls-32{fill:url(#_Â_ÌÓ-·ÂÎ_È-14);}.cls-33{fill:url(#_Â_ÌÓ-·ÂÎ_È-15);}.cls-34{fill:url(#_Â_ÌÓ-·ÂÎ_È-16);}.cls-35{fill:url(#_Â_ÌÓ-·ÂÎ_È-17);}.cls-37{fill:#131313;}.cls-38{fill:#ffe6ce;}.cls-39{fill:url(#_Â_ÌÓ-·ÂÎ_È-18);}.cls-40{fill:url(#_Â_ÌÓ-·ÂÎ_È-19);}.cls-41{fill:url(#_Â_ÌÓ-·ÂÎ_È-20);}.cls-42{fill:url(#_Â_ÌÓ-·ÂÎ_È-21);}.cls-43{fill:url(#_Â_ÌÓ-·ÂÎ_È-22);}.cls-44{fill:url(#_Â_ÌÓ-·ÂÎ_È-23);}.cls-45{fill:url(#_Â_ÌÓ-·ÂÎ_È-24);}.cls-46{fill:#6b80ad;}.cls-47{fill:#e6a06c;}.cls-48{fill:#fedea3;}.cls-49{fill:#747780;}.cls-50{fill:#9ca7d0;}.cls-51{fill:#fff;}.cls-52{fill:#b7c06f;}.cls-53{fill:#b7d8f7;}.cls-54{fill:#a6a056;}.cls-55{fill:#d9b4a3;}.cls-56{fill:#331338;}.cls-57{fill:#c48163;}.cls-58{fill:#d4a189;}.cls-59{fill:#f9f8f6;}.cls-60{fill:#f5cbb8;}.cls-61{fill:#ede0da;}.cls-62{fill:#7381c6;}.cls-63{fill:#353535;}.cls-64{fill:#c3cbf1;}.cls-65{fill:#424a66;}.cls-66{fill:#a1c8b1;}.cls-67{fill:#e45b7e;}.cls-68{fill:#ed1b2e;}.cls-69{fill:#231f20;}</style><linearGradient id="_Â_ÌÓ-·ÂÎ_È" x1="-1290.01" y1="-1173.35" x2="200.11" y2="746.86" gradientUnits="userSpaceOnUse"><stop offset="0" stop-color="#fff"/><stop offset="1"/></linearGradient><linearGradient id="_Â_ÌÓ-·ÂÎ_È-2" x1="2413.73" y1="-248.9" x2="2422.4" y2="-186.5" gradientTransform="matrix(0.83, 0.5, -0.52, 0.86, -1141.05, -808.22)" xlink:href="#_Â_ÌÓ-·ÂÎ_È"/><linearGradient id="_Â_ÌÓ-·ÂÎ_È-3" x1="2413.96" y1="-248.97" x2="2412.99" y2="-204.28" gradientTransform="matrix(0.83, 0.5, -0.52, 0.86, -1141.05, -808.22)" xlink:href="#_Â_ÌÓ-·ÂÎ_È"/><linearGradient id="_Â_ÌÓ-·ÂÎ_È-4" x1="2393.44" y1="-169.62" x2="2403.7" y2="-219.29" gradientTransform="matrix(0.83, 0.5, -0.52, 0.86, -1141.05, -808.22)" xlink:href="#_Â_ÌÓ-·ÂÎ_È"/><linearGradient id="_Â_ÌÓ-·ÂÎ_È-5" x1="2399.81" y1="-232.28" x2="2433.87" y2="-100.72" gradientTransform="matrix(0.83, 0.5, -0.52, 0.86, -1141.05, -808.22)" xlink:href="#_Â_ÌÓ-·ÂÎ_È"/><linearGradient id="_Â_ÌÓ-·ÂÎ_È-6" x1="2408.89" y1="-209.21" x2="2427.48" y2="-105.6" gradientTransform="matrix(0.83, 0.5, -0.52, 0.86, -1141.05, -808.22)" xlink:href="#_Â_ÌÓ-·ÂÎ_È"/><linearGradient id="_Â_ÌÓ-·ÂÎ_È-7" x1="1072.34" y1="325.19" x2="1038.86" y2="277.81" xlink:href="#_Â_ÌÓ-·ÂÎ_È"/><linearGradient id="_Â_ÌÓ-·ÂÎ_È-8" x1="974.36" y1="429.08" x2="975.56" y2="393.61" xlink:href="#_Â_ÌÓ-·ÂÎ_È"/><linearGradient id="_Â_ÌÓ-·ÂÎ_È-9" x1="1453.6" y1="501.31" x2="1450.1" y2="642.14" gradientTransform="matrix(-1, 0, 0, 1, 2428.8, 0)" xlink:href="#_Â_ÌÓ-·ÂÎ_È"/><linearGradient id="_Â_ÌÓ-·ÂÎ_È-10" x1="1469.93" y1="270.06" x2="1443.2" y2="505.05" gradientTransform="matrix(-1, 0, 0, 1, 2428.8, 0)" xlink:href="#_Â_ÌÓ-·ÂÎ_È"/><linearGradient id="_Â_ÌÓ-·ÂÎ_È-11" x1="1502.67" y1="273.77" x2="1475.92" y2="508.86" gradientTransform="matrix(-1, 0, 0, 1, 2428.8, 0)" xlink:href="#_Â_ÌÓ-·ÂÎ_È"/><linearGradient id="_Â_ÌÓ-·ÂÎ_È-12" x1="1450.27" y1="481.24" x2="1452.23" y2="391.95" gradientTransform="matrix(-1, 0, 0, 1, 2428.8, 0)" xlink:href="#_Â_ÌÓ-·ÂÎ_È"/><linearGradient id="_Â_ÌÓ-·ÂÎ_È-13" x1="405.17" y1="501.31" x2="401.67" y2="642.14" xlink:href="#_Â_ÌÓ-·ÂÎ_È"/><linearGradient id="_Â_ÌÓ-·ÂÎ_È-14" x1="421.5" y1="270.06" x2="394.76" y2="505.05" xlink:href="#_Â_ÌÓ-·ÂÎ_È"/><linearGradient id="_Â_ÌÓ-·ÂÎ_È-15" x1="454.24" y1="273.77" x2="427.49" y2="508.86" xlink:href="#_Â_ÌÓ-·ÂÎ_È"/><linearGradient id="_Â_ÌÓ-·ÂÎ_È-16" x1="401.83" y1="481.24" x2="403.8" y2="391.95" xlink:href="#_Â_ÌÓ-·ÂÎ_È"/><linearGradient id="_Â_ÌÓ-·ÂÎ_È-17" x1="690.48" y1="255.77" x2="689.01" y2="488.05" xlink:href="#_Â_ÌÓ-·ÂÎ_È"/><linearGradient id="_Â_ÌÓ-·ÂÎ_È-18" x1="972.01" y1="668.95" x2="972.51" y2="588.45" xlink:href="#_Â_ÌÓ-·ÂÎ_È"/><linearGradient id="_Â_ÌÓ-·ÂÎ_È-19" x1="1082.39" y1="644.27" x2="912.97" y2="655.9" xlink:href="#_Â_ÌÓ-·ÂÎ_È"/><linearGradient id="_Â_ÌÓ-·ÂÎ_È-20" x1="973.28" y1="577.59" x2="971.63" y2="615.32" xlink:href="#_Â_ÌÓ-·ÂÎ_È"/><linearGradient id="_Â_ÌÓ-·ÂÎ_È-21" x1="971.76" y1="605.52" x2="973.47" y2="660.3" xlink:href="#_Â_ÌÓ-·ÂÎ_È"/><linearGradient id="_Â_ÌÓ-·ÂÎ_È-22" x1="594.88" y1="187.15" x2="340.84" y2="-22.2" xlink:href="#_Â_ÌÓ-·ÂÎ_È"/><linearGradient id="_Â_ÌÓ-·ÂÎ_È-23" x1="580.75" y1="131.82" x2="303.23" y2="61.81" xlink:href="#_Â_ÌÓ-·ÂÎ_È"/><linearGradient id="_Â_ÌÓ-·ÂÎ_È-24" x1="615.51" y1="191.8" x2="332.67" y2="-2.57" xlink:href="#_Â_ÌÓ-·ÂÎ_È"/></defs><g class="cls-1"><g id="Layer_1" data-name="Layer 1"><rect class="cls-2" y="643.73" width="1350" height="256.27"/><rect class="cls-3" width="1350" height="686.44"/><polygon class="cls-4" points="243.06 695.76 1117.48 695.76 1337.71 882 19.76 882 243.06 695.76"/><polygon class="cls-5" points="259.93 719.86 1102.04 719.86 1248.08 857.91 109.39 857.91 259.93 719.86"/><rect class="cls-4" x="172.18" width="992.27" height="704.59"/><polygon class="cls-6" points="142.22 0 82.5 704.59 172.18 704.59 172.18 0 142.22 0"/><path class="cls-7" d="M0,197V826.93c358.64-60.28,376.35-190.88,376.35-190.88Z" transform="translate(0 0)"/><path class="cls-8" d="M1350,698.48H0v14.78c121.31,12.18,280,25.48,284.65,12.19,63.25-3.45,11.68,38.68,11.68,38.68l302.81.62s27.93,28,67,25.17c55.44-12.5,69.49-21.3,69.49-21.3S776.17,755.7,827.54,783a61.71,61.71,0,0,0,33.92-18.84H1084s-6.75-30.7,10.17-33.1c7.44-1.06,125.61-7.47,255.8-14.32Z" transform="translate(0 0)"/><polygon class="cls-6" points="1164.45 0 1164.45 704.59 1241.05 704.59 1194.01 0 1164.45 0"/><rect class="cls-9" y="687.64" width="1350" height="21.68"/><path class="cls-10" d="M998.19,409a2.45,2.45,0,0,1-1-.2,2.35,2.35,0,0,1-1.19-3.09l50-113.07L969.7,222.69a2.34,2.34,0,0,1,3.15-3.46l77.64,71.07a2.35,2.35,0,0,1,.56,2.68l-50.72,114.61A2.34,2.34,0,0,1,998.19,409Z" transform="translate(0 0)"/><path class="cls-10" d="M1009.26,409a2.44,2.44,0,0,1-.94-.2,2.34,2.34,0,0,1-1.19-3.09l50-113.07-76.39-69.94a2.34,2.34,0,0,1,3.16-3.46l77.63,71.07a2.33,2.33,0,0,1,.56,2.68L1011.4,407.59A2.33,2.33,0,0,1,1009.26,409Z" transform="translate(0 0)"/><path class="cls-11" d="M974.58,205a34.82,34.82,0,0,0-12.14-3.84l-7,16.54,7.81,5.74-.12.44,2.24,1.11,1.42,1,.23-.22,8.71,4.35,11.44-13.84a35.14,35.14,0,0,0-9.85-9.56c-.06-.05-.09-.12-.16-.18A27.46,27.46,0,0,0,974.58,205Z" transform="translate(0 0)"/><path class="cls-12" d="M986.59,215.59c-.17.09-.33.22-.5.31-8.9,4.74-17.44,5.28-24.16.9a29.42,29.42,0,0,1-4.49-3.81l-2,4.75,7.81,5.74-.11.44,2.24,1.11,1.41,1s.22-.2.23-.22l8.71,4.35,11.45-13.84Z" transform="translate(0 0)"/><path class="cls-13" d="M965.9,201.82a32.22,32.22,0,0,0-3.45-.62l-7,16.54,2.5,1.84c.52-1.13.83-1.85,1.45-3.2l.18-.38c2.16-4.69,3.11-6.78,4.26-9.39Zm6,2a39.2,39.2,0,0,0-4-1.43c-.94,2.15-2,4.7-2.17,5-1.16,2.64-4.37,9.63-4.46,9.82-.71,1.55-1.08,2.4-1.67,3.67l2.35,1.71c.8-1.53,1.45-2.75,3-5.74,2.68-5.21,4-7.67,5.6-10.63C971,205.29,971.42,204.6,971.88,203.79Zm6.71,3.9c-.4.72-11.19,16.84-12.09,18.55L971,228.5c2.65-4.27,12.64-16.05,12.74-16.21A33.24,33.24,0,0,0,978.59,207.69Z" transform="translate(0 0)"/><path class="cls-11" d="M967.51,220.7c-27.41-16.23-58.79,10.07-64.32,18.7-1.12,1.75,33.82,20,39.16,22.79,4.93,3.48,37.13,26.18,38.17,24.39,5.12-8.89,14.06-48.87-12.91-65.82l-.08,0Z" transform="translate(0 0)"/><path class="cls-14" d="M958.56,219a30.66,30.66,0,0,0-11.72-2.49,74.26,74.26,0,0,0-32,21.24c4.61.91,9.78,3.2,14.85,5.85A129,129,0,0,1,954,222C955.53,220.94,957,220,958.56,219Zm4,1.94c-1.19.75-2.41,1.49-3.54,2.27A138.79,138.79,0,0,0,939,240c-1.75,1.9-3.47,3.85-5.11,5.87,2.52,1.42,5,2.86,7.23,4.23a127.75,127.75,0,0,1,26.22-25.29A29.67,29.67,0,0,0,962.58,221Z" transform="translate(0 0)"/><path class="cls-15" d="M984.06,243.53c-.22.18-.38.34-.61.52-7.33,5.79-14.63,7.72-22.34,6.46-6-1-11.42-3.48-20-8.56l-2.61-1.56c-8-4.8-11.47-6.68-15.82-8.13a44.74,44.74,0,0,0-10.45-2.14,46,46,0,0,0-9.09,9.28c-1.12,1.75,33.82,20,39.16,22.79,4.93,3.48,37.13,26.18,38.17,24.39C983.92,280.67,989,261,984.06,243.53Z" transform="translate(0 0)"/><path class="cls-16" d="M985.68,266.58c-1.48,2.25-4.38,3.51-11.07,2.53s-45.83-29.81-70.08-31.5a20.7,20.7,0,0,0-1.34,1.79c-1.12,1.75,33.82,20,39.16,22.79,4.93,3.48,37.13,26.18,38.17,24.39C982.42,283.28,984.77,275.66,985.68,266.58Z" transform="translate(0 0)"/><path class="cls-17" d="M902.92,239.73c2.27-3.73,21.43,3.81,42.8,16.85s36.85,26.62,34.58,30.35-21.43-3.81-42.8-16.84S900.65,243.46,902.92,239.73Z" transform="translate(0 0)"/><ellipse class="cls-11" cx="1048.91" cy="292.03" rx="16.04" ry="16.06"/><ellipse class="cls-18" cx="1048.91" cy="292.03" rx="8.24" ry="8.25"/><path class="cls-19" d="M959.36,396.57H945.18a2.72,2.72,0,0,0-2.72,2.72v2.35a2.72,2.72,0,0,0,2.72,2.72h14.18a2.72,2.72,0,0,0,2.72-2.72v-2.35A2.72,2.72,0,0,0,959.36,396.57Z" transform="translate(0 0)"/><path class="cls-11" d="M940.75,401.87h68.06a12.36,12.36,0,0,1,12.36,12.37v5H928.4v-5A12.36,12.36,0,0,1,940.75,401.87Z" transform="translate(0 0)"/><rect class="cls-20" x="928.4" y="413.98" width="92.77" height="5.25"/><polygon class="cls-21" points="348.74 437.72 345.23 695.06 569.41 698.48 623.78 508.77 886.07 508.77 874.82 696.63 1094.2 696.63 1086.93 464.62 1090 429.28 348.74 437.72"/><polygon class="cls-22" points="929.4 443.24 901.22 752.55 897.42 752.55 902.37 437.68 929.4 443.24"/><polygon class="cls-23" points="898.67 443.86 921.56 443.86 897.42 752.55 886.07 752.55 898.67 443.86"/><polygon class="cls-22" points="1011.91 444.52 1028.76 752.4 1032.55 752.4 1031.63 437.72 1011.91 444.52"/><polygon class="cls-23" points="1043.91 444.52 1021.02 444.52 1032.56 752.4 1043.91 752.4 1043.91 444.52"/><polygon class="cls-22" points="1048.23 444.66 1068.88 764.13 1072.67 764.13 1067.96 437.72 1048.23 444.66"/><polygon class="cls-22" points="902.75 444.62 876.61 764.13 872.82 764.13 883.03 437.68 902.75 444.62"/><polygon class="cls-24" points="1054.24 443.24 1055.98 522.04 895.43 522.04 898.67 443.86 1054.24 443.24"/><polygon class="cls-25" points="1055.82 514.86 1055.98 522.04 895.43 522.04 895.73 514.91 1055.82 514.86"/><polygon class="cls-26" points="1069.44 696.63 1024.07 666.65 909.19 665.03 877.55 696.63 1069.44 696.63"/><rect class="cls-23" x="874.82" y="696.63" width="196.96" height="11.93"/><path class="cls-27" d="M1004.63,443.44c15.42,9.51,31.13,20.12,50.36,33.81l1,44.78h-23.66c-7.28-5.19-124.51-77.2-126.23-78.2Z" transform="translate(0 0)"/><path class="cls-28" d="M898.16,456.25c2,1.18,103.13,62.24,107.36,65.06.24.16.77.55,1,.72H970.92c-1.57-1.1-71.69-42.62-73.68-43.59Z" transform="translate(0 0)"/><polygon class="cls-23" points="1080.24 444.66 1057.35 444.66 1072.67 764.13 1084.03 764.13 1080.24 444.66"/><polygon class="cls-23" points="870.75 444.62 893.64 444.62 872.82 764.13 861.46 764.13 870.75 444.62"/><path class="cls-23" d="M1012,459H944.4a7,7,0,0,0,0,13.94H1012a7,7,0,0,0,0-13.94Z" transform="translate(0 0)"/><path class="cls-29" d="M1012,459a6.86,6.86,0,0,1,6.77,6.28c-2.52-.58-5-1.07-7.51-1.44a205.46,205.46,0,0,0-33-2.15,261.61,261.61,0,0,0-35.07,2.93l-5.5.82A6.86,6.86,0,0,1,944.4,459Z" transform="translate(0 0)"/><rect class="cls-30" x="870.41" y="444.66" width="209.83" height="11.59" transform="translate(1950.65 900.92) rotate(180)"/><polygon class="cls-30" points="1070.01 708.57 1065.55 712.61 1065.29 708.57 1070.01 708.57"/><polygon class="cls-30" points="876.44 708.57 880.83 712.61 881.16 708.57 876.44 708.57"/><polygon class="cls-30" points="1043.91 714.37 1027.29 725.45 1026.36 708.57 1043.91 708.57 1043.91 714.37"/><polygon class="cls-30" points="905.22 708.57 903.81 724.03 887.79 712.61 887.79 708.57 905.22 708.57"/><polygon class="cls-30" points="1043.71 538.84 1017.64 549.16 1016.15 522.04 1044.29 522.4 1043.71 538.84"/><polygon class="cls-30" points="922.22 522.03 919.75 549.16 895.12 537.87 896.42 522.04 922.22 522.03"/><polygon class="cls-22" points="450.96 443.24 479.15 752.55 482.94 752.55 478 437.68 450.96 443.24"/><polygon class="cls-23" points="481.7 443.86 458.81 443.86 482.94 752.55 494.3 752.55 481.7 443.86"/><polygon class="cls-22" points="368.46 444.52 351.6 752.4 347.81 752.4 348.74 437.72 368.46 444.52"/><polygon class="cls-23" points="336.45 444.52 359.35 444.52 347.81 752.4 336.45 752.4 336.45 444.52"/><polygon class="cls-22" points="332.13 444.66 311.48 764.13 307.69 764.13 312.41 437.72 332.13 444.66"/><polygon class="cls-22" points="477.61 444.62 503.75 764.13 507.54 764.13 497.33 437.68 477.61 444.62"/><polygon class="cls-24" points="326.13 443.24 324.38 522.04 484.93 522.04 481.7 443.86 326.13 443.24"/><polygon class="cls-31" points="324.55 514.86 324.38 522.04 484.93 522.04 484.64 514.91 324.55 514.86"/><polygon class="cls-26" points="310.93 696.63 356.3 666.65 471.17 665.03 502.81 696.63 310.93 696.63"/><rect class="cls-23" x="308.58" y="696.63" width="196.96" height="11.93"/><path class="cls-32" d="M375.74,443.44c-15.42,9.51-31.14,20.12-50.36,33.81l-1,44.78H348c7.29-5.19,124.51-77.2,126.24-78.2Z" transform="translate(0 0)"/><path class="cls-33" d="M482.21,456.25c-2,1.18-103.14,62.24-107.36,65.06l-1,.72h35.64c1.57-1.1,71.68-42.62,73.68-43.59Z" transform="translate(0 0)"/><polygon class="cls-23" points="300.12 444.66 323.02 444.66 307.69 764.13 296.33 764.13 300.12 444.66"/><polygon class="cls-23" points="509.62 444.62 486.72 444.62 507.54 764.13 518.9 764.13 509.62 444.62"/><path class="cls-23" d="M368.39,459H436a7,7,0,0,1,0,13.94H368.39a7,7,0,0,1,0-13.94Z" transform="translate(0 0)"/><path class="cls-34" d="M368.4,459a6.88,6.88,0,0,0-6.78,6.28c2.52-.58,5-1.07,7.51-1.44a205.59,205.59,0,0,1,33.05-2.15,261.6,261.6,0,0,1,35.06,2.93l5.5.82A6.85,6.85,0,0,0,436,459Z" transform="translate(0 0)"/><rect class="cls-23" x="284.65" y="419.23" width="809.55" height="25.87"/><rect class="cls-35" x="284.65" y="419.23" width="809.55" height="5.22"/><rect class="cls-36" x="284.65" y="437.78" width="809.55" height="7.33"/><rect class="cls-30" x="300.12" y="445.11" width="209.83" height="11.59"/><polygon class="cls-30" points="310.36 708.57 314.81 712.61 315.07 708.57 310.36 708.57"/><polygon class="cls-30" points="503.92 708.57 499.54 712.61 499.21 708.57 503.92 708.57"/><polygon class="cls-30" points="336.45 714.37 353.08 725.45 354 708.57 336.45 708.57 336.45 714.37"/><polygon class="cls-30" points="475.14 708.57 476.55 724.03 492.58 712.61 492.58 708.57 475.14 708.57"/><polygon class="cls-30" points="336.66 538.84 362.73 549.16 364.21 522.04 336.08 522.4 336.66 538.84"/><polygon class="cls-30" points="458.14 522.03 460.62 549.16 485.24 537.87 483.94 522.04 458.14 522.03"/><path class="cls-17" d="M1033.68,567.55v2.91a2.11,2.11,0,0,1-2.12,2.1H909.64a2.1,2.1,0,0,1-2.11-2.1v-2.91a2.1,2.1,0,0,1,2.11-2.09h121.92A2.11,2.11,0,0,1,1033.68,567.55Z" transform="translate(0 0)"/><rect class="cls-37" x="969.15" y="505.93" width="2.91" height="126.15" transform="translate(1539.61 -401.59) rotate(90)"/><path class="cls-38" d="M424.5,592.72v33.94a1.9,1.9,0,0,1-1.91,1.89h-89.9a1.9,1.9,0,0,1-1.91-1.89V592.72a1.91,1.91,0,0,1,1.91-1.89h89.9A1.91,1.91,0,0,1,424.5,592.72Z" transform="translate(0 0)"/><rect class="cls-37" x="362.17" y="562.91" width="30.94" height="93.71" transform="translate(987.4 232.12) rotate(90)"/><path class="cls-10" d="M419.55,630.44v11.22a1.9,1.9,0,0,1-1.9,1.89H332.7a1.9,1.9,0,0,1-1.91-1.89V630.44a1.9,1.9,0,0,1,1.91-1.89h84.95A1.9,1.9,0,0,1,419.55,630.44Z" transform="translate(0 0)"/><rect class="cls-37" x="370.08" y="591.66" width="10.18" height="88.77" transform="translate(1011.22 260.88) rotate(90)"/><path class="cls-11" d="M451,645.43v8.16a1.89,1.89,0,0,1-1.9,1.89H332.69a1.9,1.9,0,0,1-1.91-1.89v-8.16a1.9,1.9,0,0,1,1.91-1.88H449.06A1.89,1.89,0,0,1,451,645.43Z" transform="translate(0 0)"/><rect class="cls-37" x="386.79" y="589.42" width="8.16" height="120.18" transform="translate(1040.39 258.64) rotate(90)"/><path class="cls-19" d="M436.93,657.37v20a1.91,1.91,0,0,1-1.91,1.89H332.7a1.9,1.9,0,0,1-1.91-1.89v-20a1.9,1.9,0,0,1,1.91-1.89H435A1.91,1.91,0,0,1,436.93,657.37Z" transform="translate(0 0)"/><rect class="cls-37" x="374.98" y="614.41" width="17.76" height="106.14" transform="translate(1051.34 283.63) rotate(90)"/><path class="cls-17" d="M444.35,681.14v2.62a1.89,1.89,0,0,1-1.9,1.89H332.69a1.9,1.9,0,0,1-1.91-1.89v-2.62a1.9,1.9,0,0,1,1.91-1.88H442.45A1.89,1.89,0,0,1,444.35,681.14Z" transform="translate(0 0)"/><rect class="cls-37" x="386.26" y="625.67" width="2.62" height="113.57" transform="translate(1070.02 294.89) rotate(90)"/><path class="cls-19" d="M1038.25,574.72V597a2.11,2.11,0,0,1-2.12,2.1H919.81a2.11,2.11,0,0,1-2.12-2.1V574.72a2.11,2.11,0,0,1,2.12-2.1h116.32A2.11,2.11,0,0,1,1038.25,574.72Z" transform="translate(0 0)"/><rect class="cls-37" x="968.46" y="525.35" width="19.02" height="120.55" transform="translate(1563.6 -392.34) rotate(90)"/><rect class="cls-11" x="984.44" y="578.93" width="49.77" height="13.94"/><path class="cls-10" d="M1022.3,563.48l0-7.17a1.66,1.66,0,0,0-1.68-1.65l-102.27.41a1.66,1.66,0,0,0-1.67,1.66l0,7.17a1.67,1.67,0,0,0,1.68,1.66l102.27-.41A1.68,1.68,0,0,0,1022.3,563.48Z" transform="translate(0 0)"/><rect class="cls-37" x="965.89" y="507.3" width="7.17" height="105.62" transform="translate(413.24 1531.8) rotate(-90.23)"/><rect class="cls-19" x="1009.21" y="557.51" width="10.49" height="4.82" transform="translate(458.58 1576.61) rotate(-90.23)"/><rect class="cls-17" x="1004.03" y="554.71" width="4.82" height="10.49" transform="translate(-2.22 4.01) rotate(-0.23)"/><rect class="cls-11" x="909.84" y="616.42" width="124.9" height="63.26"/><rect class="cls-6" x="923.47" y="616.42" width="3.86" height="63.26"/><rect class="cls-6" x="944.53" y="616.42" width="3.86" height="63.26"/><rect class="cls-6" x="965.6" y="616.42" width="3.86" height="63.26"/><rect class="cls-6" x="986.66" y="616.42" width="3.86" height="63.26"/><rect class="cls-6" x="1007.73" y="616.42" width="3.86" height="63.26"/><rect class="cls-6" x="1028.79" y="616.42" width="3.86" height="63.26"/><rect class="cls-39" x="909.84" y="616.42" width="124.9" height="14.83"/><rect class="cls-40" x="1020.04" y="616.42" width="14.7" height="63.26"/><rect class="cls-11" x="905.11" y="599.2" width="134.37" height="24.4"/><rect class="cls-41" x="905.11" y="599.2" width="134.37" height="1.92"/><rect class="cls-42" x="905.11" y="621.41" width="134.37" height="2.2"/><ellipse class="cls-43" cx="507.94" cy="115.5" rx="66.49" ry="66.61"/><ellipse class="cls-17" cx="497.69" cy="110.87" rx="66.49" ry="66.61"/><ellipse class="cls-44" cx="497.69" cy="110.87" rx="59.24" ry="59.35"/><ellipse class="cls-38" cx="497.69" cy="110.87" rx="56.24" ry="56.34"/><path class="cls-10" d="M491,110.87a6.66,6.66,0,1,1,6.66,6.66A6.67,6.67,0,0,1,491,110.87Z" transform="translate(0 0)"/><path class="cls-45" d="M497.69,54.53A56.32,56.32,0,0,0,473.9,161.86a25.91,25.91,0,0,0,2.7-3.2c4.56-6.76,5.68-14,5.39-27.9,0-.69,0-1.26-.06-2.5-.22-9.1-.14-13.09.58-18,1.29-8.71,3.3-15.13,7.17-19.85,4.76-5.78,10.23-8.93,16.72-10,4.74-.78,8.37-.58,17.16.52,6.84.86,10.08,1.11,13.9.82a17.16,17.16,0,0,0,7-2.2A56.16,56.16,0,0,0,497.69,54.53Z" transform="translate(0 0)"/><path class="cls-46" d="M497.16,113.21c-1.24,0-2.68-1.1-5.38-3.17-2-1.52-4.7-3.67-8-6.4-5.68-4.62-11.34-9.38-11.39-9.42a2.31,2.31,0,1,1,3-3.54c8.54,7.19,18.07,14.94,21.47,17.34,4.4-4.58,20.58-22,31.6-34a2.3,2.3,0,1,1,3.38,3.13c-32.27,35-33,35.44-33.35,35.65A2.31,2.31,0,0,1,497.16,113.21Z" transform="translate(0 0)"/><g id="books"><rect class="cls-47" x="740.19" y="388.72" width="127.03" height="27.42" rx="2.39"/><rect class="cls-48" x="739.85" y="371.51" width="100.95" height="17.21" rx="1.47"/><rect class="cls-49" x="540.25" y="322.01" width="12.24" height="114.68" transform="translate(-104.64 515.8) rotate(-46.61)"/><rect class="cls-50" x="821.97" y="371.51" width="7.89" height="17.21"/><rect class="cls-51" x="843.95" y="388.72" width="11.42" height="27.38"/><rect class="cls-50" x="490.13" y="287.98" width="20.51" height="114.68" rx="2.15"/><rect class="cls-52" x="469.62" y="332.63" width="20.51" height="70.03" rx="2.15"/><rect class="cls-47" x="451.93" y="402.66" width="106.34" height="20.51" rx="2.15"/><rect class="cls-48" x="524.48" y="402.66" width="10.63" height="20.51"/><rect class="cls-53" x="469.62" y="386.58" width="20.51" height="5.59"/><rect class="cls-51" x="490.13" y="379.03" width="20.51" height="9.51"/></g><g id="flower"><path class="cls-54" d="M820.63,329.27c3.17-3-.83-52.32-27.16-79.94-39.77-41.71-74.1-56.08-92.84-57.43-14.64-1.06-18.37,7.51-5.29,10.75s22.54,11,20.08,24,7.08,18.9,15.93,15,26.53-7.58,33.57,13-1.74,41.35,18.52,49.16,22.95,36.27,22.95,36.27Z" transform="translate(0 0)"/><path class="cls-54" d="M823.8,323.47c1.7-1.37,13.45-24.86,13.45-48.84,0-29.57-16.62-42.51-36.55-60.15-12.9-11.41,10.9-39.79-4.54-46.57s-38,18.54-33.53,33.46,20.12,12.21,24.35,28c2,7.58-12.18,17.56-4.23,30.26,7.25,11.59,30.6-.66,28.43,33.18-1.54,24-5.13,29.77-5.13,29.77Z" transform="translate(0 0)"/><path class="cls-52" d="M816.28,323.6h-.2a.5.5,0,0,1-.27-.64h0c.17-.39,16.82-39.35,7.51-64.76-5.69-15.53-17-26.29-27.85-36.69-4.62-4.41-9-8.58-12.89-13.05-11.88-13.61,3.85-32.61,4-32.8a.51.51,0,0,1,.71-.06.52.52,0,0,1,.06.71c-.16.18-15.34,18.53-4,31.49,3.88,4.44,8.23,8.59,12.83,13,11,10.48,22.33,21.31,28.1,37.07,9.45,25.79-7.36,65.1-7.53,65.49A.52.52,0,0,1,816.28,323.6Z" transform="translate(0 0)"/><path class="cls-52" d="M823.8,323.47s-12-32.39.57-43.92,22.7-7.81,21.23-35.31c-1.33-24.7,9.91-24.07,12.43-17.75,1.58,3.95,8.09,32.07.89,44.24s-22.51,11.82-21.67,34,0,28.8,0,28.8Z" transform="translate(0 0)"/><path class="cls-54" d="M823.91,312.66c-.55-3,0-26.38,28.06-46.66,23.33-16.85,29.67-19.54,31.86-49.18s11.44-40.3,25.85-35c10.87,4,16.42,27.49.5,51.28s-26.22,28.4-23,45.18c4,21.47-3.6,32.42-17.5,27.72-19-6.43-20.9-9.24-30.78,7.87Z" transform="translate(0 0)"/><path class="cls-52" d="M827.42,316.21a.6.6,0,0,1-.19,0,.5.5,0,0,1-.28-.65h0c7.38-17.81,13.6-23.35,18.71-26.41,5.63-3.39,9.55-2,13.68-.55a27.18,27.18,0,0,0,7.38,1.79,7.44,7.44,0,0,0,5.72-1.62c2.71-2.39,3.32-7.12,3.54-11,.78-13.64,7.67-25.46,14.32-36.89,8.56-14.7,16.64-28.57,13.11-46.13a.5.5,0,0,1,.4-.6.51.51,0,0,1,.6.4c3.61,17.93-5,32.62-13.22,46.83-6.6,11.33-13.42,23-14.19,36.44-.24,4.05-.89,9-3.88,11.67a8.47,8.47,0,0,1-6.45,1.87A27.89,27.89,0,0,1,859,289.5c-4.08-1.44-7.61-2.68-12.84.46-5,3-11,8.4-18.3,26A.5.5,0,0,1,827.42,316.21Z" transform="translate(0 0)"/><path class="cls-55" d="M859.28,306l-2,16.26-6.1,49.26h-61.1L782,306h0c0-1.32,17.23-2.39,38.49-2.39,5.49,0,10.71.07,15.44.2h.15c13.5.37,22.91,1.2,22.91,2.18Z" transform="translate(0 0)"/><path class="cls-52" d="M798,311a.5.5,0,0,1-.49-.44c-6.12-45.64-32.79-74-54.08-89.67a159.47,159.47,0,0,0-45.19-23.4.51.51,0,0,1,.25-1h0a159.61,159.61,0,0,1,45.52,23.57c21.44,15.82,48.3,44.35,54.47,90.34a.5.5,0,0,1-.41.56H798Z" transform="translate(0 0)"/><path class="cls-56" d="M859.28,306l-2,16.26a10.35,10.35,0,0,1-5.25-5.41,23.08,23.08,0,0,0-15.95-13c13.5.37,22.91,1.2,22.91,2.18Z" transform="translate(0 0)"/></g><g id="a_cup" data-name="a cup"><path class="cls-57" d="M414.21,420.91c0,3.07-10.45,5.56-23.34,5.56s-23.34-2.49-23.34-5.56,10.45-5.56,23.34-5.56S414.21,417.84,414.21,420.91Z" transform="translate(0 0)"/><ellipse class="cls-58" cx="390.87" cy="415.36" rx="44.8" ry="8.08"/><path class="cls-59" d="M390.87,422.22c-19.63,0-39.94-2.57-39.94-6.87s20.31-6.84,39.94-6.84,39.92,2.54,39.92,6.84S410.5,422.22,390.87,422.22Zm0-13.23c-23.59,0-39.44,3.29-39.44,6.36s15.85,6.37,39.44,6.37,39.44-3.29,39.44-6.37S414.46,409,390.87,409Z" transform="translate(0 0)"/><ellipse class="cls-57" cx="395.16" cy="415.36" rx="22.67" ry="4.82"/><path class="cls-60" d="M392.36,418.09h-3a19.41,19.41,0,0,1-19.3-17.29l-1.82-16.57h45.22l-1.82,16.57A19.41,19.41,0,0,1,392.36,418.09Z" transform="translate(0 0)"/><path class="cls-60" d="M381,407.51H370.27a8.9,8.9,0,0,1-8.88-8.88v-3.42a8.89,8.89,0,0,1,8.88-8.88H381Zm-10.69-16.19a3.88,3.88,0,0,0-3.88,3.88h0v3.42a3.89,3.89,0,0,0,3.87,3.89H376V391.32Z" transform="translate(0 0)"/><ellipse class="cls-61" cx="390.87" cy="384.23" rx="22.67" ry="1.98"/></g><g id="laptop"><path class="cls-62" d="M804,442H503a13,13,0,0,1-13-13H817a13,13,0,0,1-13,13Z" transform="translate(0 0)"/><rect class="cls-56" x="532.09" y="200.16" width="244.94" height="170.59" rx="8.26"/><rect class="cls-63" x="540.55" y="209.2" width="228.04" height="152.51" rx="7.54"/><path class="cls-64" d="M591.89,430.53a10.11,10.11,0,0,1-1.45-.11,6.14,6.14,0,0,1-1.12-.29,2.08,2.08,0,0,1-.69-.44.58.58,0,0,1-.15-.53l7.25-25.65a.76.76,0,0,1,.38-.41,2.74,2.74,0,0,1,.81-.34,6.19,6.19,0,0,1,1.12-.23,9.6,9.6,0,0,1,1.31-.08H707.66a9.74,9.74,0,0,1,1.32.08,5.91,5.91,0,0,1,1.11.23,3,3,0,0,1,.81.33.8.8,0,0,1,.37.42l7.35,25.65a.55.55,0,0,1-.14.53,1.83,1.83,0,0,1-.69.43,6.14,6.14,0,0,1-1.12.29,10,10,0,0,1-1.45.11H591.89Zm139.55-30.4H731a2.14,2.14,0,0,1-.35-.06l-.26-.11a.37.37,0,0,1-.13-.12l-.73-1.9a.13.13,0,0,1,0-.12.46.46,0,0,1,.18-.1,1.53,1.53,0,0,1,.29-.07h14.52a2,2,0,0,1,.35.07.79.79,0,0,1,.27.1.22.22,0,0,1,.13.12l.88,1.9a.09.09,0,0,1,0,.12.37.37,0,0,1-.17.1,1,1,0,0,1-.29.07H731.44Zm18.08,0h-.4a2.29,2.29,0,0,1-.36-.07l-.27-.1a.37.37,0,0,1-.13-.12l-.91-1.9a.13.13,0,0,1,0-.12.42.42,0,0,1,.17-.1,1.53,1.53,0,0,1,.29-.07h14.54a2,2,0,0,1,.35.06,1.48,1.48,0,0,1,.27.1.26.26,0,0,1,.15.12l1,1.9a.11.11,0,0,1,0,.13.34.34,0,0,1-.16.1l-.28.07H749.52Zm17.87,0H767l-.36-.07a1.48,1.48,0,0,1-.27-.1.32.32,0,0,1-.15-.13l-1.09-1.9a.13.13,0,0,1,0-.12.39.39,0,0,1,.16-.1,1.4,1.4,0,0,1,.28-.06h14.52l.36.07a1.33,1.33,0,0,1,.28.1.35.35,0,0,1,.15.12l1.24,1.9a.13.13,0,0,1,0,.12.36.36,0,0,1-.16.11,1.27,1.27,0,0,1-.28.06H767.39Zm-240.76.05h-.48a2,2,0,0,1-.35-.09.5.5,0,0,1-.19-.13.11.11,0,0,1,0-.15l2.57-4a.48.48,0,0,1,.2-.15l.34-.12.45-.08h14a1.37,1.37,0,0,1,.35.08.82.82,0,0,1,.2.12.11.11,0,0,1,0,.15l-2.27,4a.49.49,0,0,1-.19.16,2,2,0,0,1-.34.13l-.45.08H526.63Zm17.85,0H544l-.36-.08a.63.63,0,0,1-.2-.13.15.15,0,0,1,0-.16l2.21-4a.52.52,0,0,1,.18-.15l.34-.12.44-.08h14a1.37,1.37,0,0,1,.35.08.4.4,0,0,1,.21.12.14.14,0,0,1,0,.15l-1.9,4a.3.3,0,0,1-.17.16,1.61,1.61,0,0,1-.33.12,3.58,3.58,0,0,1-.45.09H544.48Zm17.79,0h-.48a2.49,2.49,0,0,1-.37-.09.45.45,0,0,1-.21-.12.12.12,0,0,1,0-.16l1.85-4a.35.35,0,0,1,.17-.15,1.1,1.1,0,0,1,.33-.12,3.29,3.29,0,0,1,.43-.09h14a2.33,2.33,0,0,1,.36.08.61.61,0,0,1,.22.13.14.14,0,0,1,0,.15l-1.54,4a.33.33,0,0,1-.16.15,1.27,1.27,0,0,1-.32.13,3.12,3.12,0,0,1-.44.09H562.27Zm17.78,0h-.49a2.49,2.49,0,0,1-.37-.09A.5.5,0,0,1,579,400a.14.14,0,0,1,0-.15l1.49-4a.29.29,0,0,1,.16-.15,1.2,1.2,0,0,1,.31-.13l.42-.08h18a2.21,2.21,0,0,1,.37.08.51.51,0,0,1,.23.12.14.14,0,0,1,.06.15l-1.1,4c0,.06-.06.11-.14.16a1.69,1.69,0,0,1-.31.13l-.43.08h-18Zm21.77,0h-.49l-.38-.08a.7.7,0,0,1-.24-.13.17.17,0,0,1-.06-.16l1.06-4c0-.05.06-.1.14-.15a.94.94,0,0,1,.3-.12l.41-.08h84.67l.41.08a1.48,1.48,0,0,1,.29.12.24.24,0,0,1,.13.15l.72,4a.15.15,0,0,1-.08.15.75.75,0,0,1-.25.13,2.46,2.46,0,0,1-.39.09H601.82Zm90.23,0h-.5l-.42-.08a1.14,1.14,0,0,1-.3-.13.27.27,0,0,1-.13-.15l-.76-4a.15.15,0,0,1,.07-.15,1.34,1.34,0,0,1,.24-.12,2.57,2.57,0,0,1,.38-.08,3.84,3.84,0,0,1,.48,0h17a4.17,4.17,0,0,1,.5,0l.42.08a1.34,1.34,0,0,1,.3.12.34.34,0,0,1,.14.15l1.16,4a.13.13,0,0,1-.06.16.65.65,0,0,1-.23.13l-.38.08H692.05Zm22.16,0h-.5l-.44-.08A1.69,1.69,0,0,1,713,400a.33.33,0,0,1-.15-.16l-1.2-4a.17.17,0,0,1,0-.15.57.57,0,0,1,.23-.12,1.63,1.63,0,0,1,.37-.08h14l.42.09a.84.84,0,0,1,.31.12.29.29,0,0,1,.16.15l1.53,4a.15.15,0,0,1,0,.16.84.84,0,0,1-.23.12,2.22,2.22,0,0,1-.37.09H714.21Zm34.1-2.53a2.8,2.8,0,0,1-.41,0l-.35-.07a1.17,1.17,0,0,1-.26-.1.25.25,0,0,1-.13-.12l-.89-1.85a.13.13,0,0,1,0-.12.32.32,0,0,1,.17-.09,1,1,0,0,1,.28-.07h14.34a.7.7,0,0,1,.35.06,1.17,1.17,0,0,1,.26.1.44.44,0,0,1,.15.12l1,1.85a.09.09,0,0,1,0,.12.34.34,0,0,1-.16.1l-.28.07H748.31ZM530,394.8h-.47a1.3,1.3,0,0,1-.34-.08.39.39,0,0,1-.19-.12.12.12,0,0,1,0-.14l2.44-3.83a.62.62,0,0,1,.19-.14,1.42,1.42,0,0,1,.33-.11,2.26,2.26,0,0,1,.44-.08H566.7a2,2,0,0,1,.35.08.37.37,0,0,1,.2.12.1.1,0,0,1,0,.14l-1.72,3.82a.46.46,0,0,1-.16.15l-.32.12-.43.08H530Zm39.18,0h-.46l-.36-.09a.45.45,0,0,1-.21-.12.12.12,0,0,1,0-.14l1.68-3.82a.36.36,0,0,1,.15-.15,1.15,1.15,0,0,1,.31-.11l.42-.08a4,4,0,0,1,.49,0H584a3.53,3.53,0,0,1,.46,0,1.37,1.37,0,0,1,.35.08.57.57,0,0,1,.22.11.11.11,0,0,1,0,.14l-1.37,3.82a.28.28,0,0,1-.15.15,1.43,1.43,0,0,1-.31.12l-.42.09H569.22Zm17.41,0h-.47a2.45,2.45,0,0,1-.37-.08.48.48,0,0,1-.22-.12.14.14,0,0,1,0-.15l1.33-3.82a.24.24,0,0,1,.14-.14,1.21,1.21,0,0,1,.3-.11,2,2,0,0,1,.41-.08h13.69a1.53,1.53,0,0,1,.36.07,1,1,0,0,1,.23.12.12.12,0,0,1,0,.14l-1,3.82a.4.4,0,0,1-.14.15,1.34,1.34,0,0,1-.3.12l-.41.08H586.63Zm17.41,0h-.48l-.38-.08a1,1,0,0,1-.23-.12s-.08-.1-.06-.15l1-3.82a.25.25,0,0,1,.13-.14,1.48,1.48,0,0,1,.29-.12,2,2,0,0,1,.41-.07h13.67a1.53,1.53,0,0,1,.37.08.55.55,0,0,1,.24.12.13.13,0,0,1,.07.14l-.68,3.82a.29.29,0,0,1-.12.15l-.29.12-.41.08H604Zm17.39,0H621l-.38-.08-.24-.12a.15.15,0,0,1-.07-.15l.64-3.82a.21.21,0,0,1,.12-.14.77.77,0,0,1,.28-.12l.4-.08a3.84,3.84,0,0,1,.48,0H634.9a3.68,3.68,0,0,1,.47,0,1.69,1.69,0,0,1,.39.08.8.8,0,0,1,.25.11.18.18,0,0,1,.08.15l-.34,3.82a.22.22,0,0,1-.11.14,1.18,1.18,0,0,1-.28.12,2.59,2.59,0,0,1-.4.09H621.43Zm17.4,0h-.48l-.39-.09a.68.68,0,0,1-.26-.12.16.16,0,0,1-.08-.15l.31-3.81c0-.06,0-.1.1-.15a1,1,0,0,1,.27-.11,1.89,1.89,0,0,1,.4-.08,3.68,3.68,0,0,1,.47,0H651.9a3.68,3.68,0,0,1,.47,0,1.59,1.59,0,0,1,.38.07,1.23,1.23,0,0,1,.26.12.18.18,0,0,1,.1.14v3.82a.22.22,0,0,1-.1.15,1.23,1.23,0,0,1-.26.12l-.4.08H638.83Zm17.4,0h-.49l-.39-.08-.27-.12a.24.24,0,0,1-.09-.15v-3.82a.19.19,0,0,1,.09-.14.68.68,0,0,1,.26-.12,1.69,1.69,0,0,1,.38-.07H669.4a2.7,2.7,0,0,1,.39.08.7.7,0,0,1,.28.12.18.18,0,0,1,.1.14l.35,3.82a.2.2,0,0,1-.09.15,1.15,1.15,0,0,1-.25.12l-.39.08H656.23Zm17.4,0h-.49l-.4-.08a1.39,1.39,0,0,1-.28-.12c-.07,0-.11-.1-.11-.15l-.38-3.82a.15.15,0,0,1,.08-.14.64.64,0,0,1,.25-.12l.38-.08a3.68,3.68,0,0,1,.47,0h12.73a3.68,3.68,0,0,1,.47,0l.4.08a1,1,0,0,1,.28.11c.07,0,.11.09.12.14l.69,3.83a.16.16,0,0,1-.08.14.55.55,0,0,1-.24.12,1.61,1.61,0,0,1-.38.08H673.63Zm17.39,0h-.49a1.86,1.86,0,0,1-.41-.08,1.39,1.39,0,0,1-.28-.12.25.25,0,0,1-.13-.14l-.72-3.83a.14.14,0,0,1,.07-.14.74.74,0,0,1,.24-.11,2.45,2.45,0,0,1,.37-.08h13.65a1.86,1.86,0,0,1,.41.08,1,1,0,0,1,.29.11.27.27,0,0,1,.14.14l1,3.82a.13.13,0,0,1-.06.15.46.46,0,0,1-.23.12,2.33,2.33,0,0,1-.38.08H691Zm17.4,0h-.49a3.1,3.1,0,0,1-.42-.08,1.57,1.57,0,0,1-.3-.12.26.26,0,0,1-.14-.15l-1-3.88a.14.14,0,0,1,.06-.14.72.72,0,0,1,.23-.12,1.53,1.53,0,0,1,.36-.07h13.69a1.76,1.76,0,0,1,.4.07l.3.12a.32.32,0,0,1,.14.14l1.37,3.82a.14.14,0,0,1,0,.15,1,1,0,0,1-.23.12l-.36.08h-.47Zm17.4,0h-.5l-.42-.08a2,2,0,0,1-.31-.12.54.54,0,0,1-.15-.15l-1.4-3.88a.12.12,0,0,1,0-.14.45.45,0,0,1,.21-.12,2.33,2.33,0,0,1,.36-.08h13.67a3.1,3.1,0,0,1,.42.08,1,1,0,0,1,.32.12.36.36,0,0,1,.16.14l1.71,3.81a.11.11,0,0,1,0,.15.4.4,0,0,1-.21.12,2.11,2.11,0,0,1-.36.09h-.47Zm17.4,0h-.5a3.43,3.43,0,0,1-.44-.09,1.24,1.24,0,0,1-.32-.12.41.41,0,0,1-.17-.15L740,390.56v-.14a.53.53,0,0,1,.21-.11,1.37,1.37,0,0,1,.35-.08h34.56l.44.08a1.61,1.61,0,0,1,.33.12.38.38,0,0,1,.19.14l2.47,3.82a.11.11,0,0,1,0,.15.62.62,0,0,1-.19.12l-.35.08h-.46Zm-210-5.05h-.46a1.94,1.94,0,0,1-.33-.07.62.62,0,0,1-.19-.12.12.12,0,0,1,0-.14l2.32-3.62a.4.4,0,0,1,.18-.14,1.21,1.21,0,0,1,.32-.11,2,2,0,0,1,.42-.07h25.17a1.32,1.32,0,0,1,.33.08.31.31,0,0,1,.2.11.11.11,0,0,1,0,.13l-1.8,3.63c0,.05-.08.09-.16.14a1.73,1.73,0,0,1-.32.11l-.42.08H533.22Zm28.78,0h-.46l-.34-.08a.53.53,0,0,1-.21-.11.12.12,0,0,1,0-.14l1.77-3.63a.33.33,0,0,1,.16-.13,1.15,1.15,0,0,1,.31-.11,2,2,0,0,1,.41-.08,3.84,3.84,0,0,1,.48,0h12.4a3.38,3.38,0,0,1,.45,0,1.86,1.86,0,0,1,.34.07.53.53,0,0,1,.21.11.12.12,0,0,1,0,.14L576,389.35a.29.29,0,0,1-.15.14,1.34,1.34,0,0,1-.3.12l-.42.08h-.48Zm16.94,0h-.45l-.36-.08a.72.72,0,0,1-.21-.12.12.12,0,0,1,0-.14l1.44-3.62a.26.26,0,0,1,.15-.14,1.21,1.21,0,0,1,.3-.11,2.79,2.79,0,0,1,.4-.07,3.68,3.68,0,0,1,.47,0H593a3.38,3.38,0,0,1,.45,0,1.36,1.36,0,0,1,.35.07.57.57,0,0,1,.22.11.12.12,0,0,1,0,.14l-1,3.56a.32.32,0,0,1-.14.14l-.3.12-.41.07h-.48Zm17,0h-.46l-.36-.07a1,1,0,0,1-.23-.12.12.12,0,0,1,0-.14l1.12-3.63a.24.24,0,0,1,.13-.13,1,1,0,0,1,.29-.11,1.87,1.87,0,0,1,.4-.07h13.33a2.33,2.33,0,0,1,.36.08.49.49,0,0,1,.23.11.12.12,0,0,1,.06.13l-.83,3.63c0,.05-.06.09-.13.14a1.36,1.36,0,0,1-.28.11,2.57,2.57,0,0,1-.4.08H595.94Zm16.95,0h-.47l-.37-.08a.7.7,0,0,1-.23-.11.15.15,0,0,1-.06-.14l.79-3.63c0-.05.05-.09.12-.13a1,1,0,0,1,.28-.11l.39-.08h12.87a3.53,3.53,0,0,1,.46,0,2.29,2.29,0,0,1,.36.07.66.66,0,0,1,.24.11.12.12,0,0,1,.08.14l-.5,3.62a.24.24,0,0,1-.12.14.7.7,0,0,1-.28.12l-.39.08H612.89Zm16.94,0h-.46l-.38-.08a.64.64,0,0,1-.25-.12.16.16,0,0,1-.07-.14l.46-3.62a.21.21,0,0,1,.12-.14,1,1,0,0,1,.27-.11l.38-.07a3.68,3.68,0,0,1,.47,0h12.4a3.53,3.53,0,0,1,.46,0l.37.07a.8.8,0,0,1,.25.11.16.16,0,0,1,.08.14l-.18,3.62a.18.18,0,0,1-.1.14,1.23,1.23,0,0,1-.26.12l-.39.07H629.83Zm16.94,0h-.47l-.38-.07a1.15,1.15,0,0,1-.25-.12.19.19,0,0,1-.09-.14l.15-3.62a.19.19,0,0,1,.09-.14.85.85,0,0,1,.26-.11,1.69,1.69,0,0,1,.38-.07h13.32a1.61,1.61,0,0,1,.38.08.85.85,0,0,1,.26.11.15.15,0,0,1,.1.13l.15,3.63a.17.17,0,0,1-.09.14,1.19,1.19,0,0,1-.26.11,2.33,2.33,0,0,1-.38.08H646.77Zm17,0h-.47l-.39-.08a1.53,1.53,0,0,1-.27-.11c-.06-.05-.1-.09-.1-.14l-.18-3.63a.16.16,0,0,1,.09-.13.8.8,0,0,1,.25-.11,2.45,2.45,0,0,1,.37-.08h12.86a3.68,3.68,0,0,1,.47,0,1.61,1.61,0,0,1,.38.08.81.81,0,0,1,.27.11.21.21,0,0,1,.11.13l.46,3.62a.14.14,0,0,1-.07.14.58.58,0,0,1-.25.12l-.37.08H663.72Zm16.94,0h-.48l-.39-.08a.66.66,0,0,1-.27-.12.24.24,0,0,1-.12-.14l-.5-3.62a.14.14,0,0,1,.07-.14.82.82,0,0,1,.24-.1,1.55,1.55,0,0,1,.36-.08,3.53,3.53,0,0,1,.46,0h12.4a3.68,3.68,0,0,1,.47,0,2.66,2.66,0,0,1,.39.07,1,1,0,0,1,.28.11.21.21,0,0,1,.12.14l.8,3.62a.14.14,0,0,1-.07.14.84.84,0,0,1-.23.12,2.2,2.2,0,0,1-.37.07H680.66Zm17,0h-.48l-.41-.07-.28-.12a.25.25,0,0,1-.13-.14l-.83-3.62a.14.14,0,0,1,.06-.14.7.7,0,0,1,.23-.11,2.29,2.29,0,0,1,.36-.07h13.33a1.76,1.76,0,0,1,.4.07,1,1,0,0,1,.28.11.29.29,0,0,1,.14.13l1.11,3.63a.11.11,0,0,1-.05.14.57.57,0,0,1-.22.11,1.45,1.45,0,0,1-.36.08H697.66Zm16.93,0h-.48a2.83,2.83,0,0,1-.4-.08,1.82,1.82,0,0,1-.3-.11.32.32,0,0,1-.14-.14L712,385.7a.19.19,0,0,1,.05-.13.65.65,0,0,1,.22-.11,1.45,1.45,0,0,1,.35-.07H726l.41.08a1,1,0,0,1,.3.11.17.17,0,0,1,.14.13l1.45,3.63v.14a.57.57,0,0,1-.22.11l-.35.08h-.47Zm16.95,0h-.49l-.41-.08a1.63,1.63,0,0,1-.31-.11.4.4,0,0,1-.15-.14l-1.48-3.63a.11.11,0,0,1,0-.13.36.36,0,0,1,.21-.11,1.37,1.37,0,0,1,.35-.08,3.38,3.38,0,0,1,.45,0H742a3.68,3.68,0,0,1,.47,0l.41.07a1.82,1.82,0,0,1,.3.11.36.36,0,0,1,.16.14l1.76,3.62a.1.1,0,0,1,0,.14.4.4,0,0,1-.21.12,1.86,1.86,0,0,1-.34.07H731.54Zm17.25,0h-.49a3.07,3.07,0,0,1-.42-.07,1.75,1.75,0,0,1-.32-.12.39.39,0,0,1-.17-.14l-1.8-3.62a.12.12,0,0,1,0-.14.56.56,0,0,1,.2-.11l.34-.07h26l.43.08a1.17,1.17,0,0,1,.33.11.46.46,0,0,1,.18.13l2.33,3.63a.1.1,0,0,1,0,.14.42.42,0,0,1-.18.11,1.3,1.3,0,0,1-.34.08H748.79ZM536.24,384.9a3.23,3.23,0,0,1-.44,0l-.33-.07a.42.42,0,0,1-.18-.11.12.12,0,0,1,0-.14l2.2-3.44a.38.38,0,0,1,.18-.13,1.24,1.24,0,0,1,.31-.1,2,2,0,0,1,.41-.07h20.7a1.94,1.94,0,0,1,.33.07.45.45,0,0,1,.19.11.11.11,0,0,1,0,.13l-1.79,3.44a.34.34,0,0,1-.16.13,1,1,0,0,1-.3.11l-.42.08h-20.7Zm24.69,0h-.44l-.34-.08a.56.56,0,0,1-.2-.11.11.11,0,0,1,0-.13l1.75-3.44a.33.33,0,0,1,.16-.13,1.21,1.21,0,0,1,.3-.11l.4-.07h13a1.28,1.28,0,0,1,.34.07.68.68,0,0,1,.21.1.11.11,0,0,1,0,.13l-1.47,3.45a.28.28,0,0,1-.15.13,1.33,1.33,0,0,1-.3.11,2.57,2.57,0,0,1-.4.07H560.93Zm16.51,0a3.23,3.23,0,0,1-.44,0,2.17,2.17,0,0,1-.35-.07.56.56,0,0,1-.2-.11.15.15,0,0,1,0-.13l1.43-3.45A.31.31,0,0,1,578,381a1.66,1.66,0,0,1,.29-.1,3.53,3.53,0,0,1,.85-.1h12.51a1.28,1.28,0,0,1,.34.07.51.51,0,0,1,.21.1.11.11,0,0,1,0,.13l-1.15,3.44a.32.32,0,0,1-.14.14,1.45,1.45,0,0,1-.29.11l-.4.07h-.47Zm16.52,0a3.38,3.38,0,0,1-.45,0l-.35-.07a.65.65,0,0,1-.22-.11.16.16,0,0,1-.05-.14l1.13-3.44a.25.25,0,0,1,.14-.13.94.94,0,0,1,.28-.1,1.69,1.69,0,0,1,.38-.07h13l.35.07a.57.57,0,0,1,.22.11c.05,0,.08.08.06.13l-.85,3.44a.35.35,0,0,1-.13.14,1.33,1.33,0,0,1-.28.1,2.7,2.7,0,0,1-.39.08H594Zm16.51,0H610l-.36-.08a.88.88,0,0,1-.22-.1.15.15,0,0,1-.06-.14l.81-3.44c0-.05.06-.09.12-.13a1,1,0,0,1,.28-.11l.38-.07h13a1.36,1.36,0,0,1,.35.07.7.7,0,0,1,.23.11.11.11,0,0,1,.07.12l-.54,3.45a.28.28,0,0,1-.11.13,1.09,1.09,0,0,1-.27.11,2.66,2.66,0,0,1-.39.07H610.47Zm16.52,0a3.53,3.53,0,0,1-.46,0,2.29,2.29,0,0,1-.36-.07.74.74,0,0,1-.24-.11c-.06,0-.08-.08-.07-.13l.51-3.45a.19.19,0,0,1,.11-.12.85.85,0,0,1,.26-.11l.38-.07h13l.37.07a.64.64,0,0,1,.24.1.18.18,0,0,1,.08.13l-.24,3.45a.21.21,0,0,1-.1.13,1.19,1.19,0,0,1-.26.11l-.38.07a3.53,3.53,0,0,1-.46,0Zm16.51,0a3.53,3.53,0,0,1-.46,0l-.37-.07a.74.74,0,0,1-.24-.11.2.2,0,0,1-.09-.13l.2-3.45a.17.17,0,0,1,.1-.13.77.77,0,0,1,.25-.1,1.61,1.61,0,0,1,.37-.07h13a1.53,1.53,0,0,1,.36.07.77.77,0,0,1,.25.1c.06,0,.09.08.09.13l.08,3.44a.19.19,0,0,1-.09.14,1.12,1.12,0,0,1-.25.11l-.38.07a3.38,3.38,0,0,1-.45,0Zm16.51,0a3.53,3.53,0,0,1-.46,0l-.38-.07-.25-.11a.21.21,0,0,1-.1-.14l-.1-3.44c0-.05,0-.09.09-.13a.82.82,0,0,1,.24-.1,2.33,2.33,0,0,1,.36-.08h13l.38.07a.8.8,0,0,1,.25.11.16.16,0,0,1,.11.13l.38,3.44a.12.12,0,0,1-.08.13.66.66,0,0,1-.24.11l-.36.08H660Zm16.51,0h-.46l-.38-.08a1.53,1.53,0,0,1-.27-.11.28.28,0,0,1-.11-.13l-.41-3.45A.15.15,0,0,1,675,381a.86.86,0,0,1,.24-.11l.35-.07h13l.38.07a.79.79,0,0,1,.27.1.25.25,0,0,1,.12.13l.69,3.45a.13.13,0,0,1-.07.13.7.7,0,0,1-.23.11,2.29,2.29,0,0,1-.36.07H676.52Zm16.52,0a3.68,3.68,0,0,1-.47,0l-.39-.07a1.36,1.36,0,0,1-.28-.11.3.3,0,0,1-.12-.13l-.72-3.45a.14.14,0,0,1,.06-.13.67.67,0,0,1,.23-.1l.35-.07h13a1.78,1.78,0,0,1,.39.07.94.94,0,0,1,.28.1c.07,0,.11.08.12.13l1,3.45a.19.19,0,0,1-.05.13.57.57,0,0,1-.22.11l-.35.07a3.53,3.53,0,0,1-.46,0Zm16.5,0a3.68,3.68,0,0,1-.47,0l-.39-.07a1.36,1.36,0,0,1-.28-.11.29.29,0,0,1-.14-.13l-1-3.45a.13.13,0,0,1,0-.13.62.62,0,0,1,.22-.1,1.37,1.37,0,0,1,.34-.07h13a1.78,1.78,0,0,1,.39.07.77.77,0,0,1,.29.1.25.25,0,0,1,.14.13l1.31,3.44a.16.16,0,0,1,0,.14.51.51,0,0,1-.21.1l-.35.08H709.54Zm16.52,0h-.47l-.41-.08a1.76,1.76,0,0,1-.3-.1.38.38,0,0,1-.14-.14l-1.34-3.44a.11.11,0,0,1,0-.13.61.61,0,0,1,.21-.11,2.05,2.05,0,0,1,.34-.07h13l.4.07a1,1,0,0,1,.29.11.28.28,0,0,1,.14.12l1.62,3.45a.11.11,0,0,1,0,.13.49.49,0,0,1-.2.11,1.86,1.86,0,0,1-.34.07H726.06Zm16.5,0a3.68,3.68,0,0,1-.47,0,2.93,2.93,0,0,1-.41-.07,1.82,1.82,0,0,1-.3-.11.4.4,0,0,1-.16-.13L739.57,381a.13.13,0,0,1,0-.12.56.56,0,0,1,.2-.11,1.94,1.94,0,0,1,.33-.07h13l.41.07a1.12,1.12,0,0,1,.31.1.4.4,0,0,1,.16.13l1.92,3.45a.11.11,0,0,1,0,.13.45.45,0,0,1-.19.11l-.33.07h-.45Zm16.34,0a3.68,3.68,0,0,1-.47,0l-.42-.07a1.63,1.63,0,0,1-.31-.11.37.37,0,0,1-.17-.13l-2-3.45a.15.15,0,0,1,0-.13.5.5,0,0,1,.19-.1,1.94,1.94,0,0,1,.33-.07H769.1a1.85,1.85,0,0,1,.41.07,1.19,1.19,0,0,1,.32.1.31.31,0,0,1,.17.13l2.23,3.44a.12.12,0,0,1,0,.14.42.42,0,0,1-.18.11l-.33.07a3.23,3.23,0,0,1-.44,0Zm-219.76-4.58h-.43l-.32-.07a.4.4,0,0,1-.18-.1.11.11,0,0,1,0-.13l2.1-3.28a.45.45,0,0,1,.16-.12,1.86,1.86,0,0,1,.31-.1l.4-.07h12.68a1.65,1.65,0,0,1,.32.07.44.44,0,0,1,.19.1.09.09,0,0,1,0,.12L552.55,380a.52.52,0,0,1-.17.12,1.33,1.33,0,0,1-.3.11l-.41.07H539.14Zm16.11,0h-.43l-.33-.07a.45.45,0,0,1-.19-.11V380l1.8-3.28a.29.29,0,0,1,.15-.12,1.18,1.18,0,0,1,.3-.1l.4-.07h12.68a1.14,1.14,0,0,1,.32.07.4.4,0,0,1,.2.09.11.11,0,0,1,0,.13L568.62,380a.32.32,0,0,1-.15.13,1.33,1.33,0,0,1-.3.11l-.39.07h-.46Zm16.09,0h-.43a1.94,1.94,0,0,1-.33-.07.5.5,0,0,1-.19-.1.11.11,0,0,1,0-.13l1.51-3.27a.27.27,0,0,1,.15-.13l.28-.1c.12,0,.25,0,.39-.06H585.4a1.86,1.86,0,0,1,.34.06.54.54,0,0,1,.2.1s.06.08,0,.12L584.7,380a.29.29,0,0,1-.14.13,1.42,1.42,0,0,1-.29.1,2.57,2.57,0,0,1-.4.07H571.34Zm16.12,0H587l-.34-.07a.81.81,0,0,1-.21-.1.11.11,0,0,1,0-.13l1.21-3.28a.39.39,0,0,1,.14-.12.94.94,0,0,1,.28-.1,2.5,2.5,0,0,1,.38-.06h12.68l.34.07a.51.51,0,0,1,.21.1.11.11,0,0,1,0,.12l-1,3.28a.33.33,0,0,1-.13.13,1.33,1.33,0,0,1-.28.1l-.38.07H587.46Zm16.1,0h-.44l-.35-.07a1,1,0,0,1-.21-.1.14.14,0,0,1-.06-.13l.93-3.28a.4.4,0,0,1,.12-.12,1,1,0,0,1,.27-.1l.37-.07h12.68l.35.07a.55.55,0,0,1,.22.1.14.14,0,0,1,.07.12l-.66,3.28a.2.2,0,0,1-.12.12,1.09,1.09,0,0,1-.27.11l-.38.07H603.56Zm16.11,0h-.45l-.35-.07a.7.7,0,0,1-.23-.11.15.15,0,0,1-.07-.12l.63-3.28a.2.2,0,0,1,.12-.12.82.82,0,0,1,.26-.1l.37-.07h12.68a2,2,0,0,1,.35.06.67.67,0,0,1,.23.1s.08.08.07.13l-.36,3.28a.25.25,0,0,1-.11.12.82.82,0,0,1-.26.1,2.2,2.2,0,0,1-.37.07H619.67Zm16.1,0h-.45a2.29,2.29,0,0,1-.36-.07.94.94,0,0,1-.23-.1.22.22,0,0,1-.08-.13l.34-3.27c0-.05,0-.09.1-.13l.25-.1.36-.06h12.68a2.29,2.29,0,0,1,.36.07.64.64,0,0,1,.24.1q.09.06.09.12L649,380c0,.05,0,.09-.09.13a1.09,1.09,0,0,1-.25.1l-.37.07H635.77Zm16.09,0h-.45l-.36-.07a1.22,1.22,0,0,1-.24-.1c-.06,0-.09-.08-.09-.13v-3.28a.2.2,0,0,1,.1-.12.82.82,0,0,1,.24-.1,2.29,2.29,0,0,1,.36-.07H664.1a2.29,2.29,0,0,1,.36.07.77.77,0,0,1,.25.1q.09.06.09.12L665,380a.16.16,0,0,1-.08.13l-.24.1-.36.07H651.86Zm16.11,0h-.45l-.37-.07a1.12,1.12,0,0,1-.25-.11.17.17,0,0,1-.1-.12l-.25-3.28a.15.15,0,0,1,.08-.12.67.67,0,0,1,.23-.1l.35-.07h12.68l.37.07a.82.82,0,0,1,.26.1.15.15,0,0,1,.11.12l.51,3.28a.15.15,0,0,1-.07.12.88.88,0,0,1-.24.11,2,2,0,0,1-.35.06H668Zm16.11,0h-.46l-.38-.06a1.19,1.19,0,0,1-.26-.11c-.07,0-.11-.08-.11-.12l-.55-3.28a.14.14,0,0,1,.07-.12.52.52,0,0,1,.23-.1l.35-.07h12.68a2.2,2.2,0,0,1,.37.06,1.17,1.17,0,0,1,.26.1q.12.06.12.12l.81,3.28a.12.12,0,0,1-.06.13.88.88,0,0,1-.22.1,2,2,0,0,1-.35.07h-12.5Zm16.09,0h-.45a2.53,2.53,0,0,1-.38-.07,1.48,1.48,0,0,1-.27-.1.33.33,0,0,1-.13-.13l-.83-3.28a.13.13,0,0,1,0-.12.62.62,0,0,1,.22-.1,1,1,0,0,1,.34-.06H711.4l.38.07a.79.79,0,0,1,.27.1c.07,0,.12.08.13.12l1.1,3.28a.14.14,0,0,1,0,.13.68.68,0,0,1-.21.1l-.35.07h-12.5Zm16.11,0h-.46l-.39-.07-.29-.1A.4.4,0,0,1,715,380l-1.13-3.28a.11.11,0,0,1,0-.12.45.45,0,0,1,.21-.1,1.94,1.94,0,0,1,.33-.07h12.68l.39.07a1.33,1.33,0,0,1,.28.1.28.28,0,0,1,.14.12l1.39,3.28v.12a.49.49,0,0,1-.2.11l-.33.07H716.28Zm16.09,0h-.45l-.4-.07a1.45,1.45,0,0,1-.29-.11.18.18,0,0,1-.14-.12l-1.43-3.28a.13.13,0,0,1,0-.12.5.5,0,0,1,.19-.1,1.94,1.94,0,0,1,.33-.07h12.68a1.78,1.78,0,0,1,.39.07,1.49,1.49,0,0,1,.3.09.37.37,0,0,1,.15.13l1.68,3.27a.08.08,0,0,1,0,.12h0a.42.42,0,0,1-.2.1l-.33.08H732.37Zm15.73,0h-.46a2.79,2.79,0,0,1-.4-.07,1.76,1.76,0,0,1-.3-.1.4.4,0,0,1-.16-.13L745,376.68a.11.11,0,0,1,0-.13.34.34,0,0,1,.18-.09,1.3,1.3,0,0,1,.33-.07h20.68l.4.07a1,1,0,0,1,.3.1.52.52,0,0,1,.17.12l2.12,3.28a.11.11,0,0,1,0,.13.4.4,0,0,1-.18.1l-.32.07h-.43ZM541.29,376h-.42l-.3-.07a.4.4,0,0,1-.18-.1.13.13,0,0,1,0-.12l1.07-1.67a.45.45,0,0,1,.17-.11,1.18,1.18,0,0,1,.3-.1l.39-.07H556a1.65,1.65,0,0,1,.32.07.51.51,0,0,1,.18.09.09.09,0,0,1,0,.12l-.92,1.67a.48.48,0,0,1-.16.12,1.42,1.42,0,0,1-.29.1c-.12,0-.25.05-.39.06H541.29Zm16.84,0a2.94,2.94,0,0,1-.42,0,1.73,1.73,0,0,1-.31-.07.61.61,0,0,1-.18-.09.09.09,0,0,1,0-.12l.91-1.67a.29.29,0,0,1,.15-.12,1.61,1.61,0,0,1,.29-.09l.39-.07h13.69a1.65,1.65,0,0,1,.32.06.44.44,0,0,1,.19.1.13.13,0,0,1,0,.12l-.77,1.67a.33.33,0,0,1-.14.12,1.4,1.4,0,0,1-.29.09,2.66,2.66,0,0,1-.39.07,3.38,3.38,0,0,1-.45,0h-13ZM575,376a2.94,2.94,0,0,1-.42,0,1.94,1.94,0,0,1-.33-.07.72.72,0,0,1-.2-.09s-.05-.08,0-.12l.75-1.67A.39.39,0,0,1,575,374a.94.94,0,0,1,.28-.1,2.5,2.5,0,0,1,.38-.06h13.7a1.65,1.65,0,0,1,.32.06.54.54,0,0,1,.2.1.09.09,0,0,1,0,.12l-.6,1.66a.33.33,0,0,1-.14.12,1.33,1.33,0,0,1-.28.1l-.38.07H575Zm16.84,0h-.43l-.33-.07a1,1,0,0,1-.21-.1.13.13,0,0,1,0-.12l.59-1.66a.22.22,0,0,1,.13-.12,1,1,0,0,1,.27-.1l.38-.07H606l.34.07.21.09a.11.11,0,0,1,.05.12l-.45,1.67a.4.4,0,0,1-.12.12,1.17,1.17,0,0,1-.26.1l-.38.07H591.88Zm16.85,0a3.23,3.23,0,0,1-.44,0A2,2,0,0,1,608,376a.81.81,0,0,1-.21-.1s-.07-.08-.06-.12L608,374a.22.22,0,0,1,.11-.12l.26-.09.37-.07h13.69l.34.06a.67.67,0,0,1,.23.1q.09.06.06.12l-.29,1.67a.22.22,0,0,1-.11.12l-.25.1c-.12,0-.24.05-.37.06h-.44Zm16.84,0a3.23,3.23,0,0,1-.44,0,2,2,0,0,1-.34-.06l-.23-.1s-.08-.08-.07-.12l.28-1.67a.2.2,0,0,1,.1-.12.82.82,0,0,1,.26-.1l.36-.06h13.69a2,2,0,0,1,.35.06.67.67,0,0,1,.23.1.13.13,0,0,1,.08.12l-.14,1.67a.14.14,0,0,1-.09.12,1.06,1.06,0,0,1-.25.09L639,376a3.23,3.23,0,0,1-.44,0Zm16.84,0a3.23,3.23,0,0,1-.44,0l-.35-.07a1.22,1.22,0,0,1-.24-.1.15.15,0,0,1-.08-.11l.12-1.67a.14.14,0,0,1,.09-.12.77.77,0,0,1,.25-.1,2.14,2.14,0,0,1,.35-.06H655.8a2.25,2.25,0,0,1,.36.06.64.64,0,0,1,.24.1c.05,0,.09.07.09.11v1.67a.14.14,0,0,1-.08.12.87.87,0,0,1-.24.1l-.35.07H642.41Zm16.83,0h-.44l-.35-.07a1.22,1.22,0,0,1-.24-.1.23.23,0,0,1-.1-.12v-1.67a.12.12,0,0,1,.09-.11.67.67,0,0,1,.23-.1,2.29,2.29,0,0,1,.36-.07h13.58l.37.07a1.06,1.06,0,0,1,.25.09.17.17,0,0,1,.1.12l.19,1.67a.2.2,0,0,1-.08.12.94.94,0,0,1-.23.1,2,2,0,0,1-.35.06H659.24Zm16.8,0a3.23,3.23,0,0,1-.44,0l-.36-.06a1.09,1.09,0,0,1-.25-.1.25.25,0,0,1-.11-.12l-.21-1.67a.17.17,0,0,1,.08-.12.85.85,0,0,1,.22-.09l.35-.07H689a2.25,2.25,0,0,1,.36.06.82.82,0,0,1,.26.1.22.22,0,0,1,.11.12l.36,1.67a.15.15,0,0,1-.07.12.85.85,0,0,1-.22.09,1.86,1.86,0,0,1-.34.07,3.09,3.09,0,0,1-.43,0Zm16.84,0a3.23,3.23,0,0,1-.44,0,2.41,2.41,0,0,1-.37-.07,1.14,1.14,0,0,1-.26-.09c-.07,0-.11-.08-.11-.12l-.38-1.67a.15.15,0,0,1,.07-.12.58.58,0,0,1,.21-.1,2,2,0,0,1,.34-.06h13.69a2.2,2.2,0,0,1,.37.06.79.79,0,0,1,.27.1.18.18,0,0,1,.12.12l.51,1.66a.1.1,0,0,1,0,.12h0a.68.68,0,0,1-.21.1l-.34.07H692.88Zm16.84,0h-.44l-.38-.07a1.48,1.48,0,0,1-.27-.1.37.37,0,0,1-.13-.12l-.53-1.66a.11.11,0,0,1,0-.12.67.67,0,0,1,.21-.1,1,1,0,0,1,.33-.06h13.69l.38.07a.79.79,0,0,1,.27.1.26.26,0,0,1,.14.11l.67,1.67v.12a.75.75,0,0,1-.2.1l-.33.07H709.72Zm16.84,0a3.38,3.38,0,0,1-.45,0,2.5,2.5,0,0,1-.38-.06,1.33,1.33,0,0,1-.28-.1.44.44,0,0,1-.15-.12l-.68-1.67a.11.11,0,0,1,0-.11.54.54,0,0,1,.2-.1,1.83,1.83,0,0,1,.32-.07h13.69l.39.07a1.31,1.31,0,0,1,.28.09.26.26,0,0,1,.15.12l.82,1.67v.12a.69.69,0,0,1-.19.1L740,376a2.94,2.94,0,0,1-.42,0Zm16.84,0a3.38,3.38,0,0,1-.45,0l-.39-.06-.29-.1a.44.44,0,0,1-.15-.12l-.85-1.67a.13.13,0,0,1,0-.12.37.37,0,0,1,.19-.09,1.73,1.73,0,0,1,.31-.07h13.72a2.32,2.32,0,0,1,.38.06,1,1,0,0,1,.3.1.17.17,0,0,1,.15.12l1,1.67v.12a.51.51,0,0,1-.18.09l-.32.07a2.94,2.94,0,0,1-.42,0Zm16.23,0a2.16,2.16,0,0,1-.36,0l-.32,0-.24-.08a.38.38,0,0,1-.13-.09L757.51,374a.09.09,0,0,1,0-.1.55.55,0,0,1,.15-.08l.24,0h6.81l.31,0,.24.08a.3.3,0,0,1,.13.09l1.16,1.79a.07.07,0,0,1,0,.1l-.14.08-.25,0h-6.53Zm8.41-5.56H538.85a28,28,0,0,0-2.89.15,22.52,22.52,0,0,0-2.57.41,11.86,11.86,0,0,0-2,.62,2.57,2.57,0,0,0-1.11.76L490,428.92a1.32,1.32,0,0,0-.2,1.35,2.59,2.59,0,0,0,1.28,1.12,10,10,0,0,0,2.57.76,21.75,21.75,0,0,0,3.6.28h0l312.63-.07a21.79,21.79,0,0,0,3.61-.28,9.82,9.82,0,0,0,2.56-.76,2.57,2.57,0,0,0,1.29-1.12,1.3,1.3,0,0,0-.21-1.35l-40.53-56.48a2.57,2.57,0,0,0-1.11-.76,11.58,11.58,0,0,0-2-.62,24.55,24.55,0,0,0-2.57-.41,27.83,27.83,0,0,0-2.89-.15Z" transform="translate(0 0)"/><path class="cls-51" d="M707.67,402.43H599.36a9.6,9.6,0,0,0-1.31.08,6.19,6.19,0,0,0-1.12.23,2.74,2.74,0,0,0-.81.34.76.76,0,0,0-.38.41l-7.25,25.65a.58.58,0,0,0,.15.53,2.08,2.08,0,0,0,.69.44,6.14,6.14,0,0,0,1.12.29,10.11,10.11,0,0,0,1.45.11H715.24a10,10,0,0,0,1.45-.11,6.14,6.14,0,0,0,1.12-.29,1.83,1.83,0,0,0,.69-.43.55.55,0,0,0,.14-.53l-7.35-25.65a.8.8,0,0,0-.37-.42,3,3,0,0,0-.81-.33,5.91,5.91,0,0,0-1.11-.23,9.74,9.74,0,0,0-1.32-.08Z" transform="translate(0 0)"/><path class="cls-56" d="M738.42,373.7H725.17a1.83,1.83,0,0,0-.32.07.54.54,0,0,0-.2.1.11.11,0,0,0,0,.11l.68,1.67a.44.44,0,0,0,.15.12,1.33,1.33,0,0,0,.28.1,2.5,2.5,0,0,0,.38.06H740l.33-.06a.69.69,0,0,0,.19-.1s.05-.08,0-.12l-.82-1.67a.26.26,0,0,0-.15-.12,1.31,1.31,0,0,0-.28-.09l-.39-.07h-.47Z" transform="translate(0 0)"/><path class="cls-56" d="M721.8,373.7H708.55a1,1,0,0,0-.33.06.67.67,0,0,0-.21.1.11.11,0,0,0,0,.12l.53,1.66a.37.37,0,0,0,.13.12,1.48,1.48,0,0,0,.27.1l.38.07h13.87l.33-.07a.75.75,0,0,0,.2-.1c.05,0,.06-.08,0-.12L723,374a.26.26,0,0,0-.14-.11.79.79,0,0,0-.27-.1l-.38-.07h-.44Z" transform="translate(0 0)"/><path class="cls-56" d="M705.18,373.7H691.93a2,2,0,0,0-.34.06.58.58,0,0,0-.21.1s-.08.08-.07.12l.38,1.67s0,.08.11.12a1.14,1.14,0,0,0,.26.09,2.41,2.41,0,0,0,.37.07H706.3l.34-.07a.68.68,0,0,0,.21-.1.09.09,0,0,0,0-.12h0l-.51-1.66a.18.18,0,0,0-.12-.12.79.79,0,0,0-.27-.1,2.2,2.2,0,0,0-.37-.06h-.45Z" transform="translate(0 0)"/><path class="cls-56" d="M688.56,373.71H675.31l-.35.07a.85.85,0,0,0-.22.09.17.17,0,0,0-.08.12l.21,1.67a.25.25,0,0,0,.11.12,1.09,1.09,0,0,0,.25.1,2.25,2.25,0,0,0,.36.06h13.87a1.86,1.86,0,0,0,.34-.07.85.85,0,0,0,.22-.09.15.15,0,0,0,.07-.12l-.36-1.67a.22.22,0,0,0-.11-.12.82.82,0,0,0-.26-.1l-.36-.06Z" transform="translate(0 0)"/><path class="cls-56" d="M671.94,373.71H658.69a2.29,2.29,0,0,0-.36.07.67.67,0,0,0-.23.1c-.06,0-.09.07-.09.11v1.67a.23.23,0,0,0,.1.12,1.22,1.22,0,0,0,.24.1l.35.07h13.87a2,2,0,0,0,.35-.06.94.94,0,0,0,.23-.1.16.16,0,0,0,.08-.12L673,374a.17.17,0,0,0-.1-.12,1.06,1.06,0,0,0-.25-.09l-.37-.07h-.38Z" transform="translate(0 0)"/><path class="cls-56" d="M655.32,373.71H642.06a2.14,2.14,0,0,0-.35.06.77.77,0,0,0-.25.1.14.14,0,0,0-.09.12l-.12,1.67a.15.15,0,0,0,.08.11,1.22,1.22,0,0,0,.24.1l.35.07H655.8l.35-.07a.87.87,0,0,0,.24-.1c.05,0,.09-.08.08-.12V374a.12.12,0,0,0-.09-.11.64.64,0,0,0-.24-.1l-.36-.06h-.46Z" transform="translate(0 0)"/><path class="cls-56" d="M638.7,373.71H625.44l-.36.06a.82.82,0,0,0-.26.1.2.2,0,0,0-.1.12l-.28,1.67a.15.15,0,0,0,.07.12l.23.1a2,2,0,0,0,.34.06H639l.36-.07a1.06,1.06,0,0,0,.25-.09q.09-.06.09-.12l.14-1.67a.13.13,0,0,0-.08-.12.67.67,0,0,0-.23-.1,2,2,0,0,0-.35-.06h-.44Z" transform="translate(0 0)"/><path class="cls-56" d="M622,373.72H608.81l-.37.07-.26.09a.22.22,0,0,0-.11.12l-.44,1.67a.16.16,0,0,0,.06.12.81.81,0,0,0,.21.1,2,2,0,0,0,.34.06h13.88c.13,0,.25,0,.37-.06l.25-.1a.22.22,0,0,0,.11-.12l.29-1.67a.16.16,0,0,0-.06-.12.67.67,0,0,0-.23-.1l-.34-.06a3.09,3.09,0,0,0-.43,0Z" transform="translate(0 0)"/><path class="cls-56" d="M605.46,373.72H592.19l-.38.07a1,1,0,0,0-.27.1.22.22,0,0,0-.13.12l-.59,1.66a.13.13,0,0,0,0,.12,1,1,0,0,0,.21.1l.33.07h13.87l.38-.07a1.17,1.17,0,0,0,.26-.1q.11-.06.12-.12l.45-1.67a.11.11,0,0,0-.05-.12l-.21-.09-.34-.07h-.38Z" transform="translate(0 0)"/><path class="cls-56" d="M558.13,376Zm14.14,0Z" transform="translate(0 0)"/><path class="cls-56" d="M555.59,373.73H542.31l-.39.07a1.18,1.18,0,0,0-.3.1.45.45,0,0,0-.17.11l-1.07,1.67a.13.13,0,0,0,0,.12.4.4,0,0,0,.18.1l.3.07h13.87a.84.84,0,0,0,.39-.06,1.42,1.42,0,0,0,.29-.1.48.48,0,0,0,.16-.12l.92-1.67a.09.09,0,0,0,0-.12.51.51,0,0,0-.18-.09,1.65,1.65,0,0,0-.32-.07h-.4Z" transform="translate(0 0)"/><path class="cls-56" d="M742.45,376.36H730.22a1.94,1.94,0,0,0-.33.07.5.5,0,0,0-.19.1.13.13,0,0,0,0,.12l1.43,3.28a.67.67,0,0,0,.14.12,1.45,1.45,0,0,0,.29.11l.4.07h12.95l.33-.08a.42.42,0,0,0,.2-.1.09.09,0,0,0,0-.13h0l-1.68-3.27a.37.37,0,0,0-.15-.13,1.49,1.49,0,0,0-.3-.09,1.78,1.78,0,0,0-.39-.07h-.47Z" transform="translate(0 0)"/><path class="cls-56" d="M765.83,376.36H745.62a1.3,1.3,0,0,0-.33.07.34.34,0,0,0-.18.09.11.11,0,0,0,0,.13l1.71,3.27a.4.4,0,0,0,.16.13,1.76,1.76,0,0,0,.3.1,2.79,2.79,0,0,0,.4.07h21.09l.32-.07a.4.4,0,0,0,.18-.1.11.11,0,0,0,0-.13l-2.12-3.28a.52.52,0,0,0-.17-.12,1,1,0,0,0-.3-.1l-.4-.07h-.45Z" transform="translate(0 0)"/><path class="cls-56" d="M726.7,376.37H714.47a1.94,1.94,0,0,0-.33.07.45.45,0,0,0-.21.1.11.11,0,0,0,0,.12l1.13,3.28a.4.4,0,0,0,.13.13l.29.1.39.07h13l.33-.07a.49.49,0,0,0,.2-.11s.06-.08,0-.12l-1.39-3.28a.28.28,0,0,0-.14-.12,1.33,1.33,0,0,0-.28-.1l-.39-.07h-.41Z" transform="translate(0 0)"/><path class="cls-56" d="M711,376.37H698.72a1,1,0,0,0-.34.06.62.62,0,0,0-.22.1.13.13,0,0,0,0,.12l.83,3.28a.33.33,0,0,0,.13.13,1.48,1.48,0,0,0,.27.1,2.53,2.53,0,0,0,.38.07h12.95l.35-.07a.68.68,0,0,0,.21-.1s.07-.08,0-.13l-1.1-3.28a.52.52,0,0,0-.13-.12.79.79,0,0,0-.27-.1l-.38-.07H711Z" transform="translate(0 0)"/><path class="cls-56" d="M695.2,376.37H683l-.35.07a.52.52,0,0,0-.23.1.14.14,0,0,0-.07.12l.55,3.28s0,.08.11.12a1.19,1.19,0,0,0,.26.11l.38.06h13a2,2,0,0,0,.35-.07.88.88,0,0,0,.22-.1.12.12,0,0,0,.06-.13l-.81-3.28a.4.4,0,0,0-.12-.12,1.17,1.17,0,0,0-.26-.1,2.2,2.2,0,0,0-.37-.06Z" transform="translate(0 0)"/><path class="cls-56" d="M679.45,376.38H667.21l-.35.07a.67.67,0,0,0-.23.1.15.15,0,0,0-.08.12l.25,3.28a.17.17,0,0,0,.1.12,1.12,1.12,0,0,0,.25.11l.37.07h13a2,2,0,0,0,.35-.06.88.88,0,0,0,.24-.11.15.15,0,0,0,.07-.12l-.51-3.28a.15.15,0,0,0-.11-.12.82.82,0,0,0-.26-.1l-.37-.07h-.45Z" transform="translate(0 0)"/><path class="cls-56" d="M663.7,376.38H651.46a2.29,2.29,0,0,0-.36.07.82.82,0,0,0-.24.1.2.2,0,0,0-.1.12V380c0,.05,0,.09.09.13a1.22,1.22,0,0,0,.24.1l.36.07h12.93l.36-.07.24-.1a.16.16,0,0,0,.08-.13l-.22-3.28a.14.14,0,0,0-.09-.12.77.77,0,0,0-.25-.1,2.29,2.29,0,0,0-.36-.07Z" transform="translate(0 0)"/><path class="cls-56" d="M647.94,376.38H635.7l-.36.06-.25.1c-.06,0-.1.08-.1.13l-.34,3.27a.22.22,0,0,0,.08.13.94.94,0,0,0,.23.1,2.29,2.29,0,0,0,.36.07h13l.37-.07a1.09,1.09,0,0,0,.25-.1c.06,0,.09-.08.09-.13l.08-3.28a.14.14,0,0,0-.09-.12.64.64,0,0,0-.24-.1,2.29,2.29,0,0,0-.36-.07h-.44Z" transform="translate(0 0)"/><path class="cls-56" d="M632.2,376.38H620l-.37.07a.82.82,0,0,0-.26.1.2.2,0,0,0-.12.12l-.63,3.28a.15.15,0,0,0,.07.12.7.7,0,0,0,.23.11l.35.07h13a2.2,2.2,0,0,0,.37-.07.82.82,0,0,0,.26-.1.25.25,0,0,0,.11-.12l.36-3.28a.12.12,0,0,0-.07-.13.67.67,0,0,0-.23-.1,2,2,0,0,0-.35-.06h-.43Z" transform="translate(0 0)"/><path class="cls-56" d="M616.44,376.39H604.19l-.37.07a1,1,0,0,0-.27.1.34.34,0,0,0-.12.12L602.5,380a.14.14,0,0,0,.06.13,1,1,0,0,0,.21.1l.35.07h13l.38-.07a1.09,1.09,0,0,0,.27-.11.2.2,0,0,0,.12-.12l.66-3.28a.14.14,0,0,0-.07-.12.55.55,0,0,0-.22-.1l-.35-.07Z" transform="translate(0 0)"/><path class="cls-56" d="M600.69,376.39H588.44a2.5,2.5,0,0,0-.38.06.94.94,0,0,0-.28.1.39.39,0,0,0-.14.12L586.43,380a.11.11,0,0,0,0,.13.81.81,0,0,0,.21.1l.34.07h13l.38-.07a1.33,1.33,0,0,0,.28-.1.33.33,0,0,0,.13-.13l1-3.28a.11.11,0,0,0-.05-.12.51.51,0,0,0-.21-.1l-.34-.07h-.43Z" transform="translate(0 0)"/><path class="cls-56" d="M584.93,376.39H572.68a.84.84,0,0,0-.39.06l-.28.1a.27.27,0,0,0-.15.13L570.35,380a.11.11,0,0,0,0,.13.5.5,0,0,0,.19.1,1.94,1.94,0,0,0,.33.07h13a2.57,2.57,0,0,0,.4-.07,1.42,1.42,0,0,0,.29-.1.29.29,0,0,0,.14-.13l1.24-3.28v-.12a.54.54,0,0,0-.2-.1,1.86,1.86,0,0,0-.34-.06,3.09,3.09,0,0,0-.43,0Z" transform="translate(0 0)"/><path class="cls-56" d="M569.18,376.39H556.93l-.4.07a1.18,1.18,0,0,0-.3.1.29.29,0,0,0-.15.12l-1.8,3.28v.12a.45.45,0,0,0,.19.11l.33.07h13l.39-.07a1.33,1.33,0,0,0,.3-.11.32.32,0,0,0,.15-.13l1.54-3.27a.11.11,0,0,0,0-.13.4.4,0,0,0-.2-.09,1.14,1.14,0,0,0-.32-.07h-.44Z" transform="translate(0 0)"/><path class="cls-56" d="M752.66,380.74H740.13a1.94,1.94,0,0,0-.33.07.56.56,0,0,0-.2.11.13.13,0,0,0,0,.12l1.65,3.45a.4.4,0,0,0,.16.13,1.82,1.82,0,0,0,.3.11,2.93,2.93,0,0,0,.41.07h13.29l.33-.07a.45.45,0,0,0,.19-.11.11.11,0,0,0,0-.13L754,381a.4.4,0,0,0-.16-.13,1.12,1.12,0,0,0-.31-.1l-.41-.07h-.5Z" transform="translate(0 0)"/><path class="cls-56" d="M768.64,380.74H756.11a1.94,1.94,0,0,0-.33.07.5.5,0,0,0-.19.1.15.15,0,0,0,0,.13l2,3.45a.37.37,0,0,0,.17.13,1.63,1.63,0,0,0,.31.11l.42.07h13.28l.33-.07a.42.42,0,0,0,.18-.11.12.12,0,0,0,0-.14L770,381a.31.31,0,0,0-.17-.13,1.19,1.19,0,0,0-.32-.1,1.85,1.85,0,0,0-.41-.07h-.5Z" transform="translate(0 0)"/><path class="cls-56" d="M736.54,380.75H724a2.05,2.05,0,0,0-.34.07.61.61,0,0,0-.21.11.11.11,0,0,0,0,.13l1.34,3.44a.38.38,0,0,0,.14.14,1.76,1.76,0,0,0,.3.1l.41.08h13.28a1.86,1.86,0,0,0,.34-.07.49.49,0,0,0,.2-.11.11.11,0,0,0,0-.13L737.82,381a.28.28,0,0,0-.14-.12,1,1,0,0,0-.29-.11l-.4-.07h-.45Z" transform="translate(0 0)"/><path class="cls-56" d="M720.38,380.75H707.84a1.37,1.37,0,0,0-.34.07.62.62,0,0,0-.22.1.13.13,0,0,0,0,.13l1,3.45a.29.29,0,0,0,.14.13,1.36,1.36,0,0,0,.28.11l.39.07h13.29l.35-.08a.51.51,0,0,0,.21-.1.16.16,0,0,0,.05-.14l-1.31-3.44a.25.25,0,0,0-.14-.13.77.77,0,0,0-.29-.1,1.78,1.78,0,0,0-.39-.07h-.43Z" transform="translate(0 0)"/><path class="cls-56" d="M704.24,380.75H691.7l-.35.07a.67.67,0,0,0-.23.1.14.14,0,0,0-.06.13l.72,3.45a.3.3,0,0,0,.12.13,1.36,1.36,0,0,0,.28.11l.39.07h13.29l.35-.07a.57.57,0,0,0,.22-.11c.05,0,.07-.09.05-.13l-1-3.45c0-.05-.05-.09-.12-.13a.94.94,0,0,0-.28-.1,1.78,1.78,0,0,0-.39-.07Z" transform="translate(0 0)"/><path class="cls-56" d="M688.1,380.75H675.59l-.35.07a.86.86,0,0,0-.24.11s-.08.08-.07.12l.41,3.45a.28.28,0,0,0,.11.13,1.53,1.53,0,0,0,.27.11l.38.08h13.29a2.29,2.29,0,0,0,.36-.07.7.7,0,0,0,.23-.11.13.13,0,0,0,.07-.13l-.69-3.45a.25.25,0,0,0-.12-.13.79.79,0,0,0-.27-.1l-.38-.07h-.49Z" transform="translate(0 0)"/><path class="cls-56" d="M672,380.76H659.41a2.33,2.33,0,0,0-.36.08.82.82,0,0,0-.24.1c-.06,0-.09.08-.09.13l.1,3.44a.21.21,0,0,0,.1.14l.25.11.38.07h13.29l.36-.08a.66.66,0,0,0,.24-.11c.06,0,.09-.08.08-.13l-.38-3.44a.16.16,0,0,0-.11-.13.8.8,0,0,0-.25-.11l-.38-.07Z" transform="translate(0 0)"/><path class="cls-56" d="M655.83,380.76H643.26a1.61,1.61,0,0,0-.37.07.77.77,0,0,0-.25.1.17.17,0,0,0-.1.13l-.2,3.45a.2.2,0,0,0,.09.13.74.74,0,0,0,.24.11l.37.07h13.29l.38-.07a1.12,1.12,0,0,0,.25-.11.19.19,0,0,0,.09-.14l-.08-3.44c0-.05,0-.09-.09-.13a.77.77,0,0,0-.25-.1,1.53,1.53,0,0,0-.36-.07Z" transform="translate(0 0)"/><path class="cls-56" d="M639.67,380.76H627.12l-.38.07a.85.85,0,0,0-.26.11.19.19,0,0,0-.11.12l-.51,3.45a.12.12,0,0,0,.07.13.74.74,0,0,0,.24.11,2.29,2.29,0,0,0,.36.07h13.29l.38-.07a1.19,1.19,0,0,0,.26-.11.21.21,0,0,0,.1-.13l.24-3.45a.18.18,0,0,0-.08-.13.64.64,0,0,0-.24-.1l-.37-.07Z" transform="translate(0 0)"/><path class="cls-56" d="M623.53,380.77H611l-.38.07a1,1,0,0,0-.28.11c-.06,0-.11.08-.12.13l-.81,3.44a.15.15,0,0,0,.06.14.88.88,0,0,0,.22.1l.36.08h12.83a3.53,3.53,0,0,0,.46,0,2.66,2.66,0,0,0,.39-.07,1.09,1.09,0,0,0,.27-.11.28.28,0,0,0,.11-.13l.54-3.45a.11.11,0,0,0-.07-.12.7.7,0,0,0-.23-.11,1.36,1.36,0,0,0-.35-.07h-.44Z" transform="translate(0 0)"/><path class="cls-56" d="M607.38,380.77H594.82a1.69,1.69,0,0,0-.38.07.94.94,0,0,0-.28.1.25.25,0,0,0-.14.13l-1.13,3.44a.16.16,0,0,0,.05.14.65.65,0,0,0,.22.11l.35.07H606.8a2.7,2.7,0,0,0,.39-.08,1.33,1.33,0,0,0,.28-.1.35.35,0,0,0,.13-.14l.85-3.44a.13.13,0,0,0-.06-.13.57.57,0,0,0-.22-.11l-.35-.07h-.44Z" transform="translate(0 0)"/><path class="cls-56" d="M591.24,380.77H579.13a3.53,3.53,0,0,0-.85.1,1.66,1.66,0,0,0-.29.1.31.31,0,0,0-.15.13l-1.43,3.45a.15.15,0,0,0,0,.13.56.56,0,0,0,.2.11,2.17,2.17,0,0,0,.35.07h13.29l.4-.07a1.45,1.45,0,0,0,.29-.11.32.32,0,0,0,.14-.14l1.15-3.44a.11.11,0,0,0,0-.13.51.51,0,0,0-.21-.1,1.28,1.28,0,0,0-.34-.07h-.44Z" transform="translate(0 0)"/><path class="cls-56" d="M575.09,380.77H562.58l-.4.07a1.21,1.21,0,0,0-.3.11.33.33,0,0,0-.16.13L560,384.52a.11.11,0,0,0,0,.13.56.56,0,0,0,.2.11l.34.08h12.82a3.68,3.68,0,0,0,.47,0,2.57,2.57,0,0,0,.4-.07,1.33,1.33,0,0,0,.3-.11.28.28,0,0,0,.15-.13l1.47-3.45a.11.11,0,0,0,0-.13.68.68,0,0,0-.21-.1,1.28,1.28,0,0,0-.34-.07h-.48Z" transform="translate(0 0)"/><path class="cls-56" d="M558.65,380.78H538.38a2,2,0,0,0-.41.07,1.24,1.24,0,0,0-.31.1.38.38,0,0,0-.18.13l-2.2,3.44a.12.12,0,0,0,0,.14.42.42,0,0,0,.18.11l.33.07a3.23,3.23,0,0,0,.44,0H557l.42-.08a1,1,0,0,0,.3-.11.34.34,0,0,0,.16-.13l1.79-3.44a.11.11,0,0,0,0-.13.45.45,0,0,0-.19-.11,1.94,1.94,0,0,0-.33-.07h-.45Z" transform="translate(0 0)"/><path class="cls-56" d="M742,385.35H729.67a3.38,3.38,0,0,0-.45,0,1.37,1.37,0,0,0-.35.08.36.36,0,0,0-.21.11.11.11,0,0,0,0,.13l1.48,3.63a.4.4,0,0,0,.15.14,1.63,1.63,0,0,0,.31.11l.41.08h13.64a1.86,1.86,0,0,0,.34-.07.4.4,0,0,0,.21-.12.1.1,0,0,0,0-.14l-1.76-3.62a.36.36,0,0,0-.16-.14,1.82,1.82,0,0,0-.3-.11l-.41-.07H742Z" transform="translate(0 0)"/><path class="cls-56" d="M771.59,385.35H746.52a3.38,3.38,0,0,0-.45,0l-.34.07a.56.56,0,0,0-.2.11.12.12,0,0,0,0,.14l1.8,3.62a.39.39,0,0,0,.17.14,1.75,1.75,0,0,0,.32.12,3.07,3.07,0,0,0,.42.07h26.59a1.3,1.3,0,0,0,.34-.08.42.42,0,0,0,.18-.11.1.1,0,0,0,0-.14l-2.31-3.6a.46.46,0,0,0-.18-.13,1.17,1.17,0,0,0-.33-.11l-.43-.08h-.47Z" transform="translate(0 0)"/><path class="cls-56" d="M725.51,385.36H712.66a1.45,1.45,0,0,0-.35.07.65.65,0,0,0-.22.11c-.05,0-.07.09-.05.13l1.15,3.63a.32.32,0,0,0,.14.14,1.82,1.82,0,0,0,.3.11,2.83,2.83,0,0,0,.4.08h13.64l.35-.08a.57.57,0,0,0,.22-.11c0-.05.06-.09,0-.14l-1.45-3.63c0-.05-.07-.09-.14-.13a1,1,0,0,0-.3-.11l-.41-.08h-.43Z" transform="translate(0 0)"/><path class="cls-56" d="M709,385.36H696.1a2.29,2.29,0,0,0-.36.07.7.7,0,0,0-.23.11.14.14,0,0,0-.06.14l.83,3.62a.25.25,0,0,0,.13.14l.28.12.41.07h13.63a1.45,1.45,0,0,0,.36-.08.57.57,0,0,0,.22-.11.11.11,0,0,0,.05-.14l-1.11-3.63a.29.29,0,0,0-.14-.13,1,1,0,0,0-.28-.11,1.76,1.76,0,0,0-.4-.07Z" transform="translate(0 0)"/><path class="cls-56" d="M692.4,385.36H679.58a1.55,1.55,0,0,0-.36.08.82.82,0,0,0-.24.1s-.08.09-.07.14l.5,3.62a.24.24,0,0,0,.12.14.66.66,0,0,0,.27.12l.39.08h13.64a2.2,2.2,0,0,0,.37-.07.84.84,0,0,0,.23-.12.14.14,0,0,0,.07-.14l-.8-3.62a.21.21,0,0,0-.12-.14,1,1,0,0,0-.28-.11,2.66,2.66,0,0,0-.39-.07h-.51Z" transform="translate(0 0)"/><path class="cls-56" d="M675.85,385.36H663a2.45,2.45,0,0,0-.37.08.8.8,0,0,0-.25.11.16.16,0,0,0-.09.13l.18,3.63c0,.05,0,.09.1.14a1.53,1.53,0,0,0,.27.11l.39.08h13.63l.37-.08a.58.58,0,0,0,.25-.12.14.14,0,0,0,.07-.14l-.46-3.62a.21.21,0,0,0-.11-.13.81.81,0,0,0-.27-.11,1.61,1.61,0,0,0-.38-.08Z" transform="translate(0 0)"/><path class="cls-56" d="M659.29,385.37H646.43a1.69,1.69,0,0,0-.38.07.85.85,0,0,0-.26.11.19.19,0,0,0-.09.14l-.15,3.62a.19.19,0,0,0,.09.14,1.15,1.15,0,0,0,.25.12l.38.07h13.64a2.33,2.33,0,0,0,.38-.08,1.19,1.19,0,0,0,.26-.11.17.17,0,0,0,.09-.14l-.15-3.63a.15.15,0,0,0-.1-.13.85.85,0,0,0-.26-.11,1.61,1.61,0,0,0-.38-.08h-.46Z" transform="translate(0 0)"/><path class="cls-56" d="M642.74,385.37H629.87l-.38.07a1,1,0,0,0-.27.11.21.21,0,0,0-.12.14l-.46,3.62a.16.16,0,0,0,.07.14.64.64,0,0,0,.25.12l.38.08H642.5a3.68,3.68,0,0,0,.47,0l.39-.07a1.23,1.23,0,0,0,.26-.12.18.18,0,0,0,.1-.14l.18-3.62a.16.16,0,0,0-.08-.14.8.8,0,0,0-.25-.11l-.37-.07h-.46Z" transform="translate(0 0)"/><path class="cls-56" d="M626.18,385.37H613.31l-.39.08a1,1,0,0,0-.28.11c-.07,0-.11.08-.12.13l-.79,3.63a.15.15,0,0,0,.06.14.7.7,0,0,0,.23.11l.37.08a3.68,3.68,0,0,0,.47,0H626l.39-.08a.7.7,0,0,0,.28-.12.24.24,0,0,0,.12-.14l.5-3.62a.12.12,0,0,0-.08-.14.66.66,0,0,0-.24-.11,2.29,2.29,0,0,0-.36-.07Z" transform="translate(0 0)"/><path class="cls-56" d="M609.63,385.38H596.75a1.87,1.87,0,0,0-.4.07,1,1,0,0,0-.29.11.24.24,0,0,0-.13.13l-1.12,3.63a.12.12,0,0,0,0,.14,1,1,0,0,0,.23.12l.36.07a3.53,3.53,0,0,0,.46,0h12.7a3.84,3.84,0,0,0,.48,0,2.57,2.57,0,0,0,.4-.08,1.36,1.36,0,0,0,.28-.11c.07,0,.12-.09.13-.14l.83-3.63a.12.12,0,0,0-.06-.13.49.49,0,0,0-.23-.11,2.33,2.33,0,0,0-.36-.08h-.4Z" transform="translate(0 0)"/><path class="cls-56" d="M593,385.38H580.19a2.79,2.79,0,0,0-.4.07,1.21,1.21,0,0,0-.3.11.26.26,0,0,0-.15.14l-1.44,3.62a.12.12,0,0,0,0,.14.72.72,0,0,0,.21.12l.36.08H592.1l.41-.07.3-.12a.32.32,0,0,0,.14-.14l1.15-3.62a.12.12,0,0,0,0-.14.57.57,0,0,0-.22-.11,1.36,1.36,0,0,0-.35-.07H593Z" transform="translate(0 0)"/><path class="cls-56" d="M576.51,385.38H563.63a2,2,0,0,0-.41.08,1.15,1.15,0,0,0-.31.11.33.33,0,0,0-.16.13L561,389.33a.12.12,0,0,0,0,.14.53.53,0,0,0,.21.11l.34.08h13.64l.42-.08a1.34,1.34,0,0,0,.3-.12.29.29,0,0,0,.15-.14l1.48-3.62a.12.12,0,0,0,0-.14.53.53,0,0,0-.21-.11,1.86,1.86,0,0,0-.34-.07h-.46Z" transform="translate(0 0)"/><path class="cls-56" d="M774.69,390.2H740.58a1.37,1.37,0,0,0-.35.08.53.53,0,0,0-.21.11c0,.05-.06.09,0,.14l1.74,3.82a.41.41,0,0,0,.17.15,1.24,1.24,0,0,0,.32.12,3.43,3.43,0,0,0,.44.09,4.17,4.17,0,0,0,.5,0H777.6a3.53,3.53,0,0,0,.46,0l.35-.08a.62.62,0,0,0,.19-.12.11.11,0,0,0,0-.15l-2.47-3.82a.38.38,0,0,0-.19-.14,1.61,1.61,0,0,0-.33-.12l-.44-.08h-.48Z" transform="translate(0 0)"/><path class="cls-56" d="M736.82,390.2H723.63a2.33,2.33,0,0,0-.36.08.45.45,0,0,0-.21.12.12.12,0,0,0,0,.14l1.41,3.82a.54.54,0,0,0,.15.15,2,2,0,0,0,.31.12l.42.08a4.17,4.17,0,0,0,.5,0h13a3.68,3.68,0,0,0,.47,0,2.11,2.11,0,0,0,.36-.09.4.4,0,0,0,.21-.12.11.11,0,0,0,0-.15l-1.71-3.81a.36.36,0,0,0-.16-.14,1,1,0,0,0-.32-.12,3.1,3.1,0,0,0-.42-.08h-.46Z" transform="translate(0 0)"/><path class="cls-56" d="M719.85,390.21H706.64a1.53,1.53,0,0,0-.36.07.72.72,0,0,0-.23.12s-.08.09-.06.14l1.06,3.82a.26.26,0,0,0,.14.15,1.57,1.57,0,0,0,.3.12,3.1,3.1,0,0,0,.42.08,4,4,0,0,0,.49,0h13a3.68,3.68,0,0,0,.47,0l.36-.08a1,1,0,0,0,.23-.12.14.14,0,0,0,0-.15l-1.37-3.82a.32.32,0,0,0-.14-.14l-.3-.12a1.76,1.76,0,0,0-.4-.07h-.4Z" transform="translate(0 0)"/><path class="cls-56" d="M702.84,390.21H689.65a2.45,2.45,0,0,0-.37.08.74.74,0,0,0-.24.11c0,.05-.08.09-.07.14l.72,3.83a.25.25,0,0,0,.13.14,1.39,1.39,0,0,0,.28.12,1.86,1.86,0,0,0,.41.08,4,4,0,0,0,.49,0h13a3.68,3.68,0,0,0,.47,0,2.33,2.33,0,0,0,.38-.08.46.46,0,0,0,.23-.12.13.13,0,0,0,.06-.15l-1-3.82a.24.24,0,0,0-.14-.14,1,1,0,0,0-.29-.11,1.86,1.86,0,0,0-.41-.08h-.46Z" transform="translate(0 0)"/><path class="cls-56" d="M685.86,390.21h-13.2l-.38.08a.64.64,0,0,0-.25.12.15.15,0,0,0-.08.14l.38,3.82c0,.05,0,.1.11.15a1.39,1.39,0,0,0,.28.12l.4.08h14a1.61,1.61,0,0,0,.38-.08.55.55,0,0,0,.24-.12.16.16,0,0,0,.08-.14l-.69-3.83c0-.05,0-.09-.12-.14a1,1,0,0,0-.28-.11l-.4-.08a3.68,3.68,0,0,0-.47,0Z" transform="translate(0 0)"/><path class="cls-56" d="M668.86,390.21h-13.2a1.69,1.69,0,0,0-.38.07.68.68,0,0,0-.26.12.19.19,0,0,0-.09.14v3.82a.24.24,0,0,0,.09.15l.27.12.39.08a4,4,0,0,0,.49,0h13a4,4,0,0,0,.49,0l.39-.08a1.15,1.15,0,0,0,.25-.12.2.2,0,0,0,.09-.15l-.35-3.82a.18.18,0,0,0-.1-.14.7.7,0,0,0-.28-.12,2.7,2.7,0,0,0-.39-.08h-.41Z" transform="translate(0 0)"/><path class="cls-56" d="M651.88,390.22H639.15a3.68,3.68,0,0,0-.47,0,1.89,1.89,0,0,0-.4.08,1,1,0,0,0-.27.11c-.06,0-.1.09-.1.15l-.31,3.81a.16.16,0,0,0,.08.15.68.68,0,0,0,.26.12l.39.09h14l.4-.08a1.23,1.23,0,0,0,.26-.12.22.22,0,0,0,.1-.15v-3.82a.18.18,0,0,0-.1-.14,1.23,1.23,0,0,0-.26-.12,1.59,1.59,0,0,0-.38-.07h-.43Z" transform="translate(0 0)"/><path class="cls-56" d="M634.88,390.22H622.16a3.84,3.84,0,0,0-.48,0l-.4.08a.77.77,0,0,0-.28.12.21.21,0,0,0-.12.14l-.64,3.82a.15.15,0,0,0,.07.15l.24.12.38.08h14a2.59,2.59,0,0,0,.4-.09,1.18,1.18,0,0,0,.28-.12.22.22,0,0,0,.11-.14l.34-3.82a.18.18,0,0,0-.08-.15.8.8,0,0,0-.25-.11,1.8,1.8,0,0,0-.39-.08,3.68,3.68,0,0,0-.47,0Z" transform="translate(0 0)"/><path class="cls-56" d="M617.9,390.23H604.69a2,2,0,0,0-.41.07,1.48,1.48,0,0,0-.29.12.25.25,0,0,0-.13.14l-1,3.82a.17.17,0,0,0,.06.15,1,1,0,0,0,.23.12l.38.08h14l.41-.08.29-.12a.29.29,0,0,0,.12-.15l.68-3.82a.13.13,0,0,0-.07-.14.55.55,0,0,0-.24-.12,1.53,1.53,0,0,0-.37-.08h-.42Z" transform="translate(0 0)"/><path class="cls-56" d="M600.91,390.23H587.69a2,2,0,0,0-.41.08,1.21,1.21,0,0,0-.3.11.24.24,0,0,0-.14.14l-1.33,3.82a.14.14,0,0,0,0,.15.48.48,0,0,0,.22.12,2.45,2.45,0,0,0,.37.08h14l.41-.08a1.34,1.34,0,0,0,.3-.12.4.4,0,0,0,.14-.15l1-3.82a.12.12,0,0,0,0-.14,1,1,0,0,0-.23-.12,1.53,1.53,0,0,0-.36-.07h-.46Z" transform="translate(0 0)"/><path class="cls-56" d="M583.92,390.23H570.7l-.42.08a1.15,1.15,0,0,0-.31.11.36.36,0,0,0-.15.15l-1.68,3.82a.12.12,0,0,0,0,.14.45.45,0,0,0,.21.12,2.37,2.37,0,0,0,.36.09h14a3.15,3.15,0,0,0,.42-.09,1.43,1.43,0,0,0,.31-.12.28.28,0,0,0,.15-.15l1.37-3.82a.11.11,0,0,0-.05-.14.57.57,0,0,0-.22-.11,1.37,1.37,0,0,0-.35-.08h-.43Z" transform="translate(0 0)"/><path class="cls-56" d="M560.22,385.39H535.5a2,2,0,0,0-.42.07,1.21,1.21,0,0,0-.32.11.4.4,0,0,0-.18.14l-2.32,3.62a.12.12,0,0,0,0,.14.62.62,0,0,0,.19.12,1.94,1.94,0,0,0,.33.07h25.74l.42-.08a1.73,1.73,0,0,0,.32-.11c.08-.05.14-.09.16-.14l1.8-3.63a.11.11,0,0,0,0-.13.31.31,0,0,0-.2-.11,2,2,0,0,0-.33-.08h-.47Z" transform="translate(0 0)"/><path class="cls-56" d="M566.24,390.23H532.42a2.26,2.26,0,0,0-.44.08,1.42,1.42,0,0,0-.33.11.62.62,0,0,0-.19.14L529,394.43a.12.12,0,0,0,0,.14.39.39,0,0,0,.19.12,1.3,1.3,0,0,0,.34.08h35.1l.43-.08.32-.12a.46.46,0,0,0,.16-.15l1.72-3.82a.1.1,0,0,0,0-.14.37.37,0,0,0-.2-.12,2,2,0,0,0-.35-.08h-.46Z" transform="translate(0 0)"/><path class="cls-56" d="M542.7,395.35h-13a4.34,4.34,0,0,0-.51,0l-.45.08-.34.12a.48.48,0,0,0-.2.15l-2.57,4a.11.11,0,0,0,0,.15.5.5,0,0,0,.19.13,2,2,0,0,0,.35.09h14.34L541,400a2,2,0,0,0,.34-.13.49.49,0,0,0,.19-.16l2.27-4a.11.11,0,0,0,0-.15.82.82,0,0,0-.2-.12,1.37,1.37,0,0,0-.35-.08,3.68,3.68,0,0,0-.47,0Z" transform="translate(0 0)"/><path class="cls-56" d="M560.13,395.35h-13a4.17,4.17,0,0,0-.5,0l-.44.08-.34.12a.52.52,0,0,0-.18.15l-2.21,4a.15.15,0,0,0,0,.16.63.63,0,0,0,.2.13l.36.08h14.34l.45-.09a1.61,1.61,0,0,0,.33-.12.3.3,0,0,0,.17-.16l1.9-4a.14.14,0,0,0,0-.15.4.4,0,0,0-.21-.12,1.37,1.37,0,0,0-.35-.08,3.68,3.68,0,0,0-.47,0Z" transform="translate(0 0)"/><path class="cls-56" d="M577.48,395.34H564a3.29,3.29,0,0,0-.43.09,1.1,1.1,0,0,0-.33.12.35.35,0,0,0-.17.15l-1.85,4a.12.12,0,0,0,0,.16.45.45,0,0,0,.21.12,2.49,2.49,0,0,0,.37.09h14.33a3.12,3.12,0,0,0,.44-.09,1.27,1.27,0,0,0,.32-.13.33.33,0,0,0,.16-.15l1.54-4a.14.14,0,0,0,0-.15.61.61,0,0,0-.22-.13,2.33,2.33,0,0,0-.36-.08h-.51Z" transform="translate(0 0)"/><path class="cls-56" d="M598.79,395.34h-17.5l-.42.08a1.2,1.2,0,0,0-.31.13.29.29,0,0,0-.16.15l-1.49,4a.14.14,0,0,0,0,.15.5.5,0,0,0,.22.13,2.49,2.49,0,0,0,.37.09h18.39l.43-.08a1.69,1.69,0,0,0,.31-.13c.08-.05.13-.1.14-.16l1.1-4a.14.14,0,0,0-.06-.15.51.51,0,0,0-.23-.12,2.21,2.21,0,0,0-.37-.08,3.84,3.84,0,0,0-.48,0Z" transform="translate(0 0)"/><path class="cls-56" d="M708,395.32H690.56a2.57,2.57,0,0,0-.38.08l-.24.12a.15.15,0,0,0-.07.15l.76,4a.27.27,0,0,0,.13.15,1.14,1.14,0,0,0,.3.13l.42.08a4.17,4.17,0,0,0,.5,0h17.46a4,4,0,0,0,.49,0l.38-.08a.65.65,0,0,0,.23-.13.13.13,0,0,0,.06-.16l-1.16-4a.34.34,0,0,0-.14-.15,1.34,1.34,0,0,0-.3-.12l-.42-.08H708Z" transform="translate(0 0)"/><path class="cls-56" d="M725.81,395.31H712.26a1.63,1.63,0,0,0-.37.08.57.57,0,0,0-.23.12.17.17,0,0,0,0,.15l1.2,4a.33.33,0,0,0,.15.16,1.69,1.69,0,0,0,.31.13l.44.08a4.17,4.17,0,0,0,.5,0H727.6a4,4,0,0,0,.49,0,2.22,2.22,0,0,0,.37-.09.84.84,0,0,0,.23-.12.15.15,0,0,0,0-.16l-1.53-4a.29.29,0,0,0-.16-.15.84.84,0,0,0-.31-.12,2.1,2.1,0,0,0-.42-.09h-.46Z" transform="translate(0 0)"/><path class="cls-56" d="M686.74,395.32H602.56l-.41.08a.94.94,0,0,0-.3.12c-.08,0-.13.1-.14.15l-1.06,4a.17.17,0,0,0,.06.16.7.7,0,0,0,.24.13l.38.08h86.73a2.46,2.46,0,0,0,.39-.09.75.75,0,0,0,.25-.13c.06-.05.09-.1.08-.15l-.72-4a.24.24,0,0,0-.13-.15,1.48,1.48,0,0,0-.29-.12l-.41-.08Z" transform="translate(0 0)"/><path class="cls-56" d="M553.42,376.4H541.17l-.4.07a1.86,1.86,0,0,0-.31.1.45.45,0,0,0-.16.12L538.2,380a.11.11,0,0,0,0,.13.4.4,0,0,0,.18.1l.32.07h13l.41-.07a1.33,1.33,0,0,0,.3-.11.52.52,0,0,0,.17-.12l1.83-3.28a.09.09,0,0,0,0-.12.44.44,0,0,0-.19-.1,1.65,1.65,0,0,0-.32-.07h-.44Z" transform="translate(0 0)"/><path class="cls-56" d="M755,373.69H741.79a1.73,1.73,0,0,0-.31.07.37.37,0,0,0-.19.09.13.13,0,0,0,0,.12l.85,1.67a.44.44,0,0,0,.15.12l.29.1.39.06h13.87l.32-.07a.51.51,0,0,0,.18-.09s0-.08,0-.12l-1-1.67c0-.05-.07-.08-.15-.12a1,1,0,0,0-.3-.1,2.32,2.32,0,0,0-.38-.06H755Z" transform="translate(0 0)"/><path class="cls-56" d="M588.83,373.72H576a3.23,3.23,0,0,0-.44,0,2.5,2.5,0,0,0-.38.06.94.94,0,0,0-.28.1.39.39,0,0,0-.14.12l-.75,1.67v.12a.72.72,0,0,0,.2.09,1.94,1.94,0,0,0,.33.07h13.87l.38-.07a1.33,1.33,0,0,0,.28-.1.33.33,0,0,0,.14-.12l.6-1.66a.09.09,0,0,0,0-.12.54.54,0,0,0-.2-.1,1.65,1.65,0,0,0-.32-.06,3.09,3.09,0,0,0-.43,0Z" transform="translate(0 0)"/><path class="cls-56" d="M572.21,373.73H558.94l-.39.07a1.61,1.61,0,0,0-.29.09.29.29,0,0,0-.15.12l-.91,1.67a.09.09,0,0,0,0,.12.61.61,0,0,0,.18.09,1.73,1.73,0,0,0,.31.07,2.94,2.94,0,0,0,.42,0h13a3.38,3.38,0,0,0,.45,0,2.66,2.66,0,0,0,.39-.07,1.4,1.4,0,0,0,.29-.09.33.33,0,0,0,.14-.12l.77-1.67a.13.13,0,0,0,0-.12.44.44,0,0,0-.19-.1,1.65,1.65,0,0,0-.32-.06h-.43Z" transform="translate(0 0)"/><path class="cls-56" d="M764.35,373.69H757.9l-.24.05a.55.55,0,0,0-.15.08.09.09,0,0,0,0,.1l1.07,1.79a.38.38,0,0,0,.13.09l.24.08.32.05h6.89l.25-.05.14-.08a.07.07,0,0,0,0-.1l-1.16-1.79a.3.3,0,0,0-.13-.09l-.24-.08-.31-.05Z" transform="translate(0 0)"/><path class="cls-56" d="M744.19,397.6H730.07a1.53,1.53,0,0,0-.29.07.46.46,0,0,0-.18.1.13.13,0,0,0,0,.12l.73,1.9a.37.37,0,0,0,.13.12l.26.11a2.14,2.14,0,0,0,.35.06h14.7A1.28,1.28,0,0,0,746,400a.37.37,0,0,0,.17-.1.09.09,0,0,0,0-.12l-.88-1.9a.22.22,0,0,0-.13-.12.79.79,0,0,0-.27-.1,2,2,0,0,0-.35-.07h-.4Z" transform="translate(0 0)"/><path class="cls-56" d="M762,397.59H747.93a1.53,1.53,0,0,0-.29.07.42.42,0,0,0-.17.1.13.13,0,0,0,0,.12l.91,1.9a.37.37,0,0,0,.13.12l.27.1a2.29,2.29,0,0,0,.36.07h14.68l.28-.07a.34.34,0,0,0,.16-.1.11.11,0,0,0,0-.13l-1-1.9a.26.26,0,0,0-.15-.12,1.48,1.48,0,0,0-.27-.1,2,2,0,0,0-.35-.06H762Z" transform="translate(0 0)"/><path class="cls-56" d="M760.68,395.12H746.74a1,1,0,0,0-.28.07.32.32,0,0,0-.17.09.13.13,0,0,0,0,.12l.89,1.85a.25.25,0,0,0,.13.12,1.17,1.17,0,0,0,.26.1l.35.07h14.5l.28-.07a.34.34,0,0,0,.16-.1.09.09,0,0,0,0-.12l-1-1.85a.44.44,0,0,0-.15-.12,1.17,1.17,0,0,0-.26-.1c-.11,0-.23-.05-.35-.06h-.42Z" transform="translate(0 0)"/><path class="cls-56" d="M779.68,397.59H765.57a1.4,1.4,0,0,0-.28.06.39.39,0,0,0-.16.1.13.13,0,0,0,0,.12l1.09,1.9a.32.32,0,0,0,.15.13,1.48,1.48,0,0,0,.27.1l.36.07h14.7A1.27,1.27,0,0,0,782,400a.36.36,0,0,0,.16-.11.13.13,0,0,0,0-.12l-1.24-1.9a.35.35,0,0,0-.15-.12,1.33,1.33,0,0,0-.28-.1l-.36-.07h-.43Z" transform="translate(0 0)"/><path class="cls-65" d="M768.59,217.3v3.9H540.27v-3.9c0-4.57,3.15-8.27,8.54-8.27H760C765.73,209,768.59,211.89,768.59,217.3Z" transform="translate(0 0)"/><circle class="cls-66" cx="739.39" cy="215.12" r="2.3"/><circle class="cls-48" cx="747.66" cy="215.12" r="2.3"/><path class="cls-67" d="M758.23,215.11a2.31,2.31,0,1,1-2.32-2.3h0A2.3,2.3,0,0,1,758.23,215.11Z" transform="translate(0 0)"/><path class="cls-68" d="M746.69,355.89l1.65.41,1.62-.41V343.15H760.4v-2.94H750v-9.53h-3.27v9.53H736.24v2.94h10.45Z" transform="translate(0 0)"/><path class="cls-68" d="M750,325.68c1.83.14,1.83,1.29,2.27,1.83.17.2-1.45.67-3.15.2-.54-.24-1-1.52-1.14-1.69a3.47,3.47,0,0,1,2-.34Zm7.3,2c1.69.47,2.77,0,2.94-.3s-.23-1.59-2.06-1.73a3.47,3.47,0,0,0-2,.34c.14.17.58,1.46,1.15,1.69Zm-15.47-2.06c1.79.17,1.82,1.28,2.26,1.82.17.2-1.45.68-3.14.2-.54-.23-1-1.52-1.15-1.69a3.83,3.83,0,0,1,2-.37Z" transform="translate(0 0)"/><path class="cls-69" d="M761.48,322.37a10.71,10.71,0,0,0-2-.31,15.2,15.2,0,0,0-2.13.11,13.84,13.84,0,0,1-3.28,0,2.4,2.4,0,0,0-1.15.17,2.25,2.25,0,0,1,.24-.21,4.61,4.61,0,0,1,1.28-1.25l.44-.23a2.61,2.61,0,0,0,2.37,0,2.42,2.42,0,0,0,2.77,0,1.69,1.69,0,0,0,.61-1.32,2.74,2.74,0,0,0-.07-.5,1.8,1.8,0,0,0-1.65-1.18,3.89,3.89,0,0,0-.21-.51,3.15,3.15,0,0,0,.24-.3c.07-.11.34-.51-.34-.17l-.16.1a2.34,2.34,0,0,0-.31-.24,3,3,0,0,0-2.33-.2,1.78,1.78,0,0,0-.71-1.08,2,2,0,0,0-1.45-.2.75.75,0,0,1,.1-.2c.24-.54.1-.68-.14-.44a7.84,7.84,0,0,1-.64.6,3.39,3.39,0,0,0-2.09-1.65,3.19,3.19,0,0,0-2.23.24,3.44,3.44,0,0,0-.14-.81c-.14-.44-.3-.11-.3,0s-.07.44-.11.71a3,3,0,0,0-2.23-.27,2.83,2.83,0,0,0-1.79,1.69,3.71,3.71,0,0,0-.81-.21,4.09,4.09,0,0,0-.67-.71c-.21-.16-.37-.1-.27.28a1.35,1.35,0,0,0,.13.37,2.27,2.27,0,0,0-1.28.44,2.24,2.24,0,0,0-.85,1.45.06.06,0,0,0-.06,0,2,2,0,0,0-1.49.92.14.14,0,0,1-.13-.11c-1.19-.77-.65.24-.17.68-1.59.23-2,1-2.13,1.42a.74.74,0,0,0,0,.33,1.68,1.68,0,0,0,.71,1.31,1.49,1.49,0,0,0,1.73,0,3,3,0,0,0,2.53-.34c.32.35.65.68,1,1a5.14,5.14,0,0,0,1.52,1,3.14,3.14,0,0,0-1.52-.2,10.07,10.07,0,0,1-2.63-.1,14.35,14.35,0,0,0-2.27.06,12.42,12.42,0,0,0-1.48.27c-.37.07-.34.31.17.44a16.5,16.5,0,0,1,1.65.34,8.1,8.1,0,0,0,3.11.58,3.31,3.31,0,0,1,1.52.33,7.66,7.66,0,0,0,1.49.34v.71c-.14,0-.24.1-.37.14a4.7,4.7,0,0,0-4.06-.07,3.54,3.54,0,0,0-2.56-.24,1.55,1.55,0,0,0-.78,2.54,1.68,1.68,0,0,0,2.3.27,2,2,0,0,0,2.26,0,5.78,5.78,0,0,0,3.85,0c1.4.06,2.8.06,4.19,0a3.17,3.17,0,0,0,1.93.38c1.42,0,1.75-.24,2-.41a24.6,24.6,0,0,0,4.29.07,4.91,4.91,0,0,0,3.44-.07c.88-.61.44-1.82-.5-2.4a4.53,4.53,0,0,0-4.06,0,4.12,4.12,0,0,0-2.9-.38,1.85,1.85,0,0,0,0-.47v-.07a3.68,3.68,0,0,1,1.25-.37c.94-.06,3.14,0,4.22-.6.64-.34,2.81-.75,3.11-.92s.2-.34,0-.44Zm-8-1.29c-.78.95-1.19,1.26-1.32,1.26a3.35,3.35,0,0,0-.71-.88c.27-.31,1.52-.88,2.1-1.32l.44-.27a2.68,2.68,0,0,0,.54.47A5.11,5.11,0,0,0,753.48,321.08ZM742,319a2.43,2.43,0,0,0,2-.58c.71,1.12.71,2.1,1.38,2.81-.84-.81-1.58-.81-2.8-1.45-.2-.11-.51-.31-.61-.37s0-.21,0-.34S742,319.09,742,319Zm5.13,1.25s-.34-.51-.37-.58-.3-.37-.47-.61a7.49,7.49,0,0,0-.75-.84,3.6,3.6,0,0,0,1.62-.95.6.6,0,0,1,.21.14,2.66,2.66,0,0,1-.11.47c-.13.75-.13,1.32-.16,1.56a7.3,7.3,0,0,0,.05.84Zm-1-.68a6.36,6.36,0,0,1,.61,1,6.87,6.87,0,0,0-.94.47,12.67,12.67,0,0,1-1.09-2.33,1.45,1.45,0,0,1-.2-.34,3.83,3.83,0,0,0,.58.07,5.58,5.58,0,0,1,1,1.16Zm2.17,1.08a4.09,4.09,0,0,1,4.12,4.08v.05a3.11,3.11,0,0,1,0,.61,5.63,5.63,0,0,0-.75.27,4.08,4.08,0,0,0-4,0,4.8,4.8,0,0,0-3.45-.34,5.29,5.29,0,0,0-.07-.54,4.15,4.15,0,0,1,4.13-4.13Zm-.58-1.58a9.13,9.13,0,0,1,.2-1.39l.54.2a6.15,6.15,0,0,1,.31,2.37,4.18,4.18,0,0,0-1,0,5,5,0,0,1-.08-1.15Zm3.65.1c-.24.5-.1,1.15-.71,1.72a6.35,6.35,0,0,0-.91-.44,4.21,4.21,0,0,1,1.32-2.2,2.31,2.31,0,0,0,.54.44,4.11,4.11,0,0,0-.27.51ZM752,319a.22.22,0,0,1,.07-.14,4,4,0,0,0,1.42.14,5.38,5.38,0,0,0,.2.51c-.24.1-.94.6-2,1.18a1.9,1.9,0,0,0-.54.4,3.3,3.3,0,0,0,.34-.57A5.79,5.79,0,0,1,752,319Zm-2.53.61a3.84,3.84,0,0,0-.2.6A6.33,6.33,0,0,0,749,318a3.39,3.39,0,0,0,1.62-.44,1,1,0,0,0,.17.33,5.35,5.35,0,0,0-1.32,1.8Zm-8.45.64a2.49,2.49,0,0,1-2.26.3.21.21,0,0,0-.24,0,1,1,0,0,1-1.25.07,1.13,1.13,0,0,1-.47-1.15c.14-.57.84-1,1.93-1.08a.3.3,0,0,0,.23-.2c.2-1,.85-1.12,1.45-1.25l.28-.07a.2.2,0,0,0,.17-.23.06.06,0,0,0,0,0,1.73,1.73,0,0,1,.65-1.22,2.63,2.63,0,0,1,2.63,0,.23.23,0,0,0,.2,0,.32.32,0,0,0,.14-.14,2.32,2.32,0,0,1,1.55-1.58,2.5,2.5,0,0,1,2.27.44.27.27,0,0,0,.3,0,2.72,2.72,0,0,1,2.2-.38,3.26,3.26,0,0,1,2,1.76.32.32,0,0,0,.31.14,2.23,2.23,0,0,1,1.79,0,1.35,1.35,0,0,1,.57,1,.33.33,0,0,0,.1.17.38.38,0,0,0,.21,0,2.55,2.55,0,0,1,2.16.1,1.26,1.26,0,0,1,.64.94.23.23,0,0,0,.24.21,1.43,1.43,0,0,1,1.38.84,1.22,1.22,0,0,1-.37,1.28,2.09,2.09,0,0,1-2.29-.06.33.33,0,0,0-.24,0,2.13,2.13,0,0,1-2.06.06,2.31,2.31,0,0,1-1.22-1.52.19.19,0,0,0-.1-.17.23.23,0,0,0-.2,0c-.51.07-2.23.24-2.6-1.42a.39.39,0,0,0-.14-.17.32.32,0,0,0-.24.07,2.56,2.56,0,0,1-3.27-.17.25.25,0,0,0-.34,0c-1.22,1.22-2.2,1.15-2.67,1a.27.27,0,0,0-.31.1,2,2,0,0,1-2.16.67.21.21,0,0,0-.24,0,.28.28,0,0,0-.1.24,1.87,1.87,0,0,1-.61,1.52Zm.58.2a2.47,2.47,0,0,0,.3-.61.49.49,0,0,1,.14.11s.4.27.64.4a11.38,11.38,0,0,1,2.4,1.18,3.61,3.61,0,0,0-.68.91,6.26,6.26,0,0,1-2.82-2Zm.77,3.35a4.2,4.2,0,0,0-1.52-.34,7.71,7.71,0,0,1-3-.51c-.17-.06-1.59-.2-.2-.2a9.55,9.55,0,0,1,2,0,14.16,14.16,0,0,0,2.91.07,1.81,1.81,0,0,1,1.48.44,5.26,5.26,0,0,0-.17.88,5.66,5.66,0,0,1-1.45-.34Zm-3.51,3.78c-.64-.44-1-1.28-1.49-1.15-.17.07-.2.41,0,.41s.47.47.67.67c0,.24-.67.51-1.35.11a1.14,1.14,0,0,1-.37-1.53,1.75,1.75,0,0,1,1.62-.57c1.45,0,1.89,1.69,2.23,2a1.14,1.14,0,0,1-1.33.09Zm2.13,0c-.54-.24-1-1.52-1.15-1.69a3.47,3.47,0,0,1,2-.34c1.82.17,1.82,1.28,2.26,1.82.17.24-1.49.68-3.14.21Zm5.91.13a9.26,9.26,0,0,1-.88-1c-.17-.23-.51-.44-.67-.23s0,.27.16.34a2.69,2.69,0,0,1,.65.77.9.9,0,0,1-1.28-.06l0,0c-.24-.3-.71-1.18-1-1.55a4.42,4.42,0,0,1,3.14-.11c.84.41,1,1.29,1.32,1.73.06.3-.88.47-1.39.13Zm2.26,0c-.54-.24-1-1.52-1.14-1.69a3.47,3.47,0,0,1,2-.34c1.83.17,1.83,1.29,2.27,1.83.17.2-1.45.67-3.15.2Zm9.06-2.09c1.83.16,2.23,1.35,2.06,1.72s-1.25.78-2.94.3c-.54-.23-1-1.52-1.14-1.69a3.17,3.17,0,0,1,2-.33Zm-3.07.26c.84.41,1,1.29,1.31,1.73.07.3-.94.37-1.38.13a9.26,9.26,0,0,1-.88-1c-.17-.23-.47-.37-.61-.17s0,.28.17.34a2.11,2.11,0,0,1,.58.71c0,.17-.75.4-1.29-.13a11.07,11.07,0,0,1-.94-1.59,4.3,4.3,0,0,1,3-.05Zm4.86-3.14a14.08,14.08,0,0,0-2,.54,13.62,13.62,0,0,1-3.92.51c-.81,0-1,.34-1.35.3a3.19,3.19,0,0,0-.27-1.05,3.61,3.61,0,0,1,1.65-.33,23,23,0,0,0,3.32,0c.4-.06,1.89-.06,2.09-.06h.51c.39,0,.12,0,0,.06Z" transform="translate(0 0)"/><path class="cls-69" d="M738.81,319.23a1.3,1.3,0,0,0-1.11.34c-.34.37-.24.54-.31.6s-.3-.06-.3-.23c0-.85,1-1.19,1.65-1.12.24,0,.27.41.07.41" transform="translate(0 0)"/><path class="cls-69" d="M740.64,317.81a.92.92,0,0,0-1,.74c0,.14-.41,0-.34-.23a1.25,1.25,0,0,1,1.35-.92c.07,0,0,.41-.06.41" transform="translate(0 0)"/><path class="cls-69" d="M743.44,316.08a1.35,1.35,0,0,0-1.78.69,1.24,1.24,0,0,0-.11.43c0,.1-.41.07-.34-.24a1.78,1.78,0,0,1,2.07-1.41,1.26,1.26,0,0,1,.33.1c.13,0,0,.5-.17.43" transform="translate(0 0)"/><path class="cls-69" d="M747.7,314.94a1.65,1.65,0,0,0-2.31.34l0,0c-.21.23-.44-.17-.34-.31a1.91,1.91,0,0,1,2.61-.67l.23.17c.13.13,0,.54-.17.44" transform="translate(0 0)"/><path class="cls-69" d="M752,315.92c-.11.06-.14-.07-.21-.17a1.92,1.92,0,0,0-2.61-.79,1.84,1.84,0,0,0-.5.38c-.1.14-.33-.24-.2-.44a2.31,2.31,0,0,1,3.28,0,1.93,1.93,0,0,1,.41.57c.1.2-.07.34-.17.41" transform="translate(0 0)"/><path class="cls-69" d="M754.69,316.86c-.27-.71-.77-.67-1.35-.47-.27.1-.2-.37-.1-.41.58-.2,1.56-.3,1.82.68,0,.27-.3.4-.37.2" transform="translate(0 0)"/><path class="cls-69" d="M757.8,318.35a1.38,1.38,0,0,0-1.85-.66l0,0c-.14.06-.27-.31,0-.44a1.57,1.57,0,0,1,2.15.6,1.28,1.28,0,0,1,.11.24c.07.2-.2.54-.34.24" transform="translate(0 0)"/><path class="cls-69" d="M759.76,319.73c0,.14-.4.17-.37,0,.07-.7-.3-.77-.77-.77-.17,0-.17-.37,0-.41a1,1,0,0,1,1.18.78.9.9,0,0,1,0,.4" transform="translate(0 0)"/><path class="cls-69" d="M747.43,323.42a.48.48,0,0,1-.95-.07v-.06c0-.07-.27-.14-.58.06s-.33,0-.06-.2a1.51,1.51,0,0,1,.81-.44,3.34,3.34,0,0,1,1.22.17c.1,0,0,.57,0,.54a.75.75,0,0,0-.44-.07Z" transform="translate(0 0)"/><path class="cls-69" d="M748.78,324.87c-.07.24-.95.34-1.12,0-.06-.13-.13-.44,0-.37a2.8,2.8,0,0,0,1,0c.11,0,0-.2.11-.17s.13.3,0,.54" transform="translate(0 0)"/><path class="cls-69" d="M750.84,323.52c-.2-.17-.5-.27-.61-.17h0a.46.46,0,0,1-.43.5.47.47,0,0,1-.51-.43h0a1,1,0,0,0-.48,0s-.13-.51,0-.58c.41-.17,1.76-.23,2.13.51,0,.1,0,.21-.1.14" transform="translate(0 0)"/><path class="cls-69" d="M750.5,330.68h9.91v9H750.5Zm-14.26,0h9.91v9h-9.91Zm9.94,25a16.8,16.8,0,0,1-6.62-3.24,8.87,8.87,0,0,1-1.46-1.72h2.54v.37h1.18v-.37h2.84v-4.8H744V345a10.2,10.2,0,0,1-2.06-.2,1.18,1.18,0,0,0-.75.2,1.29,1.29,0,0,0-.74-.2,10.2,10.2,0,0,1-2.06.2v.88h-.61v4.29A13.24,13.24,0,0,1,736.3,344v-.37h9.91Zm-7.27-5.91v-4.12a13.82,13.82,0,0,0,1.59-.21c.34,0,.44.17.44.17v4.16a1.44,1.44,0,0,0-1.15,0c-.64.26-.88,0-.88,0Zm2.64,0v-4.16s.1-.2.44-.17a10.83,10.83,0,0,0,1.59.21v4.12s-.24.17-.85,0a1.54,1.54,0,0,0-1.18,0Zm8.41,6.08-1.65.41-1.62-.44V343.15H736.24v-2.93h10.45v-9.54H750v9.54h10.41v2.93H750Zm9-5.57V346h-.61v-.88a9.53,9.53,0,0,1-2.06-.2,1.18,1.18,0,0,0-.75.2,1.15,1.15,0,0,0-.74-.2,9.53,9.53,0,0,1-2.06.2V346h-.61v4.8H755v.37h1.18v-.37h2.57a10.57,10.57,0,0,1-1.49,1.72,16.77,16.77,0,0,1-6.66,3.21v-12h9.9v.41a13.76,13.76,0,0,1-1.51,6.22Zm-1.12-4.67v4.13s-.24.17-.84,0c-.81-.24-1.15,0-1.15,0v-4.16s.1-.2.44-.17c.61,0,1.21.24,1.55.17Zm-2.63,0v4.16a1.44,1.44,0,0,0-1.15,0c-.61.17-.85,0-.85,0v-4.13a13.81,13.81,0,0,0,1.59-.2c.34,0,.41.2.41.2ZM735.64,330v13.32c0,4.39,1.08,7.43,3.44,9.56s5.81,3.21,9.23,4c3.51-.84,6.89-1.86,9.22-4s3.45-5.17,3.45-9.56V330Z" transform="translate(0 0)"/><path class="cls-69" d="M744,333v-.88A10.2,10.2,0,0,1,742,332a1.18,1.18,0,0,0-.75.2,1.29,1.29,0,0,0-.74-.2,10.2,10.2,0,0,1-2.06.2V333h-.61v4.8h2.84v.37h1.18v-.37h2.84V333Zm-3.14,3.82a1.53,1.53,0,0,0-1.15,0c-.61.17-.85,0-.85,0v-4.12a13.81,13.81,0,0,0,1.59-.2c.34,0,.44.17.44.17Zm2.63,0s-.24.17-.84,0a1.46,1.46,0,0,0-1.15,0v-4.16s.1-.2.44-.17a12.34,12.34,0,0,0,1.59.2Z" transform="translate(0 0)"/><path class="cls-69" d="M758.31,333v-.88a10.2,10.2,0,0,1-2.06-.2,1.18,1.18,0,0,0-.75.2,1.15,1.15,0,0,0-.74-.2,10.2,10.2,0,0,1-2.06.2V333h-.61v4.8h2.84v.37h1.18v-.37H759V333Zm-3.21,3.82a1.53,1.53,0,0,0-1.15,0c-.61.17-.84,0-.84,0v-4.12c.53,0,1.06-.11,1.58-.2.34,0,.44.17.44.17v4.19Zm2.64,0s-.24.17-.85,0a1.46,1.46,0,0,0-1.15,0v-4.16a.42.42,0,0,1,.44-.17,12.34,12.34,0,0,0,1.59.2v4.09Z" transform="translate(0 0)"/><path class="cls-51" d="M750.5,355.72a16.9,16.9,0,0,0,6.66-3.21,9,9,0,0,0,1.49-1.72H756v.37h-1.18v-.37H752V346h.61v-.88a9.53,9.53,0,0,0,2.06-.2,1.15,1.15,0,0,1,.74.2,1.34,1.34,0,0,1,.75-.2,9.53,9.53,0,0,0,2.06.2V346h.61v4.33a13.48,13.48,0,0,0,1.49-6.22v-.41h-9.91v12Z" transform="translate(0 0)"/><path class="cls-51" d="M736.28,344a13.61,13.61,0,0,0,1.52,6.19v-4.29h.61v-.88a10.2,10.2,0,0,0,2.06-.2,1.15,1.15,0,0,1,.74.2,1.34,1.34,0,0,1,.75-.2,10.2,10.2,0,0,0,2.06.2v.88h.61v4.8h-2.85v.37H740.6v-.37H738a9.94,9.94,0,0,0,1.45,1.72,16.66,16.66,0,0,0,6.62,3.24v-12h-9.9Z" transform="translate(0 0)"/><path class="cls-51" d="M740.91,349.81v-4.16a.42.42,0,0,0-.44-.17,10.48,10.48,0,0,1-1.59.21v4.12s.23.17.84,0C740.57,349.57,740.91,349.81,740.91,349.81Z" transform="translate(0 0)"/><path class="cls-51" d="M737.87,323a7.9,7.9,0,0,0,3,.51,4.42,4.42,0,0,1,1.53.34,5.86,5.86,0,0,0,1.42.33,5.14,5.14,0,0,1,.16-.88,1.89,1.89,0,0,0-1.48-.44,11.81,11.81,0,0,1-2.91-.06,8.36,8.36,0,0,0-2,0c-1.39,0,.07.13.24.2Z" transform="translate(0 0)"/><path class="cls-51" d="M740.5,332.51a11.91,11.91,0,0,1-1.59.2v4.12s.24.17.85,0c.81-.23,1.14,0,1.14,0v-4.16A.39.39,0,0,0,740.5,332.51Z" transform="translate(0 0)"/><path class="cls-51" d="M756.15,332.51c-.34,0-.44.17-.44.17v4.15a1.53,1.53,0,0,1,1.15,0c.6.17.84,0,.84,0v-4.12a9,9,0,0,1-1.55-.17Z" transform="translate(0 0)"/><path class="cls-51" d="M760.41,330.68H750.5v9h9.91Zm-1.49,7.17H756v.37h-1.18v-.37H752V333h.61v-.88a10.2,10.2,0,0,0,2.06-.2,1.15,1.15,0,0,1,.74.2,1.34,1.34,0,0,1,.75-.2,10.2,10.2,0,0,0,2.06.2V333h.61Z" transform="translate(0 0)"/><path class="cls-51" d="M755.81,345.65v4.16a1.44,1.44,0,0,1,1.15,0c.61.17.84,0,.84,0v-4.13a14.39,14.39,0,0,1-1.59-.2.41.41,0,0,0-.4.2Z" transform="translate(0 0)"/><path class="cls-51" d="M753.17,345.65v4.13s.24.17.85,0c.81-.24,1.14,0,1.14,0v-4.16s-.1-.2-.44-.17c-.6,0-1.17.24-1.55.17Z" transform="translate(0 0)"/><path class="cls-51" d="M754.66,332.51a11.91,11.91,0,0,1-1.59.2v4.12s.24.17.85,0c.81-.23,1.14,0,1.14,0v-4.16s-.06-.2-.4-.2Z" transform="translate(0 0)"/><path class="cls-51" d="M745.13,321.59a10.7,10.7,0,0,0-2.4-1.18,2.86,2.86,0,0,1-.64-.4.3.3,0,0,0-.14-.11,2.31,2.31,0,0,1-.3.61,6.34,6.34,0,0,0,2.84,2A2.82,2.82,0,0,1,745.13,321.59Z" transform="translate(0 0)"/><path class="cls-51" d="M744.55,318.35l.21.34a11.82,11.82,0,0,0,1.08,2.34,3.07,3.07,0,0,1,.94-.47,9.12,9.12,0,0,0-.6-1c-.58-.75-1-1.15-1-1.22A1.22,1.22,0,0,1,744.55,318.35Z" transform="translate(0 0)"/><path class="cls-51" d="M744.25,325.38c1.18-.27,2.77-.24,3.45.33a4.23,4.23,0,0,1,4,0,2.86,2.86,0,0,1,.74-.27,3.11,3.11,0,0,0,0-.61,4.09,4.09,0,0,0-4.08-4.12h0a4.14,4.14,0,0,0-4.12,4.12,2.17,2.17,0,0,0,.06.55Zm4.56-2.5c.41-.17,1.76-.24,2.13.5,0,.1,0,.2-.1.1s-.51-.27-.61-.16h0a.47.47,0,0,1-.37.56.48.48,0,0,1-.57-.37.49.49,0,0,1,0-.12h0a.94.94,0,0,0-.47,0C748.75,323.45,748.64,322.94,748.81,322.88Zm-.13,1.58c.1,0,0-.2.1-.16s.1.3,0,.53-.95.34-1.12,0c-.06-.13-.13-.44,0-.37a2.08,2.08,0,0,0,1.05,0Zm-2.84-1.28a1.62,1.62,0,0,1,.81-.44,3.34,3.34,0,0,1,1.22.17c.1,0,0,.57,0,.54a1,1,0,0,0-.44-.07h0a.48.48,0,0,1-.95-.07v-.07c0-.06-.27-.13-.58.07-.13.13-.33.07,0-.17Z" transform="translate(0 0)"/><path class="cls-51" d="M747,325.88a4.36,4.36,0,0,0-3.14.11c.27.37.77,1.28,1,1.55a.91.91,0,0,0,1.28.13l0,0a5.3,5.3,0,0,0-.65-.77c-.16-.11-.23-.24-.16-.34s.47,0,.67.23a6.43,6.43,0,0,0,.88,1c.51.34,1.49.17,1.39-.13-.34-.44-.48-1.35-1.32-1.73Z" transform="translate(0 0)"/><path class="cls-51" d="M738,325.58a2,2,0,0,0-1.62.57,1.15,1.15,0,0,0,.37,1.53c.68.4,1.28.13,1.35-.11-.17-.2-.51-.67-.67-.67s-.24-.34,0-.41c.44-.13.88.68,1.49,1.15s1.35.1,1.35-.07C739.86,327.27,739.45,325.62,738,325.58Z" transform="translate(0 0)"/><path class="cls-51" d="M748.78,320.31a6,6,0,0,0-.3-2.37,1.18,1.18,0,0,1-.54-.2,5.44,5.44,0,0,0-.21,1.39,4.26,4.26,0,0,0,.07,1.18A4,4,0,0,1,748.78,320.31Z" transform="translate(0 0)"/><path class="cls-51" d="M751,318.31a4.35,4.35,0,0,0-1.32,2.2,9.54,9.54,0,0,1,.91.44c.61-.57.48-1.25.71-1.72.1-.2.2-.37.27-.48a4.81,4.81,0,0,1-.57-.44Z" transform="translate(0 0)"/><path class="cls-51" d="M753.11,327.54c.54.54,1.25.31,1.28.14a3.28,3.28,0,0,0-.58-.71c-.16-.1-.27-.24-.16-.34a.46.46,0,0,1,.6.17,5.26,5.26,0,0,0,.88,1c.48.27,1.49.17,1.39-.14-.27-.44-.47-1.35-1.32-1.72a4,4,0,0,0-3,.07A7,7,0,0,0,753.11,327.54Z" transform="translate(0 0)"/><path class="cls-51" d="M752.83,324.09a5.13,5.13,0,0,1,1.35-.3,13.62,13.62,0,0,0,3.92-.51,10,10,0,0,1,2-.54c.17,0,.44-.06.1-.13h-.5c-.17,0-1.69,0-2.1.07a20.32,20.32,0,0,1-3.31,0,4.27,4.27,0,0,0-1.65.34A7.56,7.56,0,0,1,752.83,324.09Z" transform="translate(0 0)"/><path class="cls-51" d="M741.65,318.48c.07-.06.17,0,.23,0a1.9,1.9,0,0,0,2.17-.67.26.26,0,0,1,.3-.11c.48.2,1.49.27,2.67-.94a.25.25,0,0,1,.34,0,2.57,2.57,0,0,0,3.28.17c.06,0,.17-.11.23-.07a.2.2,0,0,1,.14.17c.37,1.65,2.09,1.52,2.6,1.42a.34.34,0,0,1,.2,0,.16.16,0,0,1,.1.17,2.47,2.47,0,0,0,1.22,1.52,2.15,2.15,0,0,0,2.06-.07.33.33,0,0,1,.24,0c1,.51,1.79.54,2.3.07a1.18,1.18,0,0,0,.37-1.29,1.4,1.4,0,0,0-1.39-.84.33.33,0,0,1-.24-.2,1.21,1.21,0,0,0-.64-.95,2.59,2.59,0,0,0-2.16-.1.23.23,0,0,1-.2,0,.25.25,0,0,1-.11-.17,1.23,1.23,0,0,0-.57-1,2.15,2.15,0,0,0-1.79,0,.28.28,0,0,1-.31-.13,3.11,3.11,0,0,0-2-1.76,2.72,2.72,0,0,0-2.2.37.24.24,0,0,1-.3,0,2.49,2.49,0,0,0-2.26-.44,2.43,2.43,0,0,0-1.56,1.59.15.15,0,0,1-.14.13.18.18,0,0,1-.2,0,2.63,2.63,0,0,0-2.63,0,1.64,1.64,0,0,0-.64,1.21.28.28,0,0,1-.17.28l-.27.06c-.61.14-1.25.27-1.46,1.25a.26.26,0,0,1-.23.2c-1.09.11-1.76.51-1.93,1.09a1.14,1.14,0,0,0,.47,1.14,1,1,0,0,0,1.25-.06c.07,0,.17-.07.24,0a2.49,2.49,0,0,0,2.26-.31,1.62,1.62,0,0,0,.51-1.59c.11,0,.14-.1.21-.17Zm16.93.07a1,1,0,0,1,1.18.78.9.9,0,0,1,0,.4c0,.14-.41.17-.37,0,.07-.71-.3-.78-.78-.78-.17,0-.17-.36,0-.4Zm-2.7-1.25a1.58,1.58,0,0,1,2.16.63,1.47,1.47,0,0,1,.1.22c.07.2-.2.5-.34.23a1.38,1.38,0,0,0-1.85-.66l0,0c-.13,0-.27-.31,0-.44ZM753.21,316c.57-.2,1.55-.3,1.82.68.07.27-.27.4-.34.2-.27-.71-.78-.68-1.35-.47-.3.1-.23-.37-.13-.41ZM748.54,315a2.33,2.33,0,0,1,3.3.06,2.38,2.38,0,0,1,.39.55.3.3,0,0,1-.14.4h0c-.11.06-.14-.07-.21-.17a1.92,1.92,0,0,0-2.61-.79,1.84,1.84,0,0,0-.5.38c-.1.09-.33-.29-.2-.49ZM745,315a1.91,1.91,0,0,1,2.62-.67l.22.16c.14.1,0,.54-.17.44a1.67,1.67,0,0,0-2.32.35v0C745.16,315.58,745,315.17,745,315Zm-6.25,4.19a1.3,1.3,0,0,0-1.11.34c-.34.37-.24.54-.31.6s-.3-.06-.3-.23c0-.85,1-1.19,1.65-1.12.26,0,.32.42.09.42Zm1.83-1.42a.92.92,0,0,0-1,.74c0,.14-.41,0-.34-.23a1.25,1.25,0,0,1,1.35-.92c.14,0,.11.42,0,.42Zm.54-.85a1.76,1.76,0,0,1,2.05-1.41,1.33,1.33,0,0,1,.34.1c.21,0,.07.54-.13.44a1.34,1.34,0,0,0-1.78.69,1.44,1.44,0,0,0-.11.42c0,.08-.42,0-.35-.23Z" transform="translate(0 0)"/><path class="cls-51" d="M754,319.87c-.1.07-.37.2-.44.27-.57.44-1.82,1-2.09,1.32a2.9,2.9,0,0,1,.71.88c.13,0,.54-.31,1.31-1.25a4.29,4.29,0,0,1,1-.75A1.47,1.47,0,0,1,754,319.87Z" transform="translate(0 0)"/><path class="cls-51" d="M742.7,349.81c.61.17.84,0,.84,0v-4.12a14.43,14.43,0,0,1-1.59-.21.5.5,0,0,0-.44.17v4.16A1.54,1.54,0,0,1,742.7,349.81Z" transform="translate(0 0)"/><path class="cls-51" d="M746.18,330.68h-9.94v9h9.91Zm-1.52,7.17h-2.84v.37h-1.18v-.37H737.8V333h.61v-.88a10.2,10.2,0,0,0,2.06-.2,1.15,1.15,0,0,1,.74.2,1.34,1.34,0,0,1,.75-.2,10.2,10.2,0,0,0,2.06.2V333h.61v4.8Z" transform="translate(0 0)"/><path class="cls-51" d="M742,332.51a.5.5,0,0,0-.44.17v4.15a1.53,1.53,0,0,1,1.15,0c.61.17.85,0,.85,0v-4.12a9.19,9.19,0,0,1-1.56-.17Z" transform="translate(0 0)"/></g></g></g></svg>