<svg id="Layer_1" data-name="Layer 1" xmlns="http://www.w3.org/2000/svg" viewBox="0 0 516.75 348.37"><defs><style>.cls-1{fill:#e9dac1;}.cls-2{fill:#e6a06c;}.cls-3{fill:#fedea3;}.cls-4{fill:#747780;}.cls-5{fill:#9ca7d0;}.cls-6{fill:#fff;}.cls-7{fill:#b7c06f;}.cls-8{fill:#b7d8f7;}.cls-9{fill:#a6a056;}.cls-10{fill:#d9b4a3;}.cls-11{fill:#331338;}.cls-12{fill:#c48163;}.cls-13{fill:#d4a189;}.cls-14{fill:#f9f8f6;}.cls-15{fill:#f5cbb8;}.cls-16{fill:#ede0da;}.cls-17{fill:#7381c6;}.cls-18{fill:#353535;}.cls-19{fill:#c3cbf1;}.cls-20{fill:#424a66;}.cls-21{fill:#a1c8b1;}.cls-22{fill:#e45b7e;}.cls-23{fill:#ed1b2e;}.cls-24{fill:#231f20;}.cls-25{fill:#fee8bf;}.cls-26{fill:#dba178;}.cls-27{fill:#312823;}</style></defs><g id="bg"><path class="cls-1" d="M17.79,313s24.62,32.85,139.54,21.22c121.77-12.32,135.84-10.9,237.6-5.09s109.88-34.35,54.51-70.65c-61.05-40,61.79-54.26,39.25-135C476.88,81.15,424.69,29,293.45,8.67,147.66-13.91,167,66,135,91.2c-25,19.68-59.83-3.78-80.19,20.36-34.13,40.49,27.56,91,30,115.87C88.2,263.48-6.92,274.41,17.79,313Z" transform="translate(0 0)"/></g><g id="books"><rect class="cls-2" x="324.69" y="221.94" width="127.03" height="27.42" rx="2.39"/><rect class="cls-3" x="324.35" y="204.73" width="100.95" height="17.21" rx="1.47"/><rect class="cls-4" x="124.75" y="155.23" width="12.24" height="114.68" transform="translate(-113.51 161.65) rotate(-46.61)"/><rect class="cls-5" x="406.47" y="204.73" width="7.89" height="17.21"/><rect class="cls-6" x="428.45" y="221.94" width="11.42" height="27.38"/><rect class="cls-5" x="74.63" y="121.2" width="20.51" height="114.68" rx="2.15"/><rect class="cls-7" x="54.12" y="165.85" width="20.51" height="70.03" rx="2.15"/><rect class="cls-2" x="36.43" y="235.88" width="106.34" height="20.51" rx="2.15"/><rect class="cls-3" x="108.98" y="235.88" width="10.63" height="20.51"/><rect class="cls-8" x="54.12" y="219.8" width="20.51" height="5.59"/><rect class="cls-6" x="74.63" y="212.25" width="20.51" height="9.51"/></g><g id="flower"><path class="cls-9" d="M381.17,162.49c3.17-3.05-.83-52.32-27.16-79.94-39.77-41.71-74.1-56.08-92.84-57.43-14.64-1.06-18.37,7.51-5.29,10.75s22.54,11,20.08,24,7.08,18.9,15.93,15,26.53-7.58,33.57,13S323.72,129.22,344,137s22.95,36.27,22.95,36.27Z" transform="translate(0 0)"/><path class="cls-9" d="M384.34,156.69c1.7-1.37,13.45-24.86,13.45-48.84,0-29.57-16.62-42.51-36.55-60.15-12.9-11.41,10.9-39.79-4.54-46.57s-38,18.54-33.53,33.46,20.12,12.21,24.35,28c2,7.58-12.18,17.56-4.23,30.26,7.25,11.59,30.6-.66,28.43,33.18-1.54,24-5.13,29.77-5.13,29.77Z" transform="translate(0 0)"/><path class="cls-7" d="M376.82,156.82a.67.67,0,0,1-.2,0,.48.48,0,0,1-.26-.64h0c.17-.39,16.82-39.35,7.51-64.76-5.69-15.53-17-26.29-27.85-36.69-4.62-4.41-9-8.58-12.89-13-11.88-13.61,3.85-32.61,4-32.8a.51.51,0,0,1,.71-.06.52.52,0,0,1,.06.71c-.16.18-15.34,18.53-4,31.49,3.88,4.44,8.23,8.59,12.83,13,11,10.48,22.33,21.31,28.1,37.07,9.45,25.79-7.36,65.1-7.53,65.49A.5.5,0,0,1,376.82,156.82Z" transform="translate(0 0)"/><path class="cls-7" d="M384.34,156.69s-12-32.39.57-43.92,22.7-7.81,21.23-35.31c-1.33-24.7,9.91-24.07,12.43-17.75,1.58,3.95,8.09,32.07.89,44.24S397,115.77,397.79,138s0,28.8,0,28.8Z" transform="translate(0 0)"/><path class="cls-9" d="M384.45,145.88c-.55-3,0-26.38,28.06-46.66C435.84,82.37,442.18,79.68,444.37,50s11.44-40.3,25.85-35c10.87,4,16.42,27.49.5,51.28s-26.22,28.4-23.05,45.18c4.05,21.47-3.6,32.42-17.5,27.72-19-6.43-20.9-9.24-30.78,7.87Z" transform="translate(0 0)"/><path class="cls-7" d="M388,149.43h-.19a.49.49,0,0,1-.27-.65h0c7.38-17.81,13.6-23.35,18.71-26.41,5.63-3.39,9.55-2,13.68-.55a27.18,27.18,0,0,0,7.38,1.79A7.44,7.44,0,0,0,433,122c2.71-2.39,3.32-7.12,3.54-11,.78-13.64,7.67-25.46,14.32-36.89C459.41,59.39,467.49,45.52,464,28a.51.51,0,0,1,1-.2c3.61,17.93-5,32.62-13.22,46.83-6.6,11.33-13.42,23-14.19,36.44-.24,4-.89,9-3.88,11.67a8.45,8.45,0,0,1-6.45,1.87,28,28,0,0,1-7.64-1.85c-4.08-1.44-7.61-2.68-12.84.46-5,3-11,8.4-18.3,25.95A.49.49,0,0,1,388,149.43Z" transform="translate(0 0)"/><path class="cls-10" d="M419.82,139.21l-2,16.26-6.1,49.26h-61.1l-8.1-65.52h0c0-1.32,17.23-2.39,38.49-2.39,5.49,0,10.71.07,15.44.2h.15c13.5.37,22.91,1.2,22.91,2.18Z" transform="translate(0 0)"/><path class="cls-7" d="M358.58,144.19a.5.5,0,0,1-.49-.44C352,98.11,325.3,69.75,304,54.08a159.47,159.47,0,0,0-45.19-23.4.5.5,0,0,1,.26-1h0a159.35,159.35,0,0,1,45.52,23.57c21.44,15.82,48.3,44.35,54.47,90.34a.49.49,0,0,1-.41.56h-.09Z" transform="translate(0 0)"/><path class="cls-11" d="M419.82,139.21l-2,16.26a10.39,10.39,0,0,1-5.25-5.41,23.1,23.1,0,0,0-15.95-13c13.5.37,22.91,1.2,22.91,2.18Z" transform="translate(0 0)"/></g><g id="a_cup" data-name="a cup"><path class="cls-12" d="M68.14,286.43c0,3.07-10.45,5.56-23.34,5.56s-23.34-2.49-23.34-5.56,10.45-5.56,23.34-5.56S68.14,283.36,68.14,286.43Z" transform="translate(0 0)"/><ellipse class="cls-13" cx="44.8" cy="280.88" rx="44.8" ry="8.08"/><path class="cls-14" d="M44.8,287.74c-19.63,0-39.94-2.57-39.94-6.87S25.17,274,44.8,274s39.92,2.54,39.92,6.84S64.43,287.74,44.8,287.74Zm0-13.23c-23.59,0-39.44,3.29-39.44,6.36s15.85,6.37,39.44,6.37,39.44-3.29,39.44-6.37-15.85-6.36-39.44-6.36Z" transform="translate(0 0)"/><ellipse class="cls-12" cx="49.09" cy="280.88" rx="22.67" ry="4.82"/><path class="cls-15" d="M46.29,283.61h-3A19.41,19.41,0,0,1,24,266.32l-1.82-16.57H67.39l-1.82,16.57A19.42,19.42,0,0,1,46.29,283.61Z" transform="translate(0 0)"/><path class="cls-15" d="M34.89,273H24.2a8.9,8.9,0,0,1-8.88-8.88v-3.42a8.9,8.9,0,0,1,8.88-8.88H34.89ZM24.2,256.84a3.88,3.88,0,0,0-3.88,3.88h0v3.42A3.88,3.88,0,0,0,24.19,268h5.7V256.84Z" transform="translate(0 0)"/><ellipse class="cls-16" cx="44.8" cy="249.75" rx="22.67" ry="1.98"/></g><g id="laptop"><path class="cls-17" d="M398.72,313h-301a13,13,0,0,1-13-13h327a13,13,0,0,1-13,13Z" transform="translate(0 0)"/><rect class="cls-11" x="126.77" y="71.16" width="244.94" height="170.59" rx="8.26"/><rect class="cls-18" x="135.23" y="80.2" width="228.04" height="152.51" rx="7.54"/><path class="cls-19" d="M186.57,301.53a10,10,0,0,1-1.45-.11,6.14,6.14,0,0,1-1.12-.29,1.74,1.74,0,0,1-.69-.44.55.55,0,0,1-.15-.53l7.25-25.65a.76.76,0,0,1,.38-.41,2.9,2.9,0,0,1,.81-.34,6.19,6.19,0,0,1,1.12-.23,11.38,11.38,0,0,1,1.31-.08H302.34a11.69,11.69,0,0,1,1.32.08,5.91,5.91,0,0,1,1.11.23,4.05,4.05,0,0,1,.81.33.8.8,0,0,1,.37.42l7.35,25.65a.57.57,0,0,1-.14.53,1.91,1.91,0,0,1-.69.43,6.14,6.14,0,0,1-1.12.29,10,10,0,0,1-1.45.11H186.57Zm139.55-30.4h-.4a2.14,2.14,0,0,1-.35-.06,1.19,1.19,0,0,1-.26-.11.37.37,0,0,1-.13-.12l-.73-1.9a.13.13,0,0,1,0-.12.4.4,0,0,1,.18-.1l.29-.07h14.52l.35.07a1.48,1.48,0,0,1,.27.1.25.25,0,0,1,.13.12l.88,1.9a.09.09,0,0,1,0,.12.42.42,0,0,1-.17.1,1,1,0,0,1-.29.07H326.12Zm18.08,0h-.4a2.29,2.29,0,0,1-.36-.07,1.48,1.48,0,0,1-.27-.1.37.37,0,0,1-.13-.12l-.91-1.9a.09.09,0,0,1,0-.12.42.42,0,0,1,.17-.1,1.37,1.37,0,0,1,.29-.07h14.54a2.14,2.14,0,0,1,.35.06l.27.1a.35.35,0,0,1,.15.12l1.05,1.9a.11.11,0,0,1,0,.13.34.34,0,0,1-.16.1,1.28,1.28,0,0,1-.28.07H344.2Zm17.87,0h-.41l-.36-.07a1.48,1.48,0,0,1-.27-.1.27.27,0,0,1-.15-.13l-1.09-1.9a.13.13,0,0,1,0-.12.54.54,0,0,1,.16-.1,1.27,1.27,0,0,1,.28-.06h14.52l.36.07a1.33,1.33,0,0,1,.28.1.44.44,0,0,1,.15.12l1.24,1.9a.13.13,0,0,1,0,.12.36.36,0,0,1-.16.11,1.4,1.4,0,0,1-.28.06H362.07Zm-240.76.05h-.48a1.06,1.06,0,0,1-.35-.09.41.41,0,0,1-.19-.13.11.11,0,0,1,0-.15l2.57-4a.5.5,0,0,1,.2-.15l.34-.12.45-.08h14a2,2,0,0,1,.35.08.82.82,0,0,1,.2.12.11.11,0,0,1,0,.15l-2.27,4a.42.42,0,0,1-.19.16,1.4,1.4,0,0,1-.34.13l-.45.08H121.31Zm17.85,0h-.48a2.33,2.33,0,0,1-.36-.08.53.53,0,0,1-.2-.13.12.12,0,0,1,0-.16l2.21-4a.65.65,0,0,1,.18-.15l.34-.12.44-.08h14a1.37,1.37,0,0,1,.35.08.45.45,0,0,1,.21.12.14.14,0,0,1,0,.15l-1.9,4a.37.37,0,0,1-.17.16.93.93,0,0,1-.33.12,3.58,3.58,0,0,1-.45.09H139.16Zm17.79,0h-.48a2.22,2.22,0,0,1-.37-.09.45.45,0,0,1-.21-.12.12.12,0,0,1,0-.16l1.85-4a.41.41,0,0,1,.17-.15.93.93,0,0,1,.33-.12,3,3,0,0,1,.43-.09h14a2.33,2.33,0,0,1,.36.08.61.61,0,0,1,.22.13.14.14,0,0,1,0,.15l-1.54,4a.33.33,0,0,1-.16.15,1.27,1.27,0,0,1-.32.13,3.12,3.12,0,0,1-.44.09H157Zm17.78,0h-.49a2.22,2.22,0,0,1-.37-.09.5.5,0,0,1-.22-.13.11.11,0,0,1,0-.15l1.49-4a.29.29,0,0,1,.16-.15,1.2,1.2,0,0,1,.31-.13l.42-.08h18a2.21,2.21,0,0,1,.37.08,1,1,0,0,1,.23.12.17.17,0,0,1,.06.15l-1.1,4c0,.06-.06.11-.14.16a1.2,1.2,0,0,1-.31.13l-.43.08h-18Zm21.77,0H196a2.33,2.33,0,0,1-.38-.08.7.7,0,0,1-.24-.13.17.17,0,0,1-.06-.16l1.06-4c0-.05.06-.1.14-.15a1,1,0,0,1,.3-.12l.41-.08h84.67l.41.08a1.48,1.48,0,0,1,.29.12.27.27,0,0,1,.13.15l.72,4a.15.15,0,0,1-.08.15.75.75,0,0,1-.25.13,2.74,2.74,0,0,1-.39.09H196.5Zm90.23,0h-.5a3.1,3.1,0,0,1-.42-.08,1,1,0,0,1-.3-.13.24.24,0,0,1-.13-.15l-.76-4a.15.15,0,0,1,.07-.15.9.9,0,0,1,.24-.12,2.33,2.33,0,0,1,.38-.08,3.84,3.84,0,0,1,.48,0h17a4.17,4.17,0,0,1,.5,0l.42.08a1.88,1.88,0,0,1,.3.12.4.4,0,0,1,.14.15l1.16,4a.14.14,0,0,1-.06.16.76.76,0,0,1-.23.13,2.33,2.33,0,0,1-.38.08H286.73Zm22.16,0h-.5l-.44-.08a1.69,1.69,0,0,1-.31-.13.29.29,0,0,1-.15-.16l-1.2-4a.17.17,0,0,1,0-.15,1,1,0,0,1,.23-.12,1.53,1.53,0,0,1,.37-.08H321l.42.09a.91.91,0,0,1,.31.12.33.33,0,0,1,.16.15l1.53,4a.15.15,0,0,1,0,.16,1,1,0,0,1-.23.12,2.22,2.22,0,0,1-.37.09H308.89Zm34.1-2.53a2.81,2.81,0,0,1-.41,0l-.35-.07a.82.82,0,0,1-.26-.1.2.2,0,0,1-.13-.12l-.89-1.85a.13.13,0,0,1,0-.12.4.4,0,0,1,.17-.09,1.28,1.28,0,0,1,.28-.07h14.34a.7.7,0,0,1,.35.06,1.17,1.17,0,0,1,.26.1.44.44,0,0,1,.15.12l1,1.85a.13.13,0,0,1,0,.12.34.34,0,0,1-.16.1,1.28,1.28,0,0,1-.28.07H343ZM124.72,265.8h-.47a1,1,0,0,1-.34-.08.39.39,0,0,1-.19-.12.12.12,0,0,1,0-.14l2.44-3.83a.52.52,0,0,1,.19-.14,2.8,2.8,0,0,1,.77-.19h34.26a2,2,0,0,1,.35.08.37.37,0,0,1,.2.12.1.1,0,0,1,0,.14l-1.72,3.82a.39.39,0,0,1-.16.15l-.32.12-.43.08H124.72Zm39.18,0h-.46l-.36-.09a.45.45,0,0,1-.21-.12.12.12,0,0,1,0-.14l1.68-3.82a.36.36,0,0,1,.15-.15,1.63,1.63,0,0,1,.31-.11l.42-.08a4,4,0,0,1,.49,0h12.73a3.53,3.53,0,0,1,.46,0,1.37,1.37,0,0,1,.35.08.57.57,0,0,1,.22.11.11.11,0,0,1,0,.14l-1.37,3.82a.28.28,0,0,1-.15.15.91.91,0,0,1-.31.12l-.42.09H163.9Zm17.41,0h-.47a1.53,1.53,0,0,1-.37-.08.48.48,0,0,1-.22-.12.11.11,0,0,1,0-.15l1.33-3.82a.24.24,0,0,1,.14-.14,1.82,1.82,0,0,1,.3-.11,1.86,1.86,0,0,1,.41-.08h13.69a1.53,1.53,0,0,1,.36.07,1,1,0,0,1,.23.12.12.12,0,0,1,0,.14l-1,3.82a.34.34,0,0,1-.14.15,1,1,0,0,1-.3.12l-.41.08H181.31Zm17.41,0h-.48l-.38-.08a1,1,0,0,1-.23-.12s-.08-.1-.06-.15l1-3.82a.25.25,0,0,1,.13-.14,1.48,1.48,0,0,1,.29-.12,1.85,1.85,0,0,1,.41-.07h13.67a2.21,2.21,0,0,1,.37.08.55.55,0,0,1,.24.12.13.13,0,0,1,.07.14l-.68,3.82a.26.26,0,0,1-.12.15l-.29.12-.41.08H198.72Zm17.39,0h-.48l-.38-.08a1.08,1.08,0,0,1-.24-.12.15.15,0,0,1-.07-.15l.64-3.82a.24.24,0,0,1,.12-.14.77.77,0,0,1,.28-.12l.4-.08a3.84,3.84,0,0,1,.48,0h12.72a3.69,3.69,0,0,1,.47,0,1.8,1.8,0,0,1,.39.08,1.12,1.12,0,0,1,.25.11.19.19,0,0,1,.08.15l-.34,3.82a.26.26,0,0,1-.11.14.77.77,0,0,1-.28.12,2.59,2.59,0,0,1-.4.09H216.11Zm17.4,0H233l-.39-.09a.68.68,0,0,1-.26-.12.14.14,0,0,1-.08-.15l.31-3.81c0-.06,0-.1.1-.15a1.53,1.53,0,0,1,.27-.11,1.77,1.77,0,0,1,.4-.08,3.69,3.69,0,0,1,.47,0h12.73a3.69,3.69,0,0,1,.47,0,1.59,1.59,0,0,1,.38.07,1.23,1.23,0,0,1,.26.12.21.21,0,0,1,.1.14v3.82a.23.23,0,0,1-.1.15,1.23,1.23,0,0,1-.26.12l-.4.08H233.51Zm17.4,0h-.49l-.39-.08a1.31,1.31,0,0,1-.27-.12.21.21,0,0,1-.09-.15v-3.82a.17.17,0,0,1,.09-.14,1.23,1.23,0,0,1,.26-.12,1.59,1.59,0,0,1,.38-.07h13.68a2.7,2.7,0,0,1,.39.08.7.7,0,0,1,.28.12.21.21,0,0,1,.1.14l.35,3.82a.21.21,0,0,1-.09.15,1.15,1.15,0,0,1-.25.12,2.7,2.7,0,0,1-.39.08H250.91Zm17.4,0h-.49l-.4-.08a1.39,1.39,0,0,1-.28-.12c-.07,0-.11-.1-.11-.15l-.38-3.82a.14.14,0,0,1,.08-.14.58.58,0,0,1,.25-.12l.38-.08a3.69,3.69,0,0,1,.47,0h12.73a3.69,3.69,0,0,1,.47,0l.4.08a1,1,0,0,1,.28.11c.07,0,.11.09.12.14l.69,3.83a.16.16,0,0,1-.08.14.55.55,0,0,1-.24.12,1.61,1.61,0,0,1-.38.08H268.31Zm17.39,0h-.49a1.86,1.86,0,0,1-.41-.08.77.77,0,0,1-.28-.12.25.25,0,0,1-.13-.14l-.72-3.83a.14.14,0,0,1,.07-.14.66.66,0,0,1,.24-.11,2.21,2.21,0,0,1,.37-.08H298a1.86,1.86,0,0,1,.41.08,1,1,0,0,1,.29.11.32.32,0,0,1,.14.14l1,3.82a.13.13,0,0,1-.06.15.51.51,0,0,1-.23.12,1.61,1.61,0,0,1-.38.08H285.7Zm17.4,0h-.49a2.07,2.07,0,0,1-.42-.08.79.79,0,0,1-.3-.12.23.23,0,0,1-.14-.15l-1-3.88a.14.14,0,0,1,.06-.14,1,1,0,0,1,.23-.12,1.53,1.53,0,0,1,.36-.07h13.69a1.76,1.76,0,0,1,.4.07l.3.12a.32.32,0,0,1,.14.14l1.37,3.82a.14.14,0,0,1,0,.15,1,1,0,0,1-.23.12,2.33,2.33,0,0,1-.36.08h-.47Zm17.4,0H320l-.42-.08a1.66,1.66,0,0,1-.31-.12.36.36,0,0,1-.15-.15l-1.4-3.88a.12.12,0,0,1,0-.14.45.45,0,0,1,.21-.12,2.33,2.33,0,0,1,.36-.08H332a3.1,3.1,0,0,1,.42.08,1,1,0,0,1,.32.12.36.36,0,0,1,.16.14l1.71,3.81a.11.11,0,0,1,0,.15.45.45,0,0,1-.21.12,2.37,2.37,0,0,1-.36.09h-.47Zm17.4,0h-.5a3.12,3.12,0,0,1-.44-.09,1,1,0,0,1-.32-.12.35.35,0,0,1-.17-.15l-1.75-3.88v-.14a.53.53,0,0,1,.21-.11,1.37,1.37,0,0,1,.35-.08h34.56l.44.08a2.19,2.19,0,0,1,.33.12.45.45,0,0,1,.19.14l2.47,3.82a.11.11,0,0,1,0,.15.62.62,0,0,1-.19.12,2,2,0,0,1-.35.08h-.46Zm-210-5.05h-.46a1.3,1.3,0,0,1-.33-.07.47.47,0,0,1-.19-.12.12.12,0,0,1,0-.14l2.32-3.62a.42.42,0,0,1,.18-.14,1.21,1.21,0,0,1,.32-.11,2,2,0,0,1,.42-.07h25.17a2,2,0,0,1,.33.08.36.36,0,0,1,.2.11.11.11,0,0,1,0,.13l-1.8,3.63c0,.05-.08.09-.16.14a1.21,1.21,0,0,1-.32.11l-.42.08H127.9Zm28.78,0h-.46a1.87,1.87,0,0,1-.34-.08.53.53,0,0,1-.21-.11.12.12,0,0,1,0-.14l1.77-3.63a.29.29,0,0,1,.16-.13,1.15,1.15,0,0,1,.31-.11,1.86,1.86,0,0,1,.41-.08,3.84,3.84,0,0,1,.48,0h12.4a3.38,3.38,0,0,1,.45,0,2.05,2.05,0,0,1,.34.07.53.53,0,0,1,.21.11.12.12,0,0,1,0,.14l-1.48,3.56a.29.29,0,0,1-.15.14.79.79,0,0,1-.3.12l-.42.08h-.48Zm16.94,0h-.45a2.33,2.33,0,0,1-.36-.08.55.55,0,0,1-.21-.12.12.12,0,0,1,0-.14l1.44-3.62a.29.29,0,0,1,.15-.14,1.82,1.82,0,0,1,.3-.11l.4-.07a3.69,3.69,0,0,1,.47,0h12.36a3.38,3.38,0,0,1,.45,0,1.36,1.36,0,0,1,.35.07.65.65,0,0,1,.22.11.12.12,0,0,1,0,.14l-1,3.56a.32.32,0,0,1-.14.14l-.3.12-.41.07h-.48Zm17,0h-.46a2.29,2.29,0,0,1-.36-.07,1,1,0,0,1-.23-.12.12.12,0,0,1,0-.14l1.12-3.63a.27.27,0,0,1,.13-.13,1.45,1.45,0,0,1,.29-.11,2.57,2.57,0,0,1,.4-.07h13.33a2.33,2.33,0,0,1,.36.08.7.7,0,0,1,.23.11.14.14,0,0,1,.06.13l-.83,3.63c0,.05-.06.09-.13.14a1.36,1.36,0,0,1-.28.11,2.57,2.57,0,0,1-.4.08H190.62Zm16.95,0h-.47l-.37-.08a.7.7,0,0,1-.23-.11.15.15,0,0,1-.06-.14l.79-3.63c0-.05.05-.09.12-.13a1,1,0,0,1,.28-.11l.39-.08h12.87a3.53,3.53,0,0,1,.46,0,2.29,2.29,0,0,1,.36.07.74.74,0,0,1,.24.11.14.14,0,0,1,.08.14l-.5,3.62a.24.24,0,0,1-.12.14.7.7,0,0,1-.28.12l-.39.08H207.57Zm16.94,0h-.46a2.33,2.33,0,0,1-.38-.08.58.58,0,0,1-.25-.12.15.15,0,0,1-.07-.14l.46-3.62a.24.24,0,0,1,.12-.14,1.53,1.53,0,0,1,.27-.11l.38-.07a3.69,3.69,0,0,1,.47,0h12.4a3.53,3.53,0,0,1,.46,0l.37.07a1.12,1.12,0,0,1,.25.11.16.16,0,0,1,.08.14l-.18,3.62a.21.21,0,0,1-.1.14,1.23,1.23,0,0,1-.26.12,2.66,2.66,0,0,1-.39.07H224.51Zm16.94,0H241l-.38-.07a1.15,1.15,0,0,1-.25-.12.17.17,0,0,1-.09-.14l.15-3.62a.17.17,0,0,1,.09-.14.85.85,0,0,1,.26-.11,1.59,1.59,0,0,1,.38-.07h13.32a2.33,2.33,0,0,1,.38.08.85.85,0,0,1,.26.11.17.17,0,0,1,.1.13l.15,3.63a.17.17,0,0,1-.09.14.85.85,0,0,1-.26.11,1.61,1.61,0,0,1-.38.08H241.45Zm16.95,0h-.47a2.7,2.7,0,0,1-.39-.08.9.9,0,0,1-.27-.11c-.06-.05-.1-.09-.1-.14l-.18-3.63a.18.18,0,0,1,.09-.13.8.8,0,0,1,.25-.11,2.21,2.21,0,0,1,.37-.08h12.86a3.69,3.69,0,0,1,.47,0,1.61,1.61,0,0,1,.38.08.81.81,0,0,1,.27.11.24.24,0,0,1,.11.13l.46,3.62a.15.15,0,0,1-.07.14.58.58,0,0,1-.25.12,2.45,2.45,0,0,1-.37.08H258.4Zm16.94,0h-.48l-.39-.08a.66.66,0,0,1-.27-.12.24.24,0,0,1-.12-.14l-.5-3.62a.14.14,0,0,1,.07-.14,1,1,0,0,1,.24-.1,1.55,1.55,0,0,1,.36-.08,3.53,3.53,0,0,1,.46,0h12.4a3.69,3.69,0,0,1,.47,0,2.66,2.66,0,0,1,.39.07,1,1,0,0,1,.28.11.24.24,0,0,1,.12.14l.8,3.62a.13.13,0,0,1-.07.14,1,1,0,0,1-.23.12,1.51,1.51,0,0,1-.37.07H275.34Zm17,0h-.48l-.41-.07-.28-.12a.23.23,0,0,1-.13-.14l-.83-3.62a.13.13,0,0,1,.06-.14.7.7,0,0,1,.23-.11l.36-.07h13.33a1.76,1.76,0,0,1,.4.07,1.36,1.36,0,0,1,.28.11.29.29,0,0,1,.14.13l1.11,3.63a.11.11,0,0,1-.05.14.57.57,0,0,1-.22.11,1.55,1.55,0,0,1-.36.08H292.34Zm16.93,0h-.48a1.77,1.77,0,0,1-.4-.08,1.82,1.82,0,0,1-.3-.11.32.32,0,0,1-.14-.14l-1.23-3.72a.19.19,0,0,1,0-.13.65.65,0,0,1,.22-.11,1.36,1.36,0,0,1,.35-.07h13.32l.41.08a1,1,0,0,1,.3.11.17.17,0,0,1,.14.13l1.45,3.63v.14a.65.65,0,0,1-.22.11l-.35.08h-.47Zm17,0h-.49l-.41-.08a1.15,1.15,0,0,1-.31-.11.34.34,0,0,1-.15-.14l-1.48-3.63a.11.11,0,0,1,0-.13.43.43,0,0,1,.21-.11,1.37,1.37,0,0,1,.35-.08,3.38,3.38,0,0,1,.45,0h12.33a3.69,3.69,0,0,1,.47,0l.41.07.3.11a.43.43,0,0,1,.16.14l1.76,3.62a.12.12,0,0,1,0,.14.45.45,0,0,1-.21.12,1.28,1.28,0,0,1-.34.07h-13Zm17.25,0H343a2,2,0,0,1-.42-.07,1.75,1.75,0,0,1-.32-.12.39.39,0,0,1-.17-.14l-1.8-3.62a.12.12,0,0,1,0-.14.56.56,0,0,1,.2-.11l.34-.07h26l.43.08a2.13,2.13,0,0,1,.33.11.59.59,0,0,1,.18.13l2.33,3.63a.1.1,0,0,1,0,.14.42.42,0,0,1-.18.11,1.3,1.3,0,0,1-.34.08H343.47ZM130.92,255.9h-.44a1.94,1.94,0,0,1-.33-.07.42.42,0,0,1-.18-.11.12.12,0,0,1,0-.14l2.2-3.44a.38.38,0,0,1,.18-.13,1.6,1.6,0,0,1,.31-.1,1.85,1.85,0,0,1,.41-.07h20.7a1.94,1.94,0,0,1,.33.07.45.45,0,0,1,.19.11.11.11,0,0,1,0,.13l-1.79,3.44a.29.29,0,0,1-.16.13,1,1,0,0,1-.3.11l-.42.08h-20.7Zm24.69,0h-.44a1.87,1.87,0,0,1-.34-.08.49.49,0,0,1-.2-.11.11.11,0,0,1,0-.13l1.75-3.44a.4.4,0,0,1,.16-.13,1.82,1.82,0,0,1,.3-.11l.4-.07a3.53,3.53,0,0,1,.46,0h12.1a3.09,3.09,0,0,1,.43,0,1.86,1.86,0,0,1,.34.07l.21.1a.11.11,0,0,1,0,.13l-1.47,3.45a.27.27,0,0,1-.15.13,1.82,1.82,0,0,1-.3.11,2.57,2.57,0,0,1-.4.07,3.69,3.69,0,0,1-.47,0Zm16.51,0h-.44a1.36,1.36,0,0,1-.35-.07.56.56,0,0,1-.2-.11.11.11,0,0,1,0-.13l1.43-3.45a.37.37,0,0,1,.15-.13l.29-.1a3.47,3.47,0,0,1,.85-.1h12.51a1.28,1.28,0,0,1,.34.07.51.51,0,0,1,.21.1.11.11,0,0,1,0,.13l-1.15,3.44a.32.32,0,0,1-.14.14,1,1,0,0,1-.29.11l-.4.07h-.47Zm16.52,0h-.45l-.35-.07a.65.65,0,0,1-.22-.11.16.16,0,0,1-.05-.14l1.13-3.44a.29.29,0,0,1,.14-.13.94.94,0,0,1,.28-.1,1.59,1.59,0,0,1,.38-.07h13l.35.07a.57.57,0,0,1,.22.11c.05,0,.08.08.06.13l-.85,3.44a.29.29,0,0,1-.13.14.94.94,0,0,1-.28.1,1.8,1.8,0,0,1-.39.08H188.64Zm16.51,0h-.45a2.33,2.33,0,0,1-.36-.08.62.62,0,0,1-.22-.1.15.15,0,0,1-.06-.14l.81-3.44s.06-.09.12-.13a1,1,0,0,1,.28-.11l.38-.07h13a2,2,0,0,1,.35.07.7.7,0,0,1,.23.11.11.11,0,0,1,.07.12l-.54,3.45a.24.24,0,0,1-.11.13,1.28,1.28,0,0,1-.27.11,1.78,1.78,0,0,1-.39.07,3.53,3.53,0,0,1-.46,0Zm16.52,0h-.46a1.53,1.53,0,0,1-.36-.07.66.66,0,0,1-.24-.11c-.06,0-.08-.08-.07-.13l.51-3.45a.22.22,0,0,1,.11-.12,1.19,1.19,0,0,1,.26-.11l.38-.07h13l.37.07a1,1,0,0,1,.24.1.22.22,0,0,1,.08.13l-.24,3.45a.19.19,0,0,1-.1.13.85.85,0,0,1-.26.11l-.38.07H221.67Zm16.51,0h-.46a2.41,2.41,0,0,1-.37-.07.66.66,0,0,1-.24-.11.18.18,0,0,1-.09-.13l.2-3.45a.19.19,0,0,1,.1-.13,1.09,1.09,0,0,1,.25-.1,1.51,1.51,0,0,1,.37-.07h13a1.53,1.53,0,0,1,.36.07.77.77,0,0,1,.25.1c.06,0,.09.08.09.13l.08,3.44a.19.19,0,0,1-.09.14,1.12,1.12,0,0,1-.25.11l-.38.07H238.18Zm16.51,0h-.46l-.38-.07-.25-.11a.18.18,0,0,1-.1-.14l-.1-3.44s0-.09.09-.13a.72.72,0,0,1,.24-.1,2.33,2.33,0,0,1,.36-.08h13l.38.07a1.12,1.12,0,0,1,.25.11.16.16,0,0,1,.11.13l.38,3.44a.12.12,0,0,1-.08.13.66.66,0,0,1-.24.11,2.33,2.33,0,0,1-.36.08H254.69Zm16.51,0h-.46l-.38-.08a1.53,1.53,0,0,1-.27-.11.24.24,0,0,1-.11-.13l-.41-3.45a.15.15,0,0,1,.07-.12.74.74,0,0,1,.24-.11l.35-.07h12.55a3.38,3.38,0,0,1,.45,0l.38.07a1.48,1.48,0,0,1,.27.1.37.37,0,0,1,.12.13l.69,3.45a.15.15,0,0,1-.07.13.7.7,0,0,1-.23.11,1.53,1.53,0,0,1-.36.07,3.38,3.38,0,0,1-.45,0Zm16.52,0h-.47a2.66,2.66,0,0,1-.39-.07,1,1,0,0,1-.28-.11.22.22,0,0,1-.12-.13l-.72-3.45a.14.14,0,0,1,.06-.13.67.67,0,0,1,.23-.1l.35-.07h13a1.78,1.78,0,0,1,.39.07,1.33,1.33,0,0,1,.28.1c.07,0,.11.08.12.13l1,3.45a.19.19,0,0,1-.05.13.65.65,0,0,1-.22.11l-.35.07H287.72Zm16.5,0h-.47l-.39-.07a1,1,0,0,1-.28-.11.29.29,0,0,1-.14-.13l-1-3.45A.13.13,0,0,1,302,252a.62.62,0,0,1,.22-.1,1.28,1.28,0,0,1,.34-.07h13a1.78,1.78,0,0,1,.39.07,1,1,0,0,1,.29.1.29.29,0,0,1,.14.13l1.31,3.44a.15.15,0,0,1-.05.14.51.51,0,0,1-.21.1,2,2,0,0,1-.35.08H304.22Zm16.52,0h-.47l-.41-.08a1.76,1.76,0,0,1-.3-.1.32.32,0,0,1-.14-.14l-1.34-3.44a.11.11,0,0,1,0-.13.53.53,0,0,1,.21-.11,2.05,2.05,0,0,1,.34-.07h13l.4.07a1.45,1.45,0,0,1,.29.11.41.41,0,0,1,.14.12l1.62,3.45a.11.11,0,0,1,0,.13.56.56,0,0,1-.2.11,1.28,1.28,0,0,1-.34.07,3.38,3.38,0,0,1-.45,0Zm16.5,0h-.47a1.85,1.85,0,0,1-.41-.07,1.82,1.82,0,0,1-.3-.11.29.29,0,0,1-.16-.13L334.25,252a.09.09,0,0,1,0-.12.56.56,0,0,1,.2-.11,1.94,1.94,0,0,1,.33-.07h13l.41.07a1.6,1.6,0,0,1,.31.1.4.4,0,0,1,.16.13l1.92,3.45a.11.11,0,0,1,0,.13.45.45,0,0,1-.19.11,1.94,1.94,0,0,1-.33.07,3.38,3.38,0,0,1-.45,0Zm16.34,0h-.47l-.42-.07a1.63,1.63,0,0,1-.31-.11.31.31,0,0,1-.17-.13l-2-3.45a.15.15,0,0,1,0-.13.44.44,0,0,1,.19-.1,1.94,1.94,0,0,1,.33-.07h13a1.85,1.85,0,0,1,.41.07,1.7,1.7,0,0,1,.32.1.37.37,0,0,1,.17.13l2.23,3.44a.12.12,0,0,1,0,.14.42.42,0,0,1-.18.11,1.94,1.94,0,0,1-.33.07H353.58Zm-219.76-4.58a3.09,3.09,0,0,1-.43,0,1.65,1.65,0,0,1-.32-.07.4.4,0,0,1-.18-.1.11.11,0,0,1,0-.13l2.1-3.28a.48.48,0,0,1,.16-.12,1.6,1.6,0,0,1,.31-.1l.4-.07h12.68a1.65,1.65,0,0,1,.32.07.44.44,0,0,1,.19.1.13.13,0,0,1,0,.12L147.23,251a.66.66,0,0,1-.17.12,1.82,1.82,0,0,1-.3.11l-.41.07H133.82Zm16.11,0h-.43a1.94,1.94,0,0,1-.33-.07.45.45,0,0,1-.19-.11V251l1.8-3.28a.35.35,0,0,1,.15-.12,1.76,1.76,0,0,1,.3-.1l.4-.07h12.68a1.14,1.14,0,0,1,.32.07.72.72,0,0,1,.2.09.11.11,0,0,1,0,.13L163.3,251a.37.37,0,0,1-.15.13,1.82,1.82,0,0,1-.3.11l-.39.07H162Zm16.09,0a3.09,3.09,0,0,1-.43,0,1.3,1.3,0,0,1-.33-.07.44.44,0,0,1-.19-.1.11.11,0,0,1,0-.13l1.51-3.27a.27.27,0,0,1,.15-.13l.28-.1c.12,0,.25-.05.39-.06a3.38,3.38,0,0,1,.45,0h11.8a3.09,3.09,0,0,1,.43,0,1.86,1.86,0,0,1,.34.06.54.54,0,0,1,.2.1s.06.08,0,.12L179.38,251a.29.29,0,0,1-.14.13,1.42,1.42,0,0,1-.29.1,1.76,1.76,0,0,1-.4.07H166Zm16.12,0a3.23,3.23,0,0,1-.44,0,2.05,2.05,0,0,1-.34-.07.51.51,0,0,1-.21-.1.11.11,0,0,1,0-.13l1.21-3.28a.41.41,0,0,1,.14-.12.94.94,0,0,1,.28-.1,2.32,2.32,0,0,1,.38-.06,3.38,3.38,0,0,1,.45,0h12.23l.34.07a.68.68,0,0,1,.21.1.11.11,0,0,1,.05.12l-1,3.28a.27.27,0,0,1-.13.13.94.94,0,0,1-.28.1l-.38.07H182.14Zm16.1,0a3.23,3.23,0,0,1-.44,0l-.35-.07a.68.68,0,0,1-.21-.1.14.14,0,0,1-.06-.13l.93-3.28a.4.4,0,0,1,.12-.12,1.48,1.48,0,0,1,.27-.1l.37-.07h12.68l.35.07a.62.62,0,0,1,.22.1.14.14,0,0,1,.07.12l-.66,3.28a.18.18,0,0,1-.12.12,1.53,1.53,0,0,1-.27.11l-.38.07H198.24Zm16.11,0h-.45l-.35-.07a.7.7,0,0,1-.23-.11.14.14,0,0,1-.07-.12l.63-3.28a.18.18,0,0,1,.12-.12.82.82,0,0,1,.26-.1l.37-.07h12.68a2.14,2.14,0,0,1,.35.06.94.94,0,0,1,.23.1c.05,0,.08.08.07.13L227.6,251a.25.25,0,0,1-.11.12.82.82,0,0,1-.26.1,1.51,1.51,0,0,1-.37.07H214.35Zm16.1,0a3.38,3.38,0,0,1-.45,0,1.53,1.53,0,0,1-.36-.07.67.67,0,0,1-.23-.1.16.16,0,0,1-.08-.13l.34-3.27c0-.05,0-.09.1-.13l.25-.1a2.25,2.25,0,0,1,.36-.06,3.23,3.23,0,0,1,.44,0h12.24a2.29,2.29,0,0,1,.36.07,1,1,0,0,1,.24.1q.09.06.09.12l-.08,3.28c0,.05,0,.09-.09.13a1.09,1.09,0,0,1-.25.1l-.37.07H230.45Zm16.09,0a3.38,3.38,0,0,1-.45,0l-.36-.07a1,1,0,0,1-.24-.1c-.06,0-.09-.08-.09-.13v-3.28a.23.23,0,0,1,.1-.12.72.72,0,0,1,.24-.1l.36-.07h12.68l.36.07a1.09,1.09,0,0,1,.25.1q.09.06.09.12l.22,3.28a.16.16,0,0,1-.08.13l-.24.1a2.29,2.29,0,0,1-.36.07,3.23,3.23,0,0,1-.44,0Zm16.11,0h-.45l-.37-.07a1.12,1.12,0,0,1-.25-.11.17.17,0,0,1-.1-.12l-.25-3.28a.13.13,0,0,1,.08-.12.67.67,0,0,1,.23-.1l.35-.07h12.68l.37.07a.82.82,0,0,1,.26.1.19.19,0,0,1,.11.12l.51,3.28a.15.15,0,0,1-.07.12.74.74,0,0,1-.24.11,2.14,2.14,0,0,1-.35.06H262.65Zm16.11,0a3.53,3.53,0,0,1-.46,0,2.5,2.5,0,0,1-.38-.06.85.85,0,0,1-.26-.11c-.07,0-.11-.08-.11-.12l-.55-3.28a.14.14,0,0,1,.07-.12.67.67,0,0,1,.23-.1l.35-.07a3.09,3.09,0,0,1,.43,0h11.8a3.38,3.38,0,0,1,.45,0,2.38,2.38,0,0,1,.37.06,1.17,1.17,0,0,1,.26.1q.1.06.12.12l.81,3.28a.14.14,0,0,1-.06.13.88.88,0,0,1-.22.1,1.36,1.36,0,0,1-.35.07,3.23,3.23,0,0,1-.44,0Zm16.09,0a3.38,3.38,0,0,1-.45,0,1.59,1.59,0,0,1-.38-.07.88.88,0,0,1-.27-.1.27.27,0,0,1-.13-.13l-.83-3.28a.11.11,0,0,1,0-.12.88.88,0,0,1,.22-.1,1.86,1.86,0,0,1,.34-.06,3.09,3.09,0,0,1,.43,0h12.25l.38.07a1.48,1.48,0,0,1,.27.1c.07,0,.12.08.13.12L308,251a.14.14,0,0,1,0,.13.51.51,0,0,1-.21.1l-.35.07h-12.5Zm16.11,0a3.53,3.53,0,0,1-.46,0l-.39-.07-.29-.1a.27.27,0,0,1-.13-.13l-1.13-3.28a.11.11,0,0,1,.05-.12.51.51,0,0,1,.21-.1,1.94,1.94,0,0,1,.33-.07h12.68l.39.07a1.33,1.33,0,0,1,.28.1.41.41,0,0,1,.14.12L324,251v.12a.56.56,0,0,1-.2.11,1.94,1.94,0,0,1-.33.07H311Zm16.09,0h-.45l-.4-.07a1,1,0,0,1-.29-.11.18.18,0,0,1-.14-.12l-1.43-3.28a.09.09,0,0,1,0-.12.5.5,0,0,1,.19-.1,1.94,1.94,0,0,1,.33-.07h12.68a1.78,1.78,0,0,1,.39.07,1.71,1.71,0,0,1,.3.09.37.37,0,0,1,.15.13l1.68,3.27a.09.09,0,0,1,0,.13h0a.42.42,0,0,1-.2.1,2,2,0,0,1-.33.08H327.05Zm15.73,0a3.53,3.53,0,0,1-.46,0,1.76,1.76,0,0,1-.4-.07,1.18,1.18,0,0,1-.3-.1.29.29,0,0,1-.16-.13l-1.74-3.34a.11.11,0,0,1,0-.13.51.51,0,0,1,.18-.09,1.3,1.3,0,0,1,.33-.07h20.68l.4.07a1.76,1.76,0,0,1,.3.1.66.66,0,0,1,.17.12L363.9,251a.11.11,0,0,1,0,.13.4.4,0,0,1-.18.1,1.65,1.65,0,0,1-.32.07,3.09,3.09,0,0,1-.43,0ZM136,247h-.42a1.63,1.63,0,0,1-.3-.07.4.4,0,0,1-.18-.1.13.13,0,0,1,0-.12l1.07-1.67a.39.39,0,0,1,.17-.11,1.76,1.76,0,0,1,.3-.1l.39-.07h13.69a1.65,1.65,0,0,1,.32.07.51.51,0,0,1,.18.09.09.09,0,0,1,0,.12l-.92,1.67a.48.48,0,0,1-.16.12,1,1,0,0,1-.29.1c-.12,0-.25,0-.39.06H136Zm16.84,0h-.42a1.08,1.08,0,0,1-.31-.07.51.51,0,0,1-.18-.09.09.09,0,0,1,0-.12l.91-1.67A.35.35,0,0,1,153,245a1.4,1.4,0,0,1,.29-.09l.39-.07h13.27a2.94,2.94,0,0,1,.42,0,1.8,1.8,0,0,1,.32.06.44.44,0,0,1,.19.1.13.13,0,0,1,0,.12l-.77,1.67a.41.41,0,0,1-.14.12,1.4,1.4,0,0,1-.29.09,2.66,2.66,0,0,1-.39.07H152.81Zm16.91,0h-.42A1.3,1.3,0,0,1,169,247a.72.72,0,0,1-.2-.09s-.05-.08,0-.12l.75-1.67a.41.41,0,0,1,.14-.12,1.33,1.33,0,0,1,.28-.1,2.5,2.5,0,0,1,.38-.06,3.23,3.23,0,0,1,.44,0h12.83a3.09,3.09,0,0,1,.43,0,1.65,1.65,0,0,1,.32.06.54.54,0,0,1,.2.1.09.09,0,0,1,0,.12l-.6,1.66a.28.28,0,0,1-.14.12.94.94,0,0,1-.28.1l-.38.07H169.72Zm16.84,0h-.43l-.33-.07a.68.68,0,0,1-.21-.1.09.09,0,0,1,0-.12l.59-1.66a.2.2,0,0,1,.13-.12,1.48,1.48,0,0,1,.27-.1l.38-.07h13.69l.34.07.21.09a.11.11,0,0,1,.05.12l-.45,1.67a.4.4,0,0,1-.12.12.82.82,0,0,1-.26.1L200,247H186.56Zm16.85,0H203a1.86,1.86,0,0,1-.34-.06.51.51,0,0,1-.21-.1s-.07-.08-.06-.12l.36-1.72a.25.25,0,0,1,.11-.12l.26-.09.37-.07h13.69l.34.06a.67.67,0,0,1,.23.1q.08.06.06.12l-.29,1.67a.22.22,0,0,1-.11.12l-.25.1a2.38,2.38,0,0,1-.37.06,3.23,3.23,0,0,1-.44,0Zm16.84,0h-.44a2,2,0,0,1-.34-.06.94.94,0,0,1-.23-.1c-.05,0-.08-.08-.07-.12l.28-1.67a.23.23,0,0,1,.1-.12,1.17,1.17,0,0,1,.26-.1l.36-.06a3.09,3.09,0,0,1,.43,0h12.83a3.09,3.09,0,0,1,.43,0,2.14,2.14,0,0,1,.35.06.94.94,0,0,1,.23.1.13.13,0,0,1,.08.12l-.14,1.67a.14.14,0,0,1-.09.12,1.06,1.06,0,0,1-.25.09l-.36.07H220.25Zm16.84,0h-.44l-.35-.07a1,1,0,0,1-.24-.1.15.15,0,0,1-.08-.11l.12-1.67a.16.16,0,0,1,.09-.12,1.09,1.09,0,0,1,.25-.1,2.14,2.14,0,0,1,.35-.06,3.23,3.23,0,0,1,.44,0h12.82a3.09,3.09,0,0,1,.43,0,2.25,2.25,0,0,1,.36.06,1,1,0,0,1,.24.1s.09.07.09.11v1.67a.14.14,0,0,1-.08.12,1,1,0,0,1-.24.1l-.35.07H237.09Zm16.83,0h-.44l-.35-.07a.72.72,0,0,1-.24-.1.23.23,0,0,1-.1-.12v-1.67a.12.12,0,0,1,.09-.11.67.67,0,0,1,.23-.1,2.29,2.29,0,0,1,.36-.07h13.58l.37.07a1.06,1.06,0,0,1,.25.09.23.23,0,0,1,.1.12l.19,1.67a.2.2,0,0,1-.08.12.67.67,0,0,1-.23.1,2,2,0,0,1-.35.06H253.92Zm16.8,0h-.44l-.36-.06a.77.77,0,0,1-.25-.1.25.25,0,0,1-.11-.12l-.21-1.67a.2.2,0,0,1,.08-.12.85.85,0,0,1,.22-.09l.35-.07h13.25a3.23,3.23,0,0,1,.44,0,2.25,2.25,0,0,1,.36.06,1.17,1.17,0,0,1,.26.1.25.25,0,0,1,.11.12l.36,1.67a.15.15,0,0,1-.07.12.85.85,0,0,1-.22.09,1.28,1.28,0,0,1-.34.07H270.72Zm16.84,0h-.44a1.51,1.51,0,0,1-.37-.07,1.14,1.14,0,0,1-.26-.09c-.07,0-.11-.08-.11-.12l-.38-1.67a.15.15,0,0,1,.07-.12.51.51,0,0,1,.21-.1,2,2,0,0,1,.34-.06,3.09,3.09,0,0,1,.43,0h12.82a3.23,3.23,0,0,1,.44,0,2.38,2.38,0,0,1,.37.06,1.48,1.48,0,0,1,.27.1.18.18,0,0,1,.12.12l.51,1.66a.09.09,0,0,1-.05.12h0a.51.51,0,0,1-.21.1,2.05,2.05,0,0,1-.34.07H287.56Zm16.84,0H304l-.38-.07a1.48,1.48,0,0,1-.27-.1.25.25,0,0,1-.13-.12l-.53-1.66a.11.11,0,0,1,.05-.12.68.68,0,0,1,.21-.1,1.91,1.91,0,0,1,.33-.06,2.94,2.94,0,0,1,.42,0h13.27l.38.07a1.48,1.48,0,0,1,.27.1.26.26,0,0,1,.14.11l.67,1.67v.12a.54.54,0,0,1-.2.1,1.94,1.94,0,0,1-.33.07H304.4Zm16.84,0h-.45a2.32,2.32,0,0,1-.38-.06,1.33,1.33,0,0,1-.28-.1.35.35,0,0,1-.15-.12l-.68-1.67a.11.11,0,0,1,0-.11.54.54,0,0,1,.2-.1l.32-.07h13.69l.39.07a1.31,1.31,0,0,1,.28.09.35.35,0,0,1,.15.12l.82,1.67v.12a.69.69,0,0,1-.19.1,1.91,1.91,0,0,1-.33.06H321.24Zm16.84,0h-.45a2.63,2.63,0,0,1-.39-.06l-.29-.1a.35.35,0,0,1-.15-.12l-.85-1.67a.09.09,0,0,1,0-.12.66.66,0,0,1,.19-.09,1.55,1.55,0,0,1,.31-.07h13.72a2.5,2.5,0,0,1,.38.06,1.76,1.76,0,0,1,.3.1.17.17,0,0,1,.15.12l1,1.67v.12a.51.51,0,0,1-.18.09l-.32.07H338.08Zm16.23,0H354l-.32-.05a1.13,1.13,0,0,1-.24-.08.38.38,0,0,1-.13-.09L352.19,245a.09.09,0,0,1,0-.1.55.55,0,0,1,.15-.08l.24-.05h6.81l.31.05.24.08a.38.38,0,0,1,.13.09l1.16,1.79a.09.09,0,0,1,0,.1.39.39,0,0,1-.14.08l-.25.05h-6.53Zm8.41-5.56H133.53a27.83,27.83,0,0,0-2.89.15,25,25,0,0,0-2.57.41,12.85,12.85,0,0,0-2,.62,2.66,2.66,0,0,0-1.11.76L84.63,299.92a1.3,1.3,0,0,0-.2,1.35,2.59,2.59,0,0,0,1.28,1.12,10,10,0,0,0,2.57.76,20.65,20.65,0,0,0,3.6.28h0l312.63-.07a21.79,21.79,0,0,0,3.61-.28,9.56,9.56,0,0,0,2.56-.76A2.57,2.57,0,0,0,412,301.2a1.3,1.3,0,0,0-.21-1.35l-40.53-56.48a2.66,2.66,0,0,0-1.11-.76,12.85,12.85,0,0,0-2-.62,25,25,0,0,0-2.57-.41,27.83,27.83,0,0,0-2.89-.15Z" transform="translate(0 0)"/><path class="cls-6" d="M302.35,273.43H194a11.38,11.38,0,0,0-1.31.08,6.19,6.19,0,0,0-1.12.23,2.9,2.9,0,0,0-.81.34.76.76,0,0,0-.38.41l-7.25,25.65a.55.55,0,0,0,.15.53,1.74,1.74,0,0,0,.69.44,6.14,6.14,0,0,0,1.12.29,10,10,0,0,0,1.45.11H309.92a10,10,0,0,0,1.45-.11,6.14,6.14,0,0,0,1.12-.29,1.91,1.91,0,0,0,.69-.43.57.57,0,0,0,.14-.53L306,274.5a.8.8,0,0,0-.37-.42,3.83,3.83,0,0,0-.81-.33,5.91,5.91,0,0,0-1.11-.23,11.69,11.69,0,0,0-1.32-.08Z" transform="translate(0 0)"/><path class="cls-11" d="M333.1,244.7H319.85l-.32.07a.54.54,0,0,0-.2.1.11.11,0,0,0,0,.11l.68,1.67a.35.35,0,0,0,.15.12,1.33,1.33,0,0,0,.28.1,2.32,2.32,0,0,0,.38.06h13.87a1.91,1.91,0,0,0,.33-.06.69.69,0,0,0,.19-.1s.05-.08,0-.12l-.82-1.67a.35.35,0,0,0-.15-.12,1.31,1.31,0,0,0-.28-.09l-.39-.07h-.47Z" transform="translate(0 0)"/><path class="cls-11" d="M316.48,244.7H303.23l-.33.06a.68.68,0,0,0-.21.1.11.11,0,0,0-.05.12l.53,1.66a.25.25,0,0,0,.13.12,1.48,1.48,0,0,0,.27.1l.38.07h13.87a1.94,1.94,0,0,0,.33-.07.54.54,0,0,0,.2-.1s.06-.08,0-.12l-.63-1.61a.26.26,0,0,0-.14-.11,1.48,1.48,0,0,0-.27-.1l-.38-.07h-.44Z" transform="translate(0 0)"/><path class="cls-11" d="M299.86,244.7H286.61a2,2,0,0,0-.34.06.51.51,0,0,0-.21.1s-.08.08-.07.12l.38,1.67s0,.08.11.12a1.14,1.14,0,0,0,.26.09,1.51,1.51,0,0,0,.37.07H301a2.05,2.05,0,0,0,.34-.07.51.51,0,0,0,.21-.1.09.09,0,0,0,.05-.12h0l-.51-1.66a.18.18,0,0,0-.12-.12,1.48,1.48,0,0,0-.27-.1,2.38,2.38,0,0,0-.37-.06h-.45Z" transform="translate(0 0)"/><path class="cls-11" d="M283.24,244.71H270l-.35.07a.85.85,0,0,0-.22.09.2.2,0,0,0-.08.12l.21,1.67a.25.25,0,0,0,.11.12.77.77,0,0,0,.25.1,2.25,2.25,0,0,0,.36.06h13.87a1.28,1.28,0,0,0,.34-.07.85.85,0,0,0,.22-.09.15.15,0,0,0,.07-.12l-.36-1.67a.25.25,0,0,0-.11-.12,1.17,1.17,0,0,0-.26-.1,2.25,2.25,0,0,0-.36-.06,3.23,3.23,0,0,0-.44,0Z" transform="translate(0 0)"/><path class="cls-11" d="M266.62,244.71H253.37a2.29,2.29,0,0,0-.36.07.67.67,0,0,0-.23.1c-.06,0-.09.07-.09.11v1.67a.23.23,0,0,0,.1.12.72.72,0,0,0,.24.1l.35.07h13.44a3.09,3.09,0,0,0,.43,0,2,2,0,0,0,.35-.06.67.67,0,0,0,.23-.1.2.2,0,0,0,.08-.12l-.19-1.67a.23.23,0,0,0-.1-.12,1.06,1.06,0,0,0-.25-.09l-.37-.07h-.38Z" transform="translate(0 0)"/><path class="cls-11" d="M250,244.71H237.18a3.23,3.23,0,0,0-.44,0,2.14,2.14,0,0,0-.35.06,1.09,1.09,0,0,0-.25.1.16.16,0,0,0-.09.12l-.12,1.67a.15.15,0,0,0,.08.11,1,1,0,0,0,.24.1l.35.07h13.88l.35-.07a1,1,0,0,0,.24-.1c.05,0,.09-.08.08-.12V245a.12.12,0,0,0-.09-.11,1,1,0,0,0-.24-.1,2.25,2.25,0,0,0-.36-.06,3.09,3.09,0,0,0-.43,0Z" transform="translate(0 0)"/><path class="cls-11" d="M233.38,244.71H220.55a3.09,3.09,0,0,0-.43,0l-.36.06a1.17,1.17,0,0,0-.26.1.23.23,0,0,0-.1.12l-.28,1.67a.15.15,0,0,0,.07.12.94.94,0,0,0,.23.1,2,2,0,0,0,.34.06h13.88l.36-.07a1.06,1.06,0,0,0,.25-.09q.09-.06.09-.12l.14-1.67a.13.13,0,0,0-.08-.12.94.94,0,0,0-.23-.1,2.14,2.14,0,0,0-.35-.06,3.09,3.09,0,0,0-.43,0Z" transform="translate(0 0)"/><path class="cls-11" d="M216.72,244.72H203.49l-.37.07-.26.09a.25.25,0,0,0-.11.12l-.44,1.67a.16.16,0,0,0,.06.12.51.51,0,0,0,.21.1,1.86,1.86,0,0,0,.34.06,3.23,3.23,0,0,0,.44,0h13a3.23,3.23,0,0,0,.44,0,2.38,2.38,0,0,0,.37-.06l.25-.1a.22.22,0,0,0,.11-.12l.29-1.67a.16.16,0,0,0-.06-.12.67.67,0,0,0-.23-.1l-.34-.06h-.47Z" transform="translate(0 0)"/><path class="cls-11" d="M200.14,244.72H186.87l-.38.07a1.48,1.48,0,0,0-.27.1.2.2,0,0,0-.13.12l-.59,1.66a.09.09,0,0,0,0,.12.68.68,0,0,0,.21.1l.33.07h13.87l.38-.07a.82.82,0,0,0,.26-.1q.1-.06.12-.12l.45-1.67a.11.11,0,0,0-.05-.12l-.21-.09-.34-.07h-.38Z" transform="translate(0 0)"/><path class="cls-11" d="M152.81,247ZM167,247Z" transform="translate(0 0)"/><path class="cls-11" d="M150.27,244.73H137l-.39.07a1.76,1.76,0,0,0-.3.1.39.39,0,0,0-.17.11l-1.07,1.67a.13.13,0,0,0,0,.12.4.4,0,0,0,.18.1,1.63,1.63,0,0,0,.3.07h13.87a.84.84,0,0,0,.39-.06,1,1,0,0,0,.29-.1.48.48,0,0,0,.16-.12l.92-1.67a.09.09,0,0,0,0-.12.51.51,0,0,0-.18-.09,1.65,1.65,0,0,0-.32-.07h-.4Z" transform="translate(0 0)"/><path class="cls-11" d="M337.13,247.36H324.9a1.94,1.94,0,0,0-.33.07.5.5,0,0,0-.19.1.09.09,0,0,0,0,.12l1.43,3.28a.67.67,0,0,0,.14.12,1,1,0,0,0,.29.11l.4.07h12.95a2,2,0,0,0,.33-.08.42.42,0,0,0,.2-.1.09.09,0,0,0,0-.13h0l-1.68-3.27a.37.37,0,0,0-.15-.13,1.71,1.71,0,0,0-.3-.09,1.78,1.78,0,0,0-.39-.07,3.38,3.38,0,0,0-.45,0Z" transform="translate(0 0)"/><path class="cls-11" d="M360.51,247.36H340.72a2.94,2.94,0,0,0-.42,0,1.3,1.3,0,0,0-.33.07.51.51,0,0,0-.18.09.11.11,0,0,0,0,.13l1.71,3.27a.29.29,0,0,0,.16.13,1.18,1.18,0,0,0,.3.1,1.76,1.76,0,0,0,.4.07h21.09a1.65,1.65,0,0,0,.32-.07.4.4,0,0,0,.18-.1.11.11,0,0,0,0-.13l-2.12-3.28a.66.66,0,0,0-.17-.12,1.76,1.76,0,0,0-.3-.1l-.4-.07h-.45Z" transform="translate(0 0)"/><path class="cls-11" d="M321.38,247.37H309.15a1.94,1.94,0,0,0-.33.07.51.51,0,0,0-.21.1.11.11,0,0,0-.05.12l1.13,3.28a.27.27,0,0,0,.13.13l.29.1.39.07h13a1.94,1.94,0,0,0,.33-.07.56.56,0,0,0,.2-.11s.06-.08,0-.12l-1.39-3.28a.41.41,0,0,0-.14-.12,1.33,1.33,0,0,0-.28-.1l-.39-.07h-.41Z" transform="translate(0 0)"/><path class="cls-11" d="M305.63,247.37H293.4a1.86,1.86,0,0,0-.34.06.88.88,0,0,0-.22.1.11.11,0,0,0,0,.12l.83,3.28a.27.27,0,0,0,.13.13.88.88,0,0,0,.27.1,1.59,1.59,0,0,0,.38.07,3.38,3.38,0,0,0,.45,0h12.06a3.23,3.23,0,0,0,.44,0l.35-.07a.51.51,0,0,0,.21-.1s.07-.08,0-.13l-1.1-3.28a.52.52,0,0,0-.13-.12,1.48,1.48,0,0,0-.27-.1l-.38-.07h-.45Z" transform="translate(0 0)"/><path class="cls-11" d="M289.88,247.37H277.65l-.35.07a.67.67,0,0,0-.23.1.14.14,0,0,0-.07.12l.55,3.28s0,.08.11.12a.85.85,0,0,0,.26.11,2.5,2.5,0,0,0,.38.06,3.53,3.53,0,0,0,.46,0h12.06a3.23,3.23,0,0,0,.44,0,1.36,1.36,0,0,0,.35-.07.88.88,0,0,0,.22-.1.14.14,0,0,0,.06-.13l-.81-3.28a.4.4,0,0,0-.12-.12,1.17,1.17,0,0,0-.26-.1,2.38,2.38,0,0,0-.37-.06Z" transform="translate(0 0)"/><path class="cls-11" d="M274.13,247.38H261.89l-.35.07a.67.67,0,0,0-.23.1.13.13,0,0,0-.08.12l.25,3.28a.17.17,0,0,0,.1.12,1.12,1.12,0,0,0,.25.11l.37.07h13a2.14,2.14,0,0,0,.35-.06.74.74,0,0,0,.24-.11.15.15,0,0,0,.07-.12l-.51-3.28a.19.19,0,0,0-.11-.12.82.82,0,0,0-.26-.1l-.37-.07h-.45Z" transform="translate(0 0)"/><path class="cls-11" d="M258.38,247.38H246.14l-.36.07a.72.72,0,0,0-.24.1.23.23,0,0,0-.1.12V251c0,.05,0,.09.09.13a1,1,0,0,0,.24.1l.36.07h12.93a2.29,2.29,0,0,0,.36-.07l.24-.1a.16.16,0,0,0,.08-.13l-.22-3.28a.14.14,0,0,0-.09-.12,1.09,1.09,0,0,0-.25-.1l-.36-.07Z" transform="translate(0 0)"/><path class="cls-11" d="M242.62,247.38H230.38a2.25,2.25,0,0,0-.36.06l-.25.1c-.06,0-.1.08-.1.13l-.34,3.27a.16.16,0,0,0,.08.13.67.67,0,0,0,.23.1,1.53,1.53,0,0,0,.36.07h13l.37-.07a1.09,1.09,0,0,0,.25-.1c.06,0,.09-.08.09-.13l.08-3.28a.14.14,0,0,0-.09-.12,1,1,0,0,0-.24-.1,2.29,2.29,0,0,0-.36-.07h-.44Z" transform="translate(0 0)"/><path class="cls-11" d="M226.88,247.38H214.63l-.37.07a.82.82,0,0,0-.26.1.18.18,0,0,0-.12.12l-.63,3.28a.14.14,0,0,0,.07.12.7.7,0,0,0,.23.11l.35.07h13a1.51,1.51,0,0,0,.37-.07.82.82,0,0,0,.26-.1.25.25,0,0,0,.11-.12l.36-3.28a.12.12,0,0,0-.07-.13.94.94,0,0,0-.23-.1,2.14,2.14,0,0,0-.35-.06h-.43Z" transform="translate(0 0)"/><path class="cls-11" d="M211.12,247.39H198.87l-.37.07a1.48,1.48,0,0,0-.27.1q-.1.06-.12.12l-.93,3.28a.14.14,0,0,0,.06.13.68.68,0,0,0,.21.1l.35.07a3.23,3.23,0,0,0,.44,0h12.52l.38-.07a1.28,1.28,0,0,0,.27-.11.18.18,0,0,0,.12-.12l.66-3.28a.14.14,0,0,0-.07-.12.62.62,0,0,0-.22-.1l-.35-.07Z" transform="translate(0 0)"/><path class="cls-11" d="M195.37,247.39H183.12a2.32,2.32,0,0,0-.38.06.94.94,0,0,0-.28.1.41.41,0,0,0-.14.12L181.11,251a.11.11,0,0,0,0,.13.51.51,0,0,0,.21.1,2.05,2.05,0,0,0,.34.07h13l.38-.07a.94.94,0,0,0,.28-.1.27.27,0,0,0,.13-.13l1-3.28a.11.11,0,0,0,0-.12.68.68,0,0,0-.21-.1l-.34-.07h-.43Z" transform="translate(0 0)"/><path class="cls-11" d="M179.61,247.39H167.36a.84.84,0,0,0-.39.06l-.28.1a.27.27,0,0,0-.15.13L165,251a.11.11,0,0,0,0,.13.44.44,0,0,0,.19.1,1.3,1.3,0,0,0,.33.07h13a1.76,1.76,0,0,0,.4-.07,1.42,1.42,0,0,0,.29-.1.29.29,0,0,0,.14-.13l1.24-3.28v-.12a.54.54,0,0,0-.2-.1,1.86,1.86,0,0,0-.34-.06h-.43Z" transform="translate(0 0)"/><path class="cls-11" d="M163.86,247.39H151.61l-.4.07a1.76,1.76,0,0,0-.3.1.35.35,0,0,0-.15.12L149,251v.12a.45.45,0,0,0,.19.11,1.94,1.94,0,0,0,.33.07h13l.39-.07a1.82,1.82,0,0,0,.3-.11.37.37,0,0,0,.15-.13l1.54-3.27a.11.11,0,0,0,0-.13.72.72,0,0,0-.2-.09,1.14,1.14,0,0,0-.32-.07h-.44Z" transform="translate(0 0)"/><path class="cls-11" d="M347.34,251.74H335.25a3.23,3.23,0,0,0-.44,0,1.94,1.94,0,0,0-.33.07.56.56,0,0,0-.2.11.09.09,0,0,0,0,.12l1.65,3.45a.29.29,0,0,0,.16.13,1.82,1.82,0,0,0,.3.11,1.85,1.85,0,0,0,.41.07h13.29a1.94,1.94,0,0,0,.33-.07.45.45,0,0,0,.19-.11.11.11,0,0,0,0-.13L348.72,252a.4.4,0,0,0-.16-.13,1.6,1.6,0,0,0-.31-.1l-.41-.07h-.5Z" transform="translate(0 0)"/><path class="cls-11" d="M363.32,251.74H351.23a3.23,3.23,0,0,0-.44,0,1.94,1.94,0,0,0-.33.07.44.44,0,0,0-.19.1.15.15,0,0,0,0,.13l2,3.45a.31.31,0,0,0,.17.13,1.63,1.63,0,0,0,.31.11l.42.07h13.28a1.94,1.94,0,0,0,.33-.07.42.42,0,0,0,.18-.11.12.12,0,0,0,0-.14L364.72,252a.37.37,0,0,0-.17-.13,1.7,1.7,0,0,0-.32-.1,1.85,1.85,0,0,0-.41-.07h-.5Z" transform="translate(0 0)"/><path class="cls-11" d="M331.22,251.75H318.67a2.05,2.05,0,0,0-.34.07.53.53,0,0,0-.21.11.11.11,0,0,0,0,.13l1.34,3.44a.32.32,0,0,0,.14.14,1.76,1.76,0,0,0,.3.1l.41.08h12.83a3.38,3.38,0,0,0,.45,0,1.28,1.28,0,0,0,.34-.07.56.56,0,0,0,.2-.11.11.11,0,0,0,0-.13L332.5,252a.41.41,0,0,0-.14-.12,1.45,1.45,0,0,0-.29-.11l-.4-.07h-.45Z" transform="translate(0 0)"/><path class="cls-11" d="M315.06,251.75H302.52a1.28,1.28,0,0,0-.34.07.62.62,0,0,0-.22.1.13.13,0,0,0,0,.13l1,3.45a.29.29,0,0,0,.14.13,1,1,0,0,0,.28.11l.39.07H317a2,2,0,0,0,.35-.08.51.51,0,0,0,.21-.1.15.15,0,0,0,.05-.14l-1.31-3.44a.29.29,0,0,0-.14-.13,1,1,0,0,0-.29-.1,1.78,1.78,0,0,0-.39-.07h-.43Z" transform="translate(0 0)"/><path class="cls-11" d="M298.92,251.75H286.38l-.35.07a.67.67,0,0,0-.23.1.14.14,0,0,0-.06.13l.72,3.45a.22.22,0,0,0,.12.13,1,1,0,0,0,.28.11,2.66,2.66,0,0,0,.39.07h13.29l.35-.07a.65.65,0,0,0,.22-.11c.05,0,.07-.09.05-.13l-1-3.45c0-.05-.05-.09-.12-.13a1.33,1.33,0,0,0-.28-.1,1.78,1.78,0,0,0-.39-.07Z" transform="translate(0 0)"/><path class="cls-11" d="M282.78,251.75H270.27l-.35.07a.74.74,0,0,0-.24.11c-.05,0-.08.08-.07.12l.41,3.45a.24.24,0,0,0,.11.13,1.28,1.28,0,0,0,.27.11l.38.08h12.84a3.38,3.38,0,0,0,.45,0,1.53,1.53,0,0,0,.36-.07.7.7,0,0,0,.23-.11.15.15,0,0,0,.07-.13l-.69-3.45a.37.37,0,0,0-.12-.13,1.48,1.48,0,0,0-.27-.1l-.38-.07h-.49Z" transform="translate(0 0)"/><path class="cls-11" d="M266.63,251.76H254.09a2.33,2.33,0,0,0-.36.08.72.72,0,0,0-.24.1c-.06,0-.09.08-.09.13l.1,3.44a.18.18,0,0,0,.1.14l.25.11.38.07h13.29a2.33,2.33,0,0,0,.36-.08.66.66,0,0,0,.24-.11c.06,0,.09-.08.08-.13l-.38-3.44a.16.16,0,0,0-.11-.13,1.12,1.12,0,0,0-.25-.11l-.38-.07Z" transform="translate(0 0)"/><path class="cls-11" d="M250.51,251.76H237.94a1.51,1.51,0,0,0-.37.07,1.09,1.09,0,0,0-.25.1.19.19,0,0,0-.1.13l-.2,3.45a.18.18,0,0,0,.09.13.66.66,0,0,0,.24.11,2.41,2.41,0,0,0,.37.07,3.53,3.53,0,0,0,.46,0h12.38a3.38,3.38,0,0,0,.45,0l.38-.07a1.12,1.12,0,0,0,.25-.11.19.19,0,0,0,.09-.14l-.08-3.44c0-.05,0-.09-.09-.13a.77.77,0,0,0-.25-.1,1.53,1.53,0,0,0-.36-.07Z" transform="translate(0 0)"/><path class="cls-11" d="M234.35,251.76H221.8l-.38.07a1.19,1.19,0,0,0-.26.11.22.22,0,0,0-.11.12l-.51,3.45a.12.12,0,0,0,.07.13.66.66,0,0,0,.24.11,1.53,1.53,0,0,0,.36.07,3.53,3.53,0,0,0,.46,0H234a3.53,3.53,0,0,0,.46,0l.38-.07a.85.85,0,0,0,.26-.11.19.19,0,0,0,.1-.13l.24-3.45a.22.22,0,0,0-.08-.13,1,1,0,0,0-.24-.1l-.37-.07Z" transform="translate(0 0)"/><path class="cls-11" d="M218.21,251.77H205.65l-.38.07a1,1,0,0,0-.28.11c-.06,0-.11.08-.12.13l-.81,3.44a.15.15,0,0,0,.06.14.62.62,0,0,0,.22.1,2.33,2.33,0,0,0,.36.08H218a1.78,1.78,0,0,0,.39-.07,1.53,1.53,0,0,0,.27-.11.24.24,0,0,0,.11-.13l.54-3.45a.11.11,0,0,0-.07-.12.7.7,0,0,0-.23-.11,2,2,0,0,0-.35-.07h-.44Z" transform="translate(0 0)"/><path class="cls-11" d="M202.06,251.77H190a3.53,3.53,0,0,0-.46,0,1.59,1.59,0,0,0-.38.07.94.94,0,0,0-.28.1.29.29,0,0,0-.14.13l-1.13,3.44a.16.16,0,0,0,.05.14.65.65,0,0,0,.22.11l.35.07h13.29a1.8,1.8,0,0,0,.39-.08.94.94,0,0,0,.28-.1.29.29,0,0,0,.13-.14l.85-3.44a.13.13,0,0,0-.06-.13.57.57,0,0,0-.22-.11l-.35-.07h-.44Z" transform="translate(0 0)"/><path class="cls-11" d="M185.92,251.77H173.81a3.47,3.47,0,0,0-.85.1l-.29.1a.37.37,0,0,0-.15.13l-1.43,3.45a.11.11,0,0,0,0,.13.56.56,0,0,0,.2.11,1.36,1.36,0,0,0,.35.07h13.29l.4-.07a1,1,0,0,0,.29-.11.32.32,0,0,0,.14-.14l1.15-3.44a.11.11,0,0,0,0-.13.68.68,0,0,0-.21-.1,1.28,1.28,0,0,0-.34-.07,3.23,3.23,0,0,0-.44,0Z" transform="translate(0 0)"/><path class="cls-11" d="M169.77,251.77H157.72a3.53,3.53,0,0,0-.46,0l-.4.07a1.82,1.82,0,0,0-.3.11.4.4,0,0,0-.16.13l-1.75,3.44a.11.11,0,0,0,0,.13.49.49,0,0,0,.2.11,1.87,1.87,0,0,0,.34.08h13.29a2.57,2.57,0,0,0,.4-.07,1.82,1.82,0,0,0,.3-.11.27.27,0,0,0,.15-.13l1.47-3.45a.11.11,0,0,0,0-.13l-.21-.1a1.86,1.86,0,0,0-.34-.07h-.48Z" transform="translate(0 0)"/><path class="cls-11" d="M153.33,251.78H133.06a1.85,1.85,0,0,0-.41.07,1.6,1.6,0,0,0-.31.1.38.38,0,0,0-.18.13l-2.2,3.44a.12.12,0,0,0,0,.14.42.42,0,0,0,.18.11,1.94,1.94,0,0,0,.33.07h21.16l.42-.08a1,1,0,0,0,.3-.11.29.29,0,0,0,.16-.13l1.79-3.44a.11.11,0,0,0,0-.13.45.45,0,0,0-.19-.11,1.94,1.94,0,0,0-.33-.07h-.45Z" transform="translate(0 0)"/><path class="cls-11" d="M336.72,256.35H324.35a3.38,3.38,0,0,0-.45,0,1.37,1.37,0,0,0-.35.08.43.43,0,0,0-.21.11.11.11,0,0,0,0,.13l1.48,3.63a.34.34,0,0,0,.15.14,1.15,1.15,0,0,0,.31.11l.41.08h13.64a1.28,1.28,0,0,0,.34-.07.45.45,0,0,0,.21-.12.12.12,0,0,0,0-.14l-1.76-3.62a.43.43,0,0,0-.16-.14l-.3-.11-.41-.07h-.53Z" transform="translate(0 0)"/><path class="cls-11" d="M366.27,256.35H341.2a3.38,3.38,0,0,0-.45,0l-.34.07a.56.56,0,0,0-.2.11.12.12,0,0,0,0,.14l1.8,3.62a.39.39,0,0,0,.17.14,1.75,1.75,0,0,0,.32.12,2,2,0,0,0,.42.07h26.59a1.3,1.3,0,0,0,.34-.08.42.42,0,0,0,.18-.11.1.1,0,0,0,0-.14l-2.31-3.6a.59.59,0,0,0-.18-.13,2.13,2.13,0,0,0-.33-.11l-.43-.08h-.47Z" transform="translate(0 0)"/><path class="cls-11" d="M320.19,256.36H307.34a1.36,1.36,0,0,0-.35.07.65.65,0,0,0-.22.11s-.07.09,0,.13l1.15,3.63a.32.32,0,0,0,.14.14,1.82,1.82,0,0,0,.3.11,1.77,1.77,0,0,0,.4.08h13.64l.35-.08a.65.65,0,0,0,.22-.11c0-.05.06-.09,0-.14l-1.45-3.63c0-.05-.07-.09-.14-.13a1,1,0,0,0-.3-.11l-.41-.08h-.43Z" transform="translate(0 0)"/><path class="cls-11" d="M303.64,256.36H290.78l-.36.07a.7.7,0,0,0-.23.11.13.13,0,0,0-.06.14l.83,3.62a.23.23,0,0,0,.13.14l.28.12.41.07h13.63a1.55,1.55,0,0,0,.36-.08.57.57,0,0,0,.22-.11.11.11,0,0,0,.05-.14l-1.11-3.63a.29.29,0,0,0-.14-.13,1.36,1.36,0,0,0-.28-.11,1.76,1.76,0,0,0-.4-.07Z" transform="translate(0 0)"/><path class="cls-11" d="M287.08,256.36H274.26a1.55,1.55,0,0,0-.36.08,1,1,0,0,0-.24.1s-.08.09-.07.14l.5,3.62a.24.24,0,0,0,.12.14.66.66,0,0,0,.27.12l.39.08h13.64a1.51,1.51,0,0,0,.37-.07,1,1,0,0,0,.23-.12.13.13,0,0,0,.07-.14l-.8-3.62a.24.24,0,0,0-.12-.14,1,1,0,0,0-.28-.11,2.66,2.66,0,0,0-.39-.07h-.51Z" transform="translate(0 0)"/><path class="cls-11" d="M270.53,256.36H257.67a2.21,2.21,0,0,0-.37.08.8.8,0,0,0-.25.11.18.18,0,0,0-.09.13l.18,3.63c0,.05,0,.09.1.14a.9.9,0,0,0,.27.11,2.7,2.7,0,0,0,.39.08h13.63a2.21,2.21,0,0,0,.37-.08.58.58,0,0,0,.25-.12.15.15,0,0,0,.07-.14l-.46-3.62a.24.24,0,0,0-.11-.13.81.81,0,0,0-.27-.11,1.61,1.61,0,0,0-.38-.08Z" transform="translate(0 0)"/><path class="cls-11" d="M254,256.37H241.11a1.59,1.59,0,0,0-.38.07.85.85,0,0,0-.26.11.17.17,0,0,0-.09.14l-.15,3.62a.17.17,0,0,0,.09.14,1.15,1.15,0,0,0,.25.12l.38.07h13.64a1.61,1.61,0,0,0,.38-.08.85.85,0,0,0,.26-.11.17.17,0,0,0,.09-.14l-.15-3.63a.17.17,0,0,0-.1-.13.85.85,0,0,0-.26-.11,2.33,2.33,0,0,0-.38-.08H254Z" transform="translate(0 0)"/><path class="cls-11" d="M237.42,256.37H224.55l-.38.07a1.53,1.53,0,0,0-.27.11.24.24,0,0,0-.12.14l-.46,3.62a.15.15,0,0,0,.07.14.58.58,0,0,0,.25.12,2.33,2.33,0,0,0,.38.08h13.16a3.69,3.69,0,0,0,.47,0,2.66,2.66,0,0,0,.39-.07,1.23,1.23,0,0,0,.26-.12.21.21,0,0,0,.1-.14l.18-3.62a.16.16,0,0,0-.08-.14,1.12,1.12,0,0,0-.25-.11l-.37-.07h-.46Z" transform="translate(0 0)"/><path class="cls-11" d="M220.86,256.37H208l-.39.08a1,1,0,0,0-.28.11c-.07,0-.11.08-.12.13l-.79,3.63a.15.15,0,0,0,.06.14.7.7,0,0,0,.23.11l.37.08a3.69,3.69,0,0,0,.47,0h13.17l.39-.08a.7.7,0,0,0,.28-.12.24.24,0,0,0,.12-.14l.5-3.62a.14.14,0,0,0-.08-.14.74.74,0,0,0-.24-.11,2.29,2.29,0,0,0-.36-.07Z" transform="translate(0 0)"/><path class="cls-11" d="M204.31,256.38H191.43a2.57,2.57,0,0,0-.4.07,1.45,1.45,0,0,0-.29.11.27.27,0,0,0-.13.13l-1.12,3.63a.12.12,0,0,0,0,.14,1,1,0,0,0,.23.12,2.29,2.29,0,0,0,.36.07,3.53,3.53,0,0,0,.46,0h12.7a3.84,3.84,0,0,0,.48,0,2.57,2.57,0,0,0,.4-.08,1.36,1.36,0,0,0,.28-.11c.07,0,.12-.09.13-.14l.83-3.63a.14.14,0,0,0-.06-.13.7.7,0,0,0-.23-.11,2.33,2.33,0,0,0-.36-.08h-.4Z" transform="translate(0 0)"/><path class="cls-11" d="M187.72,256.38H174.87l-.4.07a1.82,1.82,0,0,0-.3.11.29.29,0,0,0-.15.14l-1.44,3.62a.12.12,0,0,0,0,.14.55.55,0,0,0,.21.12,2.33,2.33,0,0,0,.36.08h13.63l.41-.07.3-.12a.32.32,0,0,0,.14-.14l1.15-3.62a.12.12,0,0,0,0-.14.65.65,0,0,0-.22-.11,1.36,1.36,0,0,0-.35-.07h-.49Z" transform="translate(0 0)"/><path class="cls-11" d="M171.19,256.38H158.31a1.86,1.86,0,0,0-.41.08,1.15,1.15,0,0,0-.31.11.29.29,0,0,0-.16.13l-1.77,3.63a.12.12,0,0,0,0,.14.53.53,0,0,0,.21.11,1.87,1.87,0,0,0,.34.08h13.64l.42-.08a.79.79,0,0,0,.3-.12.29.29,0,0,0,.15-.14l1.48-3.62a.12.12,0,0,0,0-.14.53.53,0,0,0-.21-.11,2.05,2.05,0,0,0-.34-.07h-.46Z" transform="translate(0 0)"/><path class="cls-11" d="M369.37,261.2H335.26a1.37,1.37,0,0,0-.35.08.53.53,0,0,0-.21.11c0,.05-.06.09,0,.14l1.74,3.82a.35.35,0,0,0,.17.15,1,1,0,0,0,.32.12,3.12,3.12,0,0,0,.44.09,4.17,4.17,0,0,0,.5,0h34.41a3.53,3.53,0,0,0,.46,0,2,2,0,0,0,.35-.08.62.62,0,0,0,.19-.12.11.11,0,0,0,0-.15l-2.47-3.82a.45.45,0,0,0-.19-.14l-.33-.12-.44-.08h-.48Z" transform="translate(0 0)"/><path class="cls-11" d="M331.5,261.2H318.31a2.33,2.33,0,0,0-.36.08.45.45,0,0,0-.21.12.12.12,0,0,0,0,.14l1.41,3.82a.36.36,0,0,0,.15.15,1.66,1.66,0,0,0,.31.12l.42.08a4.17,4.17,0,0,0,.5,0h13a3.69,3.69,0,0,0,.47,0,2.37,2.37,0,0,0,.36-.09.45.45,0,0,0,.21-.12.11.11,0,0,0,0-.15l-1.71-3.81a.36.36,0,0,0-.16-.14,1,1,0,0,0-.32-.12,3.1,3.1,0,0,0-.42-.08h-.46Z" transform="translate(0 0)"/><path class="cls-11" d="M314.53,261.21H301.32a1.53,1.53,0,0,0-.36.07,1,1,0,0,0-.23.12c-.05,0-.08.09-.06.14l1.06,3.82a.23.23,0,0,0,.14.15.79.79,0,0,0,.3.12,2.07,2.07,0,0,0,.42.08,4,4,0,0,0,.49,0h13a3.69,3.69,0,0,0,.47,0,2.33,2.33,0,0,0,.36-.08,1,1,0,0,0,.23-.12.14.14,0,0,0,0-.15l-1.37-3.82a.32.32,0,0,0-.14-.14l-.3-.12a1.76,1.76,0,0,0-.4-.07h-.4Z" transform="translate(0 0)"/><path class="cls-11" d="M297.52,261.21H284.33a2.21,2.21,0,0,0-.37.08.66.66,0,0,0-.24.11c-.05.05-.08.09-.07.14l.72,3.83a.25.25,0,0,0,.13.14.77.77,0,0,0,.28.12,1.86,1.86,0,0,0,.41.08,4,4,0,0,0,.49,0h13a3.69,3.69,0,0,0,.47,0,1.61,1.61,0,0,0,.38-.08.51.51,0,0,0,.23-.12.13.13,0,0,0,.06-.15l-1-3.82a.32.32,0,0,0-.14-.14,1,1,0,0,0-.29-.11,1.86,1.86,0,0,0-.41-.08h-.46Z" transform="translate(0 0)"/><path class="cls-11" d="M280.54,261.21h-13.2l-.38.08a.58.58,0,0,0-.25.12.14.14,0,0,0-.08.14l.38,3.82c0,.05,0,.1.11.15a1.39,1.39,0,0,0,.28.12l.4.08h14a1.61,1.61,0,0,0,.38-.08.55.55,0,0,0,.24-.12.16.16,0,0,0,.08-.14l-.69-3.83c0-.05,0-.09-.12-.14a1,1,0,0,0-.28-.11l-.4-.08a3.69,3.69,0,0,0-.47,0Z" transform="translate(0 0)"/><path class="cls-11" d="M263.54,261.21h-13.2a1.59,1.59,0,0,0-.38.07,1.23,1.23,0,0,0-.26.12.17.17,0,0,0-.09.14v3.82a.21.21,0,0,0,.09.15,1.31,1.31,0,0,0,.27.12l.39.08a4,4,0,0,0,.49,0h13a4,4,0,0,0,.49,0,2.7,2.7,0,0,0,.39-.08,1.15,1.15,0,0,0,.25-.12.21.21,0,0,0,.09-.15l-.35-3.82a.21.21,0,0,0-.1-.14.7.7,0,0,0-.28-.12,2.7,2.7,0,0,0-.39-.08h-.41Z" transform="translate(0 0)"/><path class="cls-11" d="M246.56,261.22H233.83a3.69,3.69,0,0,0-.47,0,1.77,1.77,0,0,0-.4.08,1.53,1.53,0,0,0-.27.11c-.06,0-.1.09-.1.15l-.31,3.81a.14.14,0,0,0,.08.15.68.68,0,0,0,.26.12l.39.09h14l.4-.08a1.23,1.23,0,0,0,.26-.12.23.23,0,0,0,.1-.15v-3.82a.21.21,0,0,0-.1-.14,1.23,1.23,0,0,0-.26-.12,1.59,1.59,0,0,0-.38-.07h-.43Z" transform="translate(0 0)"/><path class="cls-11" d="M229.56,261.22H216.84a3.84,3.84,0,0,0-.48,0l-.4.08a.77.77,0,0,0-.28.12.24.24,0,0,0-.12.14l-.64,3.82a.15.15,0,0,0,.07.15,1.08,1.08,0,0,0,.24.12l.38.08h14a2.59,2.59,0,0,0,.4-.09.77.77,0,0,0,.28-.12.26.26,0,0,0,.11-.14l.34-3.82a.19.19,0,0,0-.08-.15,1.12,1.12,0,0,0-.25-.11,1.8,1.8,0,0,0-.39-.08,3.69,3.69,0,0,0-.47,0Z" transform="translate(0 0)"/><path class="cls-11" d="M212.58,261.23H199.37a1.85,1.85,0,0,0-.41.07,1.48,1.48,0,0,0-.29.12.25.25,0,0,0-.13.14l-1,3.82a.17.17,0,0,0,.06.15,1,1,0,0,0,.23.12l.38.08h14l.41-.08.29-.12a.26.26,0,0,0,.12-.15l.68-3.82a.13.13,0,0,0-.07-.14.55.55,0,0,0-.24-.12,2.21,2.21,0,0,0-.37-.08h-.42Z" transform="translate(0 0)"/><path class="cls-11" d="M195.59,261.23H182.37a1.86,1.86,0,0,0-.41.08,1.82,1.82,0,0,0-.3.11.24.24,0,0,0-.14.14l-1.33,3.82a.11.11,0,0,0,0,.15.48.48,0,0,0,.22.12,1.53,1.53,0,0,0,.37.08h14l.41-.08a1,1,0,0,0,.3-.12.34.34,0,0,0,.14-.15l1-3.82a.12.12,0,0,0,0-.14,1,1,0,0,0-.23-.12,1.53,1.53,0,0,0-.36-.07h-.46Z" transform="translate(0 0)"/><path class="cls-11" d="M178.6,261.23H165.38l-.42.08a1.63,1.63,0,0,0-.31.11.36.36,0,0,0-.15.15l-1.68,3.82a.12.12,0,0,0,0,.14.45.45,0,0,0,.21.12,2.37,2.37,0,0,0,.36.09h14a3.15,3.15,0,0,0,.42-.09.91.91,0,0,0,.31-.12.28.28,0,0,0,.15-.15l1.37-3.82a.11.11,0,0,0-.05-.14.57.57,0,0,0-.22-.11,1.37,1.37,0,0,0-.35-.08h-.43Z" transform="translate(0 0)"/><path class="cls-11" d="M154.9,256.39H130.18a2,2,0,0,0-.42.07,1.21,1.21,0,0,0-.32.11.42.42,0,0,0-.18.14l-2.32,3.62a.12.12,0,0,0,0,.14.47.47,0,0,0,.19.12,1.3,1.3,0,0,0,.33.07H153.2l.42-.08a1.21,1.21,0,0,0,.32-.11c.08-.05.14-.09.16-.14l1.8-3.63a.11.11,0,0,0,0-.13.36.36,0,0,0-.2-.11,2,2,0,0,0-.33-.08h-.47Z" transform="translate(0 0)"/><path class="cls-11" d="M160.92,261.23H127.1a2.8,2.8,0,0,0-.77.19.52.52,0,0,0-.19.14l-2.42,3.87a.12.12,0,0,0,0,.14.39.39,0,0,0,.19.12,1,1,0,0,0,.34.08h35.1l.43-.08.32-.12a.39.39,0,0,0,.16-.15L162,261.6a.1.1,0,0,0,0-.14.37.37,0,0,0-.2-.12,2,2,0,0,0-.35-.08H161Z" transform="translate(0 0)"/><path class="cls-11" d="M137.38,266.35h-13a4.34,4.34,0,0,0-.51,0l-.45.08-.34.12a.5.5,0,0,0-.2.15l-2.57,4a.11.11,0,0,0,0,.15.41.41,0,0,0,.19.13,1.06,1.06,0,0,0,.35.09h14.34l.45-.08a1.4,1.4,0,0,0,.34-.13.42.42,0,0,0,.19-.16l2.27-4a.11.11,0,0,0,0-.15.82.82,0,0,0-.2-.12,2,2,0,0,0-.35-.08,3.69,3.69,0,0,0-.47,0Z" transform="translate(0 0)"/><path class="cls-11" d="M154.81,266.35h-13a4.17,4.17,0,0,0-.5,0l-.44.08-.34.12a.65.65,0,0,0-.18.15l-2.21,4a.12.12,0,0,0,0,.16.53.53,0,0,0,.2.13,2.33,2.33,0,0,0,.36.08H153l.45-.09a.93.93,0,0,0,.33-.12.37.37,0,0,0,.17-.16l1.9-4a.14.14,0,0,0,0-.15.45.45,0,0,0-.21-.12,1.37,1.37,0,0,0-.35-.08,3.69,3.69,0,0,0-.47,0Z" transform="translate(0 0)"/><path class="cls-11" d="M172.16,266.34h-13.5a3,3,0,0,0-.43.09.93.93,0,0,0-.33.12.41.41,0,0,0-.17.15l-1.85,4a.12.12,0,0,0,0,.16.45.45,0,0,0,.21.12,2.22,2.22,0,0,0,.37.09h14.33a3.12,3.12,0,0,0,.44-.09,1.27,1.27,0,0,0,.32-.13.33.33,0,0,0,.16-.15l1.54-4a.14.14,0,0,0,0-.15.61.61,0,0,0-.22-.13,2.33,2.33,0,0,0-.36-.08h-.51Z" transform="translate(0 0)"/><path class="cls-11" d="M193.47,266.34H176l-.42.08a1.2,1.2,0,0,0-.31.13.29.29,0,0,0-.16.15l-1.49,4a.11.11,0,0,0,0,.15.5.5,0,0,0,.22.13,2.22,2.22,0,0,0,.37.09h18.39L193,271a1.2,1.2,0,0,0,.31-.13c.08-.05.13-.1.14-.16l1.1-4a.17.17,0,0,0-.06-.15,1,1,0,0,0-.23-.12,2.21,2.21,0,0,0-.37-.08,3.84,3.84,0,0,0-.48,0Z" transform="translate(0 0)"/><path class="cls-11" d="M302.72,266.32H285.24a2.33,2.33,0,0,0-.38.08.9.9,0,0,0-.24.12.15.15,0,0,0-.07.15l.76,4a.24.24,0,0,0,.13.15,1,1,0,0,0,.3.13,3.1,3.1,0,0,0,.42.08,4.17,4.17,0,0,0,.5,0h17.46a4,4,0,0,0,.49,0A2.33,2.33,0,0,0,305,271a.76.76,0,0,0,.23-.13.14.14,0,0,0,.06-.16l-1.16-4a.4.4,0,0,0-.14-.15l-.3-.12-.42-.08h-.54Z" transform="translate(0 0)"/><path class="cls-11" d="M320.49,266.31H306.94a1.53,1.53,0,0,0-.37.08,1,1,0,0,0-.23.12.17.17,0,0,0,0,.15l1.2,4a.29.29,0,0,0,.15.16,1.69,1.69,0,0,0,.31.13l.44.08a4.17,4.17,0,0,0,.5,0h13.39a4,4,0,0,0,.49,0,2.22,2.22,0,0,0,.37-.09,1,1,0,0,0,.23-.12.15.15,0,0,0,0-.16l-1.53-4a.33.33,0,0,0-.16-.15.91.91,0,0,0-.31-.12l-.42-.09h-.46Z" transform="translate(0 0)"/><path class="cls-11" d="M281.42,266.32H197.24l-.41.08a1,1,0,0,0-.3.12c-.08,0-.13.1-.14.15l-1.06,4a.17.17,0,0,0,.06.16.7.7,0,0,0,.24.13,2.33,2.33,0,0,0,.38.08h86.73l.39-.09a.75.75,0,0,0,.25-.13c.06-.05.09-.1.08-.15l-.72-4a.27.27,0,0,0-.13-.15,1.48,1.48,0,0,0-.29-.12l-.41-.08Z" transform="translate(0 0)"/><path class="cls-11" d="M148.1,247.4H135.85l-.4.07a1.6,1.6,0,0,0-.31.1.48.48,0,0,0-.16.12l-2.1,3.28a.11.11,0,0,0,0,.13.4.4,0,0,0,.18.1,1.65,1.65,0,0,0,.32.07h13l.41-.07a1.82,1.82,0,0,0,.3-.11.66.66,0,0,0,.17-.12l1.83-3.28a.13.13,0,0,0,0-.12.44.44,0,0,0-.19-.1,1.65,1.65,0,0,0-.32-.07,3.09,3.09,0,0,0-.43,0Z" transform="translate(0 0)"/><path class="cls-11" d="M349.72,244.69H336.47a1.55,1.55,0,0,0-.31.07.66.66,0,0,0-.19.09.09.09,0,0,0,0,.12l.85,1.67a.35.35,0,0,0,.15.12l.29.1.39.06a3.38,3.38,0,0,0,.45,0h13a2.94,2.94,0,0,0,.42,0l.32-.07a.51.51,0,0,0,.18-.09s.05-.08,0-.12L351,245c0-.05-.07-.08-.15-.12a1.76,1.76,0,0,0-.3-.1,2.5,2.5,0,0,0-.38-.06h-.47Z" transform="translate(0 0)"/><path class="cls-11" d="M183.51,244.72H170.28a2.5,2.5,0,0,0-.38.06,1.33,1.33,0,0,0-.28.1.41.41,0,0,0-.14.12l-.75,1.67v.12a.72.72,0,0,0,.2.09,1.3,1.3,0,0,0,.33.07,2.94,2.94,0,0,0,.42,0h13.45l.38-.07a.94.94,0,0,0,.28-.1.28.28,0,0,0,.14-.12l.6-1.66a.09.09,0,0,0,0-.12.54.54,0,0,0-.2-.1,1.65,1.65,0,0,0-.32-.06h-.5Z" transform="translate(0 0)"/><path class="cls-11" d="M166.89,244.73H153.62l-.39.07a1.4,1.4,0,0,0-.29.09.35.35,0,0,0-.15.12l-.91,1.67a.09.09,0,0,0,0,.12.51.51,0,0,0,.18.09,1.08,1.08,0,0,0,.31.07h13.87a2.66,2.66,0,0,0,.39-.07,1.4,1.4,0,0,0,.29-.09.41.41,0,0,0,.14-.12l.77-1.67a.13.13,0,0,0,0-.12.44.44,0,0,0-.19-.1,1.8,1.8,0,0,0-.32-.06h-.43Z" transform="translate(0 0)"/><path class="cls-11" d="M359,244.69h-6.45l-.24.05a.55.55,0,0,0-.15.08.09.09,0,0,0,0,.1l1.07,1.79a.38.38,0,0,0,.13.09,1.13,1.13,0,0,0,.24.08l.32.05h6.89l.25-.05a.39.39,0,0,0,.14-.08.09.09,0,0,0,0-.1l-1.16-1.79a.38.38,0,0,0-.13-.09l-.24-.08-.31-.05Z" transform="translate(0 0)"/><path class="cls-11" d="M338.87,268.6H324.75l-.29.07a.4.4,0,0,0-.18.1.13.13,0,0,0,0,.12l.73,1.9a.37.37,0,0,0,.13.12,1.19,1.19,0,0,0,.26.11,2.14,2.14,0,0,0,.35.06h14.7a.86.86,0,0,0,.27-.05.42.42,0,0,0,.17-.1.09.09,0,0,0,0-.12l-.88-1.9a.25.25,0,0,0-.13-.12,1.48,1.48,0,0,0-.27-.1l-.35-.07h-.4Z" transform="translate(0 0)"/><path class="cls-11" d="M356.72,268.59H342.61a1.37,1.37,0,0,0-.29.07.42.42,0,0,0-.17.1.09.09,0,0,0,0,.12l.91,1.9a.37.37,0,0,0,.13.12,1.48,1.48,0,0,0,.27.1,2.29,2.29,0,0,0,.36.07H358.5a1.28,1.28,0,0,0,.28-.07.34.34,0,0,0,.16-.1.11.11,0,0,0,0-.13l-1.05-1.9a.35.35,0,0,0-.15-.12l-.27-.1a2.14,2.14,0,0,0-.35-.06h-.4Z" transform="translate(0 0)"/><path class="cls-11" d="M355.36,266.12H341.42a1.28,1.28,0,0,0-.28.07.4.4,0,0,0-.17.09.13.13,0,0,0,0,.12l.89,1.85a.2.2,0,0,0,.13.12.82.82,0,0,0,.26.1l.35.07h14.5a1.28,1.28,0,0,0,.28-.07.34.34,0,0,0,.16-.1.13.13,0,0,0,0-.12l-1-1.85a.44.44,0,0,0-.15-.12,1.17,1.17,0,0,0-.26-.1c-.11,0-.23-.05-.35-.06h-.42Z" transform="translate(0 0)"/><path class="cls-11" d="M374.36,268.59H360.25a1.27,1.27,0,0,0-.28.06.54.54,0,0,0-.16.1.13.13,0,0,0,0,.12l1.09,1.9a.27.27,0,0,0,.15.13,1.48,1.48,0,0,0,.27.1l.36.07h14.7a1.27,1.27,0,0,0,.28-.06.36.36,0,0,0,.16-.11.13.13,0,0,0,0-.12l-1.24-1.9a.44.44,0,0,0-.15-.12,1.33,1.33,0,0,0-.28-.1l-.36-.07h-.43Z" transform="translate(0 0)"/><path class="cls-20" d="M363.27,88.3v3.9H135V88.3c0-4.57,3.15-8.27,8.54-8.27H354.72C360.41,80,363.27,82.89,363.27,88.3Z" transform="translate(0 0)"/><circle class="cls-21" cx="334.07" cy="86.12" r="2.3"/><circle class="cls-3" cx="342.34" cy="86.12" r="2.3"/><path class="cls-22" d="M352.91,86.11a2.31,2.31,0,1,1-2.32-2.3h0A2.3,2.3,0,0,1,352.91,86.11Z" transform="translate(0 0)"/><path class="cls-23" d="M341.37,226.89l1.65.41,1.62-.41V214.15h10.44v-2.94H344.64v-9.53h-3.27v9.53H330.92v2.94h10.45Z" transform="translate(0 0)"/><path class="cls-23" d="M344.72,196.68c1.83.14,1.83,1.29,2.27,1.83.17.2-1.45.67-3.15.2-.54-.24-1-1.52-1.14-1.69a3.45,3.45,0,0,1,2-.34Zm7.3,2c1.69.47,2.77,0,2.94-.3s-.23-1.59-2.06-1.73a3.45,3.45,0,0,0-2,.34c.14.17.58,1.46,1.15,1.69Zm-15.47-2.06c1.79.17,1.82,1.28,2.26,1.82.17.2-1.45.68-3.14.2-.54-.23-1-1.52-1.15-1.69a3.93,3.93,0,0,1,2.05-.37Z" transform="translate(0 0)"/><path class="cls-24" d="M356.16,193.37a11.65,11.65,0,0,0-2-.31,16.89,16.89,0,0,0-2.13.11,13.84,13.84,0,0,1-3.28,0,2.5,2.5,0,0,0-1.15.17,1.21,1.21,0,0,1,.24-.21,4.61,4.61,0,0,1,1.28-1.25l.44-.23a2.61,2.61,0,0,0,2.37,0,2.42,2.42,0,0,0,2.77,0,1.72,1.72,0,0,0,.61-1.32,2.74,2.74,0,0,0-.07-.5,1.82,1.82,0,0,0-1.65-1.18,3.89,3.89,0,0,0-.21-.51,3.15,3.15,0,0,0,.24-.3c.07-.11.34-.51-.34-.17l-.16.1a2.34,2.34,0,0,0-.31-.24,3,3,0,0,0-2.33-.2,1.82,1.82,0,0,0-.71-1.08,2,2,0,0,0-1.45-.2.54.54,0,0,1,.1-.2c.24-.54.1-.68-.14-.44a7.84,7.84,0,0,1-.64.6,3.39,3.39,0,0,0-2.09-1.65,3.19,3.19,0,0,0-2.23.24,3.44,3.44,0,0,0-.14-.81c-.14-.44-.3-.11-.3,0s-.07.44-.11.71a3,3,0,0,0-2.23-.27,2.83,2.83,0,0,0-1.79,1.69,3.71,3.71,0,0,0-.81-.21,4.09,4.09,0,0,0-.67-.71c-.21-.16-.37-.1-.27.28a1.35,1.35,0,0,0,.13.37,2.19,2.19,0,0,0-2.13,1.89H335a2.08,2.08,0,0,0-1.49.92.14.14,0,0,1-.13-.11c-1.19-.77-.65.24-.17.68-1.59.23-2,1-2.13,1.42a.74.74,0,0,0-.05.33,1.65,1.65,0,0,0,.71,1.31,1.46,1.46,0,0,0,1.73,0,3,3,0,0,0,2.53-.34,11.8,11.8,0,0,0,1,1,4.67,4.67,0,0,0,1.52,1,3.14,3.14,0,0,0-1.52-.2,10.07,10.07,0,0,1-2.63-.1,14.32,14.32,0,0,0-2.27.06,12.42,12.42,0,0,0-1.48.27c-.37.07-.34.31.17.44a16.5,16.5,0,0,1,1.65.34,7.88,7.88,0,0,0,3.11.58,3.31,3.31,0,0,1,1.52.33,6.86,6.86,0,0,0,1.49.34v.71c-.14,0-.24.1-.37.14a4.7,4.7,0,0,0-4.06-.07,3.55,3.55,0,0,0-2.56-.24,1.53,1.53,0,0,0-1.14,1.85,1.48,1.48,0,0,0,.36.69,1.68,1.68,0,0,0,2.3.27,2,2,0,0,0,2.26,0,5.78,5.78,0,0,0,3.85,0,41.83,41.83,0,0,0,4.19,0,3.17,3.17,0,0,0,1.93.38c1.42,0,1.75-.24,2-.41a24.58,24.58,0,0,0,4.29.07,4.91,4.91,0,0,0,3.44-.07c.88-.61.44-1.82-.5-2.4a4.53,4.53,0,0,0-4.06,0,4.17,4.17,0,0,0-2.9-.38,1.85,1.85,0,0,0,0-.47v-.07a3.61,3.61,0,0,1,1.25-.37c.94-.06,3.14,0,4.22-.6.64-.34,2.81-.75,3.11-.92s.2-.34,0-.44Zm-8-1.29c-.78.95-1.19,1.26-1.32,1.26a3.57,3.57,0,0,0-.71-.88c.27-.31,1.52-.88,2.1-1.32l.44-.27a2.43,2.43,0,0,0,.54.47A5.52,5.52,0,0,0,348.16,192.08ZM336.72,190a2.43,2.43,0,0,0,2-.58c.71,1.12.71,2.1,1.38,2.81-.84-.81-1.58-.81-2.8-1.45-.2-.11-.51-.31-.61-.37s0-.21,0-.34S336.72,190.09,336.72,190Zm5.13,1.25s-.34-.51-.37-.58-.3-.37-.47-.61a7.49,7.49,0,0,0-.75-.84,3.43,3.43,0,0,0,1.62-.95.77.77,0,0,1,.21.14,3.57,3.57,0,0,1-.11.47c-.13.75-.13,1.32-.16,1.56a7.3,7.3,0,0,0,.05.84Zm-1-.68a7.85,7.85,0,0,1,.61,1,6.87,6.87,0,0,0-.94.47,12.67,12.67,0,0,1-1.09-2.33,1.45,1.45,0,0,1-.2-.34,3.83,3.83,0,0,0,.58.07,5.89,5.89,0,0,1,1,1.16Zm2.17,1.08a4.11,4.11,0,0,1,4.12,4.08v.05c0,.2,0,.41,0,.61a4.78,4.78,0,0,0-.75.27,4.13,4.13,0,0,0-3.95,0,4.8,4.8,0,0,0-3.45-.34,5.29,5.29,0,0,0-.07-.54,4.14,4.14,0,0,1,4.13-4.13Zm-.58-1.58a9.31,9.31,0,0,1,.2-1.39l.54.2a6.35,6.35,0,0,1,.31,2.37,4.18,4.18,0,0,0-1,0,4.91,4.91,0,0,1-.08-1.15Zm3.65.1c-.24.5-.1,1.15-.71,1.72a7.62,7.62,0,0,0-.91-.44,4.21,4.21,0,0,1,1.32-2.2,1.9,1.9,0,0,0,.54.44,4.11,4.11,0,0,0-.27.51Zm.63-.17a.22.22,0,0,1,.07-.14,4,4,0,0,0,1.42.14,3.17,3.17,0,0,0,.2.51c-.24.1-.94.6-2,1.18a2,2,0,0,0-.54.4,3.3,3.3,0,0,0,.34-.57A5.79,5.79,0,0,1,346.72,190Zm-2.53.61a4.22,4.22,0,0,0-.2.6,6.36,6.36,0,0,0-.27-2.21,3.28,3.28,0,0,0,1.62-.44.87.87,0,0,0,.17.33,5.35,5.35,0,0,0-1.32,1.8Zm-8.45.64a2.49,2.49,0,0,1-2.26.3.21.21,0,0,0-.24,0,1,1,0,0,1-1.25.07,1.13,1.13,0,0,1-.47-1.15c.14-.57.84-1,1.93-1.08a.28.28,0,0,0,.23-.2c.2-1,.85-1.12,1.45-1.25l.28-.07a.19.19,0,0,0,.17-.22.07.07,0,0,0,0-.05,1.73,1.73,0,0,1,.65-1.22,2.63,2.63,0,0,1,2.63,0,.23.23,0,0,0,.2,0,.32.32,0,0,0,.14-.14,2.34,2.34,0,0,1,1.55-1.58,2.54,2.54,0,0,1,2.27.44.27.27,0,0,0,.3,0,2.76,2.76,0,0,1,2.2-.38,3.29,3.29,0,0,1,2,1.76.32.32,0,0,0,.31.14,2.23,2.23,0,0,1,1.79,0,1.35,1.35,0,0,1,.57,1,.27.27,0,0,0,.1.17.37.37,0,0,0,.21,0,2.55,2.55,0,0,1,2.16.1,1.29,1.29,0,0,1,.64.94.23.23,0,0,0,.24.21,1.43,1.43,0,0,1,1.38.84,1.22,1.22,0,0,1-.37,1.28,2.09,2.09,0,0,1-2.29-.06.33.33,0,0,0-.24,0,2.1,2.1,0,0,1-2.06.06,2.31,2.31,0,0,1-1.22-1.52.21.21,0,0,0-.1-.17.23.23,0,0,0-.2,0c-.51.07-2.23.24-2.6-1.42a.39.39,0,0,0-.14-.17.32.32,0,0,0-.24.07,2.56,2.56,0,0,1-3.27-.17.27.27,0,0,0-.34,0c-1.22,1.22-2.2,1.15-2.67,1a.27.27,0,0,0-.31.1,2,2,0,0,1-2.16.67.21.21,0,0,0-.24,0,.28.28,0,0,0-.1.24,1.9,1.9,0,0,1-.61,1.52Zm.58.2a2.31,2.31,0,0,0,.3-.61l.14.11s.4.27.64.4a11.88,11.88,0,0,1,2.4,1.18,3.61,3.61,0,0,0-.68.91,6.13,6.13,0,0,1-2.82-2Zm.77,3.35a4.42,4.42,0,0,0-1.52-.34,7.71,7.71,0,0,1-3-.51c-.17-.06-1.59-.2-.2-.2a9.55,9.55,0,0,1,2,0,14.15,14.15,0,0,0,2.91.07,1.82,1.82,0,0,1,1.48.44,5.26,5.26,0,0,0-.17.88,5.57,5.57,0,0,1-1.45-.34Zm-3.51,3.78c-.64-.44-1-1.28-1.49-1.15-.17.07-.2.41,0,.41s.47.47.67.67c0,.24-.67.51-1.35.11a1.13,1.13,0,0,1-.37-1.53,1.74,1.74,0,0,1,1.62-.57c1.45,0,1.89,1.69,2.23,2a1.13,1.13,0,0,1-1.33.09Zm2.13,0c-.54-.24-1-1.52-1.15-1.69a3.45,3.45,0,0,1,2-.34c1.82.17,1.82,1.28,2.26,1.82.17.24-1.49.68-3.14.21Zm5.91.13a9.26,9.26,0,0,1-.88-1c-.17-.23-.51-.44-.67-.23s0,.27.16.34a3,3,0,0,1,.65.77.92.92,0,0,1-1.29-.06l0,0c-.24-.3-.71-1.18-1-1.55a4.41,4.41,0,0,1,3.14-.11c.84.41,1,1.29,1.32,1.73.06.3-.88.47-1.39.13Zm2.26,0c-.54-.24-1-1.52-1.14-1.69a3.45,3.45,0,0,1,2-.34c1.83.17,1.83,1.29,2.27,1.83.17.2-1.45.67-3.15.2Zm9.06-2.09c1.83.16,2.23,1.35,2.06,1.72s-1.25.78-2.94.3c-.54-.23-1-1.52-1.14-1.69a3.23,3.23,0,0,1,2-.33Zm-3.07.26c.84.41,1,1.29,1.31,1.73.07.3-.94.37-1.38.13a8.39,8.39,0,0,1-.88-1c-.17-.23-.47-.37-.61-.17s0,.28.17.34a2.21,2.21,0,0,1,.58.71c0,.17-.75.4-1.29-.13a10.55,10.55,0,0,1-.94-1.59,4.3,4.3,0,0,1,3-.05Zm4.86-3.14a13.73,13.73,0,0,0-2,.54,13.71,13.71,0,0,1-3.92.51c-.81,0-1,.34-1.35.3a3.19,3.19,0,0,0-.27-1.05,3.61,3.61,0,0,1,1.65-.33,20.45,20.45,0,0,0,3.32,0c.4-.06,1.89-.06,2.09-.06h.51c.39,0,.12,0,0,.06Z" transform="translate(0 0)"/><path class="cls-24" d="M333.49,190.23a1.3,1.3,0,0,0-1.11.34c-.34.37-.24.54-.31.6s-.3-.06-.3-.23c0-.85,1.05-1.19,1.65-1.12.24,0,.27.41.07.41" transform="translate(0 0)"/><path class="cls-24" d="M335.32,188.81a.92.92,0,0,0-1,.74c0,.14-.41,0-.34-.23a1.25,1.25,0,0,1,1.35-.92c.07,0,0,.41-.06.41" transform="translate(0 0)"/><path class="cls-24" d="M338.12,187.08a1.35,1.35,0,0,0-1.78.69,1.3,1.3,0,0,0-.11.43c0,.1-.41.07-.34-.24a1.77,1.77,0,0,1,2.07-1.41,2.07,2.07,0,0,1,.33.1c.13,0,0,.5-.17.43" transform="translate(0 0)"/><path class="cls-24" d="M342.38,185.94a1.66,1.66,0,0,0-2.31.34l0,0c-.21.23-.44-.17-.34-.31a1.9,1.9,0,0,1,2.6-.67,1.46,1.46,0,0,1,.24.17c.13.13,0,.54-.17.44" transform="translate(0 0)"/><path class="cls-24" d="M346.72,186.92c-.11.06-.14-.07-.21-.17a1.93,1.93,0,0,0-2.61-.79,1.89,1.89,0,0,0-.5.38c-.1.14-.33-.24-.2-.44a2.32,2.32,0,0,1,3.69.61c.1.2-.07.34-.17.41" transform="translate(0 0)"/><path class="cls-24" d="M349.37,187.86c-.27-.71-.77-.67-1.35-.47-.27.1-.2-.37-.1-.41.58-.2,1.56-.3,1.82.68,0,.27-.3.4-.37.2" transform="translate(0 0)"/><path class="cls-24" d="M352.48,189.35a1.39,1.39,0,0,0-1.85-.66l0,0c-.14.06-.27-.31,0-.44a1.58,1.58,0,0,1,2.15.6,2.56,2.56,0,0,1,.11.24c.07.2-.2.54-.34.24" transform="translate(0 0)"/><path class="cls-24" d="M354.44,190.73c0,.14-.4.17-.37,0,.07-.7-.3-.77-.77-.77-.17,0-.17-.37,0-.41a1,1,0,0,1,1.18.78.9.9,0,0,1,0,.4" transform="translate(0 0)"/><path class="cls-24" d="M342.11,194.42a.48.48,0,0,1-.56.38.49.49,0,0,1-.39-.45v-.06c0-.07-.27-.14-.58.06s-.33,0-.06-.2a1.58,1.58,0,0,1,.81-.44,3.37,3.37,0,0,1,1.22.17c.1,0,0,.57,0,.54a.84.84,0,0,0-.44-.07Z" transform="translate(0 0)"/><path class="cls-24" d="M343.46,195.87c-.07.24-.95.34-1.12,0-.06-.13-.13-.44,0-.37a2.8,2.8,0,0,0,1,0c.11,0,0-.2.11-.17s.13.3,0,.54" transform="translate(0 0)"/><path class="cls-24" d="M345.52,194.52c-.2-.17-.5-.27-.61-.17h0a.48.48,0,0,1-.43.51.49.49,0,0,1-.51-.44h0a1,1,0,0,0-.48,0s-.13-.51,0-.58c.41-.17,1.76-.23,2.13.51,0,.1,0,.21-.1.14" transform="translate(0 0)"/><path class="cls-24" d="M345.18,201.68h9.91v9h-9.91Zm-14.26,0h9.91v9h-9.91Zm9.94,25a16.66,16.66,0,0,1-6.62-3.24,8.87,8.87,0,0,1-1.46-1.72h2.54v.37h1.18v-.37h2.84v-4.8h-.62V216a9.53,9.53,0,0,1-2.06-.2,1.17,1.17,0,0,0-.75.2,1.29,1.29,0,0,0-.74-.2,9.53,9.53,0,0,1-2.06.2v.88h-.61v4.29A13.09,13.09,0,0,1,331,215v-.37h9.91Zm-7.27-5.91v-4.12a14.43,14.43,0,0,0,1.59-.21c.34,0,.44.17.44.17v4.16a1.53,1.53,0,0,0-1.15,0c-.64.26-.88,0-.88,0Zm2.64,0v-4.16s.1-.2.44-.17a10.65,10.65,0,0,0,1.59.21v4.12s-.24.17-.85,0a1.54,1.54,0,0,0-1.18,0Zm8.41,6.08-1.65.41-1.62-.44V214.15H330.92v-2.93h10.45v-9.54h3.27v9.54h10.41v2.93H344.64Zm9-5.57V217H353v-.88A9.53,9.53,0,0,1,351,216a1.17,1.17,0,0,0-.75.2,1.15,1.15,0,0,0-.74-.2,9.53,9.53,0,0,1-2.06.2V217h-.61v4.8h2.84v.37h1.18v-.37h2.57a10.17,10.17,0,0,1-1.49,1.72,16.77,16.77,0,0,1-6.66,3.21v-12h9.9v.41a13.89,13.89,0,0,1-1.51,6.22Zm-1.12-4.67v4.13s-.24.17-.84,0c-.81-.24-1.15,0-1.15,0v-4.16s.1-.2.44-.17c.61,0,1.21.24,1.55.17Zm-2.63,0v4.16a1.53,1.53,0,0,0-1.15,0c-.61.17-.85,0-.85,0v-4.13a14.39,14.39,0,0,0,1.59-.2c.34,0,.41.2.41.2ZM330.32,201v13.32c0,4.39,1.08,7.43,3.44,9.56s5.81,3.21,9.23,4c3.51-.84,6.89-1.86,9.22-4s3.45-5.17,3.45-9.56V201Z" transform="translate(0 0)"/><path class="cls-24" d="M338.72,204v-.88a9.53,9.53,0,0,1-2.06-.2,1.17,1.17,0,0,0-.75.2,1.29,1.29,0,0,0-.74-.2,9.53,9.53,0,0,1-2.06.2V204h-.61v4.8h2.84v.37h1.18v-.37h2.84V204Zm-3.14,3.82a1.53,1.53,0,0,0-1.15,0c-.61.17-.85,0-.85,0v-4.12a14.39,14.39,0,0,0,1.59-.2c.34,0,.44.17.44.17Zm2.63,0s-.24.17-.84,0a1.46,1.46,0,0,0-1.15,0v-4.16s.1-.2.44-.17a12.34,12.34,0,0,0,1.59.2Z" transform="translate(0 0)"/><path class="cls-24" d="M353,204v-.88a9.53,9.53,0,0,1-2.06-.2,1.17,1.17,0,0,0-.75.2,1.15,1.15,0,0,0-.74-.2,9.53,9.53,0,0,1-2.06.2V204h-.61v4.8h2.84v.37h1.18v-.37h2.84V204Zm-3.21,3.82a1.53,1.53,0,0,0-1.15,0c-.61.17-.84,0-.84,0v-4.12a13.92,13.92,0,0,0,1.58-.2c.34,0,.44.17.44.17v4.19Zm2.64,0s-.24.17-.85,0a1.46,1.46,0,0,0-1.15,0v-4.16a.42.42,0,0,1,.44-.17,12.34,12.34,0,0,0,1.59.2v4.09Z" transform="translate(0 0)"/><path class="cls-6" d="M345.18,226.72a16.77,16.77,0,0,0,6.66-3.21,8.73,8.73,0,0,0,1.49-1.72h-2.61v.37h-1.18v-.37h-2.82V217h.61v-.88a9.53,9.53,0,0,0,2.06-.2,1.15,1.15,0,0,1,.74.2,1.34,1.34,0,0,1,.75-.2,9.53,9.53,0,0,0,2.06.2V217h.61v4.33a13.61,13.61,0,0,0,1.49-6.22v-.41h-9.91v12Z" transform="translate(0 0)"/><path class="cls-6" d="M331,215a13.61,13.61,0,0,0,1.52,6.19v-4.29h.61v-.88a9.53,9.53,0,0,0,2.06-.2,1.15,1.15,0,0,1,.74.2,1.34,1.34,0,0,1,.75-.2,9.53,9.53,0,0,0,2.06.2v.88h.61v4.8h-2.85v.37h-1.18v-.37h-2.56a9.18,9.18,0,0,0,1.45,1.72,16.66,16.66,0,0,0,6.62,3.24v-12h-9.9Z" transform="translate(0 0)"/><path class="cls-6" d="M335.59,220.81v-4.16a.42.42,0,0,0-.44-.17,10.65,10.65,0,0,1-1.59.21v4.12s.23.17.84,0C335.25,220.57,335.59,220.81,335.59,220.81Z" transform="translate(0 0)"/><path class="cls-6" d="M332.55,194a7.71,7.71,0,0,0,3,.51,4.48,4.48,0,0,1,1.53.34,5.75,5.75,0,0,0,1.42.33,5.14,5.14,0,0,1,.16-.88,1.9,1.9,0,0,0-1.48-.44,11.8,11.8,0,0,1-2.91-.06,9.55,9.55,0,0,0-2,0c-1.39,0,.07.13.24.2Z" transform="translate(0 0)"/><path class="cls-6" d="M335.18,203.51a12.34,12.34,0,0,1-1.59.2v4.12s.24.17.85,0c.81-.23,1.14,0,1.14,0v-4.16A.43.43,0,0,0,335.18,203.51Z" transform="translate(0 0)"/><path class="cls-6" d="M350.83,203.51c-.34,0-.44.17-.44.17v4.15a1.53,1.53,0,0,1,1.15,0c.6.17.84,0,.84,0v-4.12a8.08,8.08,0,0,1-1.55-.17Z" transform="translate(0 0)"/><path class="cls-6" d="M355.09,201.68h-9.91v9h9.91Zm-1.49,7.17h-2.88v.37h-1.18v-.37h-2.82V204h.61v-.88a9.53,9.53,0,0,0,2.06-.2,1.15,1.15,0,0,1,.74.2,1.32,1.32,0,0,1,.75-.2,9.53,9.53,0,0,0,2.06.2V204h.61Z" transform="translate(0 0)"/><path class="cls-6" d="M350.49,216.65v4.16a1.53,1.53,0,0,1,1.15,0c.61.17.84,0,.84,0v-4.13a12.34,12.34,0,0,1-1.59-.2.43.43,0,0,0-.4.2Z" transform="translate(0 0)"/><path class="cls-6" d="M347.85,216.65v4.13s.24.17.85,0c.81-.24,1.14,0,1.14,0v-4.16s-.1-.2-.44-.17c-.6,0-1.17.24-1.55.17Z" transform="translate(0 0)"/><path class="cls-6" d="M349.34,203.51a12.34,12.34,0,0,1-1.59.2v4.12s.24.17.85,0c.81-.23,1.14,0,1.14,0v-4.16s-.06-.2-.4-.2Z" transform="translate(0 0)"/><path class="cls-6" d="M339.81,192.59a10.7,10.7,0,0,0-2.4-1.18,2.65,2.65,0,0,1-.64-.4.49.49,0,0,0-.14-.11,2.31,2.31,0,0,1-.3.61,6.21,6.21,0,0,0,2.84,2A2.82,2.82,0,0,1,339.81,192.59Z" transform="translate(0 0)"/><path class="cls-6" d="M339.23,189.35l.21.34a11.28,11.28,0,0,0,1.08,2.34,3.07,3.07,0,0,1,.94-.47,9.12,9.12,0,0,0-.6-1c-.58-.75-1-1.15-1-1.22A1.12,1.12,0,0,1,339.23,189.35Z" transform="translate(0 0)"/><path class="cls-6" d="M338.93,196.38c1.18-.27,2.77-.24,3.45.33a4.23,4.23,0,0,1,4,0,3.12,3.12,0,0,1,.74-.27c0-.2,0-.41,0-.61a4.11,4.11,0,0,0-4.08-4.12h0a4.14,4.14,0,0,0-4.12,4.12,2.17,2.17,0,0,0,.06.55Zm4.56-2.5c.41-.17,1.76-.24,2.13.5,0,.1,0,.2-.1.1s-.51-.27-.61-.16h0a.49.49,0,0,1-.38.57.48.48,0,0,1-.56-.38.49.49,0,0,1,0-.12h0a.94.94,0,0,0-.47,0C343.43,194.45,343.32,193.94,343.49,193.88Zm-.13,1.58c.1,0,0-.2.1-.16s.1.3,0,.53-.95.34-1.12,0c-.06-.13-.13-.44,0-.37a2.08,2.08,0,0,0,1.05,0Zm-2.84-1.28a1.65,1.65,0,0,1,.81-.44,3.37,3.37,0,0,1,1.22.17c.1,0,0,.57,0,.54a1,1,0,0,0-.44-.07h0a.48.48,0,0,1-.95-.07v-.07c0-.06-.27-.13-.58.07-.13.13-.33.07,0-.17Z" transform="translate(0 0)"/><path class="cls-6" d="M341.72,196.88a4.42,4.42,0,0,0-3.14.11c.27.37.77,1.28,1,1.55a.91.91,0,0,0,1.28.13l0,0a6.79,6.79,0,0,0-.65-.77c-.16-.11-.23-.24-.16-.34s.47,0,.67.23a6.43,6.43,0,0,0,.88,1c.51.34,1.49.17,1.39-.13-.34-.44-.48-1.35-1.32-1.73Z" transform="translate(0 0)"/><path class="cls-6" d="M332.72,196.58a2,2,0,0,0-1.62.57,1.14,1.14,0,0,0,.37,1.53c.68.4,1.28.13,1.35-.11-.17-.2-.51-.67-.67-.67s-.24-.34,0-.41c.44-.13.88.68,1.49,1.15s1.35.1,1.35-.07C334.54,198.27,334.13,196.62,332.72,196.58Z" transform="translate(0 0)"/><path class="cls-6" d="M343.46,191.31a6,6,0,0,0-.3-2.37,1.18,1.18,0,0,1-.54-.2,5.44,5.44,0,0,0-.21,1.39,3.91,3.91,0,0,0,.07,1.18A4,4,0,0,1,343.46,191.31Z" transform="translate(0 0)"/><path class="cls-6" d="M345.72,189.31a4.35,4.35,0,0,0-1.32,2.2c.31.13.61.28.91.44.61-.57.48-1.25.71-1.72.1-.2.2-.37.27-.48a3.47,3.47,0,0,1-.57-.44Z" transform="translate(0 0)"/><path class="cls-6" d="M347.79,198.54c.54.54,1.25.31,1.28.14a3.6,3.6,0,0,0-.58-.71c-.16-.1-.27-.24-.16-.34a.46.46,0,0,1,.6.17,4.93,4.93,0,0,0,.88,1c.48.27,1.49.17,1.39-.14-.27-.44-.47-1.35-1.32-1.72a4,4,0,0,0-3,.07A6.58,6.58,0,0,0,347.79,198.54Z" transform="translate(0 0)"/><path class="cls-6" d="M347.51,195.09a5.13,5.13,0,0,1,1.35-.3,13.71,13.71,0,0,0,3.92-.51,10.75,10.75,0,0,1,2-.54c.17,0,.44-.06.1-.13h-.5c-.17,0-1.69,0-2.1.07a20.32,20.32,0,0,1-3.31,0,4.42,4.42,0,0,0-1.65.34A7.56,7.56,0,0,1,347.51,195.09Z" transform="translate(0 0)"/><path class="cls-6" d="M336.33,189.48c.07-.06.17,0,.23,0a1.9,1.9,0,0,0,2.17-.67.26.26,0,0,1,.3-.11c.48.2,1.49.27,2.67-.94a.25.25,0,0,1,.34,0,2.57,2.57,0,0,0,3.28.17c.06,0,.17-.11.23-.07a.22.22,0,0,1,.14.17c.37,1.65,2.09,1.52,2.6,1.42h.2a.19.19,0,0,1,.1.17,2.47,2.47,0,0,0,1.22,1.52,2.13,2.13,0,0,0,2.06-.07.33.33,0,0,1,.24,0c.95.51,1.79.54,2.3.07a1.19,1.19,0,0,0,.37-1.29,1.41,1.41,0,0,0-1.39-.84.31.31,0,0,1-.24-.2,1.24,1.24,0,0,0-.64-.95,2.63,2.63,0,0,0-2.16-.1.23.23,0,0,1-.2,0,.23.23,0,0,1-.11-.17,1.26,1.26,0,0,0-.57-1,2.15,2.15,0,0,0-1.79,0,.28.28,0,0,1-.31-.13,3.11,3.11,0,0,0-2-1.76,2.72,2.72,0,0,0-2.2.37.24.24,0,0,1-.3,0,2.49,2.49,0,0,0-2.26-.44,2.43,2.43,0,0,0-1.56,1.59.15.15,0,0,1-.14.13.18.18,0,0,1-.2,0,2.63,2.63,0,0,0-2.63,0,1.64,1.64,0,0,0-.64,1.21.28.28,0,0,1-.17.28l-.27.06c-.61.14-1.25.27-1.46,1.25a.26.26,0,0,1-.23.2c-1.09.11-1.76.51-1.93,1.09a1.13,1.13,0,0,0,.47,1.14,1,1,0,0,0,1.25-.06c.07,0,.17-.07.24,0a2.49,2.49,0,0,0,2.26-.31,1.62,1.62,0,0,0,.51-1.59c.11,0,.14-.1.21-.17Zm16.93.07a1,1,0,0,1,1.18.78.9.9,0,0,1,0,.4c0,.14-.41.17-.37,0,.07-.71-.3-.78-.78-.78-.17,0-.17-.36,0-.4Zm-2.7-1.25a1.59,1.59,0,0,1,2.16.63,1.47,1.47,0,0,1,.1.22c.07.2-.2.5-.34.23a1.39,1.39,0,0,0-1.85-.66l0,0c-.13,0-.27-.31,0-.44ZM347.89,187c.57-.2,1.55-.3,1.82.68.07.27-.27.4-.34.2-.27-.71-.78-.68-1.35-.47-.3.1-.23-.37-.13-.41ZM343.22,186a2.32,2.32,0,0,1,3.29.06,2.15,2.15,0,0,1,.4.55.3.3,0,0,1-.14.4h0c-.11.06-.14-.07-.21-.17a1.93,1.93,0,0,0-2.61-.79,1.89,1.89,0,0,0-.5.38c-.1.09-.33-.29-.2-.49Zm-3.5.08a1.91,1.91,0,0,1,2.62-.66,1.07,1.07,0,0,1,.22.15c.14.1,0,.54-.17.44a1.66,1.66,0,0,0-2.32.36h0C339.84,186.58,339.64,186.17,339.72,186Zm-6.25,4.19a1.3,1.3,0,0,0-1.11.34c-.34.37-.24.54-.31.6s-.3-.06-.3-.23c0-.85,1.05-1.19,1.65-1.12.26,0,.32.42.09.42Zm1.83-1.42a.92.92,0,0,0-1,.74c0,.14-.41,0-.34-.23a1.25,1.25,0,0,1,1.35-.92c.14,0,.11.42,0,.42Zm.54-.85a1.76,1.76,0,0,1,2.05-1.41,1.91,1.91,0,0,1,.34.1c.21,0,.07.54-.13.44a1.35,1.35,0,0,0-1.78.69,1.19,1.19,0,0,0-.11.42c0,.08-.42,0-.35-.23Z" transform="translate(0 0)"/><path class="cls-6" d="M348.66,190.87c-.1.07-.37.2-.44.27-.57.44-1.82,1-2.09,1.32a3.16,3.16,0,0,1,.71.88c.13,0,.54-.31,1.31-1.25a4.09,4.09,0,0,1,1-.75A1.38,1.38,0,0,1,348.66,190.87Z" transform="translate(0 0)"/><path class="cls-6" d="M337.38,220.81c.61.17.84,0,.84,0v-4.12a14.43,14.43,0,0,1-1.59-.21.49.49,0,0,0-.44.17v4.16A1.54,1.54,0,0,1,337.38,220.81Z" transform="translate(0 0)"/><path class="cls-6" d="M340.86,201.68h-9.94v9h9.91Zm-1.52,7.17H336.5v.37h-1.18v-.37h-2.84V204h.61v-.88a9.53,9.53,0,0,0,2.06-.2,1.15,1.15,0,0,1,.74.2,1.32,1.32,0,0,1,.75-.2,9.53,9.53,0,0,0,2.06.2V204h.61v4.8Z" transform="translate(0 0)"/><path class="cls-6" d="M336.63,203.51a.49.49,0,0,0-.44.17v4.15a1.53,1.53,0,0,1,1.15,0c.61.17.85,0,.85,0v-4.12a9.08,9.08,0,0,1-1.56-.17Z" transform="translate(0 0)"/></g><g id="notebook_with_pen" data-name="notebook with pen"><polygon class="cls-15" points="516.75 299.87 515.34 309.68 443.54 313.48 444.69 303.16 516.75 299.87"/><polygon class="cls-15" points="444.69 303.16 443.54 313.48 399.39 276.63 400.21 267.55 444.69 303.16"/><polygon class="cls-25" points="465.01 266.27 516.75 299.87 444.69 303.16 400.21 267.55 465.01 266.27"/><path class="cls-17" d="M464.45,269.28A.5.5,0,0,1,464,269c-1.05-3-3.27-5-5.26-4.55a3.64,3.64,0,0,0-2.46,2.26.5.5,0,0,1-.64.29.51.51,0,0,1-.3-.64l0-.06a4.6,4.6,0,0,1,3.17-2.83c2.49-.5,5.19,1.69,6.4,5.2a.51.51,0,0,1-.31.64A.44.44,0,0,1,464.45,269.28Z" transform="translate(0 0)"/><path class="cls-17" d="M455.45,269.47a.51.51,0,0,1-.47-.34c-1.05-3-3.26-5-5.26-4.54a3.57,3.57,0,0,0-2.45,2.25.52.52,0,0,1-.67.25.5.5,0,0,1-.25-.66,4.6,4.6,0,0,1,3.17-2.82c2.5-.5,5.19,1.68,6.4,5.2a.49.49,0,0,1-.3.63h0A.45.45,0,0,1,455.45,269.47Z" transform="translate(0 0)"/><path class="cls-17" d="M446.45,269.65a.5.5,0,0,1-.47-.33c-1.05-3-3.26-5-5.26-4.55a3.6,3.6,0,0,0-2.45,2.26.51.51,0,0,1-.66.25.49.49,0,0,1-.26-.64v0a4.55,4.55,0,0,1,3.17-2.83c2.49-.49,5.18,1.69,6.4,5.2a.51.51,0,0,1-.31.64A.5.5,0,0,1,446.45,269.65Z" transform="translate(0 0)"/><path class="cls-17" d="M437.45,269.84a.51.51,0,0,1-.47-.34c-1.05-3-3.26-5-5.25-4.54a3.58,3.58,0,0,0-2.46,2.25.51.51,0,0,1-.66.25.49.49,0,0,1-.26-.64v0a4.54,4.54,0,0,1,3.17-2.82c2.5-.5,5.18,1.68,6.4,5.2a.5.5,0,0,1-.31.63A.47.47,0,0,1,437.45,269.84Z" transform="translate(0 0)"/><path class="cls-17" d="M428.46,270a.52.52,0,0,1-.48-.33c-1.05-3-3.26-5-5.25-4.55a3.62,3.62,0,0,0-2.46,2.26.5.5,0,0,1-.66.25.52.52,0,0,1-.25-.67,4.6,4.6,0,0,1,3.17-2.82c2.5-.5,5.19,1.68,6.4,5.2a.51.51,0,0,1-.31.64Z" transform="translate(0 0)"/><path class="cls-17" d="M419.46,270.21a.51.51,0,0,1-.47-.34c-1-3-3.27-4.95-5.26-4.54a3.62,3.62,0,0,0-2.46,2.25.51.51,0,0,1-.68.21.5.5,0,0,1-.23-.62,4.6,4.6,0,0,1,3.17-2.82c2.5-.5,5.19,1.68,6.4,5.19a.5.5,0,0,1-.3.64h0A.45.45,0,0,1,419.46,270.21Z" transform="translate(0 0)"/><path class="cls-17" d="M410.46,270.39a.5.5,0,0,1-.47-.33c-1-3-3.27-4.95-5.26-4.55a3.64,3.64,0,0,0-2.46,2.26.5.5,0,0,1-.66.25.52.52,0,0,1-.25-.67,4.62,4.62,0,0,1,3.17-2.82c2.5-.5,5.19,1.68,6.4,5.2a.51.51,0,0,1-.31.64Z" transform="translate(0 0)"/><path class="cls-26" d="M426.35,276.12a1.7,1.7,0,0,1-1.49-.74c-.3-.47-1-.71-2.11-.74a24.46,24.46,0,0,0-7.27.9.51.51,0,0,1-.63-.37.5.5,0,0,1,.36-.63,26.08,26.08,0,0,1,7.56-.93,3.45,3.45,0,0,1,2.93,1.2c.31.47,1.23.26,1.78-.07l.45-.3a3.6,3.6,0,0,1,2.3-.86c10.58.86,21.34,0,31.74-.83h.36a.52.52,0,0,1,.54.46.5.5,0,0,1-.46.54h-.36c-10.44.83-21.23,1.69-31.9.82a3,3,0,0,0-1.66.7l-.48.32A3.39,3.39,0,0,1,426.35,276.12Z" transform="translate(0 0)"/><path class="cls-26" d="M430.34,284.71a3.19,3.19,0,0,1-.75-.08,5.6,5.6,0,0,1-1.42-.56,5.8,5.8,0,0,0-.88-.4c-.58-.2-1.32-.14-1.56.3a.49.49,0,0,1-.65.23h0a.5.5,0,0,1-.22-.67,2.25,2.25,0,0,1,2.78-.8,9,9,0,0,1,1,.45,3.66,3.66,0,0,0,3.74.12,49.67,49.67,0,0,1,10.95-2.05h.2a7.8,7.8,0,0,0,2.4-.41,6.47,6.47,0,0,0,.91-.46,4.37,4.37,0,0,1,3.51-.66c.21,0,.41.06.62.07a12.8,12.8,0,0,0,3.27-.27l1-.17A48.54,48.54,0,0,1,462,279c3.36,0,6.54,0,9.58-1a.51.51,0,0,1,.64.32.5.5,0,0,1-.32.63c-5.34,1.79-11.13.59-16.57,1.4l-1,.16a13.45,13.45,0,0,1-3.52.29l-.67-.08a5.17,5.17,0,0,0-1.47-.06,4.79,4.79,0,0,0-1.41.61,9.4,9.4,0,0,1-1,.51,8.93,8.93,0,0,1-2.71.48h-.2a48.74,48.74,0,0,0-10.64,2A8.28,8.28,0,0,1,430.34,284.71Z" transform="translate(0 0)"/><path class="cls-26" d="M432,289.08h-.65a.5.5,0,0,1-.43-.56.49.49,0,0,1,.54-.43h0a7.93,7.93,0,0,0,2.74-.33,7.6,7.6,0,0,1,3.45-.27,8.39,8.39,0,0,1,.85.27c.23.08.46.16.69.22a7.32,7.32,0,0,0,2.64-.05c9.09-1.27,18.33-2.38,27.46-3.32,4.47-.46,8.19-.74,12,.06a.5.5,0,0,1,.38.6h0a.48.48,0,0,1-.58.38h0c-3.92-.84-8-.41-11.66,0-9.11.93-18.34,2-27.42,3.31a8,8,0,0,1-3,0,7.41,7.41,0,0,1-.8-.25,6.18,6.18,0,0,0-.73-.23,6.64,6.64,0,0,0-3,.27A10.44,10.44,0,0,1,432,289.08Z" transform="translate(0 0)"/><path class="cls-26" d="M441.72,298.86a.5.5,0,1,1-.08-1l9.77-1.58a.47.47,0,0,1,.41.11.49.49,0,0,1,.17.39v.71a7.28,7.28,0,0,0,3-.4l.35-.09a56.67,56.67,0,0,1,10.21-1.43l26.17-2.06a.5.5,0,0,1,.07,1l-26.07,2.06a56.15,56.15,0,0,0-10,1.41l-.35.09a7.17,7.17,0,0,1-3.92.31.53.53,0,0,1-.36-.49v-.52l-9.19,1.49Z" transform="translate(0 0)"/><polygon class="cls-27" points="446.45 286.81 456.98 283.45 453.1 292.73 446.45 286.81"/><path class="cls-5" d="M388,348.37a4.5,4.5,0,0,1-3-7.89l61.23-53.36a4.5,4.5,0,1,1,6.15,6.57l-.24.21-61.23,53.36A4.47,4.47,0,0,1,388,348.37Z" transform="translate(0 0)"/></g></svg>